<svg width="160" height="58" viewBox="0 0 160 58" fill="none" xmlns="http://www.w3.org/2000/svg">
<path d="M106.024 52.3165C105.887 52.7295 105.749 53.2802 105.611 53.5556C105.473 53.9686 105.198 54.2439 104.785 54.5193C104.51 54.7946 104.096 55.07 103.683 55.2077C103.27 55.3453 102.857 55.483 102.306 55.483C101.756 55.483 101.205 55.3453 100.792 55.2077C100.379 55.07 99.9657 54.7946 99.5526 54.3816C99.1395 53.9686 99.0018 53.5556 98.7264 53.0049C98.5887 52.4542 98.451 51.7658 98.451 50.9397C98.451 50.1137 98.5887 49.563 98.7264 48.8746C98.8641 48.3239 99.1395 47.7732 99.5526 47.4979C99.828 47.0848 100.241 46.8095 100.792 46.5341C101.343 46.2588 101.756 46.2588 102.444 46.2588C102.995 46.2588 103.408 46.3965 103.821 46.5341C104.234 46.6718 104.647 46.9472 104.923 47.2225C105.198 47.4979 105.473 47.7732 105.611 48.1862C105.749 48.5993 105.887 49.0123 105.887 49.4253H103.959C103.821 49.0123 103.546 48.5993 103.27 48.3239C102.995 48.0486 102.582 47.9109 102.169 47.9109C101.48 47.9109 100.93 48.1862 100.516 48.7369C100.103 49.2876 99.9657 49.976 99.9657 51.0774C99.9657 52.1788 100.103 52.7295 100.516 53.4179C100.792 53.9686 101.343 54.2439 102.031 54.2439C102.582 54.2439 102.995 54.1063 103.27 53.8309C103.546 53.5556 103.821 53.1425 103.959 52.5918H106.024V52.3165Z" fill="#5CABFF"/>
<path d="M109.604 55.4829C109.053 55.4829 108.64 55.3452 108.227 55.2075C107.814 55.0698 107.539 54.7945 107.263 54.5191C106.988 54.2438 106.713 53.8308 106.575 53.4177C106.437 53.0047 106.3 52.5917 106.3 52.041C106.3 51.4903 106.437 51.0773 106.575 50.6642C106.713 50.2512 106.988 49.9759 107.263 49.5628C107.539 49.2875 107.814 49.0121 108.227 48.8745C108.64 48.7368 109.053 48.5991 109.604 48.5991C110.155 48.5991 110.568 48.7368 110.981 48.8745C111.394 49.0121 111.67 49.2875 111.945 49.5628C112.22 49.8382 112.496 50.2512 112.633 50.5266C112.771 50.9396 112.909 51.3526 112.909 51.9033C112.909 52.454 112.771 52.867 112.633 53.2801C112.496 53.6931 112.22 53.9684 111.945 54.2438C111.67 54.5191 111.394 54.7945 110.981 54.9322C110.43 55.4829 110.017 55.4829 109.604 55.4829ZM109.604 53.9684C110.568 53.9684 111.119 53.2801 111.119 51.9033C111.119 50.6642 110.568 49.8382 109.604 49.8382C108.64 49.8382 108.09 50.5266 108.09 51.9033C107.952 53.4177 108.503 53.9684 109.604 53.9684Z" fill="#5CABFF"/>
<path d="M117.591 55.3455V51.4906C117.591 51.0775 117.453 50.6645 117.315 50.5268C117.178 50.3892 116.902 50.2515 116.489 50.2515C115.663 50.2515 115.25 50.6645 115.25 51.6282V55.3455H113.598V48.8747H115.112V49.8385C115.25 49.4254 115.525 49.1501 115.938 49.0124C116.214 48.8747 116.627 48.7371 117.178 48.7371C117.453 48.7371 117.728 48.7371 118.004 48.8747C118.279 49.0124 118.417 49.1501 118.692 49.2878C118.83 49.4254 118.968 49.7008 119.105 49.9761C119.243 50.2515 119.243 50.5268 119.243 50.8022V55.2078L117.591 55.3455Z" fill="#5CABFF"/>
<path d="M123.787 50.9399H125.301V52.8673C125.301 53.1427 125.301 53.5557 125.164 53.831C125.026 54.1064 124.888 54.3817 124.751 54.6571C124.613 54.9324 124.337 55.0701 123.924 55.2078C123.649 55.3454 123.236 55.3455 122.823 55.3455C122.41 55.3455 121.997 55.3454 121.721 55.2078C121.446 55.0701 121.171 54.9324 120.895 54.6571C120.757 54.3817 120.482 54.1064 120.482 53.831C120.344 53.5557 120.344 53.1427 120.344 52.8673V47.085H121.997V48.7371H125.577V49.8385H121.997V52.592C121.997 53.005 122.134 53.2803 122.272 53.5557C122.41 53.831 122.685 53.831 122.961 53.831C123.236 53.831 123.511 53.6934 123.649 53.5557C123.787 53.2803 123.924 53.005 123.924 52.592V50.9399H123.787Z" fill="#5CABFF"/>
<path d="M125.99 48.1863V46.6719H127.642V48.1863H125.99ZM125.99 55.3454V48.8747H127.642V55.3454H125.99Z" fill="#5CABFF"/>
<path d="M132.599 55.3455V51.4906C132.599 51.0775 132.461 50.6645 132.324 50.5268C132.186 50.3892 131.911 50.2515 131.498 50.2515C130.671 50.2515 130.258 50.6645 130.258 51.6282V55.3455H128.606V48.8747H130.121V49.8385C130.258 49.4254 130.534 49.1501 130.947 49.0124C131.222 48.8747 131.635 48.7371 132.186 48.7371C132.461 48.7371 132.737 48.7371 133.012 48.8747C133.288 49.0124 133.425 49.1501 133.701 49.2878C133.838 49.4254 133.976 49.7008 134.114 49.9761C134.252 50.2515 134.252 50.5268 134.252 50.8022V55.2078L132.599 55.3455Z" fill="#5CABFF"/>
<path d="M136.592 52.592C136.592 53.005 136.73 53.418 137.005 53.6934C137.281 53.9687 137.556 54.1064 137.969 54.1064C138.245 54.1064 138.52 54.1064 138.658 53.9687C138.795 53.831 138.933 53.6934 139.071 53.418H140.723C140.585 54.1064 140.172 54.5194 139.759 54.9324C139.346 55.3455 138.658 55.4831 138.107 55.4831C135.904 55.4831 134.802 54.3817 134.802 51.9036C134.802 51.4906 134.802 50.9399 134.94 50.6645C135.078 50.2515 135.215 49.9761 135.491 49.7008C135.766 49.4254 136.042 49.1501 136.455 49.0124C136.868 48.8747 137.281 48.7371 137.694 48.7371C138.658 48.7371 139.346 49.0124 140.035 49.7008C140.585 50.2515 140.723 51.2152 140.723 52.592H136.592ZM139.346 51.4906C139.346 51.2152 139.346 51.0775 139.209 50.9399C139.071 50.8022 139.071 50.6645 138.933 50.5268C138.795 50.3892 138.658 50.3892 138.52 50.2515C138.382 50.2515 138.245 50.1138 138.107 50.1138C137.832 50.1138 137.556 50.2515 137.281 50.5268C137.005 50.8022 136.868 51.0775 136.868 51.4906H139.346Z" fill="#5CABFF"/>
<path d="M145.818 55.3455V51.4906C145.818 51.0775 145.68 50.6645 145.542 50.5268C145.405 50.3892 145.129 50.2515 144.716 50.2515C143.89 50.2515 143.477 50.6645 143.477 51.6282V55.3455H141.825V48.8747H143.339V49.8385C143.477 49.4254 143.752 49.1501 144.165 49.0124C144.441 48.8747 144.854 48.7371 145.405 48.7371C145.68 48.7371 145.956 48.7371 146.231 48.8747C146.506 49.0124 146.644 49.1501 146.919 49.2878C147.057 49.4254 147.195 49.7008 147.332 49.9761C147.47 50.2515 147.47 50.5268 147.47 50.8022V55.2078L145.818 55.3455Z" fill="#5CABFF"/>
<path d="M151.876 50.9399H153.391V52.8673C153.391 53.1427 153.391 53.5557 153.253 53.831C153.115 54.1064 152.978 54.3817 152.84 54.6571C152.702 54.9324 152.427 55.0701 152.014 55.2078C151.738 55.3454 151.325 55.3455 150.912 55.3455C150.499 55.3455 150.086 55.3454 149.811 55.2078C149.535 55.0701 149.26 54.9324 148.985 54.6571C148.847 54.3817 148.572 54.1064 148.572 53.831C148.434 53.5557 148.434 53.1427 148.434 52.8673V47.085H150.086V48.7371H153.666V49.8385H150.086V52.592C150.086 53.005 150.224 53.2803 150.362 53.5557C150.499 53.831 150.775 53.831 151.05 53.831C151.325 53.831 151.601 53.6934 151.738 53.5557C151.876 53.2803 152.014 53.005 152.014 52.592V50.9399H151.876Z" fill="#5CABFF"/>
<path d="M158.072 50.8022C158.072 50.5269 157.935 50.2515 157.797 50.1138C157.659 49.9762 157.384 49.9762 156.971 49.9762C156.696 49.9762 156.42 49.9762 156.282 50.1138C156.145 50.2515 156.007 50.3892 156.007 50.5269C156.007 50.6645 156.145 50.8022 156.282 50.9399C156.42 51.0776 156.696 51.0776 157.109 51.2152C157.522 51.3529 157.797 51.3529 158.072 51.4906C158.348 51.6283 158.623 51.6283 158.899 51.7659C159.174 51.9036 159.449 52.0413 159.725 52.3166C159.862 52.592 160 52.8673 160 53.2804C160 53.9687 159.725 54.3817 159.312 54.7948C158.899 55.2078 158.21 55.3455 157.109 55.3455C156.145 55.3455 155.456 55.2078 154.768 54.7948C154.217 54.3817 153.942 53.8311 153.942 53.2804H155.594C155.594 53.5557 155.732 53.8311 155.869 53.9687C156.145 54.1064 156.42 54.2441 156.833 54.2441C157.109 54.2441 157.384 54.2441 157.659 54.1064C157.935 53.9687 157.935 53.8311 157.935 53.5557C157.935 53.2804 157.797 53.1427 157.659 53.1427C157.522 53.005 157.246 53.005 156.971 52.8673C156.42 52.7297 156.007 52.592 155.732 52.592C155.456 52.4543 155.181 52.3166 154.906 52.179C154.63 52.0413 154.355 51.7659 154.355 51.4906C154.217 51.2152 154.217 50.9399 154.217 50.6645C154.217 50.3892 154.217 50.1138 154.355 49.9762C154.492 49.7008 154.63 49.5631 154.768 49.4255C155.043 49.2878 155.181 49.1501 155.594 49.0124C155.869 48.8748 156.282 48.8748 156.833 48.8748C157.797 48.8748 158.348 49.0124 158.899 49.4255C159.312 49.8385 159.587 50.2515 159.587 50.9399H157.935V50.8022H158.072Z" fill="#5CABFF"/>
<path d="M85.3701 45.8457C86.747 45.708 87.4355 45.295 88.124 44.882C88.8124 44.469 89.5009 44.0559 91.1532 43.7806C91.704 43.7806 92.1171 43.6429 92.3925 43.7806C91.2909 43.0922 89.914 42.6792 88.537 42.6792C86.0586 42.6792 83.9931 43.7806 82.6162 45.708C83.3047 45.8457 83.9931 45.9834 85.3701 45.8457Z" fill="#5CABFF"/>
<path d="M86.0585 48.3238C87.2978 48.4615 87.9863 48.1861 88.6747 48.0485C89.3632 47.7731 90.0517 47.4978 91.5663 47.6354C93.0809 47.7731 93.7694 48.1861 94.3202 48.5992C94.7332 48.8745 95.1463 49.1499 95.8348 49.2875C95.6971 47.3601 94.8709 45.8457 93.6317 44.7443C92.9432 44.6066 92.3924 44.4689 91.0155 44.6066C89.6386 44.7443 88.9501 45.1573 88.2616 45.5703C87.5732 45.9833 86.8847 46.3964 85.2324 46.6717C84.8193 46.6717 84.5439 46.6717 84.2685 46.6717C83.4424 46.6717 82.7539 46.534 82.0654 46.2587H81.9277C81.9277 46.3964 81.79 46.534 81.79 46.534C82.4785 46.6717 83.0293 47.0847 83.4424 47.3601C84.2685 47.9108 84.8193 48.1861 86.0585 48.3238Z" fill="#5CABFF"/>
<path d="M85.3701 52.3167C86.747 52.179 87.4355 51.766 88.1239 51.3529C88.8124 50.9399 89.5009 50.5269 91.1532 50.2515C92.6678 50.1139 93.494 50.2515 94.3202 50.5269C94.7332 50.6646 95.284 50.8022 95.8348 50.8022C95.8348 50.5269 95.8348 50.3892 95.8348 50.1139C95.0086 49.9762 94.4578 49.5632 93.7694 49.2878C93.2186 48.8748 92.6678 48.5994 91.2909 48.4618C90.0517 48.3241 89.3632 48.5994 88.6747 48.7371C87.9862 49.0125 87.2978 49.2878 85.7831 49.1501C84.2685 49.0125 83.58 48.5994 83.0293 48.1864C82.6162 47.9111 82.2031 47.6357 81.5146 47.498C81.377 48.1864 81.2393 49.0125 81.2393 49.8385C81.2393 50.3892 81.377 51.0776 81.5146 51.766C81.9277 51.9036 82.3408 51.9036 82.6162 52.0413C83.3047 52.3167 83.9931 52.4543 85.3701 52.3167Z" fill="#5CABFF"/>
<path d="M88.6749 55.0702C87.9864 55.3455 87.2979 55.6209 85.7833 55.4832C84.2687 55.3455 83.5802 54.9325 83.0294 54.5195C82.754 54.3818 82.6163 54.2441 82.3409 54.1064C83.5802 56.1716 85.921 57.4106 88.5372 57.4106C90.4649 57.4106 92.1172 56.7223 93.3564 55.4832C92.8057 55.2078 92.3926 54.9325 91.1533 54.7948C90.0518 54.5195 89.3633 54.7948 88.6749 55.0702Z" fill="#5CABFF"/>
<path d="M93.9069 51.3528C93.2185 51.0774 92.53 50.9398 91.0154 51.0774C89.6384 51.2151 88.95 51.6281 88.2615 52.0412C87.573 52.4542 86.8846 52.8672 85.2323 53.1426C84.8192 53.1426 84.5438 53.1426 84.2684 53.1426C83.4422 53.1426 82.7538 53.0049 82.0653 52.7295C81.7899 52.7295 81.6522 52.5919 81.3768 52.5919C81.3768 52.7295 81.5145 52.8672 81.5145 52.8672C82.203 53.0049 82.7538 53.4179 83.1669 53.6933C83.7176 54.1063 84.2684 54.3816 85.6453 54.5193C86.8846 54.657 87.573 54.3816 88.2615 54.244C88.95 53.9686 89.6384 53.6933 91.1531 53.8309C92.3923 53.9686 93.2185 54.3816 93.7693 54.657C94.5954 53.8309 95.1462 52.5919 95.4216 51.4905C94.8708 51.6282 94.4577 51.4905 93.9069 51.3528Z" fill="#5CABFF"/>
<path d="M68.0205 47.085H68.9844V49.9761L69.1221 49.8385C69.2598 49.7008 69.2598 49.7008 69.3974 49.7008C69.5351 49.7008 69.6728 49.5631 69.8105 49.5631C69.9482 49.5631 70.0859 49.5631 70.3613 49.5631C70.6367 49.5631 70.9121 49.5631 71.1875 49.7008C71.4628 49.8385 71.6005 49.9761 71.7382 50.1138C71.8759 50.2515 72.0136 50.5268 72.1513 50.8022C72.289 51.0775 72.289 51.3529 72.289 51.6282C72.289 51.9036 72.289 52.1789 72.1513 52.4543C72.0136 52.7296 71.8759 52.8673 71.7382 53.1427C71.6005 53.2803 71.3252 53.418 71.0498 53.5557C70.7744 53.6934 70.499 53.6934 70.2236 53.6934C69.9482 53.6934 69.6728 53.6934 69.3974 53.5557C69.1221 53.418 68.9844 53.2803 68.8467 53.005V53.6934H67.8828V47.085H68.0205ZM71.4628 51.6282C71.4628 51.4906 71.4628 51.3529 71.3252 51.2152C71.3252 51.0775 71.1875 50.9399 71.0498 50.8022C70.9121 50.6645 70.7744 50.6645 70.6367 50.5268C70.499 50.5268 70.3613 50.3892 70.0859 50.3892C69.8105 50.3892 69.6728 50.3892 69.5351 50.5268C69.3974 50.5268 69.2598 50.6645 69.1221 50.8022C68.8467 50.8022 68.8467 50.9399 68.709 51.0775C68.709 51.2152 68.5713 51.3529 68.5713 51.4906C68.5713 51.6282 68.5713 51.7659 68.709 51.9036C68.709 52.0413 68.8467 52.1789 68.9844 52.3166C69.1221 52.4543 69.2598 52.4543 69.3974 52.592C69.5351 52.592 69.6728 52.7296 69.9482 52.7296C70.2236 52.7296 70.3613 52.7296 70.499 52.592C70.6367 52.592 70.7744 52.4543 70.9121 52.3166C71.0498 52.1789 71.0498 52.0413 71.1875 51.9036C71.4628 52.0413 71.4628 51.9036 71.4628 51.6282Z" fill="#5CABFF"/>
<path d="M72.8396 49.5632H73.9411L75.0427 52.4544L76.0066 49.5632H77.1081L75.0427 54.5195C74.905 54.6572 74.905 54.9326 74.7673 55.0702C74.6296 55.2079 74.6296 55.3456 74.4919 55.4832C74.3542 55.6209 74.2165 55.6209 74.0788 55.7586C73.9411 55.7586 73.6658 55.8963 73.5281 55.8963C73.2527 55.8963 72.9773 55.8963 72.7019 55.7586L72.9773 55.0702C73.115 55.0702 73.115 55.0702 73.2527 55.2079C73.3904 55.2079 73.3904 55.2079 73.5281 55.2079C73.6658 55.2079 73.8035 55.2079 73.8035 55.2079C73.9411 55.2079 73.9411 55.2079 74.0788 55.0702L74.2165 54.9326C74.2165 54.7949 74.3542 54.7949 74.3542 54.6572L74.4919 54.2442L72.8396 49.5632Z" fill="#5CABFF"/>
<path d="M22.9948 11.4269C20.654 10.0502 18.1756 9.36182 15.284 9.36182C12.3924 9.36182 9.77625 10.0502 7.57315 11.4269C5.23236 12.8037 3.44234 14.5935 2.0654 16.9339C0.688468 19.2744 0 21.7526 0 24.7814C0 27.6726 0.550775 30.2884 1.79002 32.6289C3.02926 34.9693 4.68158 36.7591 6.88468 38.1359C8.95009 39.5126 11.4286 40.201 14.0448 40.201C16.6609 40.201 19.1394 39.5126 21.2048 38.1359C22.5818 37.3098 23.6833 36.3461 24.6472 35.107V37.1721C24.6472 37.9982 24.9225 38.6866 25.4733 39.2373C26.0241 39.788 26.7126 40.0633 27.5387 40.0633C28.3649 40.0633 29.0534 39.788 29.6041 39.2373C30.1549 38.6866 30.4303 37.9982 30.4303 37.1721V24.7814C30.4303 21.8902 29.7418 19.2744 28.3649 16.9339C26.988 14.5935 25.1979 12.8037 22.9948 11.4269ZM20.241 33.7303C18.7263 34.694 17.074 35.107 15.284 35.107C13.494 35.107 11.8417 34.694 10.327 33.7303C8.81239 32.7665 7.71084 31.6651 6.74699 30.013C5.92083 28.4986 5.50775 26.7088 5.50775 24.7814C5.50775 22.8539 5.92083 21.0642 6.74699 19.4121C7.57315 17.8977 8.81239 16.6586 10.327 15.6949C11.8417 14.7311 13.494 14.3181 15.284 14.3181C17.2117 14.3181 18.864 14.7311 20.241 15.6949C21.7556 16.6586 22.8571 17.76 23.6833 19.4121C24.5095 20.9265 24.9225 22.7163 24.9225 24.7814C24.9225 26.7088 24.5095 28.4986 23.6833 30.013C22.8571 31.5275 21.7556 32.7665 20.241 33.7303Z" fill="#377EFF"/>
<path d="M59.4836 9.49951C58.6574 9.49951 57.9689 9.77486 57.4182 10.3256C56.8674 10.8763 56.592 11.5646 56.592 12.3907V27.9479C56.592 29.3247 56.1789 30.4261 55.4905 31.5275C54.802 32.6289 53.8381 33.4549 52.5989 34.0056C51.3596 34.694 49.9827 34.9694 48.3304 34.9694C46.6781 34.9694 45.1634 34.694 43.9242 34.0056C42.5473 33.3173 41.5834 32.3535 40.7572 30.9768C39.9311 29.6 39.6557 27.9479 39.6557 25.8828V12.3907C39.6557 11.5646 39.3803 10.8763 38.8295 10.3256C38.2788 9.77486 37.5903 9.49951 36.7641 9.49951C35.938 9.49951 35.2495 9.77486 34.6987 10.3256C34.1479 10.8763 33.8726 11.5646 33.8726 12.3907V26.0205C33.8726 29.0493 34.4233 31.6652 35.6626 33.7303C36.7641 35.7954 38.4164 37.4475 40.3442 38.5489C42.4096 39.6503 44.6127 40.201 47.0911 40.201C49.5696 40.201 51.7727 39.6503 53.7004 38.5489C54.802 37.9982 55.6282 37.3098 56.4543 36.4838V37.0345C56.4543 37.8605 56.7297 38.5489 57.2805 39.0996C57.8312 39.6503 58.5197 39.9256 59.3459 39.9256C60.172 39.9256 60.8605 39.6503 61.4113 39.0996C61.9621 38.5489 62.2374 37.8605 62.2374 37.0345V12.3907C62.2374 11.5646 61.9621 10.8763 61.4113 10.3256C60.9982 9.77486 60.3097 9.49951 59.4836 9.49951Z" fill="#377EFF"/>
<path d="M85.6453 24.093C83.993 23.267 81.9276 22.5786 79.1737 22.0279C77.246 21.6149 75.7314 21.2019 74.6298 20.7888C73.666 20.3758 72.9775 19.8251 72.5644 19.4121C72.1513 18.8614 72.0136 18.3107 72.0136 17.6223C72.0136 16.5209 72.5644 15.6949 73.666 15.1442C74.7675 14.5935 76.1445 14.3181 77.7968 14.3181C79.1737 14.3181 80.413 14.4558 81.5145 14.8688C82.6161 15.1442 83.5799 15.8326 84.5438 16.6586C85.0945 17.2093 85.783 17.4847 86.6092 17.6223C87.4353 17.76 88.1238 17.6223 88.6746 17.2093C89.2254 16.7963 89.6384 16.2456 89.6384 15.5572C89.6384 14.8688 89.5007 14.3181 88.95 13.7674C87.8484 12.3907 86.3338 11.2893 84.5438 10.6009C82.6161 9.77486 80.5507 9.49951 78.0722 9.49951C76.1445 9.49951 74.3544 9.77486 72.7021 10.4632C70.9121 11.0139 69.5352 11.9777 68.4336 13.2167C67.3321 14.4558 66.7813 15.9702 66.7813 17.8977C66.7813 19.9628 67.6075 21.8902 69.2598 23.267C70.9121 24.7814 73.666 25.8828 77.3837 26.5712C80.2753 27.1219 82.203 27.8103 83.3045 28.4986C84.4061 29.3247 84.9568 30.2884 84.8192 31.3898C84.8192 32.4912 84.2684 33.4549 83.0291 34.1433C81.9276 34.8317 80.2753 35.2447 78.2099 35.2447C76.5575 35.2447 75.0429 34.9694 73.666 34.281C72.289 33.7303 71.3252 33.0419 70.6367 32.3535C70.0859 31.8028 69.5352 31.5275 68.8467 31.3898C68.1582 31.2521 67.4698 31.5275 66.6436 32.0782C65.9551 32.4912 65.6797 33.1796 65.542 33.868C65.4044 34.5563 65.6797 35.2447 66.2305 35.9331C67.4698 37.1722 69.1221 38.1359 71.3252 38.9619C73.5283 39.788 75.8691 40.201 78.4853 40.201C81.1014 40.201 83.3045 39.788 84.9569 38.9619C86.7469 38.1359 87.9861 37.0345 88.95 35.6577C89.9138 34.281 90.3269 32.7666 90.3269 31.1145C90.3269 29.6 89.9138 28.361 89.2254 27.2596C88.3992 25.8828 87.2976 24.9191 85.6453 24.093Z" fill="#377EFF"/>
<path d="M107.952 34.281H106.024C104.785 34.281 103.821 33.7303 102.995 32.7666C102.169 31.8029 101.756 30.5638 101.756 29.0494V15.4196H106.437C107.263 15.4196 107.814 15.1442 108.365 14.7312C108.778 14.3182 109.053 13.7675 109.053 13.0791C109.053 12.3907 108.778 11.7024 108.365 11.2893C107.952 10.8763 107.263 10.601 106.437 10.601H101.893V2.7535C101.893 1.92745 101.618 1.23907 101.067 0.826049C100.654 0.27535 99.9656 0 99.1394 0C98.3133 0 97.6248 0.27535 97.2117 0.826049C96.6609 1.23907 96.3856 1.92745 96.3856 2.7535V10.7386H93.9071C93.0809 10.7386 92.5301 11.014 91.9794 11.427C91.5663 11.84 91.2909 12.3907 91.2909 13.2168C91.2909 13.9052 91.5663 14.4559 91.9794 14.8689C92.3924 15.2819 93.0809 15.5573 93.9071 15.5573H96.3856V29.1871C96.3856 31.2522 96.7986 33.042 97.6248 34.6941C98.451 36.3462 99.6902 37.5852 101.067 38.549C102.582 39.5127 104.234 39.9257 106.024 39.9257H106.988C107.952 39.9257 108.778 39.6504 109.329 39.0997C109.88 38.549 110.293 37.8606 110.293 37.1722C110.293 36.3462 110.017 35.6578 109.604 35.2448C109.191 34.5564 108.64 34.281 107.952 34.281Z" fill="#377EFF"/>
<path d="M155.594 15.6948C154.492 13.6297 152.84 11.9776 150.912 10.8762C148.847 9.77482 146.644 9.22412 144.165 9.22412C141.687 9.22412 139.484 9.77482 137.556 10.8762C136.455 11.4269 135.628 12.1153 134.802 12.9413V12.3906C134.802 11.5646 134.527 10.8762 133.976 10.3255C133.425 9.9125 132.737 9.63715 131.911 9.63715C131.084 9.63715 130.396 9.9125 129.845 10.4632C129.294 11.0139 129.019 11.7023 129.019 12.5283V37.1721C129.019 37.9982 129.294 38.6865 129.845 39.2372C130.396 39.7879 131.084 40.0633 131.911 40.0633C132.737 40.0633 133.425 39.7879 133.976 39.2372C134.527 38.6865 134.802 37.9982 134.802 37.1721V21.4772C134.802 20.1004 135.215 18.8614 135.904 17.8976C136.592 16.7962 137.694 15.9702 138.933 15.4195C140.172 14.7311 141.549 14.4558 143.064 14.4558C144.716 14.4558 146.231 14.7311 147.608 15.4195C148.847 16.1079 149.948 17.0716 150.775 18.3107C151.601 19.6874 151.876 21.3395 151.876 23.4046V37.0344C151.876 37.8605 152.152 38.5489 152.702 39.0996C153.253 39.6503 153.942 39.9256 154.768 39.9256C155.594 39.9256 156.282 39.6503 156.833 39.0996C157.384 38.5489 157.659 37.8605 157.659 37.0344V23.4046C157.384 20.3758 156.833 17.76 155.594 15.6948Z" fill="#377EFF"/>
<path d="M119.243 39.3752C115.525 39.3752 112.634 36.3463 112.634 32.7668V14.456C112.634 10.7388 115.663 7.84766 119.243 7.84766C122.961 7.84766 125.852 10.8765 125.852 14.456V32.6291C125.99 36.484 122.961 39.3752 119.243 39.3752Z" fill="#2A1CB7"/>
<path d="M119.242 19.6877C122.132 19.6877 124.475 17.3454 124.475 14.456C124.475 11.5667 122.132 9.22437 119.242 9.22437C116.353 9.22437 114.01 11.5667 114.01 14.456C114.01 17.3454 116.353 19.6877 119.242 19.6877Z" fill="white"/>
</svg>
