<svg width="124" height="57" viewBox="0 0 124 57" fill="none" xmlns="http://www.w3.org/2000/svg">
<g clip-path="url(#clip0_140_595)">
<path d="M39.0735 52.7773H38.1367V56.9181H39.0735V52.7773Z" fill="#CE1D24"/>
<path d="M49.3658 56.0994C49.4642 56.0978 49.5614 56.0769 49.6517 56.0379C49.742 55.9988 49.8238 55.9424 49.8923 55.8718C49.9608 55.8012 50.0147 55.7178 50.051 55.6264C50.0872 55.5349 50.105 55.4373 50.1035 55.339C50.105 55.2366 50.0862 55.135 50.0481 55.0399C50.0099 54.9449 49.9532 54.8585 49.8813 54.7856C49.8094 54.7126 49.7237 54.6547 49.6292 54.6152C49.5346 54.5756 49.4332 54.5553 49.3307 54.5553C49.1257 54.5553 48.9291 54.6366 48.7842 54.7814C48.6393 54.9262 48.5579 55.1226 48.5579 55.3273C48.5579 55.5321 48.6393 55.7284 48.7842 55.8732C48.9291 56.018 49.1257 56.0994 49.3307 56.0994M50.0684 56.5672C49.9439 56.6898 49.7954 56.7854 49.6322 56.8478C49.4689 56.9102 49.2945 56.9381 49.1199 56.9298C48.7507 56.9391 48.3913 56.8097 48.1129 56.5672C47.8676 56.3537 47.6925 56.0711 47.6106 55.7565C47.5287 55.4419 47.5437 55.11 47.6538 54.8041C47.7639 54.4982 47.9639 54.2326 48.2275 54.0421C48.4912 53.8516 48.8063 53.7451 49.1316 53.7365C49.3027 53.7264 49.4738 53.7572 49.6306 53.8263C49.7874 53.8955 49.9255 54.001 50.0332 54.1342V53.7833H50.9817V56.9181H50.0684V56.5672Z" fill="#CE1D24"/>
<path d="M70.4423 55.7953C70.3349 56.1426 70.1163 56.4451 69.8202 56.6564C69.5241 56.8677 69.1668 56.9761 68.8031 56.965C68.5836 56.967 68.3662 56.9233 68.1646 56.8367C67.963 56.7501 67.7817 56.6225 67.6321 56.4621C67.478 56.309 67.3561 56.1266 67.2736 55.9257C67.1912 55.7248 67.1498 55.5095 67.1521 55.2924C67.1613 54.8548 67.3417 54.4383 67.6547 54.1322C67.9677 53.8261 68.3884 53.6546 68.8265 53.6547C69.1934 53.6349 69.5564 53.7396 69.8561 53.952C70.1559 54.1644 70.3749 54.4719 70.4775 54.8244H69.4822C69.4146 54.7139 69.3174 54.6246 69.2014 54.5666C69.0855 54.5087 68.9555 54.4845 68.8265 54.4969C68.7283 54.4918 68.6301 54.5075 68.5383 54.5427C68.4465 54.578 68.3632 54.6321 68.2936 54.7016C68.2241 54.771 68.1699 54.8543 68.1347 54.946C68.0994 55.0376 68.0837 55.1357 68.0888 55.2338C68.0826 55.3975 68.1296 55.5588 68.2226 55.6937C68.3156 55.8285 68.4497 55.9298 68.605 55.9824C68.7603 56.035 68.9284 56.036 69.0844 55.9854C69.2403 55.9349 69.3757 55.8354 69.4705 55.7017L70.4423 55.7953Z" fill="#CE1D24"/>
<path d="M79.3881 56.0994C79.4875 56.0994 79.5859 56.0796 79.6776 56.0413C79.7693 56.0029 79.8524 55.9468 79.9222 55.876C79.9919 55.8052 80.0469 55.7213 80.0838 55.6291C80.1208 55.5369 80.139 55.4383 80.1375 55.3391C80.1391 55.2357 80.1199 55.1331 80.081 55.0373C80.0421 54.9415 79.9844 54.8545 79.9112 54.7814C79.8381 54.7083 79.7509 54.6506 79.655 54.6118C79.5592 54.5729 79.4564 54.5538 79.353 54.5554C79.148 54.5554 78.9514 54.6367 78.8065 54.7815C78.6616 54.9263 78.5802 55.1226 78.5802 55.3274C78.5802 55.5321 78.6616 55.7284 78.8065 55.8732C78.9514 56.018 79.148 56.0994 79.353 56.0994M80.0906 56.5672C79.9671 56.6911 79.8187 56.7874 79.6553 56.8499C79.4918 56.9124 79.3169 56.9396 79.1422 56.9298C78.7729 56.9392 78.4136 56.8098 78.1352 56.5672C77.975 56.4173 77.8472 56.2362 77.7599 56.035C77.6726 55.8338 77.6276 55.6168 77.6276 55.3975C77.6276 55.1782 77.6726 54.9613 77.7599 54.7601C77.8472 54.5589 77.975 54.3777 78.1352 54.2278C78.425 53.9502 78.8109 53.7952 79.2125 53.795C79.3835 53.7858 79.5542 53.817 79.7109 53.8861C79.8676 53.9552 80.0057 54.0603 80.1141 54.1928V53.8418H81.0508V56.9767H80.1375L80.0906 56.5672Z" fill="#CE1D24"/>
<path d="M89.5868 52.7773H88.65V56.9181H89.5868V52.7773Z" fill="#CE1D24"/>
<path d="M99.4576 55.0231C99.4035 54.8683 99.2993 54.736 99.1614 54.647C99.0236 54.558 98.86 54.5175 98.6965 54.5318C98.5346 54.5093 98.3702 54.5469 98.2342 54.6374C98.0982 54.728 98.0002 54.8652 97.9588 55.0231H99.4576ZM100.254 56.0057C100.136 56.2551 99.9595 56.4725 99.7397 56.6396C99.5199 56.8066 99.2631 56.9184 98.9909 56.9654C98.7188 57.0124 98.4393 56.9934 98.1761 56.9098C97.9129 56.8262 97.6737 56.6806 97.4787 56.4852C97.3272 56.3308 97.2078 56.148 97.1274 55.9472C97.047 55.7464 97.0073 55.5317 97.0104 55.3155C97.0083 55.0974 97.0509 54.8811 97.1354 54.68C97.22 54.4788 97.3448 54.2971 97.5021 54.1458C97.7527 53.8976 98.074 53.7329 98.4219 53.6744C98.7698 53.6158 99.1274 53.6662 99.4455 53.8187C99.7636 53.9712 100.027 54.2183 100.199 54.526C100.371 54.8338 100.443 55.1872 100.406 55.5378V55.6431H97.9822C98.0265 55.759 98.0977 55.8628 98.19 55.9459C98.2823 56.029 98.393 56.089 98.5131 56.121C98.6331 56.1529 98.7591 56.156 98.8805 56.1298C99.002 56.1037 99.1155 56.0491 99.2117 55.9705L100.254 56.0057Z" fill="#CE1D24"/>
<path d="M107.502 54.4851V53.795H107.912V52.7773H108.86V53.795H109.282V54.4851H108.86V56.9181H107.912V54.4851H107.502Z" fill="#CE1D24"/>
<path d="M118.145 56.0992C118.245 56.0992 118.343 56.0795 118.435 56.0411C118.527 56.0028 118.61 55.9466 118.679 55.8758C118.749 55.8051 118.804 55.7211 118.841 55.629C118.878 55.5368 118.896 55.4382 118.895 55.3389C118.899 55.1815 118.856 55.0264 118.771 54.8938C118.686 54.7612 118.563 54.6572 118.418 54.5954C118.274 54.5336 118.113 54.5169 117.959 54.5474C117.804 54.5779 117.662 54.6542 117.552 54.7664C117.441 54.8786 117.367 55.0215 117.339 55.1764C117.311 55.3313 117.33 55.4911 117.394 55.635C117.458 55.7788 117.564 55.9 117.698 55.9828C117.832 56.0656 117.988 56.1062 118.145 56.0992ZM118.895 56.5671C118.77 56.6897 118.622 56.7852 118.459 56.8476C118.295 56.9101 118.121 56.938 117.946 56.9297C117.577 56.9402 117.217 56.8106 116.939 56.5671C116.779 56.4172 116.651 56.236 116.564 56.0348C116.477 55.8336 116.432 55.6167 116.432 55.3974C116.432 55.1781 116.477 54.9611 116.564 54.7599C116.651 54.5587 116.779 54.3775 116.939 54.2276C117.224 53.9486 117.606 53.7931 118.005 53.7949C118.176 53.7847 118.347 53.8155 118.504 53.8847C118.661 53.9538 118.799 54.0594 118.907 54.1926V53.8416H119.855V56.9765H118.942L118.895 56.5671Z" fill="#CE1D24"/>
<path d="M21.6151 39.887C19.1054 39.9496 16.6084 39.5098 14.2715 38.5936C11.9344 37.6774 9.80462 36.3032 8.0074 34.5521C6.21018 32.801 4.78193 30.7082 3.80675 28.3972C2.83156 26.0862 2.32917 23.6036 2.32917 21.0956C2.32917 18.5877 2.83156 16.1051 3.80675 13.7941C4.78193 11.4831 6.21018 9.39038 8.0074 7.63925C9.80462 5.88812 11.9344 4.51397 14.2715 3.59774C16.6084 2.6815 19.1054 2.24167 21.6151 2.30423C24.6159 2.30137 27.577 2.99014 30.2678 4.31696C32.9587 5.64377 35.3069 7.5729 37.1298 9.95418V32.1787C35.3094 34.5635 32.962 36.4958 30.2707 37.8248C27.5795 39.1538 24.6172 39.8435 21.6151 39.8403M39.495 28.0613V14.0248C41.3403 18.522 41.3403 23.564 39.495 28.0613ZM39.495 0.86551C39.4935 0.744689 39.468 0.625357 39.4199 0.514468C39.3719 0.40358 39.3023 0.303334 39.2151 0.219542C39.128 0.135749 39.025 0.0700773 38.9123 0.026351C38.7995 -0.0173754 38.6792 -0.0382979 38.5583 -0.0351902H38.0548C37.9344 -0.0383142 37.8147 -0.0172974 37.7026 0.0265651C37.5905 0.0704276 37.4883 0.136307 37.4021 0.220256C37.3159 0.304204 37.2473 0.404496 37.2006 0.515325C37.1538 0.626153 37.1297 0.745237 37.1298 0.86551V6.35146C35.0979 4.31018 32.6797 2.69321 30.0161 1.59472C27.3525 0.49624 24.4967 -0.0617552 21.6151 -0.0468274C16.0144 -0.0468274 10.6431 2.1757 6.68283 6.13192C2.72254 10.0881 0.497681 15.4539 0.497681 21.0489C0.497681 26.6438 2.72254 32.0096 6.68283 35.9658C10.6431 39.922 16.0144 42.1446 21.6151 42.1446C24.4967 42.1595 27.3525 41.6015 30.0161 40.503C32.6797 39.4045 35.0979 37.7876 37.1298 35.7463V41.0802C37.1313 41.2 37.1564 41.3183 37.2038 41.4284C37.2511 41.5385 37.3196 41.6383 37.4055 41.7219C37.4914 41.8056 37.593 41.8715 37.7044 41.9159C37.8158 41.9603 37.9348 41.9824 38.0548 41.9809H38.5583C38.8016 41.984 39.0364 41.8912 39.2118 41.7226C39.3871 41.554 39.4889 41.3232 39.495 41.0802V32.8922C41.934 29.4147 43.2423 25.2715 43.2423 21.0255C43.2423 16.7794 41.934 12.6363 39.495 9.15879V0.86551Z" fill="#CE1D24"/>
<path d="M87.6548 1.88329C87.6421 1.64297 87.5373 1.41678 87.362 1.25167L86.9873 0.912408C86.8108 0.743676 86.5759 0.649537 86.3316 0.649537C86.0873 0.649537 85.8524 0.743676 85.6759 0.912408L49.7054 38.3432V0.912408C49.7054 0.792135 49.6813 0.673123 49.6345 0.562294C49.5878 0.451466 49.5193 0.351102 49.433 0.267154C49.3468 0.183205 49.2447 0.117326 49.1326 0.073463C49.0205 0.0296005 48.9007 0.00865504 48.7803 0.011779H48.2768C48.1559 0.00867138 48.0356 0.0295939 47.9228 0.0733202C47.8101 0.117047 47.7071 0.182719 47.62 0.266511C47.5328 0.350303 47.4632 0.450549 47.4152 0.561437C47.3671 0.672326 47.3416 0.791587 47.3401 0.912408V41.8523C47.3395 42.0373 47.3968 42.2178 47.5038 42.3688C47.6109 42.5198 47.7624 42.6337 47.9373 42.6945C48.0444 42.7412 48.16 42.7651 48.2768 42.7647C48.533 42.7604 48.777 42.6553 48.956 42.4723L87.3971 2.47985C87.4814 2.39314 87.5475 2.29059 87.5917 2.17814C87.6359 2.0657 87.6574 1.9456 87.6548 1.82482" fill="#CE1D24"/>
<path d="M102.853 2.30437C105.873 2.30351 108.847 3.03165 111.524 4.42675C114.201 5.82186 116.501 7.84264 118.227 10.3169V31.863C116.368 34.476 113.868 36.5681 110.967 37.9386C108.065 39.3091 104.86 39.9121 101.659 39.6898C98.4571 39.4675 95.3664 38.4274 92.6829 36.6691C89.9993 34.9108 87.8129 32.4934 86.3332 29.6485C84.8535 26.8036 84.1302 23.6267 84.2326 20.4224C84.335 17.2181 85.2596 14.0937 86.9179 11.3489C88.5762 8.60411 90.9125 6.33083 93.7028 4.74709C96.4932 3.16336 99.644 2.32224 102.853 2.30437ZM121.588 21.0899C121.59 23.1887 121.238 25.2728 120.546 27.2543V14.9373C121.238 16.9148 121.59 18.995 121.588 21.0899ZM120.546 9.62677V0.912408C120.546 0.792135 120.522 0.673123 120.475 0.562294C120.428 0.451466 120.36 0.351102 120.273 0.267153C120.187 0.183205 120.085 0.117325 119.973 0.073463C119.861 0.0296005 119.741 0.00865504 119.621 0.011779H119.117C118.996 0.00867138 118.876 0.0295939 118.763 0.0733202C118.651 0.117047 118.548 0.182719 118.46 0.266511C118.373 0.350303 118.304 0.450549 118.256 0.561437C118.208 0.672326 118.182 0.791587 118.181 0.912408V6.63231C115.282 3.56946 111.531 1.44605 107.411 0.536807C103.291 -0.372435 98.9932 -0.0256637 95.073 1.53232C91.1528 3.0903 87.7909 5.78775 85.4224 9.27558C83.0538 12.7634 81.7875 16.8811 81.7875 21.0958C81.7875 25.3105 83.0538 29.4282 85.4224 32.916C87.7909 36.4039 91.1528 39.1012 95.073 40.6592C98.9932 42.2172 103.291 42.564 107.411 41.6548C111.531 40.7456 115.282 38.6221 118.181 35.5592V41.1271C118.187 41.3701 118.288 41.6009 118.464 41.7695C118.639 41.9381 118.874 42.0309 119.117 42.0278H119.621C119.741 42.0293 119.86 42.0072 119.971 41.9628C120.083 41.9184 120.184 41.8525 120.27 41.7688C120.356 41.6852 120.424 41.5855 120.472 41.4754C120.519 41.3653 120.544 41.2469 120.546 41.1271V32.5531C122.763 29.1403 123.943 25.1587 123.943 21.0899C123.943 17.0212 122.763 13.0396 120.546 9.62677Z" fill="#CE1D24"/>
</g>
<defs>
<clipPath id="clip0_140_595">
<rect width="124" height="57" fill="white"/>
</clipPath>
</defs>
</svg>
