<svg width="167" height="71" viewBox="0 0 167 71" fill="none" xmlns="http://www.w3.org/2000/svg">
<g clip-path="url(#clip0_140_563)">
<path d="M60.66 54.6599H70.08V55.99H62.08V61.5901H69.4799V62.9199H62.08V70.3901H60.66V54.6599Z" fill="#D0AC82"/>
<path d="M74.51 56.0601C74.51 56.3253 74.4047 56.5796 74.2172 56.7671C74.0296 56.9546 73.7752 57.0601 73.51 57.0601C73.2448 57.0601 72.9905 56.9546 72.803 56.7671C72.6154 56.5796 72.51 56.3253 72.51 56.0601C72.51 55.7948 72.6154 55.5406 72.803 55.353C72.9905 55.1655 73.2448 55.0601 73.51 55.0601C73.7752 55.0601 74.0296 55.1655 74.2172 55.353C74.4047 55.5406 74.51 55.7948 74.51 56.0601ZM74.1801 60.1201V70.3901H72.85V60.1201H74.1801Z" fill="#D0AC82"/>
<path d="M76.49 60.1201H78.7101V57.1699H80.05V60.1201H82.98V61.3201H80.05V68.03C80.0314 68.2211 80.0553 68.414 80.1201 68.5947C80.1849 68.7755 80.2889 68.9397 80.4247 69.0754C80.5605 69.2112 80.7245 69.3151 80.9053 69.3799C81.086 69.4447 81.279 69.4686 81.4701 69.45C81.9925 69.4412 82.507 69.3221 82.98 69.1001L83.0901 70.3C82.5248 70.5062 81.9312 70.6241 81.3301 70.6499C80.9771 70.6859 80.6206 70.6429 80.2864 70.5239C79.9522 70.405 79.6486 70.2133 79.3977 69.9624C79.1469 69.7115 78.955 69.408 78.8361 69.0737C78.7171 68.7395 78.6741 68.383 78.7101 68.03V61.3201H76.49V60.1201Z" fill="#D0AC82"/>
<path d="M95.54 58.4099C95.54 60.8799 93.82 62.5699 92.98 63.4099L87.38 69.1699H95.66V70.3701H85.92V68.81L92.52 61.81C93.4441 60.9385 94.002 59.7478 94.0801 58.4799C94.0871 58.076 94.0092 57.6752 93.8517 57.3032C93.6942 56.9312 93.4605 56.5961 93.1655 56.32C92.8706 56.0439 92.521 55.8328 92.1394 55.7002C91.7578 55.5675 91.3527 55.5164 90.9501 55.55C90.2019 55.5312 89.4717 55.781 88.892 56.2544C88.3122 56.7277 87.9213 57.3933 87.79 58.1301L86.24 57.9699C86.4443 56.8823 87.0457 55.9095 87.9272 55.2404C88.8088 54.5714 89.9075 54.2541 91.01 54.3501C93.56 54.3901 95.54 56.0099 95.54 58.4099Z" fill="#D0AC82"/>
<path d="M101.18 61.5901C101.878 61.1423 102.691 60.9092 103.52 60.9199C104.157 60.9104 104.79 61.0294 105.38 61.2695C105.971 61.5097 106.507 61.866 106.957 62.3176C107.406 62.7692 107.761 63.3068 107.998 63.8982C108.236 64.4896 108.352 65.1228 108.34 65.76C108.282 67.0879 107.713 68.342 106.753 69.261C105.792 70.18 104.514 70.6929 103.185 70.6929C101.856 70.6929 100.578 70.18 99.6176 69.261C98.6572 68.342 98.0885 67.0879 98.03 65.76C98.1419 64.2165 98.7091 62.7409 99.66 61.52L103.8 54.6599H105.49L101.18 61.5901ZM103.18 69.45C103.671 69.4743 104.162 69.3956 104.62 69.2188C105.079 69.0419 105.496 68.771 105.843 68.4233C106.191 68.0757 106.462 67.6592 106.639 67.2004C106.816 66.7417 106.894 66.251 106.87 65.76C106.87 64.7814 106.481 63.8429 105.789 63.1509C105.097 62.4589 104.159 62.0701 103.18 62.0701C102.201 62.0701 101.263 62.4589 100.571 63.1509C99.8788 63.8429 99.49 64.7814 99.49 65.76C99.4667 66.2542 99.5476 66.7478 99.7274 67.2087C99.9072 67.6696 100.182 68.0874 100.534 68.4353C100.885 68.7832 101.306 69.0535 101.769 69.2283C102.232 69.4031 102.726 69.4785 103.22 69.45H103.18Z" fill="#D0AC82"/>
<path d="M50.92 63.1599H0V63.8299H50.92V63.1599Z" fill="#D0AC82"/>
<path d="M165.81 63.1599H118.18V63.8299H165.81V63.1599Z" fill="#D0AC82"/>
<path d="M2.79004 41.9299H9.47009C12.5501 41.9299 15.74 42.05 18.41 40.25C19.7258 39.4198 20.8102 38.27 21.562 36.908C22.3139 35.5459 22.7088 34.0158 22.7101 32.46C22.7576 30.8614 22.359 29.2812 21.5588 27.8965C20.7587 26.5117 19.5888 25.3773 18.1801 24.6201C15.5101 23.2901 11.8501 23.23 8.95007 23.23H2.79004V41.9299ZM2.79004 20.6201H7.66003C10.66 20.6201 13 20.79 15.5 18.99C18 17.19 18.75 14.99 18.75 11.99C18.8167 10.582 18.5207 9.18065 17.8904 7.91992C17.26 6.65919 16.3164 5.58143 15.15 4.79004C12.95 3.40004 10.22 3.3999 7.66003 3.3999H2.84009L2.79004 20.6201ZM0 44.54V0.75H8.77002C12.08 0.75 15.2201 0.990059 17.8301 3.31006C20.4401 5.63006 21.49 8.88012 21.49 12.3701C21.6016 14.1828 21.1896 15.9894 20.3031 17.5745C19.4166 19.1595 18.0929 20.4562 16.49 21.3101C19.0599 21.7702 21.3823 23.1293 23.0421 25.1445C24.7019 27.1597 25.5909 29.6996 25.55 32.3101C25.5876 34.0278 25.2416 35.7321 24.5376 37.2993C23.8336 38.8665 22.789 40.2573 21.48 41.3701C18.41 43.9801 15.15 44.5 11.26 44.5L0 44.54Z" fill="#D0AC82"/>
<path d="M53.26 28.9199C53.0073 26.353 51.8088 23.972 49.8977 22.2397C47.9866 20.5075 45.4994 19.5481 42.92 19.5481C40.3407 19.5481 37.8535 20.5075 35.9424 22.2397C34.0312 23.972 32.8328 26.353 32.5801 28.9199H53.26ZM32.5801 31.3601C32.4101 38.1601 37.1101 42.6899 43.3301 42.6899C45.3183 42.6486 47.2561 42.0567 48.928 40.9797C50.5998 39.9028 51.9403 38.3833 52.8 36.5901L55 37.8701C53.8945 40.0939 52.1793 41.9572 50.0544 43.2427C47.9296 44.5282 45.4829 45.183 43 45.1301C35 45.1301 30 38.6801 30 31.0701C30 23.4601 35.17 17.1301 43 17.1301C51.13 17.1301 56 23.6401 55.89 31.3601H32.5801Z" fill="#D0AC82"/>
<path d="M64.8201 22.65C64.8556 26.1927 65.9387 29.6457 67.933 32.574C69.9273 35.5023 72.7435 37.7751 76.027 39.1058C79.3104 40.4365 82.9143 40.7659 86.3846 40.0523C89.8549 39.3387 93.0363 37.6139 95.5283 35.0955C98.0203 32.5772 99.7113 29.3778 100.388 25.9002C101.065 22.4226 100.698 18.8223 99.3329 15.5531C97.9676 12.2838 95.6654 9.49172 92.7163 7.52839C89.7672 5.56507 86.3029 4.5183 82.76 4.52009C77.9839 4.56231 73.4181 6.49067 70.0576 9.88484C66.6972 13.279 64.8146 17.8639 64.8201 22.6402M105.59 22.7C105.614 27.2204 104.295 31.6462 101.801 35.4163C99.3068 39.1865 95.7497 42.1311 91.5802 43.8775C87.4107 45.6239 82.8166 46.0932 78.3801 45.2259C73.9437 44.3586 69.8645 42.1939 66.6597 39.0059C63.4548 35.8179 61.2686 31.7503 60.3779 27.3184C59.4872 22.8866 59.9322 18.29 61.6566 14.1114C63.381 9.93277 66.307 6.35996 70.064 3.84602C73.8209 1.33208 78.2396 -0.00987437 82.76 -0.00993681C85.7524 -0.0257489 88.7185 0.549952 91.4877 1.68415C94.2568 2.81836 96.7746 4.4888 98.8961 6.59919C101.018 8.70959 102.701 11.2184 103.85 13.9815C104.999 16.7447 105.59 19.7076 105.59 22.7Z" fill="#D0AC82"/>
<path d="M116.86 20.52H116.97C117.822 19.2444 118.981 18.2033 120.341 17.4922C121.7 16.7811 123.216 16.4226 124.75 16.4499C132.3 16.4499 134.05 21.91 134.05 28.3V44.52H129.4V29.1201C129.4 24.7101 129.05 20.76 123.65 20.76C117.26 20.76 116.86 26.6801 116.86 31.5601V44.5601H112.21V17.26H116.86V20.52Z" fill="#D0AC82"/>
<path d="M161.75 27.9299C161.471 25.9884 160.515 24.2077 159.052 22.9016C157.588 21.5955 155.711 20.8478 153.75 20.79C151.753 20.8361 149.834 21.5727 148.319 22.8745C146.804 24.1763 145.786 25.9626 145.44 27.9299H161.75ZM145.2 31.9299C145.26 36.9899 148.86 41.05 154.14 41.05C158.14 41.05 160.65 38.6699 162.45 35.4199L166.45 37.6799C165.291 40.0218 163.49 41.9861 161.258 43.344C159.025 44.7019 156.453 45.3977 153.84 45.3501C145.71 45.3501 140.49 39.14 140.49 31.3C140.49 23.22 145.19 16.54 153.73 16.54C162.5 16.54 167.14 23.7999 166.73 31.9299H145.2Z" fill="#D0AC82"/>
</g>
<defs>
<clipPath id="clip0_140_563">
<rect width="166.66" height="70.65" fill="white"/>
</clipPath>
</defs>
</svg>
