<svg width="156" height="65" viewBox="0 0 156 65" fill="none" xmlns="http://www.w3.org/2000/svg">
<g clip-path="url(#clip0_140_1435)">
<path d="M11.8 56.9001C11.8 58.0001 11.6 59.0001 11.3 59.9001C11 60.8001 10.5 61.5001 9.9 62.2001C9.3 62.9001 8.6 63.3 7.8 63.6C7 63.9 6.1 64.1 5.1 64.1H0V49.8H5.1C6.1 49.8 7 50 7.8 50.3C8.6 50.6 9.3 51.1001 9.9 51.7001C10.5 52.3001 10.9 53.1 11.3 54C11.6 54.8 11.8 55.8001 11.8 56.9001ZM10.8 56.9001C10.8 55.9001 10.7 55.0001 10.4 54.2001C10.1 53.4001 9.7 52.8001 9.3 52.2001C8.8 51.7001 8.2 51.2 7.5 51C6.8 50.8 6 50.6 5.1 50.6H1V63.2001H5.1C5.9 63.2001 6.7 63.1 7.4 62.8C8.1 62.5 8.7 62.1 9.2 61.6C9.7 61.1 10.1 60.4 10.3 59.6C10.5 58.8 10.8 57.9001 10.8 56.9001Z" fill="#5B5958"/>
<path d="M25.6 49.8V50.7001H18.2V56.5H24.2999V57.3H18.2V63.3H25.6V64.2H17.2V49.8H25.6Z" fill="#5B5958"/>
<path d="M37.8 51.5002C37.7 51.6002 37.7 51.7002 37.5 51.7002C37.4 51.7002 37.3 51.6002 37.2 51.5002C37.1 51.4002 36.9 51.2002 36.6 51.1002C36.4 50.9002 36.1 50.8002 35.7 50.7002C35.3 50.6002 34.9 50.5002 34.4 50.5002C33.9 50.5002 33.4 50.6002 33.1 50.7002C32.8 50.8002 32.4 51.1002 32.1 51.3002C31.8 51.6002 31.6 51.9002 31.5 52.2002C31.4 52.5002 31.3 52.9002 31.3 53.3002C31.3 53.8002 31.4 54.2002 31.6 54.5002C31.8 54.8002 32.1 55.1002 32.4 55.3002C32.7 55.5002 33.1 55.7002 33.5 55.9002C33.9 56.1002 34.4 56.2002 34.8 56.4002C35.2 56.5002 35.7 56.7002 36.1 56.9002C36.5 57.1002 36.9 57.3002 37.2 57.6002C37.5 57.9002 37.8 58.2002 38 58.6002C38.2 59.0002 38.3 59.5002 38.3 60.1002C38.3 60.7002 38.2 61.3002 38 61.8002C37.8 62.3002 37.5 62.8002 37.1 63.2002C36.7 63.6002 36.2 63.9002 35.7 64.1002C35.1 64.3002 34.5 64.4002 33.8 64.4002C32.9 64.4002 32.1 64.2002 31.4 63.9002C30.7 63.6002 30.1 63.1002 29.6 62.5002L29.9 62.1002C30 62.0002 30.1 61.9002 30.2 61.9002C30.3 61.9002 30.3 61.9002 30.4 62.0002C30.5 62.1002 30.6 62.2002 30.7 62.3002C30.8 62.4002 31 62.5002 31.2 62.7002C31.4 62.8002 31.6 63.0002 31.8 63.1002C32 63.2002 32.3 63.3002 32.6 63.4002C32.9 63.5002 33.3 63.5002 33.7 63.5002C34.3 63.5002 34.8 63.4002 35.2 63.2002C35.6 63.0002 36 62.8002 36.3 62.5002C36.6 62.2002 36.8 61.9002 37 61.4002C37.2 61.0002 37.2 60.6002 37.2 60.1002C37.2 59.6002 37.1 59.2002 36.9 58.9002C36.7 58.6002 36.4 58.3002 36.1 58.1002C35.8 57.9002 35.4 57.7002 35 57.5002C34.6 57.4002 34.1 57.2002 33.7 57.1002C33.3 57.0002 32.8 56.8002 32.4 56.6002C32 56.4002 31.6 56.2002 31.3 55.9002C31 55.6002 30.7 55.3002 30.5 54.9002C30.3 54.5002 30.2 54.0002 30.2 53.4002C30.2 52.9002 30.3 52.5002 30.5 52.0002C30.7 51.5002 30.9 51.2002 31.3 50.8002C31.6 50.5002 32.1 50.2002 32.6 50.0002C33.1 49.8002 33.7 49.7002 34.3 49.7002C35 49.7002 35.7 49.8002 36.3 50.1002C36.9 50.3002 37.4 50.7002 37.9 51.2002L37.8 51.5002Z" fill="#5B5958"/>
<path d="M54.0999 64.1H53.2999C53.1999 64.1 53.0999 64.1 53.0999 64C52.9999 64 53 63.9 53 63.8L51.2999 59.6H44.4L42.7999 63.8C42.7999 63.9 42.7 63.9 42.7 64C42.7 64.1 42.6 64.1 42.5 64.1H41.7L47.4 49.8H48.4L54.0999 64.1ZM44.7 58.9001H51L48.0999 51.7001C48.0999 51.6001 48 51.5 48 51.3C48 51.2 47.9 51 47.9 50.8C47.9 51 47.7999 51.1 47.7999 51.3C47.7999 51.4 47.7 51.6001 47.7 51.7001L44.7 58.9001Z" fill="#5B5958"/>
<path d="M59.8 57.6V64.1H58.8V49.8H62.4001C64.0001 49.8 65.2 50.1 66 50.8C66.8 51.4 67.2 52.4 67.2 53.6C67.2 54.1 67.1001 54.6 66.9001 55.1C66.7001 55.6 66.4 55.9 66.1 56.3C65.8 56.6 65.3001 56.9 64.8001 57.1C64.3001 57.3 63.8 57.5 63.1 57.5C63.3 57.6 63.4 57.7001 63.5 57.9001L68.3001 64.1H67.4001C67.3001 64.1 67.2 64.1 67.1 64C67 64 66.9001 63.9 66.9001 63.8L62.6 58C62.5 57.9 62.4001 57.7001 62.2001 57.7001C62.0001 57.7001 61.9 57.6 61.6 57.6H59.8ZM59.8 56.8H62.2001C62.8001 56.8 63.4001 56.7 63.9001 56.6C64.4001 56.5 64.8 56.2001 65.1 55.9001C65.4 55.6001 65.7001 55.3001 65.9001 54.9001C66.1001 54.5001 66.2 54.1 66.2 53.6C66.2 52.6 65.9 51.8 65.2 51.3C64.5 50.8 63.6 50.6 62.3 50.6H59.7001V56.8H59.8Z" fill="#5B5958"/>
<path d="M74.4 57.6V64.1H73.4V49.8H77C78.6 49.8 79.8 50.1 80.6 50.8C81.4 51.4 81.8 52.4 81.8 53.6C81.8 54.1 81.7 54.6 81.5 55.1C81.3 55.6 81 55.9 80.7 56.3C80.4 56.6 79.9 56.9 79.4 57.1C78.9 57.3 78.4 57.5 77.7 57.5C77.9 57.6 78 57.7001 78.1 57.9001L82.9 64.1H82C81.9 64.1 81.8 64.1 81.7 64C81.6 64 81.5 63.9 81.5 63.8L77.2 58C77.1 57.9 77 57.7001 76.8 57.7001C76.6 57.7001 76.5 57.6 76.2 57.6H74.4ZM74.4 56.8H76.8C77.4 56.8 78 56.7 78.5 56.6C79 56.5 79.4 56.2001 79.7 55.9001C80 55.6001 80.3 55.3001 80.5 54.9001C80.7 54.5001 80.8 54.1 80.8 53.6C80.8 52.6 80.5 51.8 79.8 51.3C79.1 50.8 78.2 50.6 76.9 50.6H74.3V56.8H74.4Z" fill="#5B5958"/>
<path d="M100.3 56.9001C100.3 58.0001 100.1 59.0001 99.8 59.9001C99.5 60.8001 99 61.6001 98.4 62.2001C97.8 62.8001 97.1 63.3001 96.3 63.7001C95.5 64.0001 94.6 64.2001 93.6 64.2001C92.6 64.2001 91.7 64.0001 90.9 63.7001C90.1 63.4001 89.4 62.9001 88.8 62.2001C88.2 61.6001 87.8 60.8001 87.4 59.9001C87.1 59.0001 86.9 58.0001 86.9 56.9001C86.9 55.8001 87.1 54.8001 87.4 53.9001C87.7 53.0001 88.2 52.2001 88.8 51.6001C89.4 51.0001 90.1 50.5001 90.9 50.1001C91.7 49.7001 92.6 49.6001 93.6 49.6001C94.6 49.6001 95.5 49.8001 96.3 50.1001C97.1 50.4001 97.8 50.9001 98.4 51.6001C99 52.2001 99.4 53.0001 99.8 53.9001C100.1 54.8001 100.3 55.8001 100.3 56.9001ZM99.2 56.9001C99.2 55.9001 99.1 55.0001 98.8 54.2001C98.5 53.4001 98.1 52.7001 97.7 52.2001C97.3 51.7001 96.6 51.2001 95.9 50.9001C95.2 50.6001 94.4 50.5001 93.6 50.5001C92.8 50.5001 92 50.6001 91.3 50.9001C90.6 51.2001 90 51.6001 89.5 52.2001C89 52.8001 88.6 53.4001 88.3 54.2001C88 55.0001 87.9 55.9001 87.9 56.9001C87.9 57.9001 88 58.8001 88.3 59.6001C88.6 60.4001 89 61.1001 89.5 61.6001C90 62.2001 90.6 62.6001 91.3 62.9001C92 63.2001 92.8 63.3001 93.6 63.3001C94.4 63.3001 95.2 63.2001 95.9 62.9001C96.6 62.6001 97.2 62.2001 97.7 61.6001C98.2 61.0001 98.6 60.4001 98.8 59.6001C99.1 58.8001 99.2 57.9001 99.2 56.9001Z" fill="#5B5958"/>
<path d="M106.7 63.2001H113.3V64.1H105.6V49.8H106.6V63.2001H106.7Z" fill="#5B5958"/>
<path d="M119 63.2001H125.6V64.1H118V49.8H119V63.2001Z" fill="#5B5958"/>
<path d="M142.8 56.9001C142.8 58.0001 142.6 59.0001 142.3 59.9001C142 60.8001 141.5 61.6001 140.9 62.2001C140.3 62.8001 139.6 63.3001 138.8 63.7001C138 64.0001 137.1 64.2001 136.1 64.2001C135.1 64.2001 134.2 64.0001 133.4 63.7001C132.6 63.4001 131.9 62.9001 131.3 62.2001C130.7 61.6001 130.3 60.8001 129.9 59.9001C129.6 59.0001 129.4 58.0001 129.4 56.9001C129.4 55.8001 129.6 54.8001 129.9 53.9001C130.2 53.0001 130.7 52.2001 131.3 51.6001C131.9 51.0001 132.6 50.5001 133.4 50.1001C134.2 49.7001 135.1 49.6001 136.1 49.6001C137.1 49.6001 138 49.8001 138.8 50.1001C139.6 50.4001 140.3 50.9001 140.9 51.6001C141.5 52.2001 141.9 53.0001 142.3 53.9001C142.6 54.8001 142.8 55.8001 142.8 56.9001ZM141.7 56.9001C141.7 55.9001 141.6 55.0001 141.3 54.2001C141 53.4001 140.6 52.7001 140.2 52.2001C139.8 51.7001 139.1 51.2001 138.4 50.9001C137.7 50.6001 136.9 50.5001 136.1 50.5001C135.3 50.5001 134.5 50.6001 133.8 50.9001C133.1 51.2001 132.5 51.6001 132 52.2001C131.5 52.8001 131.1 53.4001 130.8 54.2001C130.5 55.0001 130.4 55.9001 130.4 56.9001C130.4 57.9001 130.5 58.8001 130.8 59.6001C131.1 60.4001 131.5 61.1001 132 61.6001C132.5 62.2001 133.1 62.6001 133.8 62.9001C134.5 63.2001 135.3 63.3001 136.1 63.3001C136.9 63.3001 137.7 63.2001 138.4 62.9001C139.1 62.6001 139.7 62.2001 140.2 61.6001C140.7 61.0001 141.1 60.4001 141.3 59.6001C141.6 58.8001 141.7 57.9001 141.7 56.9001Z" fill="#5B5958"/>
<path d="M155 51.5002C154.9 51.6002 154.9 51.7002 154.7 51.7002C154.6 51.7002 154.5 51.6002 154.4 51.5002C154.3 51.4002 154.1 51.2002 153.8 51.1002C153.6 50.9002 153.3 50.8002 152.9 50.7002C152.5 50.6002 152.1 50.5002 151.6 50.5002C151.1 50.5002 150.6 50.6002 150.3 50.7002C150 50.8002 149.6 51.1002 149.3 51.3002C149 51.6002 148.8 51.9002 148.7 52.2002C148.6 52.5002 148.5 52.9002 148.5 53.3002C148.5 53.8002 148.6 54.2002 148.8 54.5002C149 54.8002 149.3 55.1002 149.6 55.3002C149.9 55.5002 150.3 55.7002 150.7 55.9002C151.1 56.1002 151.6 56.2002 152 56.4002C152.4 56.5002 152.9 56.7002 153.3 56.9002C153.7 57.1002 154.1 57.3002 154.4 57.6002C154.7 57.9002 155 58.2002 155.2 58.6002C155.4 59.0002 155.5 59.5002 155.5 60.1002C155.5 60.7002 155.4 61.3002 155.2 61.8002C155 62.3002 154.7 62.8002 154.3 63.2002C153.9 63.6002 153.4 63.9002 152.9 64.1002C152.3 64.3002 151.7 64.4002 151 64.4002C150.1 64.4002 149.3 64.2002 148.6 63.9002C147.9 63.6002 147.3 63.1002 146.8 62.5002L147.1 62.1002C147.2 62.0002 147.3 61.9002 147.4 61.9002C147.5 61.9002 147.5 61.9002 147.6 62.0002C147.7 62.1002 147.8 62.2002 147.9 62.3002C148 62.4002 148.2 62.5002 148.4 62.7002C148.6 62.8002 148.8 63.0002 149 63.1002C149.2 63.2002 149.5 63.3002 149.8 63.4002C150.1 63.5002 150.5 63.5002 150.9 63.5002C151.5 63.5002 152 63.4002 152.4 63.2002C152.8 63.0002 153.2 62.8002 153.5 62.5002C153.8 62.2002 154 61.9002 154.2 61.4002C154.4 61.0002 154.4 60.6002 154.4 60.1002C154.4 59.6002 154.3 59.2002 154.1 58.9002C153.9 58.6002 153.6 58.3002 153.3 58.1002C153 57.9002 152.6 57.7002 152.2 57.5002C151.8 57.4002 151.3 57.2002 150.9 57.1002C150.5 57.0002 150 56.8002 149.6 56.6002C149.2 56.4002 148.8 56.2002 148.5 55.9002C148.2 55.6002 147.9 55.3002 147.7 54.9002C147.5 54.5002 147.4 54.0002 147.4 53.4002C147.4 52.9002 147.5 52.5002 147.7 52.0002C147.9 51.5002 148.1 51.2002 148.5 50.8002C148.8 50.5002 149.3 50.2002 149.8 50.0002C150.3 49.8002 150.9 49.7002 151.5 49.7002C152.2 49.7002 152.9 49.8002 153.5 50.1002C154.1 50.3002 154.6 50.7002 155.1 51.2002L155 51.5002Z" fill="#5B5958"/>
<path d="M2.6 39.7H8.8C11.7 39.7 14.7 39.7999 17.2 38.0999C19.7 36.3999 21.2 33.7999 21.2 30.7C21.2 27.7 19.7 24.6999 17 23.2999C14.5 22 11.1 22 8.4 22H2.6V39.7ZM2.6 19.5H7.1C9.9 19.5 12.1 19.7 14.4 18C16.7 16.3 17.4 14.2 17.4 11.3C17.4 8.59995 16.4 5.99995 14 4.49995C11.9 3.19995 9.4 3.19995 7 3.19995H2.6V19.5ZM0 42.2V0.699951H8.2C11.3 0.699951 14.2 0.899951 16.7 3.09995C19.2 5.29995 20.1 8.39995 20.1 11.7C20.1 15.5 18.6 18.3 15.4 20.2C20.5 21.2 23.9 25.4 23.9 30.6C23.9 34 22.6 37 20.1 39.2C17.2 41.7 14.2 42.2 10.5 42.2H0Z" fill="#5B5958"/>
<path d="M49.7999 27.4C49.1999 22.7 45.4 18.5 40.2 18.5C35.1 18.5 30.9 22.5999 30.4 27.4H49.7999ZM30.5 29.7C30.3 36.1 34.6999 40.4 40.5999 40.4C44.4999 40.4 47.7 37.9999 49.5 34.5999L51.5999 35.7999C49.2999 40.1999 45.3 42.7 40.4 42.7C33 42.7 28.2 36.5999 28.2 29.4C28.2 22.3 33 16.2 40.4 16.2C48 16.2 52.5 22.4 52.5 29.7H30.5Z" fill="#5B5958"/>
<path d="M60.7 21.4C60.7 30.7 68.2 38.6 77.5 38.6C86.8 38.6 94.3 30.8 94.3 21.4C94.3 12 86.9 4.2 77.5 4.2C68 4.3 60.7 12 60.7 21.4ZM98.8 21.5C98.8 33.4 89.1 42.9 77.4 42.9C65.7 42.9 56 33.4 56 21.5C56.1 9.6 65.8 0 77.4 0C89.1 0 98.8 9.6 98.8 21.5Z" fill="#5B5958"/>
<path d="M109.3 19.5H109.4C111.2 17 113.5 15.7 116.7 15.7C123.8 15.7 125.4 20.9 125.4 26.9V42.2H121.1V27.6C121.1 23.4 120.8 19.7 115.7 19.7C109.7 19.7 109.3 25.3 109.3 29.9V42.2H105V16.3H109.3V19.5Z" fill="#5B5958"/>
<path d="M151.3 26.4001C150.7 22.7001 147.6 19.6001 143.8 19.6001C140.1 19.6001 136.6 22.6001 136 26.4001H151.3ZM135.8 30.2001C135.9 35.0001 139.2 38.8001 144.2 38.8001C147.9 38.8001 150.3 36.5001 152 33.5001L155.7 35.6001C153.3 40.2001 149.1 42.9001 143.9 42.9001C136.3 42.9001 131.4 37.0001 131.4 29.6001C131.4 22.0001 135.8 15.6001 143.8 15.6001C152 15.6001 156.4 22.5001 155.9 30.2001H135.8Z" fill="#5B5958"/>
</g>
<defs>
<clipPath id="clip0_140_1435">
<rect width="155.9" height="64.2" fill="white"/>
</clipPath>
</defs>
</svg>
