<svg width="196" height="41" viewBox="0 0 196 41" fill="none" xmlns="http://www.w3.org/2000/svg">
<g clip-path="url(#clip0_140_54)">
<path d="M61.7399 24.1598C61.5257 25.3262 61.1416 26.455 60.5999 27.5099C60.0922 28.4822 59.4149 29.3557 58.5999 30.0898C57.7919 30.811 56.8557 31.3743 55.8399 31.7499C54.7349 32.1529 53.5661 32.3526 52.3899 32.3398C51.023 32.3551 49.6657 32.1108 48.3899 31.6198C47.1854 31.1499 46.102 30.4152 45.2199 29.4699C44.2897 28.4426 43.5756 27.2387 43.1199 25.9299C42.5794 24.354 42.3188 22.6955 42.3499 21.0297C42.326 19.36 42.5622 17.6968 43.0499 16.0998C43.4623 14.739 44.1423 13.4743 45.0499 12.3798C45.9203 11.3729 47.0075 10.5762 48.2299 10.0497C49.5559 9.49412 50.9824 9.21854 52.4199 9.23993C53.6656 9.22411 54.9044 9.42705 56.0799 9.83978C57.1219 10.211 58.0852 10.7742 58.9199 11.4999C59.705 12.2014 60.3438 13.051 60.7999 13.9999C61.2726 14.9589 61.5673 15.9955 61.6699 17.0597H57.1399C56.9007 15.9236 56.2796 14.9038 55.3799 14.1699C54.8485 13.768 54.2431 13.475 53.5982 13.3078C52.9534 13.1406 52.2819 13.1023 51.6222 13.1952C50.9626 13.2882 50.3277 13.5105 49.7542 13.8493C49.1806 14.1881 48.6796 14.6369 48.2799 15.1699C47.4057 16.909 46.9504 18.8284 46.9504 20.7748C46.9504 22.7213 47.4057 24.6407 48.2799 26.3798C48.7078 27.0395 49.3043 27.5728 50.0076 27.9245C50.7109 28.2761 51.4954 28.4333 52.2799 28.3798C53.4591 28.441 54.6175 28.0513 55.5199 27.2897C56.402 26.4502 56.991 25.3495 57.1999 24.1498L61.7399 24.1598Z" fill="#435761"/>
<path d="M70.5901 32.01C69.3979 32.0275 68.2133 31.817 67.1001 31.3899C66.1221 31.0063 65.2395 30.4138 64.5141 29.6538C63.7887 28.8939 63.2379 27.9848 62.9001 26.99C62.522 25.89 62.3359 24.733 62.3501 23.5698C62.336 22.3953 62.529 21.2275 62.9201 20.1199C63.274 19.125 63.8328 18.2155 64.5601 17.45C65.2913 16.7014 66.1745 16.1183 67.1501 15.74C68.2486 15.3244 69.4158 15.1207 70.5901 15.1399C71.7481 15.1214 72.8989 15.3252 73.9801 15.74C74.9542 16.1125 75.834 16.6956 76.5566 17.4475C77.2792 18.1995 77.8268 19.1017 78.1601 20.0899C78.9199 22.3442 78.9199 24.7855 78.1601 27.0398C77.8069 28.0276 77.2557 28.9329 76.5401 29.7C75.8145 30.4505 74.9341 31.034 73.9601 31.4099C72.8851 31.822 71.7414 32.0257 70.5901 32.01ZM70.5901 28.46C73.1701 28.46 74.4701 26.8299 74.4701 23.5698C74.4701 20.3098 73.1701 18.72 70.5901 18.72C68.0101 18.72 66.7101 20.3398 66.7101 23.5698C66.7101 26.7999 68.0101 28.46 70.5901 28.46Z" fill="#435761"/>
<path d="M90.53 31.5898V21.8798C90.6274 20.9961 90.4077 20.1065 89.91 19.3698C89.6174 19.1263 89.2793 18.9433 88.9153 18.8317C88.5513 18.7201 88.1688 18.6822 87.79 18.7199C85.6033 18.7199 84.5067 19.9465 84.5 22.3998V31.5898H80.26V15.5898H84.26V17.9299C84.7175 17.0672 85.4112 16.3525 86.26 15.8698C87.2451 15.365 88.3441 15.1238 89.45 15.1698C90.1709 15.1616 90.8879 15.2767 91.57 15.5099C92.1948 15.7199 92.7676 16.0608 93.25 16.5099C93.7284 16.9903 94.1058 17.5614 94.36 18.1899C94.6411 18.9234 94.777 19.7046 94.76 20.4899V31.5998L90.53 31.5898Z" fill="#435761"/>
<path d="M105.74 21.0298H109.68V25.5898C109.682 26.4148 109.554 27.2351 109.3 28.02C109.057 28.7771 108.658 29.4751 108.13 30.0698C107.578 30.6866 106.894 31.172 106.13 31.49C105.206 31.8597 104.215 32.0367 103.22 32.01C102.195 32.0386 101.175 31.8618 100.22 31.49C99.462 31.1697 98.7804 30.6924 98.22 30.0898C97.6906 29.4994 97.2979 28.7994 97.0701 28.0398C96.8275 27.2356 96.7061 26.3998 96.7101 25.5598V11.23H100.88V15.5598H109.74V18.5598H100.88V25.1399C100.831 25.9657 101.03 26.7875 101.45 27.5C101.666 27.7856 101.951 28.0115 102.278 28.1567C102.605 28.3019 102.964 28.3614 103.32 28.3298C103.677 28.3579 104.035 28.2978 104.363 28.1548C104.69 28.0118 104.978 27.7904 105.2 27.51C105.641 26.8236 105.851 26.0142 105.8 25.2L105.74 21.0298Z" fill="#435761"/>
<path d="M111.5 13.6499V9.70996H115.74V13.6499H111.5ZM111.5 31.6499V15.6499H115.74V31.6499H111.5Z" fill="#435761"/>
<path d="M127.92 31.5898V21.8799C128.017 20.9962 127.798 20.1066 127.3 19.3699C127.008 19.1258 126.669 18.9427 126.305 18.831C125.941 18.7194 125.559 18.6817 125.18 18.72C122.987 18.72 121.89 19.9466 121.89 22.3999V31.5898H117.66V15.5898H121.66V17.9299C122.114 17.0649 122.809 16.3495 123.66 15.8699C125.321 15.082 127.218 14.9535 128.97 15.51C129.593 15.7175 130.163 16.0588 130.64 16.51C131.122 16.9877 131.499 17.5595 131.75 18.1899C132.035 18.9227 132.174 19.704 132.16 20.49V31.5998L127.92 31.5898Z" fill="#435761"/>
<path d="M137.92 24.6499C137.929 25.7096 138.304 26.7337 138.98 27.5498C139.295 27.9034 139.684 28.1829 140.12 28.3679C140.555 28.5529 141.027 28.639 141.5 28.6198C142.145 28.6368 142.782 28.4741 143.34 28.1499C143.588 28.0096 143.804 27.8202 143.976 27.5932C144.148 27.3662 144.272 27.1063 144.34 26.8298H148.74C148.326 28.3585 147.406 29.7017 146.13 30.6399C144.834 31.5481 143.282 32.0177 141.7 31.9799C136.367 31.9799 133.7 29.07 133.7 23.25C133.683 22.1087 133.859 20.9726 134.22 19.8899C134.54 18.9379 135.054 18.0626 135.73 17.3198C136.403 16.5939 137.235 16.0328 138.16 15.6799C139.21 15.2822 140.327 15.0886 141.45 15.1098C142.507 15.0392 143.565 15.2169 144.541 15.6284C145.517 16.0399 146.383 16.674 147.07 17.4799C148.337 19.0666 148.97 21.4565 148.97 24.6499H137.92ZM144.6 21.9799C144.588 21.4491 144.483 20.9245 144.29 20.4299C144.119 20.0168 143.872 19.6399 143.56 19.3198C143.259 19.0327 142.901 18.8114 142.51 18.6699C142.125 18.5309 141.719 18.4599 141.31 18.4599C140.899 18.456 140.492 18.5365 140.113 18.6965C139.735 18.8565 139.393 19.0925 139.11 19.3899C138.456 20.0974 138.08 21.0171 138.05 21.9799H144.6Z" fill="#435761"/>
<path d="M160.74 31.5898V21.8799C160.837 20.9962 160.618 20.1066 160.12 19.3699C159.828 19.1258 159.49 18.9427 159.126 18.831C158.762 18.7194 158.379 18.6817 158 18.72C155.807 18.72 154.71 19.9466 154.71 22.3999V31.5898H150.48V15.5898H154.48V17.9299C154.934 17.0649 155.629 16.3495 156.48 15.8699C158.141 15.082 160.038 14.9535 161.79 15.51C162.413 15.7175 162.983 16.0588 163.46 16.51C163.942 16.9877 164.319 17.5595 164.57 18.1899C164.855 18.9227 164.994 19.704 164.98 20.49V31.5998L160.74 31.5898Z" fill="#435761"/>
<path d="M175.9 21.0298H179.84V25.5898C179.845 26.4143 179.721 27.2346 179.47 28.02C179.226 28.7974 178.814 29.5113 178.262 30.1111C177.711 30.7109 177.034 31.1817 176.28 31.49C175.352 31.8586 174.358 32.0355 173.36 32.01C172.335 32.0378 171.315 31.861 170.36 31.49C169.601 31.1708 168.92 30.6934 168.36 30.0898C167.827 29.5 167.431 28.8 167.2 28.0398C166.957 27.2356 166.836 26.3998 166.84 25.5598V11.23H171.01V15.5598H179.87V18.5598H171.01V25.1399C170.961 25.9657 171.159 26.7875 171.58 27.5C171.798 27.7857 172.085 28.0116 172.413 28.1567C172.742 28.3019 173.102 28.3613 173.46 28.3298C173.815 28.358 174.172 28.2979 174.498 28.1548C174.824 28.0117 175.11 27.7903 175.33 27.51C175.771 26.8236 175.981 26.0142 175.93 25.2L175.9 21.0298Z" fill="#435761"/>
<path d="M191.21 20.41C191.193 20.093 191.11 19.7832 190.965 19.5006C190.82 19.218 190.617 18.9692 190.37 18.7701C189.715 18.4065 188.967 18.2429 188.22 18.2999C187.586 18.2691 186.952 18.3713 186.36 18.6C186.163 18.681 185.995 18.82 185.879 18.9987C185.763 19.1773 185.704 19.387 185.71 19.6C185.703 19.8247 185.761 20.0468 185.876 20.2399C185.991 20.433 186.159 20.5892 186.36 20.6901C186.978 21.0148 187.633 21.2633 188.31 21.4301C189.23 21.6901 190.09 21.92 190.92 22.13C191.66 22.305 192.388 22.5253 193.1 22.7899C193.883 23.0735 194.574 23.5645 195.1 24.2101C195.589 24.9338 195.828 25.7978 195.78 26.67C195.817 27.4166 195.675 28.1612 195.365 28.8414C195.056 29.5217 194.587 30.1177 194 30.58C192.465 31.6152 190.627 32.1081 188.78 31.9801C186.762 32.1142 184.758 31.5646 183.09 30.42C182.474 29.9496 181.974 29.3447 181.627 28.6515C181.281 27.9583 181.097 27.195 181.09 26.42H185.45C185.433 26.7644 185.504 27.1073 185.659 27.4156C185.813 27.724 186.044 27.9874 186.33 28.1801C187.061 28.6308 187.913 28.847 188.77 28.7999C189.456 28.8156 190.138 28.6862 190.77 28.42C191.029 28.3247 191.252 28.1492 191.404 27.9191C191.557 27.6889 191.633 27.416 191.62 27.14C191.633 26.8834 191.566 26.6292 191.428 26.4125C191.29 26.1957 191.088 26.0271 190.85 25.9301C190.267 25.6676 189.661 25.4599 189.04 25.3099C187.7 24.9899 186.61 24.6901 185.79 24.4301C185.054 24.213 184.351 23.8968 183.7 23.4901C183.032 23.1046 182.485 22.5399 182.12 21.86C181.824 21.2352 181.674 20.5513 181.68 19.86C181.677 19.2126 181.799 18.5708 182.04 17.9701C182.291 17.3728 182.694 16.852 183.21 16.4601C183.838 15.993 184.552 15.6532 185.31 15.4601C186.331 15.2095 187.379 15.0918 188.43 15.11C190.75 15.11 192.46 15.5534 193.56 16.4401C194.123 16.9314 194.574 17.5368 194.884 18.2162C195.195 18.8955 195.357 19.6331 195.36 20.38L191.21 20.41Z" fill="#435761"/>
<path d="M10.5401 8.03988C12.9144 7.79905 15.1887 6.95956 17.1501 5.59994C19.3511 4.09872 21.8904 3.16756 24.5401 2.88998C25.6202 2.74431 26.7108 2.69087 27.8001 2.73007C23.9168 0.324833 19.2714 -0.533202 14.7851 0.326262C10.2989 1.18573 6.29946 3.6998 3.58008 7.36996C5.80759 8.1716 8.20055 8.40187 10.5401 8.03988Z" fill="#50AD95"/>
<path d="M12.3 14.18C14.4433 14.4708 16.6254 14.1699 18.61 13.3099C20.893 12.4038 23.3635 12.0723 25.8045 12.3443C28.2456 12.6163 30.5825 13.4836 32.61 14.87C33.7455 15.6825 35.0099 16.2979 36.35 16.69C35.9923 12.3645 34.098 8.31002 31.01 5.26009C28.9983 4.63583 26.8696 4.48506 24.79 4.8199C22.4162 5.05604 20.1415 5.89244 18.18 7.25008C15.9788 8.75979 13.4349 9.69482 10.78 9.97005C9.93775 10.0799 9.08942 10.1366 8.24002 10.14C6.43715 10.1272 4.64914 9.81296 2.95003 9.21004L2.47002 9.05989C2.31002 9.31989 2.16002 9.59995 2.02002 9.86995C3.56542 10.3108 5.02338 11.0145 6.33002 11.95C8.07978 13.2232 10.1441 13.9943 12.3 14.18Z" fill="#808938"/>
<path d="M10.54 24.1399C12.9132 23.8944 15.1864 23.0553 17.15 21.7C19.3759 20.2452 21.9006 19.3101 24.537 18.9639C27.1734 18.6177 29.854 18.8692 32.38 19.7C33.6329 20.1383 34.9369 20.4139 36.26 20.52C36.34 19.9134 36.39 19.2932 36.41 18.6599C34.6622 18.2539 33.0132 17.5025 31.56 16.45C29.8017 15.1717 27.7263 14.4004 25.56 14.22C23.4176 13.9198 21.2339 14.2173 19.25 15.0798C16.9686 15.9938 14.4967 16.3298 12.0541 16.0576C9.6116 15.7854 7.27423 14.9137 5.24998 13.52C4.028 12.6373 2.65064 11.9926 1.18998 11.6199C0.3888 13.7072 -0.0213569 15.9241 -0.0200124 18.1599C-0.0213411 19.6735 0.163365 21.1814 0.529975 22.6499C1.54802 22.8212 2.55108 23.072 3.52998 23.3999C5.7677 24.2301 8.17823 24.4846 10.54 24.1399Z" fill="#593C1B"/>
<path d="M18.87 30.9299C16.5871 31.836 14.1166 32.1675 11.6755 31.8955C9.23446 31.6235 6.89754 30.7562 4.87004 29.3699C4.28223 28.9675 3.67116 28.6003 3.04004 28.27C4.48182 30.45 6.37623 32.2939 8.59439 33.6763C10.8126 35.0586 13.3024 35.947 15.8946 36.281C18.4869 36.615 21.1206 36.3865 23.6167 35.6116C26.1128 34.8366 28.4128 33.5331 30.36 31.7898C28.805 30.7972 27.0293 30.2031 25.19 30.0598C23.0434 29.7651 20.8571 30.0662 18.87 30.9299Z" fill="#E9A818"/>
<path d="M31.8 21.65C29.5452 20.893 27.148 20.6572 24.7889 20.9603C22.4298 21.2634 20.1702 22.0976 18.18 23.4C15.9761 24.9028 13.4331 25.834 10.78 26.11C9.93839 26.2277 9.08975 26.2878 8.23997 26.2899C6.43649 26.2745 4.64836 25.9568 2.94998 25.3499C2.37998 25.1799 1.82998 25.01 1.22998 24.86C1.34998 25.15 1.45998 25.43 1.58998 25.71C3.14237 26.1487 4.60725 26.8523 5.91997 27.7899C7.69472 29.0141 9.74496 29.7801 11.8877 30.0191C14.0305 30.2582 16.1991 29.963 18.2 29.16C20.464 28.1766 22.9537 27.8308 25.4 28.16C27.6778 28.3523 29.868 29.1271 31.76 30.41C33.7743 28.1635 35.2001 25.4527 35.91 22.5201C34.5101 22.3955 33.1302 22.1033 31.8 21.65Z" fill="#C45941"/>
<path d="M105.54 40.5899H105.11V36.3399H106.41C106.766 36.3261 107.117 36.4278 107.41 36.6299C107.538 36.7301 107.639 36.86 107.705 37.0081C107.771 37.1562 107.8 37.3181 107.79 37.48C107.794 37.7532 107.694 38.0176 107.51 38.22C107.293 38.4336 107.004 38.5583 106.7 38.5698L107.92 40.5698H107.4L106.24 38.5698H105.52L105.54 40.5899ZM105.54 38.22H106.3C106.465 38.2235 106.63 38.2033 106.79 38.1599C106.907 38.1314 107.017 38.0768 107.11 38C107.187 37.9378 107.248 37.8592 107.29 37.77C107.356 37.5824 107.356 37.3776 107.29 37.19C107.251 37.0992 107.189 37.02 107.11 36.96C107.019 36.8794 106.909 36.8241 106.79 36.7998C106.63 36.7565 106.465 36.7365 106.3 36.74H105.54V38.22Z" fill="#435761"/>
<path d="M109.45 40.1899H111.74V40.5898H109.04V36.3398H111.67V36.74H109.47V38.1799H111.52V38.5798H109.47L109.45 40.1899Z" fill="#435761"/>
<path d="M112.86 40.5898H112.35L114.2 36.3398H114.62L116.46 40.5898H115.96L115.49 39.47H113.32L112.86 40.5898ZM113.48 39.0798H115.32L114.41 36.8499L113.48 39.0798Z" fill="#435761"/>
<path d="M117.83 40.1899H119.83V40.5898H117.43V36.3398H117.86L117.83 40.1899Z" fill="#435761"/>
<path d="M123.21 40.1899H125.48V40.5898H122.74V36.3398H125.37V36.74H123.18V38.1799H125.18V38.5798H123.18L123.21 40.1899Z" fill="#435761"/>
<path d="M128.74 37.0498C128.652 36.9146 128.529 36.8048 128.386 36.7312C128.242 36.6575 128.081 36.6226 127.92 36.6299C127.808 36.6318 127.697 36.6487 127.59 36.6799C127.487 36.7075 127.389 36.7513 127.3 36.8098C127.22 36.8802 127.149 36.9609 127.09 37.0498C127.04 37.1595 127.016 37.2794 127.02 37.3999C127.014 37.4804 127.025 37.5613 127.053 37.6372C127.08 37.713 127.124 37.782 127.18 37.8398C127.295 37.9544 127.431 38.046 127.58 38.1098L128.1 38.2898C128.285 38.337 128.463 38.4078 128.63 38.5C128.788 38.5895 128.924 38.7122 129.03 38.8598C129.148 39.0406 129.204 39.2547 129.19 39.47C129.193 39.6473 129.152 39.8225 129.07 39.98C128.996 40.1363 128.882 40.2706 128.74 40.3699C128.606 40.4712 128.458 40.552 128.3 40.6098C128.138 40.6599 127.97 40.687 127.8 40.6899C127.547 40.6905 127.296 40.6429 127.06 40.5498C126.816 40.4486 126.608 40.2782 126.46 40.0598L126.85 39.7798C126.946 39.9374 127.08 40.0683 127.24 40.1599C127.418 40.2563 127.618 40.3045 127.82 40.2998C127.928 40.2971 128.036 40.2805 128.14 40.25C128.242 40.2122 128.34 40.1616 128.43 40.0998C128.513 40.0286 128.584 39.9441 128.64 39.8498C128.699 39.7503 128.727 39.6355 128.72 39.52C128.725 39.3939 128.694 39.2688 128.63 39.1599C128.569 39.0604 128.487 38.9752 128.39 38.9099C128.279 38.8447 128.162 38.7911 128.04 38.75L127.64 38.6098C127.502 38.572 127.369 38.5219 127.24 38.4599C127.112 38.4118 126.993 38.3406 126.89 38.25C126.783 38.164 126.698 38.0544 126.64 37.9299C126.575 37.775 126.544 37.6078 126.55 37.4399C126.546 37.2561 126.587 37.074 126.67 36.9099C126.74 36.7595 126.847 36.6287 126.98 36.5298C127.111 36.4291 127.261 36.3545 127.42 36.3098C127.794 36.1917 128.196 36.1917 128.57 36.3098C128.782 36.398 128.971 36.5352 129.12 36.7099L128.74 37.0498Z" fill="#435761"/>
<path d="M131.74 40.5898H131.31V36.74H129.89V36.3398H133.16V36.74H131.74V40.5898Z" fill="#435761"/>
<path d="M133.74 40.5898H133.24L135.08 36.3398H135.5L137.35 40.5898H136.85L136.38 39.47H134.21L133.74 40.5898ZM134.37 39.0798H136.21L135.29 36.8499L134.37 39.0798Z" fill="#435761"/>
<path d="M139.18 40.5898H138.74V36.74H137.32V36.3398H140.59V36.74H139.17L139.18 40.5898Z" fill="#435761"/>
<path d="M142.05 40.1899H144.32V40.5898H141.62V36.3398H144.25V36.74H142.05V38.1799H144.11V38.5798H142.05V40.1899Z" fill="#435761"/>
<path d="M147.5 36.3398H148.91C149.179 36.3433 149.446 36.3907 149.7 36.48C149.961 36.5657 150.205 36.6977 150.42 36.8699C150.635 37.0572 150.812 37.2847 150.94 37.5398C151.065 37.8321 151.13 38.1469 151.13 38.4648C151.13 38.7828 151.065 39.0976 150.94 39.3899C150.812 39.645 150.635 39.8725 150.42 40.0598C150.205 40.232 149.961 40.3643 149.7 40.45C149.446 40.5392 149.179 40.5864 148.91 40.5898H147.5V36.3398ZM147.93 40.1899H148.74C149.027 40.196 149.313 40.1449 149.58 40.0398C149.805 39.958 150.007 39.8245 150.17 39.6499C150.328 39.4967 150.448 39.3082 150.52 39.0999C150.68 38.6916 150.68 38.238 150.52 37.8298C150.448 37.6215 150.328 37.433 150.17 37.2798C150.007 37.1052 149.805 36.9717 149.58 36.8899C149.313 36.7848 149.027 36.7339 148.74 36.74H147.9L147.93 40.1899Z" fill="#435761"/>
<path d="M152.79 40.1899H155.06V40.5898H152.36V36.3398H154.98V36.74H152.79V38.1799H154.84V38.5798H152.79V40.1899Z" fill="#435761"/>
<path d="M157.5 39.9399L158.89 36.3398H159.36L157.71 40.5898H157.27L155.66 36.3398H156.14L157.5 39.9399Z" fill="#435761"/>
<path d="M160.74 40.1899H163.01V40.5898H160.31V36.3398H162.93V36.74H160.74V38.1799H162.74V38.5798H160.74V40.1899Z" fill="#435761"/>
<path d="M164.63 40.1899H166.63V40.5898H164.23V36.3398H164.66L164.63 40.1899Z" fill="#435761"/>
<path d="M171.68 38.46C171.686 38.7676 171.632 39.0732 171.52 39.3599C171.298 39.8879 170.878 40.3078 170.35 40.5298C170.07 40.6402 169.771 40.6948 169.47 40.69C169.172 40.6947 168.877 40.6402 168.6 40.5298C168.336 40.4185 168.096 40.2592 167.89 40.0599C167.694 39.8575 167.538 39.6201 167.43 39.3599C167.203 38.7848 167.203 38.145 167.43 37.5699C167.538 37.3097 167.694 37.0723 167.89 36.8699C168.096 36.6706 168.336 36.5113 168.6 36.3999C168.877 36.2896 169.172 36.2353 169.47 36.24C169.771 36.2353 170.07 36.2895 170.35 36.3999C170.878 36.6219 171.298 37.0419 171.52 37.5699C171.631 37.8534 171.685 38.1558 171.68 38.46ZM171.22 38.46C171.221 38.2247 171.18 37.9912 171.1 37.7701C171.021 37.5533 170.903 37.3531 170.75 37.18C170.595 37.0116 170.408 36.8755 170.2 36.7798C169.971 36.6765 169.722 36.6253 169.47 36.6299C169.219 36.6263 168.97 36.6774 168.74 36.7798C168.534 36.878 168.347 37.0138 168.19 37.18C168.041 37.3535 167.925 37.5538 167.85 37.7701C167.69 38.2195 167.69 38.7105 167.85 39.16C167.925 39.3763 168.041 39.5765 168.19 39.75C168.347 39.9162 168.534 40.0517 168.74 40.1499C168.97 40.2524 169.219 40.3035 169.47 40.2998C169.722 40.3045 169.971 40.2533 170.2 40.1499C170.408 40.0543 170.595 39.9185 170.75 39.75C170.903 39.5769 171.021 39.3767 171.1 39.16C171.182 38.9357 171.222 38.6986 171.22 38.46Z" fill="#435761"/>
<path d="M172.9 36.3399H174.14C174.496 36.3261 174.847 36.4278 175.14 36.6299C175.266 36.7312 175.365 36.8615 175.429 37.0095C175.494 37.1576 175.521 37.319 175.51 37.48C175.521 37.641 175.494 37.8024 175.429 37.9505C175.365 38.0985 175.266 38.2286 175.14 38.3299C174.845 38.5284 174.495 38.6266 174.14 38.6099H173.34V40.6099H172.9V36.3399ZM173.34 38.22H174.03C174.195 38.2235 174.36 38.2033 174.52 38.1599C174.636 38.1293 174.745 38.0749 174.84 38C174.917 37.9404 174.975 37.8608 175.01 37.77C175.05 37.6785 175.07 37.5798 175.07 37.48C175.07 37.3802 175.05 37.2815 175.01 37.19C174.978 37.0978 174.919 37.0176 174.84 36.96C174.748 36.8813 174.638 36.8262 174.52 36.7998C174.36 36.7565 174.195 36.7365 174.03 36.74H173.34V38.22Z" fill="#435761"/>
<path d="M178.79 39.7898L180.22 36.3398H180.88V40.5898H180.45V36.9199L178.92 40.5898H178.69L177.16 36.9199V40.5898H176.74V36.3398H177.4L178.79 39.7898Z" fill="#435761"/>
<path d="M182.82 40.1899H185.09V40.5898H182.39V36.3398H185.02V36.74H182.82V38.1799H184.88V38.5798H182.82V40.1899Z" fill="#435761"/>
<path d="M189.37 39.9399V36.3398H189.8V40.5898H189.26L186.74 36.96V40.5898H186.31V36.3398H186.85L189.37 39.9399Z" fill="#435761"/>
<path d="M192.68 40.5898H192.25V36.74H190.83V36.3398H194.1V36.74H192.68V40.5898Z" fill="#435761"/>
</g>
<defs>
<clipPath id="clip0_140_54">
<rect width="195.74" height="40.69" fill="white"/>
</clipPath>
</defs>
</svg>
