<svg width="131" height="79" viewBox="0 0 131 79" fill="none" xmlns="http://www.w3.org/2000/svg">
<path d="M26.6051 26.4902H36.727C39.9994 26.4902 42.2619 27.3453 43.6981 28.8125C44.9531 30.0366 45.5939 31.6849 45.5939 33.7972V33.8591C45.5939 37.1314 43.8506 39.3012 41.1903 40.4347L46.2988 47.8963H39.4492L35.1361 41.4135H32.5377V47.8963H26.6051V26.4902ZM36.4508 36.7646C38.4703 36.7646 39.6326 35.7858 39.6326 34.2258V34.1596C39.6326 32.4781 38.4085 31.623 36.4199 31.623H32.5377V36.7602L36.4508 36.7646Z" fill="#DC4341"/>
<path d="M6.56895 31.6871H0.145813V26.4902H18.9269V31.6871H12.5016V47.8963H6.56895V31.6871Z" fill="#CD7973"/>
<path d="M6.56895 57.7176H0.145813V52.5208H18.9269V57.7176H12.5016V73.9312H6.56895V57.7176Z" fill="#421F10"/>
<path d="M25.7744 63.2836V63.224C25.7744 57.077 30.7281 52.0923 37.3347 52.0923C43.9412 52.0923 48.8243 57.0151 48.8243 63.1621V63.224C48.8243 69.3709 43.8705 74.3534 37.264 74.3534C30.6574 74.3534 25.7744 69.4306 25.7744 63.2836ZM42.7768 63.2836V63.224C42.7768 60.1306 40.5451 57.4438 37.2728 57.4438C34.0005 57.4438 31.8616 60.0732 31.8616 63.1621V63.224C31.8616 66.3173 34.0933 69.0019 37.3347 69.0019C40.5761 69.0019 42.7768 66.3726 42.7768 63.2836Z" fill="#8E492E"/>
<path d="M54.2576 58.7959H59.4522V63.911H54.2576V58.7959Z" fill="#D06345"/>
<path d="M0 0.554688H8.25043C15.8955 0.554688 20.33 4.95831 20.33 11.1362V11.1958C20.33 17.3826 15.8336 21.9607 8.1267 21.9607H0V0.554688ZM8.34765 16.7042C11.8962 16.7042 14.2493 14.7466 14.2493 11.2909V11.229C14.2493 7.8042 11.8962 5.81782 8.34765 5.81782H5.93262V16.7042H8.34765Z" fill="#9A97B4"/>
<path d="M28.8323 0.554688H34.7981V21.9607H28.8323V0.554688Z" fill="#DCA9AA"/>
<path d="M53.8929 26.6758H59.8587V48.0796H53.8929V26.6758Z" fill="#E09D23"/>
<path d="M42.0189 18.781L45.3221 14.837C47.4322 16.5185 49.7854 17.4045 52.2623 17.4045C53.8532 17.4045 54.7105 16.8543 54.7105 15.9374V15.8755C54.7105 14.9917 54.0056 14.499 51.1001 13.8273C46.544 12.7866 43.0286 11.5028 43.0286 7.09919V7.03733C43.0286 3.06015 46.1772 0.187744 51.3144 0.187744C54.9557 0.187744 57.7994 1.16657 60.1216 3.03142L57.1564 7.22956C55.1988 5.85301 53.0577 5.11945 51.1619 5.11945C49.7257 5.11945 49.0209 5.73149 49.0209 6.49599V6.54018C49.0209 7.51901 49.7545 7.94545 52.7219 8.61936C57.6447 9.68878 60.7028 11.2708 60.7028 15.2856V15.3474C60.7028 19.7201 57.247 22.3185 52.048 22.3185C48.2564 22.3274 44.6482 21.1364 42.0189 18.781Z" fill="#EFCBDD"/>
<path d="M107.737 0L88.8922 30.5845L70.0425 0H69.9652V36.3249L88.4392 64.5562H88.8922L109.092 33.6315V79H130.876V0H107.737Z" fill="url(#paint0_linear_140_1900)"/>
<defs>
<linearGradient id="paint0_linear_140_1900" x1="69.9652" y1="39.5" x2="130.873" y2="39.5" gradientUnits="userSpaceOnUse">
<stop stop-color="#286362"/>
<stop offset="1" stop-color="#3C706F"/>
</linearGradient>
</defs>
</svg>
