<svg width="224" height="39" viewBox="0 0 224 39" fill="none" xmlns="http://www.w3.org/2000/svg">
<g clip-path="url(#clip0_140_1250)">
<path d="M15.33 27.48L14.93 26.48C14.6551 25.7746 14.2367 25.134 13.7014 24.5986C13.166 24.0633 12.5254 23.6448 11.82 23.3699L10.82 22.97L10.39 22.8101L8.01003 21.8699L7.50003 21.6699L5.07004 20.72L3.07004 19.9299C2.92184 19.8785 2.79416 19.7808 2.7059 19.6511C2.61765 19.5214 2.57351 19.3667 2.58003 19.21C2.57351 19.0532 2.61765 18.8985 2.7059 18.7688C2.79416 18.6391 2.92184 18.5414 3.07004 18.49L5.07004 17.7L7.50003 16.75L8.01003 16.55L7.01003 14.29V14.2L4.66003 15.1299L1.88004 16.22C1.2872 16.4202 0.781939 16.8194 0.450027 17.3499C0.173597 17.938 0.0302734 18.5801 0.0302734 19.23C0.0302734 19.8799 0.173597 20.5217 0.450027 21.1099C0.781939 21.6403 1.2872 22.0397 1.88004 22.24L4.66003 23.3298L7.01003 24.26H7.10004L9.39003 25.1599L9.88004 25.3499C10.5827 25.6295 11.2209 26.0497 11.7556 26.5845C12.2904 27.1192 12.7104 27.7573 12.99 28.46L13.18 28.95L15.53 27.95L15.33 27.48Z" fill="url(#paint0_linear_140_1250)"/>
<path d="M33.45 29.25L32.26 26.51L31.26 24.2V24.0999L30.26 21.8499L30.05 21.3699C29.7483 20.6757 29.5927 19.9269 29.5927 19.1699C29.5927 18.413 29.7483 17.6642 30.05 16.97L30.26 16.49L27.87 15.55L27.69 15.97L27.26 16.97C26.9536 17.6629 26.7953 18.4122 26.7953 19.1699C26.7953 19.9276 26.9536 20.6769 27.26 21.3699L27.69 22.3699L27.87 22.79L28.87 25.1299L29.09 25.6299L30.09 28.03L30.95 30.03C31.0139 30.1734 31.0319 30.3328 31.0015 30.4868C30.9711 30.6408 30.8937 30.7816 30.78 30.8899C30.6723 31.0045 30.5308 31.0818 30.3762 31.1106C30.2215 31.1394 30.0617 31.1182 29.92 31.05L27.92 30.1899L25.52 29.1399L25.02 28.9199L24.12 31.21V31.3L26.43 32.3L29.18 33.5C29.7403 33.7793 30.3807 33.8535 30.99 33.71C31.6048 33.5167 32.1617 33.173 32.61 32.71C33.0797 32.267 33.4245 31.7082 33.61 31.0898C33.7729 30.4766 33.7163 29.8259 33.45 29.25Z" fill="url(#paint1_linear_140_1250)"/>
<path d="M23.22 4.68994L22.12 1.8999C21.9243 1.30462 21.5239 0.798041 20.99 0.469971C20.4019 0.199677 19.7623 0.0598145 19.115 0.0598145C18.4678 0.0598145 17.8282 0.199677 17.24 0.469971C16.7058 0.800147 16.3029 1.30554 16.1 1.8999L15.01 4.68994L14.09 7.03003V7.12988L13.19 9.41992L13 9.90991C12.7218 10.6122 12.3022 11.2499 11.7672 11.7832C11.2322 12.3165 10.5932 12.7341 9.89003 13.01L9.40002 13.21L10.4 15.55L10.83 15.3899L11.83 14.99C12.5354 14.715 13.176 14.2966 13.7114 13.7612C14.2467 13.2259 14.6651 12.5853 14.94 11.8799L15.34 10.8799L15.51 10.46L16.44 8.07983L16.64 7.56982L17.64 5.12988L18.42 3.12988C18.4728 2.98257 18.571 2.85586 18.7003 2.76782C18.8297 2.67978 18.9836 2.63495 19.14 2.63989C19.2961 2.63647 19.4494 2.68194 19.5784 2.76978C19.7075 2.85761 19.8059 2.98343 19.86 3.12988L20.64 5.12988L21.64 7.56982L21.84 8.07983L24.09 7.07983H24.18L23.22 4.68994Z" fill="url(#paint2_linear_140_1250)"/>
<path d="M33.66 7.27992C33.4376 6.67088 33.0854 6.11741 32.6278 5.65809C32.1702 5.19877 31.6182 4.84442 31.01 4.61976C30.4007 4.47621 29.7603 4.55047 29.2 4.82972L26.45 6.02992L24.14 7.02992H24.05L21.8 8.02992L21.31 8.23988C20.6176 8.54189 19.8704 8.69764 19.115 8.69764C18.3596 8.69764 17.6124 8.54189 16.92 8.23988L16.43 8.02992L15.5 10.4098L15.91 10.5897L16.91 11.0299C17.6042 11.3316 18.3531 11.4872 19.11 11.4872C19.8669 11.4872 20.6158 11.3316 21.31 11.0299L22.31 10.5897L22.72 10.4098L25.07 9.4098L25.57 9.18983L27.97 8.13978L29.97 7.27992C30.1128 7.21292 30.2732 7.19318 30.4279 7.22376C30.5826 7.25434 30.7235 7.33357 30.83 7.44984C30.9437 7.55808 31.0211 7.69893 31.0515 7.85291C31.0819 8.0069 31.0639 8.16659 31 8.30995L30.14 10.3099L29.14 12.7098L28.92 13.2098L31.21 14.1098H31.3L32.3 11.7999L33.49 9.05995C33.748 8.50336 33.808 7.87528 33.66 7.27992Z" fill="url(#paint3_linear_140_1250)"/>
<path d="M37.81 17.29C37.4781 16.7596 36.9728 16.3602 36.38 16.1599L33.6 15.0698L31.25 14.1399H31.16L28.87 13.24L28.38 13.04C27.6759 12.7657 27.0361 12.3487 26.5009 11.8152C25.9657 11.2817 25.5466 10.6432 25.27 9.93994L25.08 9.44995L22.73 10.45L22.89 10.8699L23.29 11.8699C23.5687 12.5747 23.9895 13.2147 24.5263 13.7498C25.0631 14.2848 25.7043 14.7036 26.41 14.98L27.41 15.3799L27.83 15.54L30.22 16.48L30.73 16.6799L33.16 17.6299L35.16 18.4199C35.3063 18.4731 35.4318 18.5716 35.5182 18.7012C35.6045 18.8307 35.6472 18.9844 35.64 19.1399C35.6472 19.2954 35.6045 19.4491 35.5182 19.5786C35.4318 19.7081 35.3063 19.8067 35.16 19.8599L33.16 20.6499L30.73 21.5999L30.22 21.8L31.22 24.05V24.1499L33.57 23.22L36.35 22.1299C36.9428 21.9296 37.4481 21.5305 37.78 21C38.0564 20.4118 38.1997 19.7698 38.1997 19.1199C38.1997 18.47 38.0564 17.8282 37.78 17.24L37.81 17.29Z" fill="url(#paint4_linear_140_1250)"/>
<path d="M22.31 27.72L21.31 27.28C20.6158 26.9784 19.8669 26.8225 19.11 26.8225C18.3531 26.8225 17.6042 26.9784 16.91 27.28L15.91 27.72L15.5 27.8999L13.15 28.8999L12.65 29.1199L10.25 30.1699L8.25 31.03C8.10976 31.0974 7.95166 31.1181 7.79875 31.0894C7.64585 31.0606 7.50613 30.9836 7.39999 30.8699C7.28372 30.7633 7.20453 30.6225 7.17395 30.4678C7.14337 30.3131 7.163 30.1528 7.23 30.01L8.09 28.01L9.09 25.6099L9.31 25.1099L7.02 24.21H6.92999L5.92999 26.52L4.74001 29.26C4.45828 29.8229 4.38053 30.466 4.52 31.0798C4.74467 31.688 5.09893 32.2402 5.55826 32.6978C6.01758 33.1554 6.57096 33.5076 7.17999 33.73C7.78938 33.8727 8.42947 33.7985 8.99001 33.52L11.73 32.3198L14.05 31.3198H14.14L16.39 30.3198L16.88 30.1099C17.5724 29.8079 18.3196 29.6521 19.075 29.6521C19.8304 29.6521 20.5776 29.8079 21.27 30.1099L21.76 30.3198L22.69 27.9399L22.31 27.72Z" fill="url(#paint5_linear_140_1250)"/>
<path d="M11.7701 6.03009L9.03006 4.82989C8.46953 4.55146 7.82946 4.47724 7.22006 4.61993C6.60228 4.80668 6.0439 5.15136 5.60007 5.61993C5.13803 6.06903 4.79446 6.62573 4.60007 7.24005C4.46234 7.84972 4.5364 8.48817 4.81006 9.05011L6.01006 11.7901L7.01006 14.0999V14.2L8.01006 16.45L8.22006 16.93C8.52174 17.6242 8.67742 18.373 8.67742 19.1299C8.67742 19.8869 8.52174 20.6357 8.22006 21.3299L8.01006 21.8101L10.3901 22.7501L10.5701 22.3299L11.0101 21.3299C11.3165 20.6369 11.4748 19.8876 11.4748 19.1299C11.4748 18.3722 11.3165 17.623 11.0101 16.93L10.5701 15.93L10.3901 15.5101L9.39006 13.17L9.17006 12.67L8.17006 10.2701L7.31006 8.27008C7.24462 8.12701 7.22583 7.9669 7.25633 7.81256C7.28684 7.65822 7.3651 7.51738 7.48006 7.40997C7.58498 7.29453 7.72412 7.21571 7.87709 7.18512C8.03006 7.15453 8.18881 7.17385 8.33006 7.24005L10.3301 8.09991L12.7301 9.14996L13.2301 9.36993L14.1301 7.07989V6.98004L11.7701 6.03009Z" fill="url(#paint6_linear_140_1250)"/>
<path d="M27.84 22.79L27.42 22.95L26.42 23.3499C25.7164 23.6279 25.0774 24.0476 24.5425 24.5825C24.0075 25.1175 23.588 25.7564 23.31 26.46L22.91 27.46L22.75 27.8799L21.82 30.26L21.6199 30.77L20.6199 33.21L19.84 35.21C19.7859 35.3564 19.6874 35.4822 19.5584 35.5701C19.4293 35.6579 19.276 35.7034 19.1199 35.7C18.9635 35.7049 18.8096 35.6601 18.6802 35.572C18.5509 35.484 18.4527 35.3573 18.3999 35.21L17.6199 33.21L16.6199 30.77L16.42 30.26L14.17 31.26H14.08L15 33.6099L16.09 36.3999C16.2928 36.9943 16.6957 37.4997 17.2299 37.8298C17.8181 38.1001 18.4577 38.2402 19.1049 38.2402C19.7522 38.2402 20.3918 38.1001 20.9799 37.8298C21.5138 37.5018 21.9142 36.9952 22.11 36.3999L23.21 33.6099L24.13 31.26V31.1699L25.03 28.8799L25.22 28.3899C25.498 27.6863 25.9175 27.0474 26.4525 26.5125C26.9874 25.9775 27.6264 25.5581 28.33 25.28L28.82 25.0898L27.84 22.79Z" fill="url(#paint7_linear_140_1250)"/>
<path d="M48.39 18.0201L48.98 18.0799C49.16 18.0799 49.36 18.0799 49.58 18.0799H50.27C50.7692 18.0664 51.267 18.0197 51.76 17.94C52.5527 17.842 53.3513 17.7987 54.15 17.8101C55.0024 17.8016 55.8504 17.9332 56.66 18.2C57.3983 18.4473 58.0787 18.8418 58.66 19.3599C59.233 19.8739 59.6839 20.5095 59.98 21.22C60.3123 22.0109 60.4758 22.8624 60.46 23.72C60.488 24.8493 60.23 25.9673 59.71 26.97C59.233 27.8584 58.5464 28.6169 57.71 29.18C56.8338 29.7628 55.8464 30.1576 54.81 30.3399C53.6746 30.5305 52.5154 30.5305 51.38 30.3399V32.69C51.38 33.49 51.38 34.1901 51.38 34.7901C51.38 35.3901 51.43 35.8999 51.46 36.3299C51.4844 36.6952 51.5278 37.0592 51.59 37.42C51.6279 37.6665 51.6813 37.9103 51.75 38.15V38.21H48.36V38.15C48.4286 37.9103 48.4821 37.6665 48.52 37.42C48.52 37.13 48.62 36.7699 48.66 36.3299C48.7 35.8899 48.72 35.3801 48.74 34.7901C48.76 34.2001 48.74 33.49 48.74 32.69V23.4901C48.74 22.6901 48.74 21.99 48.74 21.39C48.74 20.79 48.69 20.2699 48.66 19.8399C48.63 19.4099 48.57 19.0301 48.52 18.7401C48.4821 18.4936 48.4286 18.2498 48.36 18.0101L48.39 18.0201ZM51.39 29.3101C52.2272 29.4755 53.0869 29.4923 53.93 29.3599C54.6605 29.2411 55.3488 28.9384 55.93 28.4801C56.5031 27.995 56.9436 27.3721 57.21 26.67C57.5401 25.7744 57.6962 24.8241 57.67 23.87C57.6767 23.166 57.5961 22.4642 57.43 21.7801C57.2916 21.2115 57.051 20.6726 56.72 20.19C56.4064 19.7649 55.9947 19.4219 55.52 19.19C54.9959 18.9402 54.4204 18.8168 53.84 18.8299C53.44 18.8299 53.08 18.83 52.78 18.88C52.48 18.93 52.23 18.9501 52.02 18.9901C51.8122 19.0199 51.6079 19.07 51.41 19.14L51.39 29.3101Z" fill="#AC826B"/>
<path d="M75.79 38.28V38.23C75.7993 38.1569 75.7993 38.083 75.79 38.01C75.7946 37.9267 75.7946 37.8433 75.79 37.76C75.7883 37.4232 75.748 37.0877 75.67 36.76C75.5565 36.3071 75.4025 35.8653 75.21 35.4399L73.5 31.5999C72.98 31.5999 72.28 31.5999 71.4 31.5999H66.4C65.71 31.5999 65.09 31.5999 64.53 31.5999L62.91 35.3298L62.46 36.47C62.2979 36.8701 62.2163 37.2983 62.22 37.73C62.2086 37.8297 62.2086 37.9304 62.22 38.03C62.2318 38.0893 62.252 38.1465 62.28 38.2V38.25H59.4V38.2C59.6494 37.8931 59.861 37.5574 60.03 37.2C60.3393 36.6414 60.6196 36.0673 60.87 35.48L68.96 17.48H70.09L77.77 34.75C77.95 35.16 78.13 35.5499 78.32 35.9299L78.87 36.9299C79.04 37.2299 79.19 37.4799 79.32 37.6899C79.4021 37.8284 79.4923 37.9619 79.59 38.0898V38.1399L75.79 38.28ZM66.63 30.3799H68.31H70H71.59H72.98L68.98 21.3799L65.08 30.3799H66.63Z" fill="#AC826B"/>
<path d="M84.38 37.04C85.49 37.04 86.51 37.0399 87.45 36.8999C88.39 36.7599 89.19 36.6898 89.89 36.5698C90.59 36.4498 91.44 36.2799 92.11 36.1099L91.7 38.3899H91.19H90.43H89.56H88.69H81.4V38.3398C81.4 38.1398 81.51 37.8899 81.56 37.5999C81.6222 37.239 81.6656 36.8753 81.69 36.51C81.69 36.08 81.76 35.56 81.78 34.96C81.8 34.36 81.78 33.6699 81.78 32.8699V23.6699C81.78 22.8699 81.78 22.1698 81.78 21.5698C81.78 20.9698 81.73 20.45 81.69 20.02C81.6655 19.6514 81.6221 19.2841 81.56 18.9199C81.51 18.6299 81.45 18.3799 81.4 18.1899V18.1299H84.79V18.1899C84.7214 18.4297 84.6679 18.6735 84.63 18.9199C84.563 19.2834 84.5195 19.6509 84.5 20.02C84.5 20.45 84.44 21.0198 84.41 21.5698C84.38 22.1198 84.41 22.8699 84.41 23.6699L84.38 37.04Z" fill="#AC826B"/>
<path d="M93.7 38.22C93.8436 38.0102 93.9643 37.7856 94.06 37.55C94.2071 37.1902 94.3111 36.8142 94.3699 36.4299C94.4699 35.7699 94.59 35.03 94.72 34.2C94.85 33.37 94.97 32.5199 95.11 31.6099C95.25 30.6999 95.38 29.7798 95.52 28.8398C95.66 27.8998 95.79 26.96 95.92 26.04C96.05 25.12 96.17 24.2299 96.28 23.3799C96.39 22.5299 96.51 21.75 96.6 21.04C96.69 20.33 96.77 19.72 96.83 19.2C96.89 18.68 96.94 18.28 96.97 18.02H98.7599L107.65 34.6399L116.47 18.02H117.81L120.13 34.8101C120.19 35.3301 120.26 35.8099 120.34 36.1599C120.42 36.5099 120.49 36.8599 120.57 37.1599C120.623 37.386 120.697 37.6068 120.79 37.8198C120.843 37.9691 120.91 38.1133 120.99 38.25V38.3101H117.43V38.25C117.495 38.0897 117.538 37.9216 117.56 37.75C117.612 37.4698 117.635 37.1849 117.63 36.8999C117.63 36.7799 117.63 36.65 117.63 36.52C117.63 36.39 117.63 36.2599 117.63 36.1099L115.84 22.5698L107.5 38.25L106.5 38.1399L98.11 22.4299C97.7833 24.6633 97.4966 26.7265 97.25 28.6199C97.15 29.4299 97.04 30.24 96.94 31.04C96.84 31.84 96.74 32.6 96.66 33.3C96.58 34 96.52 34.6099 96.47 35.1399C96.42 35.6699 96.3999 36.0598 96.3999 36.3198C96.3999 36.5798 96.3999 36.9199 96.3999 37.1699C96.3999 37.4199 96.4 37.62 96.46 37.79C96.4779 37.9646 96.5046 38.1382 96.5399 38.3101H93.7V38.22Z" fill="#AC826B"/>
<path d="M138.19 38.28V38.23C138.199 38.1569 138.199 38.083 138.19 38.01C138.195 37.9267 138.195 37.8433 138.19 37.76C138.188 37.4232 138.148 37.0877 138.07 36.76C137.956 36.3071 137.803 35.8653 137.61 35.4399L135.9 31.5999C135.38 31.5999 134.67 31.5999 133.8 31.5999H128.8C128.11 31.5999 127.49 31.5999 126.93 31.5999L125.31 35.3298C125.17 35.6798 125.01 36.06 124.85 36.47C124.693 36.8715 124.611 37.2987 124.61 37.73C124.598 37.8296 124.598 37.9304 124.61 38.03C124.622 38.0893 124.642 38.1465 124.67 38.2V38.25H121.79V38.2C122.039 37.8931 122.251 37.5574 122.42 37.2C122.68 36.74 122.95 36.2 123.26 35.48L131.35 17.48H132.48L140.16 34.75C140.33 35.16 140.52 35.5499 140.71 35.9299L141.26 36.9299C141.43 37.2299 141.58 37.4799 141.71 37.6899C141.792 37.8284 141.882 37.9619 141.98 38.0898V38.1399L138.19 38.28ZM129.03 30.3799H130.71H132.4H134H135.38L131.38 21.3799L127.48 30.3799H129.03Z" fill="#AC826B"/>
<path d="M144.59 18.02L159.14 33.51V23.51C159.14 22.71 159.14 22.0099 159.14 21.4099C159.14 20.8099 159.14 20.2899 159.06 19.8499C159.032 19.4843 158.985 19.1207 158.92 18.76C158.882 18.5135 158.829 18.2698 158.76 18.03V17.97H161.28V18.03C161.211 18.2698 161.158 18.5135 161.12 18.76C161.12 19.05 161.03 19.4199 160.99 19.8499C160.95 20.2799 160.93 20.8499 160.91 21.4099C160.89 21.9699 160.91 22.71 160.91 23.51V38.51H160.42L145.86 23.04V32.71C145.86 33.51 145.86 34.21 145.86 34.8C145.86 35.39 145.91 35.9199 145.95 36.3499C145.99 36.7799 146.03 37.1499 146.07 37.4399C146.109 37.6895 146.163 37.9365 146.23 38.1799V38.23H143.71V38.1799C143.77 37.9799 143.82 37.7299 143.88 37.4399C143.94 37.1499 143.97 36.7899 144.01 36.3499C144.05 35.9099 144.08 35.4 144.1 34.8C144.12 34.2 144.1 33.51 144.1 32.71V23.51C144.1 22.71 144.1 22.0099 144.1 21.4099C144.1 20.8099 144.05 20.2899 144.01 19.8499C143.97 19.4099 143.93 19.05 143.88 18.76C143.83 18.47 143.77 18.22 143.71 18.03V17.97L144.59 18.02Z" fill="#AC826B"/>
<path d="M174.42 17.6799C175.908 17.6673 177.386 17.9284 178.78 18.4499C180.063 18.9308 181.237 19.6653 182.23 20.6098C183.211 21.5548 183.987 22.6918 184.51 23.9499C185.402 26.1741 185.577 28.6215 185.01 30.9499C184.605 32.6547 183.787 34.2342 182.63 35.55C182.044 36.2026 181.371 36.7712 180.63 37.2399C179.859 37.7268 179.025 38.1036 178.15 38.3598C177.198 38.6345 176.211 38.7694 175.22 38.76C173.732 38.7759 172.254 38.5183 170.86 37.9999C169.576 37.53 168.402 36.8015 167.41 35.8598C166.429 34.9224 165.653 33.7921 165.13 32.54C164.573 31.1686 164.294 29.7 164.31 28.2199C164.312 27.331 164.416 26.445 164.62 25.5798C164.829 24.7201 165.138 23.8878 165.54 23.0998C165.933 22.3205 166.423 21.5947 167 20.9399C167.58 20.2785 168.254 19.7058 169 19.2399C169.77 18.7498 170.605 18.3694 171.48 18.1098C172.436 17.8351 173.426 17.7005 174.42 17.7099M175.22 37.4799C176.206 37.4921 177.184 37.2979 178.09 36.9099C178.952 36.5414 179.718 35.9805 180.33 35.27C180.987 34.5029 181.483 33.6119 181.79 32.6498C182.158 31.5167 182.337 30.331 182.32 29.1398C182.329 27.7898 182.157 26.4446 181.81 25.1398C181.519 23.9829 181.013 22.8908 180.32 21.9199C179.677 21.0258 178.834 20.2934 177.86 19.78C176.792 19.2496 175.612 18.9854 174.42 19.01C173.435 18.9983 172.458 19.1888 171.55 19.5698C170.691 19.9343 169.925 20.4882 169.31 21.1899C168.648 21.9455 168.15 22.8312 167.85 23.79C167.481 24.9194 167.302 26.1021 167.32 27.29C167.315 28.6392 167.483 29.9835 167.82 31.29C168.11 32.4518 168.612 33.5501 169.3 34.53C169.968 35.4697 170.858 36.2297 171.891 36.7426C172.924 37.2555 174.067 37.5054 175.22 37.4699" fill="#AC826B"/>
<path d="M189.78 18.02V18.0798C189.768 18.1494 189.768 18.2205 189.78 18.29C189.775 18.3733 189.775 18.4568 189.78 18.54C189.782 18.8769 189.822 19.2124 189.9 19.54C190.014 19.9929 190.168 20.4345 190.36 20.8599L196.62 34.98L202.67 20.98C202.81 20.64 202.96 20.2498 203.12 19.8398C203.277 19.4383 203.359 19.0111 203.36 18.5798C203.371 18.4835 203.371 18.3864 203.36 18.29C203.348 18.2308 203.328 18.1734 203.3 18.1199V18.0601H206.2V18.1199C205.938 18.4211 205.719 18.7577 205.55 19.1199C205.3 19.5799 205.02 20.1198 204.72 20.8298L196.62 38.8298H195.4L187.73 21.55C187.55 21.14 187.36 20.7499 187.17 20.3799C186.98 20.0099 186.79 19.6599 186.63 19.3799C186.47 19.0999 186.31 18.8199 186.17 18.6099C186.091 18.4723 186.001 18.3419 185.9 18.22V18.1599L189.78 18.02Z" fill="#AC826B"/>
<path d="M220.13 38.28V38.23C220.139 38.1569 220.139 38.083 220.13 38.01C220.135 37.9267 220.135 37.8433 220.13 37.76C220.128 37.4232 220.088 37.0877 220.01 36.76C219.896 36.3086 219.745 35.8671 219.56 35.4399L217.85 31.5999C217.32 31.5999 216.62 31.5999 215.74 31.5999H210.74C210.04 31.5999 209.42 31.5999 208.86 31.5999L207.24 35.3298L206.79 36.47C206.633 36.8715 206.551 37.2987 206.55 37.73C206.539 37.8297 206.539 37.9304 206.55 38.03C206.562 38.0893 206.582 38.1465 206.61 38.2V38.25H203.73V38.2C203.979 37.8931 204.191 37.5574 204.36 37.2C204.669 36.6414 204.95 36.0673 205.2 35.48L213.29 17.48H214.42L222.1 34.75C222.28 35.16 222.46 35.5499 222.66 35.9299C222.86 36.3099 223.03 36.6499 223.2 36.9299C223.37 37.2099 223.52 37.4799 223.65 37.6899C223.732 37.8284 223.822 37.9619 223.92 38.0898V38.1399L220.13 38.28ZM210.97 30.3799H212.65H214.34H215.93H217.32L213.32 21.3799L209.42 30.3799H210.97Z" fill="#AC826B"/>
<path d="M50.2 0.169922H51.86H53.14L53.86 0.109863L53.51 1.10986C53.3225 1.05899 53.1322 1.01906 52.94 0.98999C52.76 0.98999 52.53 0.929912 52.27 0.909912C51.9636 0.893146 51.6565 0.893146 51.35 0.909912H50.93H50.46H49.93V4.90991H51.29L52.29 4.82983C52.62 4.82983 52.91 4.76998 53.16 4.72998L52.94 5.79004L51.94 5.65991L50.94 5.56982C50.59 5.56982 50.25 5.56982 49.94 5.56982V10.1499C50.4675 10.1536 50.9949 10.1301 51.52 10.0798C52.01 10.0798 52.43 9.96991 52.79 9.90991C53.15 9.84991 53.59 9.75992 53.93 9.66992L53.72 10.8499H53.46H53.07H48.4C48.4376 10.7257 48.4644 10.5987 48.48 10.47C48.5133 10.2847 48.5367 10.0977 48.55 9.90991C48.55 9.68991 48.55 9.41986 48.6 9.10986C48.65 8.79986 48.6 8.44003 48.6 8.03003V3.28003C48.6 2.86003 48.6 2.49994 48.6 2.18994C48.6 1.87994 48.6 1.60989 48.55 1.38989C48.5366 1.19881 48.5132 1.00848 48.48 0.819824C48.4622 0.691448 48.4355 0.564588 48.4 0.439941L50.2 0.169922Z" fill="#6D6E70"/>
<path d="M55.72 0.139842H56.03H57H57.75H58.61H59.45C60.1254 0.134955 60.7982 0.222441 61.45 0.399852C62.0664 0.559503 62.64 0.853251 63.13 1.25996C63.6295 1.68508 64.0204 2.22316 64.27 2.82978C64.5792 3.58752 64.7257 4.40193 64.7 5.21992C64.7057 5.83418 64.6284 6.44647 64.47 7.03999C64.3433 7.54748 64.1338 8.03056 63.85 8.46992C63.5776 8.87903 63.2397 9.24059 62.85 9.53999C62.4738 9.83357 62.0601 10.0757 61.6199 10.26C61.1543 10.455 60.6678 10.5959 60.17 10.6799C59.6481 10.7696 59.1194 10.8132 58.59 10.81H57.89H57.06H56.27H55.7C55.7375 10.6859 55.7643 10.5586 55.78 10.4299C55.8132 10.2446 55.8366 10.0576 55.85 9.86982C55.85 9.64982 55.85 9.37977 55.85 9.06977C55.85 8.75977 55.85 8.39994 55.85 7.98994V3.23994C55.85 2.81994 55.85 2.45984 55.85 2.13984C55.85 1.81984 55.85 1.55978 55.85 1.32978C55.85 1.09978 55.85 0.91996 55.78 0.75996C55.762 0.628332 55.7352 0.497908 55.7 0.369823L55.72 0.139842ZM57.32 0.799999C57.32 1.35 57.32 1.86984 57.32 2.38984C57.32 2.60984 57.32 2.83001 57.32 3.06001C57.32 3.29001 57.32 3.50993 57.32 3.72993C57.32 3.94993 57.32 4.16982 57.32 4.36982V4.89985C57.32 5.22985 57.32 5.62979 57.32 6.08979C57.32 6.54979 57.32 7.01996 57.32 7.50996C57.32 7.99996 57.32 8.50986 57.32 8.90986C57.32 9.30986 57.3199 9.72998 57.3699 10.03H57.64H58H58.38H58.6799C59.0143 10.0241 59.3481 10.0007 59.6799 9.95991C60.0219 9.91058 60.3573 9.82337 60.6799 9.6999C61.0156 9.5703 61.3318 9.39532 61.6199 9.17988C61.9263 8.94194 62.1872 8.65048 62.39 8.31977C62.6349 7.92829 62.814 7.49948 62.92 7.05C63.053 6.47635 63.1168 5.88883 63.11 5.3C63.1201 4.6236 63.0291 3.94949 62.84 3.3C62.6799 2.75907 62.4073 2.25789 62.0399 1.82978C61.6891 1.42744 61.2467 1.11542 60.75 0.919872C60.1846 0.706501 59.5842 0.601282 58.9799 0.609813H58.5399H58.0399C57.8868 0.59955 57.7331 0.59955 57.58 0.609813L57.32 0.799999Z" fill="#6D6E70"/>
<path d="M66.46 10.6099C66.46 10.5099 66.4599 10.39 66.5399 10.23C66.6199 10.07 66.59 9.89992 66.61 9.66992C66.63 9.43992 66.61 9.17987 66.61 8.86987C66.61 8.55987 66.61 8.20004 66.61 7.79004V3.04004C66.61 2.62004 66.61 2.25995 66.61 1.94995C66.61 1.63995 66.61 1.3699 66.61 1.1499C66.61 0.929902 66.5599 0.729834 66.5399 0.579834C66.5199 0.429834 66.54 0.309951 66.46 0.199951H68.2C68.2 0.309951 68.1999 0.429834 68.1199 0.579834C68.0868 0.768493 68.0634 0.958818 68.05 1.1499C68.05 1.3699 68.05 1.63995 68.05 1.94995C68.05 2.25995 68.05 2.62004 68.05 3.04004V7.79004C68.05 8.20004 68.05 8.55987 68.05 8.86987C68.05 9.17987 68.05 9.44992 68.05 9.66992C68.0633 9.8577 68.0867 10.0447 68.1199 10.23C68.1199 10.39 68.12 10.5099 68.2 10.6099H66.46Z" fill="#6D6E70"/>
<path d="M71.9 7.79004C71.9 8.20004 71.9 8.55987 71.9 8.86987C71.9 9.17987 71.9 9.44992 71.9 9.66992C71.9134 9.8577 71.9368 10.0447 71.97 10.23C71.9857 10.3587 72.0125 10.4857 72.05 10.6099H70.3C70.3 10.5099 70.3001 10.39 70.3801 10.23C70.4133 10.0447 70.4367 9.8577 70.45 9.66992C70.45 9.44992 70.45 9.17987 70.45 8.86987C70.45 8.55987 70.45 8.20004 70.45 7.79004V3.04004C70.45 2.62004 70.45 2.25995 70.45 1.94995C70.45 1.63995 70.45 1.3699 70.45 1.1499C70.4366 0.958818 70.4132 0.768493 70.3801 0.579834C70.3801 0.429834 70.33 0.309951 70.3 0.199951H73.84H74.79H75.5H75.92L75.56 1.19995C75.3756 1.15004 75.1887 1.10986 75 1.07983C74.81 1.07983 74.5901 1.02 74.3201 1C74.017 0.983217 73.7132 0.983217 73.41 1H73H72.48H71.87V4.68994C72.37 4.68994 72.87 4.68994 73.25 4.68994L74.33 4.60986C74.68 4.60986 75 4.55001 75.28 4.51001L75.06 5.56982C74.69 5.56982 74.32 5.47995 73.95 5.44995L72.95 5.34985C72.58 5.34985 72.23 5.34985 71.95 5.34985L71.9 7.79004Z" fill="#6D6E70"/>
<path d="M77.39 10.6099C77.39 10.5099 77.44 10.39 77.47 10.23C77.5 10.07 77.52 9.89992 77.53 9.66992C77.54 9.43992 77.53 9.17987 77.58 8.86987C77.63 8.55987 77.58 8.20004 77.58 7.79004V3.04004C77.58 2.62004 77.58 2.25995 77.58 1.94995C77.58 1.63995 77.58 1.3699 77.53 1.1499C77.48 0.929902 77.53 0.729834 77.47 0.579834C77.41 0.429834 77.42 0.309951 77.39 0.199951H79.13C79.13 0.309951 79.13 0.429834 79.05 0.579834C79.0168 0.768493 78.9935 0.958818 78.98 1.1499C78.98 1.3699 78.98 1.63995 78.98 1.94995C78.98 2.25995 78.98 2.62004 78.98 3.04004V7.79004C78.98 8.20004 78.98 8.55987 78.98 8.86987C78.98 9.17987 78.98 9.44992 78.98 9.66992C78.9934 9.8577 79.0168 10.0447 79.05 10.23C79.05 10.39 79.05 10.5099 79.13 10.6099H77.39Z" fill="#6D6E70"/>
<path d="M89.7601 1.78006H89.6901C89.289 1.41814 88.8245 1.13329 88.3201 0.939968C87.7616 0.726987 87.1678 0.621739 86.5701 0.629909C85.9945 0.620934 85.422 0.715813 84.8801 0.909938C84.3862 1.09455 83.9365 1.3808 83.5601 1.75003C83.1834 2.13207 82.8905 2.58829 82.7001 3.08987C82.4921 3.67027 82.3905 4.28347 82.4001 4.89993C82.3906 5.60725 82.4884 6.312 82.6901 6.99002C82.8634 7.60009 83.1594 8.16827 83.5601 8.65994C83.9448 9.14186 84.4383 9.52581 85.0001 9.78006C85.6297 10.0572 86.3122 10.1937 87.0001 10.18C87.2786 10.1781 87.5563 10.1512 87.8301 10.0999C88.1044 10.039 88.3723 9.95189 88.6301 9.83987C88.8833 9.72386 89.1244 9.58326 89.3501 9.41995C89.5796 9.26022 89.7879 9.07199 89.9701 8.85989L90.0501 8.90994L89.4701 10.3999C89.0776 10.5465 88.6726 10.6571 88.2601 10.73C87.8203 10.8014 87.3756 10.838 86.9301 10.8399C86.0874 10.8501 85.2489 10.7184 84.4501 10.45C83.7425 10.2117 83.0897 9.83417 82.5301 9.33987C81.9894 8.86553 81.5593 8.27844 81.2701 7.6199C80.9631 6.91705 80.8097 6.1568 80.8201 5.38992C80.8202 4.93066 80.8807 4.47354 81.0001 4.03006C81.234 3.1249 81.7072 2.29924 82.3701 1.63992C82.7134 1.29771 83.1 1.00198 83.5201 0.760036C83.9656 0.50469 84.4431 0.309573 84.9401 0.179958C85.4917 0.0358009 86.0599 -0.0347715 86.6301 -0.0300032C87.5185 -0.0403378 88.4019 0.105131 89.2401 0.399928L89.7601 1.78006Z" fill="#6D6E70"/>
<path d="M91.47 10.6099C91.5075 10.4857 91.5343 10.3587 91.55 10.23C91.5832 10.0447 91.6066 9.8577 91.62 9.66992C91.62 9.44992 91.62 9.17987 91.62 8.86987C91.62 8.55987 91.62 8.20004 91.62 7.79004V3.04004C91.62 2.62004 91.62 2.25995 91.62 1.94995C91.62 1.63995 91.62 1.3699 91.62 1.1499C91.6065 0.958818 91.5832 0.768493 91.55 0.579834C91.5322 0.451457 91.5055 0.324598 91.47 0.199951H93.22C93.22 0.309951 93.16 0.429834 93.13 0.579834C93.1 0.729834 93.13 0.919902 93.07 1.1499C93.01 1.3799 93.07 1.63995 93.07 1.94995C93.07 2.25995 93.07 2.62004 93.07 3.04004V7.79004C93.07 8.20004 93.07 8.55987 93.07 8.86987C93.07 9.17987 93.07 9.44992 93.07 9.66992C93.07 9.88992 93.07 10.08 93.13 10.23C93.1531 10.3582 93.1832 10.4849 93.22 10.6099H91.47Z" fill="#6D6E70"/>
<path d="M100.15 -5.69541e-05C100.918 -0.00917771 101.682 0.126423 102.4 0.399845C103.071 0.637241 103.684 1.01272 104.201 1.5019C104.718 1.99107 105.126 2.58316 105.4 3.23993C105.852 4.38179 105.943 5.6347 105.66 6.82978C105.556 7.2708 105.398 7.69736 105.19 8.0998C104.982 8.49899 104.727 8.87179 104.43 9.2099C104.141 9.54686 103.804 9.8398 103.43 10.0798C103.034 10.3346 102.603 10.5301 102.15 10.6599C101.66 10.8037 101.151 10.8744 100.64 10.8698C99.8726 10.8773 99.1102 10.7452 98.39 10.4799C97.7251 10.2334 97.1164 9.85584 96.6 9.36982C96.0938 8.88485 95.6951 8.29886 95.43 7.64985C94.978 6.50799 94.8872 5.25508 95.17 4.06C95.3748 3.17343 95.7976 2.35183 96.4 1.66986C97.0167 0.974832 97.8176 0.468677 98.71 0.209904C99.1781 0.074275 99.6627 0.00365312 100.15 -5.69541e-05ZM100.56 10.2099C101.054 10.2207 101.544 10.1287 102 9.93988C102.447 9.74979 102.844 9.45877 103.16 9.08979C103.499 8.69361 103.757 8.23516 103.92 7.73993C104.109 7.15205 104.2 6.5372 104.19 5.91987C104.194 5.21821 104.106 4.51897 103.93 3.83979C103.774 3.24522 103.513 2.68324 103.16 2.17987C102.825 1.71561 102.387 1.33548 101.88 1.06977C101.329 0.800764 100.723 0.667167 100.11 0.679875C99.5996 0.672178 99.0928 0.767435 98.62 0.959904C98.1799 1.15259 97.7874 1.43939 97.47 1.79999C97.1281 2.19025 96.8695 2.64608 96.71 3.13984C96.5221 3.72445 96.4309 4.33589 96.44 4.94989C96.4364 5.65485 96.5238 6.35741 96.7 7.03998C96.8482 7.63876 97.1058 8.20488 97.46 8.7099C97.7917 9.17959 98.2305 9.5634 98.74 9.82978C99.3055 10.1064 99.9311 10.2372 100.56 10.2099Z" fill="#6D6E70"/>
<path d="M128.57 5.18994H111.42V5.74994H128.57V5.18994Z" fill="#6D7072"/>
</g>
<defs>
<linearGradient id="paint0_linear_140_1250" x1="2.34329e-05" y1="21.53" x2="15.5" y2="21.53" gradientUnits="userSpaceOnUse">
<stop stop-color="#9D805E"/>
<stop offset="0.07" stop-color="#A48663"/>
<stop offset="0.51" stop-color="#D0AB80"/>
<stop offset="1" stop-color="#9D805E"/>
</linearGradient>
<linearGradient id="paint1_linear_140_1250" x1="24.14" y1="24.68" x2="33.74" y2="24.68" gradientUnits="userSpaceOnUse">
<stop stop-color="#9D805E"/>
<stop offset="0.07" stop-color="#A48663"/>
<stop offset="0.51" stop-color="#D0AB80"/>
<stop offset="1" stop-color="#9D805E"/>
</linearGradient>
<linearGradient id="paint2_linear_140_1250" x1="9.36002" y1="7.81005" x2="24.14" y2="7.81005" gradientUnits="userSpaceOnUse">
<stop stop-color="#9D805E"/>
<stop offset="0.07" stop-color="#A48663"/>
<stop offset="0.51" stop-color="#D0AB80"/>
<stop offset="1" stop-color="#9D805E"/>
</linearGradient>
<linearGradient id="paint3_linear_140_1250" x1="15.5" y1="9.33975" x2="33.74" y2="9.33975" gradientUnits="userSpaceOnUse">
<stop stop-color="#9D805E"/>
<stop offset="0.07" stop-color="#A48663"/>
<stop offset="0.51" stop-color="#D0AB80"/>
<stop offset="1" stop-color="#9D805E"/>
</linearGradient>
<linearGradient id="paint4_linear_140_1250" x1="22.73" y1="16.8099" x2="38.23" y2="16.8099" gradientUnits="userSpaceOnUse">
<stop stop-color="#9D805E"/>
<stop offset="0.07" stop-color="#A48663"/>
<stop offset="0.51" stop-color="#D0AB80"/>
<stop offset="1" stop-color="#9D805E"/>
</linearGradient>
<linearGradient id="paint5_linear_140_1250" x1="4.49" y1="29" x2="22.73" y2="29" gradientUnits="userSpaceOnUse">
<stop stop-color="#9D805E"/>
<stop offset="0.07" stop-color="#A48663"/>
<stop offset="0.51" stop-color="#D0AB80"/>
<stop offset="1" stop-color="#9D805E"/>
</linearGradient>
<linearGradient id="paint6_linear_140_1250" x1="4.49007" y1="13.67" x2="14.0901" y2="13.67" gradientUnits="userSpaceOnUse">
<stop stop-color="#9D805E"/>
<stop offset="0.07" stop-color="#A48663"/>
<stop offset="0.51" stop-color="#D0AB80"/>
<stop offset="1" stop-color="#9D805E"/>
</linearGradient>
<linearGradient id="paint7_linear_140_1250" x1="14.09" y1="30.53" x2="28.87" y2="30.53" gradientUnits="userSpaceOnUse">
<stop stop-color="#9D805E"/>
<stop offset="0.07" stop-color="#A48663"/>
<stop offset="0.51" stop-color="#D0AB80"/>
<stop offset="1" stop-color="#9D805E"/>
</linearGradient>
<clipPath id="clip0_140_1250">
<rect width="224" height="38.72" fill="white"/>
</clipPath>
</defs>
</svg>
