<svg width="176" height="45" viewBox="0 0 176 45" fill="none" xmlns="http://www.w3.org/2000/svg">
<g clip-path="url(#clip0_140_1153)">
<path d="M78.02 38.0701H78.79L81.24 42.7001L83.69 38.0701H84.45L81.66 43.3401H80.82L78.02 38.0701Z" fill="#A8A296"/>
<path d="M84.92 38.0701H89.88V38.6501H85.6V40.3401H89.71V40.9201H85.6V42.7601H89.91V43.3401H84.92V38.0701Z" fill="#A8A296"/>
<path d="M90.55 38.0701H91.57L96.19 42.7001V38.0701H96.88V43.3401H95.86L91.24 38.7101V43.3401H90.55V38.0701Z" fill="#A8A296"/>
<path d="M99.83 38.6501H97.27V38.0701H103.06V38.6501H100.51V43.3401H99.83V38.6501Z" fill="#A8A296"/>
<path d="M103.5 38.0798H104.18V42.01C104.18 42.52 104.35 42.8198 105.28 42.8198H107.65C108.58 42.8198 108.74 42.52 108.74 42.01V38.0798H109.43V42.02C109.43 43.09 108.91 43.3999 107.63 43.3999H105.3C104.01 43.3999 103.5 43.09 103.5 42.02V38.0798Z" fill="#A8A296"/>
<path d="M110.29 41.6799H110.93V42.05C110.93 42.57 111.2 42.8198 112.05 42.8198H114.17C115.17 42.8198 115.45 42.5998 115.45 41.8198C115.45 41.0398 115.2 40.99 114.35 40.99H113.05C110.97 40.99 110.28 40.86 110.28 39.47C110.28 38.27 110.97 38 112.37 38H113.85C115.54 38 115.97 38.4499 115.97 39.3899V39.5698H115.32C115.32 38.7298 115.23 38.5698 113.43 38.5698H112.71C111.39 38.5698 110.92 38.64 110.92 39.51C110.92 40.13 111.11 40.3398 112.18 40.3398H114.18C115.51 40.3398 116.07 40.7399 116.07 41.6399V41.98C116.07 43.28 115.07 43.3699 114.07 43.3699H112.18C111.18 43.3699 110.3 43.19 110.3 42.04L110.29 41.6799Z" fill="#A8A296"/>
<path d="M122.36 41.39L123.17 39.95H123.7L122.7 41.7201L123.97 43.0499H123.27L122.44 42.16C122.231 42.4396 121.978 42.6829 121.69 42.88C121.392 43.07 121.043 43.1642 120.69 43.15C120.462 43.155 120.235 43.1176 120.02 43.0399C119.821 42.9653 119.637 42.8535 119.48 42.71C119.327 42.5659 119.205 42.3924 119.12 42.2C119.03 41.9918 118.986 41.7666 118.99 41.5399C118.986 41.3548 119.019 41.171 119.088 40.9991C119.156 40.8272 119.259 40.6709 119.39 40.5399C119.509 40.408 119.644 40.2907 119.79 40.19L120.26 39.89L120.02 39.5999C119.943 39.498 119.873 39.391 119.81 39.2799C119.745 39.1726 119.691 39.0588 119.65 38.94C119.61 38.8208 119.59 38.6957 119.59 38.5699C119.583 38.3869 119.621 38.2049 119.7 38.0399C119.774 37.8865 119.88 37.7504 120.01 37.64C120.14 37.5299 120.289 37.4451 120.45 37.39C120.624 37.3333 120.807 37.3062 120.99 37.3099C121.15 37.3064 121.31 37.3336 121.46 37.39C121.605 37.4482 121.74 37.5292 121.86 37.63C121.978 37.7326 122.073 37.8587 122.14 38.0001C122.208 38.1507 122.243 38.3146 122.24 38.4801C122.246 38.6587 122.212 38.8366 122.14 39.0001C122.068 39.1494 121.969 39.2848 121.85 39.4C121.731 39.5132 121.6 39.6138 121.46 39.7C121.31 39.79 121.16 39.88 121 39.96L122.36 41.39ZM120.57 40.2201C120.45 40.3001 120.32 40.37 120.2 40.46C120.074 40.5366 119.959 40.6309 119.86 40.7401C119.757 40.8378 119.673 40.9527 119.61 41.0799C119.517 41.2949 119.493 41.5337 119.541 41.763C119.589 41.9924 119.708 42.2009 119.88 42.36C119.995 42.4676 120.131 42.5495 120.28 42.5999C120.44 42.6572 120.61 42.6844 120.78 42.68C120.92 42.682 121.059 42.6582 121.19 42.61C121.32 42.5669 121.441 42.5027 121.55 42.42C121.659 42.3407 121.76 42.2502 121.85 42.15C121.945 42.0504 122.032 41.9433 122.11 41.8299L120.57 40.2201ZM120.96 37.7799C120.741 37.7727 120.527 37.8478 120.36 37.9901C120.243 38.096 120.162 38.2356 120.128 38.3897C120.094 38.5438 120.109 38.7046 120.17 38.8499C120.21 38.9515 120.26 39.0487 120.32 39.14C120.378 39.2357 120.445 39.3261 120.52 39.41L120.71 39.64L121.06 39.45C121.176 39.3815 121.286 39.3047 121.39 39.2201C121.489 39.1306 121.574 39.0259 121.64 38.91C121.703 38.7897 121.734 38.6554 121.73 38.5199C121.735 38.4207 121.718 38.322 121.68 38.2303C121.642 38.1387 121.584 38.0566 121.51 37.9901C121.437 37.9198 121.351 37.8648 121.256 37.8287C121.162 37.7926 121.061 37.776 120.96 37.7799Z" fill="#A8A296"/>
<path d="M41.92 18.9699V32.66H35.12V0.199951H58.24V5.86995H41.92V13.25H56.19V18.9699H41.92Z" fill="#E15344"/>
<path d="M66.45 15.1299H60.1V32.6499H66.45V15.1299Z" fill="#E15344"/>
<path d="M69.34 32.66V8.60998H75.34V11.4901C75.7824 10.7709 76.3359 10.1261 76.98 9.57995C77.5188 9.16872 78.1109 8.83233 78.74 8.57995C79.3264 8.34473 79.942 8.19003 80.5699 8.11999C81.2042 8.05099 81.8419 8.01751 82.48 8.01989H83.3101V14.5199C82.7278 14.4286 82.1394 14.3819 81.55 14.38C77.67 14.38 75.73 16.3167 75.73 20.1901V32.7101L69.34 32.66Z" fill="#E15344"/>
<path d="M89.38 22.2899C89.3897 23.8804 89.9517 25.4182 90.97 26.64C91.4427 27.1734 92.0278 27.5955 92.6831 27.8756C93.3385 28.1557 94.0478 28.2868 94.76 28.2599C95.7273 28.2771 96.6812 28.0318 97.52 27.5499C97.8989 27.3384 98.2308 27.0522 98.4955 26.7083C98.7602 26.3645 98.9524 25.9703 99.0601 25.5499H105.61C104.985 27.8411 103.608 29.8556 101.7 31.2699C99.753 32.628 97.4232 33.3288 95.0501 33.2699C87.0501 33.2699 83.0501 28.9034 83.0501 20.17C83.0282 18.4706 83.2953 16.7799 83.84 15.17C84.3197 13.7394 85.0929 12.4246 86.11 11.3099C87.1196 10.2203 88.3645 9.37555 89.75 8.83994C91.3271 8.24218 93.0036 7.95045 94.69 7.98008C98.3966 7.98008 101.207 9.1699 103.12 11.5499C105.033 13.9299 105.987 17.5132 105.98 22.2999L89.38 22.2899ZM99.38 18.2899C99.3637 17.4923 99.2081 16.704 98.9201 15.9601C98.6667 15.3394 98.2928 14.7751 97.82 14.2999C97.3717 13.8613 96.8371 13.5207 96.25 13.2999C95.6691 13.0928 95.0567 12.9881 94.44 12.9901C93.8241 12.9842 93.2137 13.1043 92.6461 13.3434C92.0786 13.5824 91.566 13.9353 91.14 14.38C90.1529 15.4391 89.5874 16.8226 89.5501 18.2699L99.38 18.2899Z" fill="#E15344"/>
<path d="M123.55 32.6599V18.0898C123.55 16.2298 123.24 14.9798 122.62 14.3298C122.185 13.9564 121.679 13.6753 121.133 13.5034C120.586 13.3315 120.01 13.2724 119.44 13.3298C116.153 13.3298 114.507 15.1698 114.5 18.8498V32.6399H108.15V8.58983H114.21V12.1099C114.893 10.8084 115.934 9.72951 117.21 8.99999C119.711 7.81107 122.571 7.61798 125.21 8.45995C126.152 8.78482 127.011 9.31029 127.73 9.99999C128.448 10.7194 129.012 11.5764 129.39 12.5198C129.817 13.6187 130.025 14.7911 130 15.97V32.6399L123.55 32.6599Z" fill="#E15344"/>
<path d="M131.91 32.6601V27.7701L144.18 13.6401H132.74V8.61011H152.29V13.7401L140.02 27.4701H152.63V32.6601H131.91Z" fill="#E15344"/>
<path d="M159.33 22.2899C159.34 23.8804 159.902 25.4182 160.92 26.64C161.392 27.1721 161.975 27.5933 162.629 27.8734C163.282 28.1535 163.989 28.2853 164.7 28.2599C165.671 28.2784 166.628 28.033 167.47 27.5499C167.849 27.3384 168.181 27.0522 168.446 26.7083C168.71 26.3645 168.902 25.9703 169.01 25.5499H175.56C174.935 27.8411 173.558 29.8556 171.65 31.2699C169.703 32.628 167.373 33.3288 165 33.2699C157 33.2699 153 28.9034 153 20.17C152.978 18.4706 153.245 16.7799 153.79 15.17C154.266 13.7375 155.039 12.4219 156.06 11.3099C157.07 10.2203 158.314 9.37555 159.7 8.83994C161.277 8.24218 162.954 7.95045 164.64 7.98008C168.353 7.98008 171.163 9.1699 173.07 11.5499C174.977 13.9299 175.93 17.5132 175.93 22.2999L159.33 22.2899ZM169.33 18.2899C169.315 17.4912 169.156 16.7019 168.86 15.9601C168.614 15.3355 168.239 14.7697 167.76 14.2999C167.317 13.8594 166.785 13.5184 166.2 13.2999C165.619 13.0928 165.007 12.9881 164.39 12.9901C163.774 12.9842 163.164 13.1043 162.596 13.3434C162.029 13.5824 161.516 13.9353 161.09 14.38C160.103 15.4391 159.537 16.8226 159.5 18.2699L169.33 18.2899Z" fill="#E15344"/>
<path d="M66.45 8.6001H60.1V13.6601H66.45V8.6001Z" fill="#E15344"/>
<path d="M62.27 0.540117H60.59V0.120117H64.39V0.540117H62.72V5.02012H62.27V0.540117Z" fill="#A8A296"/>
<path d="M66.35 2.56985C66.3493 2.22748 66.4139 1.88812 66.54 1.56985C66.6581 1.26812 66.8349 0.992746 67.0601 0.759787C67.2827 0.524295 67.5563 0.343198 67.86 0.230002C68.5174 -0.0363027 69.2527 -0.0363027 69.91 0.230002C70.2125 0.345648 70.4855 0.526404 70.71 0.759787C70.9318 0.995357 71.1082 1.27005 71.23 1.56985C71.4696 2.23904 71.4696 2.97072 71.23 3.63991C71.1105 3.94093 70.9339 4.21605 70.71 4.44997C70.4833 4.68316 70.2111 4.86705 69.91 4.99001C69.2502 5.24333 68.5198 5.24333 67.86 4.99001C67.5575 4.86972 67.2847 4.68548 67.0601 4.44997C66.8327 4.21874 66.6556 3.9429 66.54 3.63991C66.4141 3.32157 66.3496 2.98226 66.35 2.63991M66.8101 2.63991C66.8093 2.93231 66.8565 3.22295 66.95 3.50002C67.0428 3.75264 67.1857 3.98385 67.37 4.17995C67.5536 4.37531 67.7747 4.5317 68.02 4.63991C68.2928 4.75134 68.5854 4.80571 68.88 4.79983C69.1747 4.80657 69.4675 4.75217 69.74 4.63991C69.9889 4.53287 70.2135 4.37641 70.4 4.17995C70.5836 3.98506 70.7234 3.75329 70.8101 3.50002C71.0102 2.94759 71.0102 2.34225 70.8101 1.78982C70.7234 1.53654 70.5836 1.30478 70.4 1.10988C70.2135 0.91343 69.9889 0.756971 69.74 0.649924C69.4675 0.537666 69.1747 0.483272 68.88 0.490011C68.5854 0.484132 68.2928 0.538494 68.02 0.649924C67.7747 0.758138 67.5536 0.914532 67.37 1.10988C67.1857 1.30598 67.0428 1.5372 66.95 1.78982C66.8574 2.06366 66.8102 2.35086 66.8101 2.63991Z" fill="#A8A296"/>
<path d="M74 0.129883H75.55C75.6711 0.138066 75.7914 0.154823 75.91 0.179932C76.0446 0.1979 76.1759 0.234802 76.3 0.289795C76.4343 0.336692 76.557 0.411665 76.66 0.509766C76.7707 0.61046 76.8593 0.733159 76.92 0.869873C76.9958 1.03965 77.0333 1.22403 77.03 1.40991C77.0383 1.61017 76.9971 1.80945 76.91 1.98999C76.8385 2.13679 76.732 2.26369 76.6 2.35986C76.4844 2.45946 76.3476 2.53125 76.2 2.56982C76.0631 2.61506 75.9226 2.64862 75.78 2.66992L77.2 5.01978H76.6801L75.3101 2.69995H74.46V5.01978H74V0.129883ZM74.46 2.27979H75.46C75.6605 2.28635 75.8606 2.256 76.05 2.18994C76.1808 2.14179 76.3 2.06688 76.4 1.96997C76.4787 1.89188 76.5369 1.79573 76.5699 1.68994C76.5831 1.59707 76.5831 1.50278 76.5699 1.40991C76.5831 1.32039 76.5831 1.22941 76.5699 1.13989C76.537 1.03117 76.4788 0.931752 76.4 0.849854C76.2973 0.756327 76.1788 0.68186 76.05 0.629883C75.8606 0.563827 75.6605 0.533228 75.46 0.539795H74.46V2.27979Z" fill="#A8A296"/>
<path d="M79.58 0.129883H81.13C81.251 0.138066 81.3713 0.154823 81.49 0.179932C81.6246 0.1979 81.7559 0.234802 81.88 0.289795C82.0143 0.336692 82.137 0.411665 82.24 0.509766C82.3538 0.609878 82.4458 0.732549 82.51 0.869873C82.5777 1.04179 82.6116 1.22516 82.61 1.40991C82.6182 1.61017 82.577 1.80945 82.49 1.98999C82.4184 2.13679 82.312 2.26369 82.1801 2.35986C82.0645 2.45946 81.9276 2.53125 81.78 2.56982C81.6431 2.61506 81.5026 2.64862 81.36 2.66992L82.78 5.01978H82.26L80.89 2.69995H80V5.01978H79.54L79.58 0.129883ZM80.04 2.27979H81.04C81.2373 2.28558 81.4338 2.25523 81.62 2.18994C81.7518 2.14411 81.8715 2.06891 81.97 1.96997C82.0486 1.89188 82.107 1.79573 82.14 1.68994C82.1531 1.59707 82.1531 1.50278 82.14 1.40991C82.1531 1.32039 82.1531 1.22941 82.14 1.13989C82.107 1.03117 82.0487 0.931752 81.97 0.849854C81.869 0.754051 81.7501 0.679298 81.62 0.629883C81.4338 0.564598 81.2373 0.534003 81.04 0.539795H80.04V2.27979Z" fill="#A8A296"/>
<path d="M85.2 0.120117H88.2V0.540117H85.66V2.28012H88.04V2.70012H85.66V4.61012H88.31V5.02012H85.2V0.120117Z" fill="#A8A296"/>
<path d="M175.9 4.6001H89.95V5.0201H175.9V4.6001Z" fill="#A8A296"/>
<path d="M24.67 29.6299L13.5 27.8799C12.6121 27.7376 11.7632 27.4137 11.0061 26.9285C10.249 26.4433 9.60012 25.8071 9.09998 25.0598L6.93994 21.8399L10.76 21.1199C11.6439 20.9549 12.5524 20.9747 13.4283 21.1777C14.3043 21.3808 15.1288 21.7628 15.85 22.2998L24.92 29.0498C24.9791 29.094 25.0215 29.1568 25.0408 29.228C25.06 29.2993 25.0548 29.375 25.026 29.4429C24.9972 29.5108 24.9466 29.5671 24.8821 29.6028C24.8175 29.6385 24.7429 29.6516 24.67 29.6399" fill="#A8A296"/>
<path d="M26.3101 26.7L16.66 20.7898C15.8922 20.3215 15.2294 19.6996 14.7131 18.9631C14.1969 18.2266 13.8384 17.3913 13.66 16.5098L12.9 12.7L16.7 13.5C17.5768 13.6804 18.4069 14.0399 19.1382 14.5562C19.8695 15.0724 20.4863 15.7342 20.95 16.5L26.76 26.2C26.7943 26.2643 26.807 26.3378 26.7963 26.4099C26.7855 26.482 26.752 26.5488 26.7004 26.6003C26.6489 26.6519 26.5821 26.6856 26.51 26.6963C26.4379 26.707 26.3644 26.6942 26.3 26.6599" fill="#A8A296"/>
<path d="M29.08 24.71L22.4399 15.5498C21.9136 14.822 21.5434 13.9933 21.3524 13.1157C21.1614 12.2381 21.1537 11.3306 21.33 10.45L22.09 6.63989L25.29 8.83984C26.0312 9.34744 26.6591 10.0031 27.1342 10.7656C27.6092 11.5281 27.9211 12.3807 28.0501 13.2698L29.6801 24.47C29.6933 24.5447 29.6804 24.6217 29.6436 24.688C29.6067 24.7543 29.5481 24.8058 29.4777 24.834C29.4072 24.8622 29.3291 24.8651 29.2567 24.8425C29.1843 24.8199 29.1219 24.7732 29.08 24.71Z" fill="#A8A296"/>
<path d="M5.50004 28.4099C5.26265 28.3631 5.04432 28.2475 4.87235 28.0773C4.70039 27.9072 4.58243 27.69 4.53324 27.4531C4.48406 27.2162 4.50586 26.9699 4.59587 26.7453C4.68587 26.5207 4.84005 26.3277 5.03923 26.1904C5.2384 26.053 5.47371 25.9774 5.71562 25.9731C5.95752 25.9688 6.19526 26.0361 6.39921 26.1662C6.60316 26.2964 6.76425 26.4838 6.86222 26.705C6.96019 26.9262 6.99068 27.1714 6.94999 27.4099C6.92369 27.5723 6.86483 27.7278 6.7769 27.8669C6.68896 28.006 6.57385 28.1258 6.4384 28.2192C6.30294 28.3126 6.14994 28.3776 5.98869 28.4104C5.82743 28.4431 5.66122 28.443 5.50004 28.4099Z" fill="#A8A296"/>
<path d="M9.30009 18.3199C9.09629 18.1834 8.93753 17.9897 8.84391 17.763C8.75029 17.5363 8.72597 17.287 8.77409 17.0465C8.8222 16.806 8.94054 16.5849 9.11417 16.4117C9.2878 16.2385 9.50894 16.1206 9.74955 16.0731C9.99016 16.0255 10.2394 16.0505 10.4659 16.1446C10.6923 16.2388 10.8859 16.398 11.0219 16.6021C11.1579 16.8062 11.2303 17.0461 11.23 17.2913C11.2297 17.5366 11.1566 17.7763 11.0201 17.9801C10.837 18.2532 10.5529 18.4424 10.2304 18.5062C9.90784 18.5699 9.57328 18.5028 9.30009 18.3199Z" fill="#A8A296"/>
<path d="M16.63 10.39C16.4969 10.1868 16.4269 9.94879 16.4289 9.70589C16.4308 9.46298 16.5047 9.22597 16.6412 9.02498C16.7776 8.82399 16.9705 8.66801 17.1955 8.57649C17.4205 8.48497 17.6675 8.46211 17.9054 8.51082C18.1434 8.55953 18.3617 8.67761 18.5326 8.85017C18.7036 9.02274 18.8197 9.24212 18.8661 9.48054C18.9126 9.71897 18.8875 9.96563 18.7939 10.1898C18.7002 10.4139 18.5423 10.6055 18.34 10.7401C18.0664 10.9189 17.7332 10.9824 17.413 10.9168C17.0928 10.8513 16.8114 10.6619 16.63 10.39Z" fill="#A8A296"/>
<path d="M26.4 5.87983C26.3593 5.64134 26.3898 5.39622 26.4877 5.175C26.5857 4.95378 26.7468 4.76634 26.9508 4.63618C27.1547 4.50603 27.3926 4.43874 27.6345 4.44307C27.8764 4.44739 28.1116 4.52299 28.3107 4.66035C28.5099 4.79771 28.6641 4.99095 28.7541 5.21553C28.8441 5.44011 28.8659 5.68616 28.8167 5.92305C28.7675 6.15994 28.6496 6.37713 28.4776 6.54732C28.3056 6.7175 28.0873 6.83311 27.8499 6.87983C27.689 6.91013 27.5237 6.90817 27.3635 6.87422C27.2033 6.84027 27.0514 6.77506 26.9166 6.68208C26.7818 6.58911 26.6666 6.4704 26.578 6.33272C26.4893 6.19503 26.4288 6.04104 26.4 5.87983Z" fill="#A8A296"/>
<path d="M24.21 32.5197C24.1988 32.458 24.1703 32.4009 24.1278 32.3549C24.0853 32.3088 24.0305 32.2757 23.97 32.2597L12.97 29.4999C12.0987 29.2794 11.1912 29.242 10.3048 29.39C9.41839 29.5381 8.57228 29.8682 7.81995 30.3598L4.56995 32.4799H4.62L24.21 32.5197Z" fill="#A8A296"/>
<path d="M32.7701 4.57983L30.6601 7.73999C30.1642 8.48859 29.8282 9.33134 29.6734 10.2158C29.5185 11.1003 29.548 12.0073 29.76 12.8799L32.4201 23.8799C32.4369 23.9576 32.4821 24.0263 32.5468 24.0725C32.6115 24.1187 32.6911 24.1391 32.7701 24.1299V4.57983Z" fill="#A8A296"/>
<path d="M32.78 0.109771C24.1372 0.0671998 15.8308 3.45645 9.68481 9.53311C3.53878 15.6098 0.055536 23.877 0 32.5197H1C1.05289 24.1281 4.43524 16.1009 10.4037 10.2018C16.3721 4.30274 24.4383 1.0145 32.83 1.05972L32.78 0.109771Z" fill="#A8A296"/>
<path d="M129.83 37.8799C130.4 37.8271 130.945 37.6234 131.41 37.2899C131.939 36.9467 132.536 36.7217 133.16 36.6299C133.49 36.6299 133.74 36.5399 133.91 36.6299C133.239 36.1963 132.459 35.9638 131.66 35.96C130.991 35.9519 130.329 36.107 129.734 36.4119C129.138 36.7168 128.625 37.1624 128.24 37.71C128.741 37.9229 129.295 37.982 129.83 37.8799Z" fill="#A8A296"/>
<path d="M130.24 39.2799C130.746 39.3295 131.258 39.2717 131.74 39.1099C132.264 38.8767 132.841 38.7902 133.41 38.8599C133.984 38.8951 134.534 39.1006 134.99 39.45C135.264 39.6508 135.578 39.7905 135.91 39.8599C135.828 38.8514 135.384 37.9067 134.66 37.2C134.17 37.0789 133.661 37.0517 133.16 37.12C132.59 37.1634 132.043 37.3642 131.58 37.7C131.049 38.0411 130.453 38.2691 129.83 38.37H129.24C128.81 38.3804 128.383 38.295 127.99 38.12H127.91C127.902 38.1806 127.873 38.2367 127.83 38.2799C128.191 38.3848 128.53 38.5542 128.83 38.7799C129.237 39.0883 129.73 39.263 130.24 39.2799Z" fill="#A8A296"/>
<path d="M129.83 41.6099C130.4 41.5644 130.946 41.3638 131.41 41.0298C131.94 40.6869 132.536 40.4588 133.16 40.3599C133.775 40.2688 134.402 40.327 134.99 40.5298C135.286 40.6321 135.597 40.6895 135.91 40.7V40.2798C135.494 40.1815 135.098 40.0124 134.74 39.7798C134.333 39.4714 133.84 39.2967 133.33 39.2798C132.824 39.2301 132.312 39.2882 131.83 39.45C131.306 39.6832 130.729 39.7696 130.16 39.7C129.586 39.6648 129.036 39.4593 128.58 39.1099C128.306 38.9091 127.992 38.7694 127.66 38.7C127.495 39.1828 127.41 39.6896 127.41 40.2C127.423 40.5655 127.48 40.928 127.58 41.2798C127.804 41.3207 128.024 41.3777 128.24 41.45C128.743 41.6583 129.296 41.7139 129.83 41.6099Z" fill="#A8A296"/>
<path d="M131.74 43.2C131.22 43.4344 130.646 43.5209 130.08 43.45C129.503 43.4143 128.95 43.209 128.49 42.8599C128.33 42.7799 128.24 42.6999 128.08 42.6099C128.468 43.2046 128.999 43.6923 129.624 44.0278C130.25 44.3634 130.95 44.5359 131.66 44.5298C132.703 44.525 133.709 44.1413 134.49 43.45C134.11 43.219 133.683 43.0753 133.24 43.0298C132.734 42.981 132.223 43.0391 131.74 43.2Z" fill="#A8A296"/>
<path d="M134.74 41.0297C134.212 40.8244 133.638 40.7657 133.08 40.8598C132.507 40.9109 131.958 41.1147 131.49 41.4499C130.962 41.7948 130.364 42.0199 129.74 42.1098H129.16C128.729 42.1263 128.301 42.0406 127.91 41.8598C127.74 41.8598 127.66 41.7797 127.49 41.7797C127.501 41.8445 127.533 41.9042 127.58 41.9499C127.944 42.0466 128.284 42.2168 128.58 42.4499C128.989 42.7543 129.48 42.9286 129.99 42.9499C130.496 42.9944 131.006 42.9364 131.49 42.7797C132.012 42.5414 132.591 42.4548 133.16 42.5297C133.69 42.5879 134.201 42.7583 134.66 43.0297C135.149 42.5189 135.494 41.8876 135.66 41.1999C135.348 41.1812 135.039 41.124 134.74 41.0297Z" fill="#A8A296"/>
<g clip-path="url(#clip1_140_1153)">
<path d="M72 39H72.393V40.1H72.403C72.4256 40.0709 72.4511 40.0441 72.479 40.02C72.5129 39.9902 72.5502 39.9643 72.59 39.943C72.6378 39.9174 72.6885 39.8976 72.741 39.884C72.8064 39.8675 72.8736 39.8598 72.941 39.861C73.0471 39.8599 73.1521 39.8817 73.249 39.925C73.3407 39.9659 73.4228 40.0255 73.49 40.1C73.5581 40.1767 73.611 40.2656 73.646 40.362C73.6837 40.4658 73.7027 40.5755 73.702 40.686C73.7028 40.7966 73.6849 40.9064 73.649 41.011C73.616 41.1079 73.5636 41.197 73.495 41.273C73.4261 41.3478 73.3423 41.4074 73.249 41.448C73.1467 41.4919 73.0363 41.5137 72.925 41.512C72.8175 41.513 72.7111 41.4909 72.613 41.447C72.5166 41.4027 72.4365 41.3292 72.384 41.237H72.378V41.473H72.004L72 39ZM73.3 40.691C73.3002 40.6306 73.2897 40.5707 73.269 40.514C73.249 40.4579 73.2177 40.4065 73.177 40.363C73.1354 40.3204 73.0858 40.2864 73.031 40.263C72.9698 40.2369 72.904 40.2234 72.8375 40.2234C72.771 40.2234 72.7052 40.2369 72.644 40.263C72.5892 40.2873 72.5399 40.3225 72.499 40.3663C72.4581 40.4101 72.4265 40.4617 72.406 40.518C72.3643 40.6323 72.3643 40.7577 72.406 40.872C72.4265 40.9283 72.4581 40.9799 72.499 41.0237C72.5399 41.0676 72.5892 41.1027 72.644 41.127C72.732 41.1679 72.8306 41.1803 72.9261 41.1624C73.0215 41.1445 73.1089 41.0971 73.176 41.027C73.2167 40.9835 73.248 40.9321 73.268 40.876C73.2887 40.8193 73.2992 40.7594 73.299 40.699" fill="#A8A296"/>
<path d="M73.8519 39.905H74.2849L74.7239 40.996H74.7309L75.1239 39.905H75.5339L74.7899 41.816C74.7648 41.8837 74.7336 41.9489 74.6969 42.011C74.665 42.0643 74.6244 42.112 74.5769 42.152C74.5292 42.191 74.4741 42.2199 74.4149 42.237C74.3417 42.257 74.2659 42.2664 74.1899 42.265C74.0887 42.265 73.9879 42.2519 73.89 42.226L73.9389 41.872C73.9716 41.8835 74.005 41.8929 74.0389 41.9C74.0718 41.9076 74.1053 41.9116 74.1389 41.912C74.1797 41.9127 74.2203 41.9084 74.2599 41.899C74.2904 41.8919 74.3189 41.8781 74.3433 41.8586C74.3677 41.839 74.3874 41.8142 74.4009 41.786C74.4169 41.757 74.433 41.721 74.45 41.68L74.5249 41.493L73.8519 39.905Z" fill="#A8A296"/>
</g>
<path d="M141.55 41.5008C141.5 41.7745 141.41 42.0393 141.282 42.2868C141.163 42.5149 141.004 42.7199 140.813 42.8921C140.624 43.0613 140.404 43.1935 140.166 43.2816C139.906 43.3761 139.632 43.423 139.356 43.42C139.035 43.4236 138.717 43.3663 138.418 43.2511C138.135 43.1408 137.881 42.9685 137.674 42.7467C137.456 42.5056 137.288 42.2232 137.181 41.9161C137.054 41.5463 136.993 41.1572 137.001 40.7664C136.995 40.3747 137.05 39.9844 137.165 39.6097C137.262 39.2905 137.421 38.9938 137.634 38.737C137.838 38.5007 138.093 38.3138 138.38 38.1903C138.691 38.0599 139.026 37.9953 139.363 38.0003C139.655 37.9966 139.946 38.0442 140.222 38.141C140.466 38.2281 140.692 38.3602 140.888 38.5305C141.072 38.6951 141.222 38.8944 141.329 39.1171C141.44 39.3421 141.509 39.5853 141.533 39.835H140.471C140.415 39.5684 140.269 39.3291 140.058 39.1569C139.933 39.0627 139.791 38.9939 139.64 38.9547C139.488 38.9154 139.331 38.9065 139.176 38.9283C139.021 38.9501 138.872 39.0022 138.738 39.0817C138.603 39.1612 138.486 39.2665 138.392 39.3916C138.187 39.7996 138.08 40.2499 138.08 40.7066C138.08 41.1633 138.187 41.6136 138.392 42.0217C138.492 42.1764 138.632 42.3016 138.797 42.3841C138.962 42.4666 139.146 42.5035 139.33 42.4909C139.607 42.5053 139.879 42.4138 140.091 42.2351C140.298 42.0382 140.436 41.7799 140.485 41.4985L141.55 41.5008Z" fill="#A8A296"/>
<path d="M143.626 43.3424C143.347 43.3465 143.069 43.2971 142.808 43.1969C142.578 43.1069 142.371 42.9679 142.201 42.7896C142.031 42.6113 141.901 42.398 141.822 42.1646C141.733 41.9065 141.69 41.6351 141.693 41.3622C141.69 41.0866 141.735 40.8126 141.827 40.5527C141.91 40.3193 142.041 40.1059 142.212 39.9263C142.383 39.7507 142.59 39.6139 142.819 39.5251C143.077 39.4276 143.351 39.3798 143.626 39.3843C143.898 39.38 144.168 39.4278 144.422 39.5251C144.65 39.6125 144.857 39.7493 145.026 39.9257C145.196 40.1022 145.324 40.3138 145.402 40.5457C145.581 41.0746 145.581 41.6474 145.402 42.1763C145.32 42.408 145.19 42.6205 145.022 42.8004C144.852 42.9765 144.646 43.1134 144.417 43.2016C144.165 43.2983 143.896 43.3461 143.626 43.3424ZM143.626 42.5095C144.232 42.5095 144.537 42.127 144.537 41.3622C144.537 40.5973 144.232 40.2243 143.626 40.2243C143.021 40.2243 142.716 40.6043 142.716 41.3622C142.716 42.12 143.021 42.5095 143.626 42.5095Z" fill="#A8A296"/>
<path d="M148.305 43.2437V40.9655C148.327 40.7582 148.276 40.5494 148.159 40.3766C148.09 40.3195 148.011 40.2765 147.926 40.2503C147.84 40.2242 147.751 40.2153 147.662 40.2241C147.149 40.2241 146.891 40.5119 146.89 41.0875V43.2437H145.895V39.4897H146.834V40.0388C146.941 39.8363 147.104 39.6687 147.303 39.5554C147.534 39.437 147.792 39.3804 148.051 39.3912C148.22 39.3893 148.389 39.4163 148.549 39.471C148.695 39.5202 148.83 39.6002 148.943 39.7056C149.055 39.8183 149.144 39.9523 149.203 40.0998C149.269 40.2718 149.301 40.4551 149.297 40.6394V43.246L148.305 43.2437Z" fill="#A8A296"/>
<path d="M151.873 40.7663H152.798V41.8362C152.798 42.0297 152.768 42.2222 152.709 42.4063C152.651 42.584 152.558 42.7477 152.434 42.8873C152.304 43.032 152.144 43.1459 151.965 43.2205C151.748 43.3072 151.516 43.3487 151.282 43.3425C151.042 43.3492 150.802 43.3077 150.578 43.2205C150.4 43.1453 150.24 43.0333 150.109 42.892C149.985 42.7534 149.893 42.5892 149.839 42.411C149.782 42.2223 149.754 42.0262 149.755 41.8291V38.467H150.733V39.4829H152.812V40.1868H150.733V41.7306C150.722 41.9244 150.768 42.1172 150.867 42.2843C150.917 42.3513 150.984 42.4044 151.061 42.4384C151.138 42.4725 151.222 42.4865 151.306 42.479C151.389 42.4856 151.473 42.4715 151.55 42.438C151.627 42.4044 151.694 42.3525 151.747 42.2867C151.85 42.1256 151.899 41.9357 151.887 41.7447L151.873 40.7663Z" fill="#A8A296"/>
<path d="M153.225 39.0347V38.1104H154.219V39.0347H153.225ZM153.225 43.2579V39.504H154.219V43.2579H153.225Z" fill="#A8A296"/>
<path d="M157.077 43.244V40.9658C157.1 40.7585 157.048 40.5498 156.932 40.3769C156.863 40.3197 156.784 40.2767 156.698 40.2505C156.613 40.2243 156.523 40.2155 156.434 40.2244C155.92 40.2244 155.662 40.5122 155.662 41.0878V43.244H154.67V39.49H155.608V40.0391C155.715 39.8361 155.878 39.6683 156.078 39.5558C156.467 39.3709 156.912 39.3408 157.323 39.4713C157.47 39.52 157.603 39.6001 157.715 39.7059C157.828 39.818 157.917 39.9522 157.976 40.1001C158.043 40.272 158.075 40.4553 158.072 40.6397V43.2463L157.077 43.244Z" fill="#A8A296"/>
<path d="M159.423 41.6156C159.425 41.8643 159.513 42.1045 159.672 42.296C159.746 42.379 159.837 42.4445 159.939 42.4879C160.042 42.5314 160.152 42.5516 160.263 42.5471C160.415 42.551 160.564 42.5129 160.695 42.4368C160.753 42.4039 160.804 42.3595 160.844 42.3062C160.885 42.2529 160.914 42.192 160.93 42.1271H161.962C161.865 42.4857 161.649 42.8009 161.349 43.021C161.045 43.2341 160.681 43.3443 160.31 43.3354C159.059 43.3354 158.433 42.6527 158.433 41.2872C158.429 41.0194 158.47 40.7528 158.555 40.4988C158.63 40.2755 158.751 40.0701 158.909 39.8958C159.067 39.7255 159.262 39.5939 159.48 39.5111C159.726 39.4178 159.988 39.3723 160.251 39.3773C160.499 39.3608 160.748 39.4024 160.977 39.499C161.206 39.5955 161.409 39.7443 161.57 39.9334C161.867 40.3057 162.016 40.8664 162.016 41.6156H159.423ZM160.991 40.9892C160.988 40.8647 160.963 40.7416 160.918 40.6255C160.878 40.5286 160.82 40.4402 160.747 40.3651C160.676 40.2977 160.592 40.2458 160.5 40.2126C160.41 40.18 160.315 40.1633 160.219 40.1633C160.122 40.1624 160.027 40.1813 159.938 40.2188C159.849 40.2564 159.769 40.3117 159.702 40.3815C159.549 40.5475 159.461 40.7633 159.454 40.9892H160.991Z" fill="#A8A296"/>
<path d="M164.777 43.244V40.9658C164.8 40.7585 164.749 40.5498 164.632 40.3769C164.563 40.3197 164.484 40.2767 164.399 40.2505C164.313 40.2243 164.223 40.2155 164.134 40.2244C163.62 40.2244 163.363 40.5122 163.363 41.0878V43.244H162.37V39.49H163.309V40.0391C163.415 39.8361 163.578 39.6683 163.778 39.5558C164.167 39.3709 164.613 39.3408 165.024 39.4713C165.17 39.52 165.304 39.6001 165.416 39.7059C165.529 39.818 165.617 39.9522 165.676 40.1001C165.743 40.272 165.775 40.4553 165.772 40.6397V43.2463L164.777 43.244Z" fill="#A8A296"/>
<path d="M168.334 40.7663H169.259V41.8362C169.26 42.0296 169.231 42.2221 169.172 42.4063C169.115 42.5887 169.018 42.7562 168.889 42.897C168.759 43.0377 168.6 43.1482 168.423 43.2205C168.206 43.307 167.973 43.3485 167.738 43.3425C167.498 43.349 167.259 43.3075 167.035 43.2205C166.857 43.1456 166.697 43.0336 166.565 42.892C166.44 42.7536 166.347 42.5894 166.293 42.411C166.236 42.2223 166.208 42.0262 166.209 41.8291V38.467H167.187V39.4829H169.266V40.1868H167.187V41.7306C167.176 41.9244 167.222 42.1172 167.321 42.2843C167.372 42.3514 167.439 42.4044 167.516 42.4384C167.593 42.4725 167.678 42.4864 167.762 42.479C167.845 42.4856 167.929 42.4715 168.005 42.438C168.082 42.4044 168.149 42.3525 168.201 42.2867C168.304 42.1256 168.353 41.9357 168.341 41.7447L168.334 40.7663Z" fill="#A8A296"/>
<path d="M171.926 40.6206C171.922 40.5463 171.903 40.4736 171.869 40.4073C171.835 40.341 171.787 40.2826 171.729 40.2359C171.576 40.1506 171.4 40.1122 171.225 40.1256C171.076 40.1183 170.927 40.1423 170.788 40.196C170.742 40.215 170.703 40.2476 170.676 40.2895C170.648 40.3314 170.635 40.3806 170.636 40.4306C170.634 40.4833 170.648 40.5354 170.675 40.5807C170.702 40.626 170.741 40.6627 170.788 40.6863C170.933 40.7625 171.087 40.8208 171.246 40.86C171.462 40.921 171.664 40.9749 171.858 41.0242C172.032 41.0652 172.203 41.1169 172.37 41.179C172.553 41.2456 172.716 41.3607 172.839 41.5122C172.954 41.682 173.01 41.8847 172.999 42.0894C173.007 42.2645 172.974 42.4392 172.901 42.5988C172.829 42.7584 172.719 42.8983 172.581 43.0067C172.221 43.2496 171.79 43.3653 171.356 43.3352C170.883 43.3667 170.412 43.2377 170.021 42.9692C169.877 42.8588 169.759 42.7169 169.678 42.5543C169.597 42.3916 169.554 42.2126 169.552 42.0307H170.575C170.571 42.1115 170.588 42.192 170.624 42.2643C170.66 42.3367 170.714 42.3985 170.781 42.4437C170.953 42.5494 171.153 42.6001 171.354 42.5891C171.515 42.5928 171.675 42.5624 171.823 42.5C171.884 42.4776 171.936 42.4364 171.972 42.3824C172.008 42.3284 172.026 42.2644 172.023 42.1996C172.026 42.1394 172.01 42.0798 171.977 42.0289C171.945 41.9781 171.898 41.9385 171.842 41.9158C171.705 41.8542 171.563 41.8055 171.417 41.7703C171.103 41.6952 170.847 41.6248 170.655 41.5638C170.482 41.5129 170.317 41.4387 170.164 41.3433C170.008 41.2528 169.879 41.1204 169.794 40.9608C169.724 40.8142 169.689 40.6538 169.69 40.4916C169.69 40.3397 169.718 40.1891 169.775 40.0482C169.834 39.908 169.928 39.7859 170.049 39.6939C170.197 39.5843 170.364 39.5046 170.542 39.4593C170.782 39.4005 171.028 39.3729 171.274 39.3771C171.818 39.3771 172.22 39.4812 172.478 39.6892C172.61 39.8045 172.716 39.9465 172.788 40.1059C172.861 40.2653 172.899 40.4384 172.9 40.6136L171.926 40.6206Z" fill="#A8A296"/>
</g>
<defs>
<clipPath id="clip0_140_1153">
<rect width="175.9" height="44.53" fill="white"/>
</clipPath>
<clipPath id="clip1_140_1153">
<rect width="3.534" height="3.265" fill="white" transform="translate(72 39)"/>
</clipPath>
</defs>
</svg>
