<svg width="193" height="59" viewBox="0 0 193 59" fill="none" xmlns="http://www.w3.org/2000/svg">
<path d="M30.5409 13.6104C36.8001 13.6094 42.8255 15.9881 47.396 20.2645C51.9665 24.5409 54.7401 30.395 55.1548 36.6404C55.1895 36.1047 55.2126 35.5614 55.2126 35.0141C55.2095 30.6881 54.1267 26.4313 52.0625 22.6295C49.9983 18.8278 47.0178 15.6013 43.3914 13.2427C39.7649 10.8841 35.6071 9.4678 31.2949 9.12233C26.9827 8.77686 22.6525 9.5131 18.6967 11.2643C14.741 13.0155 11.2849 15.7263 8.64175 19.1509C5.99858 22.5755 4.25191 26.6057 3.56011 30.876C2.86831 35.1464 3.25325 39.5219 4.68002 43.6058C6.10679 47.6898 8.53029 51.3531 11.7308 54.2636C8.67568 50.6754 6.71252 46.287 6.07366 41.6179C5.43481 36.9488 6.147 32.1943 8.12596 27.9173C10.1049 23.6404 13.2678 20.0199 17.2402 17.4844C21.2126 14.9489 25.8283 13.6045 30.5409 13.6104Z" fill="#DFB93E"/>
<path d="M29.6276 6.07244C46.2604 6.28825 59.5712 19.7494 59.3592 36.1317C59.3592 36.3513 59.3592 36.5671 59.3592 36.7868C59.903 34.5857 60.1901 32.3291 60.2148 30.062C60.4267 13.672 47.112 0.210896 30.4831 0.00279323C14.07 -0.21687 0.558793 12.5467 0 28.64C3.26798 15.5372 15.3495 5.90288 29.6276 6.07244Z" fill="#2B233B"/>
<path d="M33.7858 54.8185C22.1282 54.8185 12.6788 45.531 12.6788 34.0738C12.6758 29.4386 14.2496 24.9403 17.1414 21.3179C14.6341 23.7051 12.73 26.654 11.586 29.9215C10.4421 33.189 10.091 36.6817 10.5619 40.1115C11.0327 43.5413 12.3119 46.8102 14.294 49.6486C16.2762 52.487 18.9045 54.8137 21.9623 56.437C25.0202 58.0602 28.4201 58.9335 31.8817 58.9849C35.3433 59.0362 38.7676 58.2642 41.8722 56.7324C44.9769 55.2006 47.6731 52.9528 49.7386 50.1745C51.804 47.3961 53.1796 44.1667 53.752 40.7523C52.2959 44.8794 49.5913 48.4511 46.0135 50.9716C42.4358 53.4921 38.1622 54.8366 33.7858 54.8185Z" fill="#0C432F"/>
<path d="M30.3251 40.2014C29.5981 40.6874 28.7961 41.0507 27.9512 41.2766C27.1302 41.4469 26.2922 41.5219 25.454 41.5001C23.6402 41.5001 22.1732 41.0248 21.053 40.0742C19.8507 39.0619 19.2495 37.6695 19.2495 35.8967C19.2417 34.7564 19.4616 33.6261 19.8964 32.5719C20.3312 31.5177 20.972 30.561 21.7814 29.7577C22.5444 28.9242 23.4736 28.2597 24.509 27.807C25.5444 27.3543 26.6632 27.1235 27.7932 27.1295C28.471 27.1592 29.1421 27.2771 29.7895 27.4801C30.3533 27.6633 30.9366 27.7797 31.5275 27.827C31.8872 27.827 32.2571 27.5842 32.6374 27.0986L33.1114 27.2258L32.0362 31.4649L31.5275 31.3994C31.2706 29.1206 30.0477 27.9811 27.8587 27.9811C26.0012 27.9811 24.4713 28.9626 23.2689 30.9254C22.2214 32.5719 21.669 34.4848 21.6773 36.4363C21.6215 37.5406 21.9958 38.6235 22.7217 39.4576C23.4205 40.2052 24.4019 40.579 25.666 40.579C26.5934 40.579 27.2743 40.4159 27.7084 40.0896C28.1426 39.7633 28.4638 39.1467 28.6719 38.2398C29.0521 36.5699 29.2422 35.6514 29.2422 35.4844C29.2422 35.2108 29.0303 35.0335 28.6102 34.9487L27.6275 34.8215V34.3475H33.358V34.8061C32.8455 34.7917 32.3397 34.9255 31.9013 35.1915C31.5853 35.4484 31.268 36.25 30.9494 37.5962C30.5409 39.2533 30.3483 40.1166 30.3251 40.2014Z" fill="#2B233B"/>
<path d="M43.9635 41.1493H33.173V40.6753C33.656 40.6299 34.1114 40.4299 34.4717 40.105C34.7264 39.6853 34.9075 39.2253 35.0074 38.7446L37.574 29.4956C37.6362 29.2435 37.6673 28.9846 37.6664 28.7249C37.6712 28.556 37.6168 28.3908 37.5126 28.2578C37.4085 28.1248 37.2612 28.0324 37.0961 27.9965C36.7514 27.9298 36.4024 27.8873 36.0517 27.8693V27.3645H41.9402V27.8693C41.4181 27.883 40.9073 28.0246 40.4527 28.2817C40.0849 28.6144 39.8392 29.0608 39.7552 29.5496C37.9568 36.0881 37.0575 39.41 37.0575 39.5154C37.0575 40.0009 37.5316 40.2437 38.4834 40.2437C40.3384 40.2437 41.5934 40.096 42.2485 39.8005C43.0681 39.4229 43.8594 38.516 44.6224 37.0798L45.1581 37.2686L43.9635 41.1493Z" fill="#2B233B"/>
<path d="M79.6685 26.3932C79.1783 26.3815 78.6948 26.5084 78.2735 26.7593C77.9806 27.002 77.6684 27.7882 77.3447 29.1216C76.9413 30.753 76.7332 31.5816 76.7204 31.6073C76.0342 32.0708 75.2764 32.4184 74.4775 32.6362C73.6879 32.8074 72.8804 32.8825 72.0728 32.8597C70.3335 32.8597 68.9204 32.4089 67.8337 31.5071C66.6904 30.5359 66.1187 29.2025 66.1187 27.5069C66.1108 26.4107 66.3222 25.324 66.7405 24.3108C67.1587 23.2975 67.7754 22.3782 68.5543 21.6068C69.2873 20.8047 70.1807 20.1655 71.1765 19.7307C72.1723 19.2958 73.2483 19.075 74.3349 19.0826C75.0116 19.1059 75.6818 19.2213 76.3273 19.4256C76.8503 19.604 77.3921 19.7217 77.942 19.7763C78.1687 19.7516 78.3867 19.6752 78.5791 19.553C78.7716 19.4307 78.9333 19.2658 79.0519 19.071L79.3756 19.1712L78.3852 23.1483L77.9998 23.0905C77.968 22.7152 77.9074 22.3428 77.8187 21.9768C77.598 21.2718 77.1133 20.6795 76.466 20.3235C75.8366 19.9515 75.1161 19.762 74.385 19.7763C72.5661 19.7763 71.0644 20.732 69.88 22.6435C68.8652 24.2594 68.3306 26.1305 68.3385 28.0387C68.2757 29.1158 68.6382 30.1744 69.3482 30.9868C69.7271 31.3733 70.1849 31.6735 70.6903 31.867C71.1957 32.0605 71.7369 32.1428 72.277 32.1083C73.2071 32.1083 73.8866 31.9425 74.3157 31.6111C74.7447 31.2797 75.0607 30.6708 75.2637 29.7845C75.387 29.3413 75.4988 28.8942 75.6067 28.4511C75.7348 28.0107 75.8099 27.5566 75.8302 27.0984C75.8302 26.8171 75.6298 26.6205 75.2251 26.5126L74.2733 26.3893V26.0694H79.6685V26.3932Z" fill="#2B233B"/>
<path d="M85.0021 28.0734L86.2353 31.3645C86.2943 31.6032 86.4323 31.8149 86.6268 31.9653C86.8212 32.1157 87.0608 32.1959 87.3066 32.1931V32.5168H85.2641L83.607 28.2122L82.8363 28.1312L82.027 31.2643C81.9787 31.4285 81.9515 31.5981 81.9461 31.7692C81.9461 31.9696 82.2505 32.1199 82.8555 32.2124V32.5168H79.4835V32.2124C79.7552 32.1653 80.0162 32.07 80.2543 31.931C80.4038 31.7104 80.5097 31.4631 80.5664 31.2027L82.1811 25.4645C82.2826 25.171 82.3436 24.865 82.3623 24.555C82.3623 24.2582 82.0463 24.0925 81.4143 24.0501V23.7264H84.8826C85.5167 23.6999 86.1458 23.8479 86.7016 24.1542C86.9819 24.2991 87.2147 24.5213 87.3725 24.7945C87.5303 25.0678 87.6064 25.3805 87.5918 25.6957C87.5815 26.916 86.7183 27.7086 85.0021 28.0734ZM84.4972 24.2197C84.3159 24.1983 84.1329 24.242 83.9808 24.343C83.8909 24.4227 83.5711 25.4863 83.0213 27.5339C83.2553 27.576 83.4926 27.5966 83.7303 27.5956C85.2924 27.5956 86.0734 26.9533 86.0734 25.6687C86.0734 24.7168 85.5455 24.2313 84.4934 24.2313L84.4972 24.2197Z" fill="#2B233B"/>
<path d="M92.2009 32.7596C91.4948 32.7785 90.7989 32.5881 90.2008 32.2124C89.8992 32.0352 89.6506 31.7807 89.4805 31.4751C89.3104 31.1695 89.2251 30.824 89.2335 30.4744C89.3071 29.5584 89.4829 28.6536 89.7576 27.7767C89.9991 26.9674 90.2419 26.153 90.4859 25.3335C90.5633 25.0831 90.6099 24.8243 90.6247 24.5627C90.6247 24.2814 90.2778 24.1195 89.5765 24.0771V23.7534H93.3146V24.0771C92.9676 24.0785 92.6291 24.1846 92.3434 24.3816C92.1255 24.6756 91.9742 25.0135 91.9003 25.372L91.091 28.2392C90.8293 29.0259 90.6536 29.8386 90.5669 30.6632C90.5599 30.8836 90.6102 31.1021 90.7129 31.2973C90.8155 31.4925 90.967 31.6578 91.1526 31.7769C91.5231 32.0232 91.9604 32.1497 92.4051 32.1392C93.7102 32.1392 94.5927 31.3106 95.0526 29.6535L95.9814 26.2584C96.153 25.7182 96.2818 25.1654 96.3668 24.6051C96.3668 24.2544 96.0508 24.0771 95.4187 24.0771V23.7534H98.1857V24.0155C97.9158 24.0557 97.6594 24.1601 97.4381 24.3199C97.2597 24.5206 97.135 24.7632 97.0758 25.0251L95.6808 29.8346C95.1181 31.7846 93.9582 32.7596 92.2009 32.7596Z" fill="#2B233B"/>
<path d="M101.889 28.4743C101.564 28.4753 101.24 28.4417 100.922 28.3741C100.76 28.929 100.59 29.484 100.417 30.0505C100.242 30.5686 100.119 31.1031 100.051 31.6459C100.043 31.7464 100.068 31.8467 100.123 31.9311C100.179 32.0155 100.26 32.0792 100.355 32.1122C100.561 32.1612 100.769 32.1947 100.98 32.2124V32.5169H97.5961V32.2124C97.8451 32.1598 98.0889 32.085 98.3245 31.9889C98.5135 31.8059 98.6345 31.5639 98.6675 31.3029L100.294 25.5878C100.402 25.2453 100.477 24.8929 100.517 24.5358C100.517 24.2531 100.194 24.0913 99.5461 24.0502V23.7265H103.122C103.758 23.7042 104.388 23.859 104.941 24.1735C105.208 24.3426 105.425 24.5793 105.571 24.8595C105.716 25.1398 105.785 25.4535 105.77 25.7689C105.791 26.2144 105.682 26.6563 105.455 27.0404C105.228 27.4244 104.894 27.734 104.494 27.9309C103.685 28.3283 102.789 28.5152 101.889 28.4743ZM102.498 24.2352C102.382 24.2281 102.267 24.2631 102.174 24.3339C102.081 24.4046 102.017 24.5064 101.993 24.6205C101.908 24.8672 101.835 25.1138 101.77 25.3566L101.084 27.8191C101.332 27.8579 101.584 27.8746 101.835 27.8692C103.462 27.8692 104.279 27.1756 104.279 25.7882C104.305 25.5604 104.276 25.3295 104.195 25.115C104.114 24.9005 103.983 24.7085 103.812 24.555C103.423 24.3032 102.96 24.1892 102.498 24.2313V24.2352Z" fill="#2B233B"/>
<path d="M109.608 32.7595C109.191 32.7751 108.776 32.6958 108.394 32.5276C108.012 32.3594 107.674 32.1066 107.404 31.7884C106.877 31.1354 106.604 30.3145 106.633 29.4762C106.633 28.1042 107.202 26.7772 108.34 25.4952C109.478 24.2132 110.728 23.5709 112.09 23.5684C112.515 23.5449 112.941 23.6109 113.339 23.7623C113.738 23.9136 114.1 24.1469 114.402 24.447C114.982 25.0887 115.283 25.9343 115.239 26.7978C115.213 28.3304 114.594 29.7934 113.512 30.8789C112.364 32.1327 111.062 32.7595 109.608 32.7595ZM112.032 24.0925C110.899 24.0925 109.942 24.8632 109.161 26.4047C108.521 27.5774 108.174 28.8879 108.152 30.2238C108.152 31.5572 108.706 32.2239 109.809 32.2239C110.911 32.2239 111.905 31.4531 112.699 29.9617C113.356 28.7824 113.71 27.458 113.728 26.108C113.728 24.7669 113.163 24.095 112.032 24.0925Z" fill="#2B233B"/>
<path d="M131.894 28.8982L130.738 32.5169H120.414V32.1932C120.892 32.1601 121.342 31.9595 121.686 31.6267C121.914 31.2067 122.085 30.7583 122.195 30.2933L124.676 21.3179C124.746 21.0748 124.781 20.8231 124.78 20.5703C124.788 20.3993 124.738 20.2307 124.639 20.0912C124.54 19.9516 124.397 19.849 124.233 19.7995C123.896 19.7176 123.551 19.6699 123.204 19.657V19.314H128.757V19.657C128.257 19.6724 127.77 19.8185 127.343 20.0809C126.99 20.4171 126.75 20.8548 126.657 21.3333L124.071 30.7056C124.045 30.8049 124.032 30.9073 124.033 31.0101C124.033 31.5496 124.541 31.8194 125.574 31.8194C126.55 31.8514 127.527 31.7699 128.484 31.5766C129.424 31.3431 130.246 30.7744 130.796 29.9773C130.889 29.8308 131.12 29.4223 131.482 28.7479L131.894 28.8982Z" fill="#2B233B"/>
<path d="M138.615 32.7172C138.064 32.7172 137.787 32.4551 137.787 31.9464C137.842 31.2147 137.971 30.4903 138.172 29.7845C137.163 31.01 136.604 31.6767 136.496 31.7846C135.867 32.4088 135.02 32.7639 134.133 32.775C133.845 32.7867 133.559 32.7282 133.298 32.6047C133.038 32.4812 132.811 32.2963 132.638 32.0659C132.302 31.5962 132.131 31.0283 132.153 30.4512C132.153 28.9842 132.738 27.5018 133.91 26.0039C135.164 24.4162 136.504 23.6223 137.929 23.6223C138.274 23.5988 138.617 23.6889 138.905 23.879C139.193 24.0691 139.411 24.3485 139.525 24.6744L139.729 23.8035C140.215 23.7225 140.642 23.6609 141.024 23.6223L141.205 23.684L139.849 28.9135C139.463 30.3972 139.286 31.2258 139.286 31.3607C139.286 31.4955 139.371 31.6612 139.548 31.6612C139.725 31.6612 139.999 31.4531 140.415 31.0369C140.658 30.7787 140.908 30.5244 141.163 30.2662L141.425 30.509C141.038 31.0008 140.626 31.4729 140.192 31.9233C139.785 32.3772 139.222 32.6607 138.615 32.7172ZM137.891 24.1118C136.894 24.1118 135.958 24.9339 135.081 26.5782C134.311 28.0323 133.925 29.3169 133.925 30.4319C133.921 30.7664 134.043 31.0901 134.268 31.3375C134.375 31.4619 134.509 31.5609 134.659 31.6275C134.809 31.6942 134.971 31.7268 135.135 31.7229C136.148 31.7229 137.098 30.8943 137.987 29.2372C138.781 27.7857 139.178 26.4934 139.178 25.3604C139.168 24.5305 138.739 24.1143 137.891 24.1118Z" fill="#2B233B"/>
<path d="M147.263 28.0735L148.496 31.3646C148.555 31.6026 148.693 31.8138 148.886 31.9642C149.08 32.1145 149.319 32.1952 149.564 32.1932V32.5169H147.525L145.868 28.2123L145.097 28.1313L144.288 31.2644C144.24 31.4286 144.213 31.5982 144.207 31.7693C144.207 31.9697 144.512 32.12 145.117 32.2125V32.5169H141.745V32.2125C142.016 32.1654 142.277 32.0701 142.515 31.9311C142.665 31.7104 142.771 31.4632 142.828 31.2028L144.423 25.4646C144.524 25.1711 144.585 24.8651 144.604 24.5551C144.604 24.2583 144.288 24.0926 143.656 24.0502V23.7265H147.124C147.757 23.7007 148.385 23.8487 148.94 24.1543C149.22 24.2992 149.453 24.5214 149.61 24.7946C149.768 25.0679 149.844 25.3806 149.83 25.6958C149.843 26.9161 148.987 27.7087 147.263 28.0735ZM146.758 24.2198C146.577 24.2004 146.395 24.244 146.242 24.3431C146.152 24.4228 145.832 25.4864 145.282 27.534C145.516 27.5761 145.754 27.5967 145.991 27.5957C147.551 27.5957 148.332 26.9534 148.335 25.6688C148.335 24.7105 147.809 24.2314 146.758 24.2314V24.2198Z" fill="#2B233B"/>
<path d="M155.487 28.0734L156.716 31.3645C156.776 31.6028 156.914 31.8141 157.109 31.9644C157.303 32.1147 157.542 32.1953 157.788 32.1931V32.5168H155.749L154.092 28.2122L153.321 28.1312L152.512 31.2643C152.464 31.4285 152.436 31.5981 152.431 31.7692C152.431 31.9696 152.735 32.1199 153.341 32.2124V32.5168H149.969V32.2124C150.24 32.1653 150.501 32.07 150.739 31.931C150.892 31.7118 151 31.4641 151.055 31.2027L152.651 25.4645C152.75 25.1705 152.811 24.8647 152.832 24.555C152.832 24.2582 152.516 24.0925 151.884 24.0501V23.7264H155.352C155.986 23.6999 156.615 23.8479 157.171 24.1542C157.451 24.2992 157.683 24.5216 157.84 24.7949C157.998 25.0682 158.073 25.3808 158.058 25.6957C158.065 26.916 157.208 27.7086 155.487 28.0734ZM154.982 24.2197C154.801 24.1983 154.618 24.242 154.466 24.343C154.376 24.4227 154.056 25.4863 153.506 27.5339C153.739 27.5761 153.975 27.5967 154.211 27.5956C155.776 27.5956 156.555 26.9559 156.555 25.6687C156.557 24.7104 156.033 24.2313 154.982 24.2313V24.2197Z" fill="#2B233B"/>
<path d="M165.164 32.7173C164.609 32.7173 164.335 32.4552 164.335 31.9465C164.39 31.2147 164.519 30.4903 164.721 29.7846C163.711 31.0101 163.152 31.6768 163.044 31.7847C162.416 32.4096 161.568 32.7649 160.682 32.7751C160.394 32.7868 160.107 32.7283 159.847 32.6048C159.586 32.4813 159.36 32.2964 159.187 32.066C158.851 31.5964 158.68 31.0284 158.701 30.4513C158.701 28.9843 159.287 27.5019 160.458 26.0041C161.712 24.4163 163.052 23.6225 164.478 23.6225C164.823 23.5993 165.166 23.6896 165.454 23.8795C165.743 24.0695 165.962 24.3487 166.077 24.6745L166.278 23.8036C166.763 23.7227 167.195 23.661 167.572 23.6225L167.754 23.6841L166.401 28.9136C166.016 30.3973 165.834 31.2259 165.834 31.3608C165.834 31.4957 165.919 31.6614 166.096 31.6614C166.274 31.6614 166.547 31.4533 166.964 31.0371C167.206 30.7789 167.457 30.5245 167.711 30.2663L167.973 30.5091C167.368 31.249 166.956 31.7192 166.744 31.9234C166.335 32.3769 165.771 32.6603 165.164 32.7173ZM164.435 24.1119C163.439 24.1119 162.502 24.934 161.626 26.5783C160.855 28.0324 160.47 29.317 160.47 30.432C160.461 30.7644 160.578 31.0879 160.798 31.3377C160.905 31.4621 161.039 31.5611 161.19 31.6278C161.34 31.6944 161.504 31.7269 161.669 31.723C162.678 31.723 163.627 30.8945 164.516 29.2374C165.31 27.7858 165.707 26.4935 165.707 25.3605C165.707 24.5306 165.283 24.1144 164.435 24.1119Z" fill="#2B233B"/>
<path d="M173.808 28.0734L175.041 31.3645C175.1 31.6032 175.238 31.8149 175.432 31.9653C175.627 32.1157 175.866 32.1959 176.112 32.1931V32.5168H174.07L172.417 28.2122L171.646 28.1312L170.84 31.2643C170.791 31.4284 170.763 31.598 170.756 31.7692C170.756 31.9696 171.06 32.1199 171.665 32.2124V32.5168H168.293V32.2124C168.565 32.1653 168.826 32.07 169.064 31.931C169.217 31.7122 169.323 31.4643 169.376 31.2027L170.971 25.4645C171.074 25.171 171.136 24.865 171.156 24.555C171.156 24.2582 170.836 24.0925 170.204 24.0501V23.7264H173.673C174.307 23.6999 174.936 23.8479 175.492 24.1542C175.771 24.3 176.003 24.5225 176.16 24.7956C176.317 25.0687 176.393 25.381 176.378 25.6957C176.388 26.916 175.532 27.7086 173.808 28.0734ZM173.303 24.2197C173.122 24.2003 172.939 24.2439 172.786 24.343C172.702 24.4227 172.382 25.4863 171.827 27.5339C172.061 27.576 172.298 27.5966 172.536 27.5956C174.095 27.5956 174.877 26.9533 174.879 25.6687C174.879 24.7104 174.354 24.2313 173.303 24.2313V24.2197Z" fill="#2B233B"/>
<path d="M184.618 26.0117L184.294 25.9693C184.321 25.5839 184.332 25.3527 184.332 25.3257C184.352 25.111 184.293 24.8964 184.167 24.7215C184.041 24.5466 183.856 24.4231 183.646 24.3738C183.212 24.2997 182.772 24.2725 182.332 24.2929L180.452 31.1025C180.388 31.298 180.353 31.5018 180.348 31.7075C180.348 31.9619 180.502 32.1199 180.814 32.1738L181.561 32.2123V32.5168H177.565V32.2123C177.884 32.1857 178.198 32.1103 178.494 31.9888C178.757 31.8085 178.939 31.5315 178.999 31.2181L180.86 24.2813H180.837C180.216 24.2361 179.591 24.312 178.999 24.5049C178.611 24.695 178.225 25.1728 177.843 25.9385L177.5 25.8383L178.085 23.7148H185.257L184.618 26.0117Z" fill="#2B233B"/>
<path d="M186.699 28.7787C186.59 29.1735 186.528 29.5796 186.514 29.9887C186.5 30.2365 186.543 30.484 186.637 30.7134C186.732 30.9427 186.877 31.148 187.061 31.3144C187.457 31.6421 187.961 31.811 188.475 31.7884C189.323 31.7884 190.293 31.2746 191.385 30.2469L191.647 30.5475C190.45 31.9888 189.056 32.7095 187.465 32.7095C187.111 32.7263 186.757 32.6696 186.425 32.5429C186.093 32.4162 185.792 32.2223 185.539 31.9734C185.296 31.7119 185.108 31.4049 184.985 31.0702C184.862 30.7355 184.806 30.3797 184.822 30.0234C184.822 28.4819 185.455 27.0278 186.722 25.661C187.988 24.2942 189.382 23.6069 190.903 23.5992C191.315 23.5853 191.721 23.7056 192.059 23.9422C192.217 24.0569 192.343 24.2096 192.426 24.3861C192.509 24.5626 192.546 24.7573 192.533 24.9519C192.533 25.7226 192.036 26.3932 191.338 27.0291C190.772 27.5638 190.098 27.9711 189.361 28.2237C188.488 28.4732 187.599 28.6587 186.699 28.7787ZM190.433 24.131C189.708 24.131 188.965 24.659 188.213 25.7072C187.636 26.494 187.186 27.3666 186.88 28.2931C189.706 27.5789 191.119 26.4227 191.119 24.8247C191.119 24.3661 190.891 24.131 190.433 24.131Z" fill="#2B233B"/>
<path d="M66.797 38.945L67.8337 35.3765C67.9056 35.1954 67.9359 35.0005 67.9223 34.8061C67.8953 34.702 67.7951 34.6365 67.6294 34.6095L67.3674 34.5826L67.4252 34.3899H69.4137L69.3559 34.5826L69.2249 34.6057C69.1113 34.6176 69.0053 34.6679 68.9243 34.7483C68.8386 34.8517 68.7767 34.9728 68.7431 35.1028L67.7065 38.6598C67.6327 38.8444 67.6049 39.0441 67.6256 39.2418C67.6538 39.3445 67.7502 39.41 67.9146 39.4383L68.1766 39.4653L68.1227 39.658H66.1342L66.1881 39.4653L66.3191 39.4421C66.4326 39.4302 66.5387 39.3799 66.6197 39.2996C66.7069 39.1976 66.7678 39.0759 66.797 38.945Z" fill="#2B233B"/>
<path d="M69.7182 36.702C69.7405 36.6523 69.752 36.5984 69.752 36.544C69.752 36.4895 69.7405 36.4356 69.7182 36.386C69.6741 36.3491 69.6231 36.3215 69.5681 36.305C69.5131 36.2884 69.4554 36.2832 69.3983 36.2896H69.2403L69.2827 36.1316L69.9301 36.0199L70.5775 35.9119L70.1459 37.492C70.3101 37.2245 70.4903 36.9671 70.6854 36.7212C71.1428 36.174 71.5397 35.9004 71.8762 35.9004C71.9706 35.8929 72.0651 35.9143 72.147 35.9618C72.2289 36.0093 72.2944 36.0806 72.3348 36.1663C72.4217 36.3894 72.4217 36.6369 72.3348 36.86L71.7452 39.045C71.7216 39.1184 71.7125 39.1956 71.7182 39.2724C71.7187 39.283 71.7213 39.2935 71.7259 39.3031C71.7304 39.3127 71.7368 39.3214 71.7446 39.3285C71.7525 39.3357 71.7617 39.3412 71.7718 39.3448C71.7818 39.3484 71.7924 39.35 71.803 39.3495C71.8454 39.3495 71.9263 39.2955 72.0381 39.1876C72.1752 39.0517 72.3039 38.9076 72.4235 38.756L72.5545 38.8485C72.4089 39.0997 72.2242 39.326 72.0073 39.5191C71.8643 39.6663 71.6753 39.7601 71.4716 39.785C71.4002 39.7899 71.3289 39.7748 71.2656 39.7414C71.2023 39.7081 71.1495 39.6578 71.1132 39.5961C71.0494 39.4339 71.0494 39.2535 71.1132 39.0913L71.7414 36.7983C71.7733 36.6967 71.7733 36.5877 71.7414 36.4862C71.7273 36.4518 71.7023 36.423 71.6703 36.4042C71.6383 36.3854 71.601 36.3776 71.5641 36.3821C71.3252 36.3821 71.0284 36.6172 70.67 37.0873C70.3121 37.5625 70.03 38.0903 69.8338 38.652L69.5524 39.6771H68.9127L69.7182 36.702Z" fill="#2B233B"/>
<path d="M73.6219 36.7328C73.6056 36.6096 73.5502 36.4948 73.4639 36.4053C73.3675 36.329 73.2477 36.2881 73.1248 36.2897H72.9745V36.1317L73.5179 36.0161L74.0651 35.9043C74.2098 36.5089 74.3192 37.1214 74.3927 37.7387C74.4273 38.0739 74.4505 38.4555 74.462 38.8948C74.7434 38.5557 74.9823 38.2358 75.1865 37.9429C75.3908 37.65 75.5025 37.4574 75.6567 37.1722C75.7163 37.0836 75.746 36.9783 75.7415 36.8716C75.7145 36.7541 75.6604 36.6445 75.5835 36.5517L75.5565 36.517C75.51 36.4433 75.4859 36.3576 75.4871 36.2704C75.4803 36.1758 75.5032 36.0815 75.5526 36.0006C75.5767 35.9701 75.608 35.9461 75.6436 35.9306C75.6793 35.9151 75.7182 35.9087 75.7569 35.912C75.965 35.912 76.096 36.0392 76.1423 36.2974C76.1901 36.5744 76.1352 36.8594 75.9881 37.099C75.8354 37.386 75.6682 37.6651 75.4871 37.9352C75.0403 38.5849 74.5429 39.1982 73.9996 39.7696L73.9379 39.7156L73.8686 39.6617C73.8714 39.0181 73.8393 38.3749 73.7722 37.7348C73.7414 37.4381 73.7028 37.1182 73.6219 36.7328Z" fill="#2B233B"/>
<path d="M77.4989 39.7657C77.3515 39.7708 77.2048 39.7449 77.0681 39.6898C76.9313 39.6347 76.8076 39.5516 76.705 39.4459C76.6013 39.3384 76.5207 39.2108 76.4683 39.0709C76.416 38.931 76.3929 38.7819 76.4005 38.6327C76.3981 38.5096 76.411 38.3866 76.4391 38.2666C76.4648 38.1359 76.4996 38.0072 76.5431 37.8813C76.72 37.3477 77.0368 36.8712 77.4603 36.5016C77.8019 36.162 78.2584 35.9626 78.7398 35.9428C78.9428 35.9307 79.1443 35.9848 79.314 36.097C79.3802 36.1472 79.4334 36.2126 79.469 36.2877C79.5045 36.3629 79.5214 36.4455 79.5182 36.5286C79.5079 36.744 79.4445 36.9535 79.3335 37.1384C79.2226 37.3233 79.0676 37.4779 78.8823 37.5884C78.3802 37.9204 77.8049 38.1253 77.206 38.1857L77.1713 38.2743C77.1454 38.3934 77.1312 38.5147 77.1289 38.6366C77.1225 38.7329 77.1367 38.8295 77.1706 38.9199C77.2045 39.0102 77.2573 39.0923 77.3254 39.1607C77.4858 39.291 77.6896 39.3557 77.8958 39.3418C78.0783 39.3348 78.2566 39.2846 78.416 39.1954C78.6189 39.0856 78.8046 38.9467 78.9671 38.783L79.0827 38.9064C78.8631 39.1598 78.6026 39.3747 78.312 39.5422C78.0655 39.6873 77.7849 39.7644 77.4989 39.7657ZM78.655 36.1702C78.5063 36.187 78.3632 36.2364 78.236 36.3151C78.1087 36.3937 78.0004 36.4995 77.9189 36.6249C77.6379 36.9841 77.4251 37.3915 77.2908 37.8273L77.2638 37.9005H77.2985C77.7088 37.8396 78.09 37.6524 78.3891 37.3649C78.5333 37.2564 78.6529 37.1185 78.7399 36.9604C78.8269 36.8023 78.8794 36.6276 78.8939 36.4477C78.8971 36.3758 78.8753 36.3049 78.8322 36.2473C78.8104 36.222 78.7831 36.2019 78.7524 36.1886C78.7217 36.1752 78.6884 36.169 78.655 36.1702Z" fill="#2B233B"/>
<path d="M80.6396 36.7021C80.6619 36.6525 80.6735 36.5986 80.6735 36.5441C80.6735 36.4897 80.6619 36.4358 80.6396 36.3861C80.5956 36.3492 80.5446 36.3217 80.4896 36.3051C80.4346 36.2886 80.3768 36.2833 80.3197 36.2898H80.1617L80.2041 36.1318L80.8284 36.02L81.4605 35.9121L81.0481 37.4112C81.1676 37.1993 81.2909 36.9989 81.4335 36.81C81.842 36.2127 82.1773 35.916 82.447 35.916C82.5136 35.9128 82.5797 35.928 82.6382 35.9599C82.6967 35.9919 82.7452 36.0393 82.7784 36.0971C82.8154 36.162 82.8383 36.234 82.8456 36.3084C82.8529 36.3828 82.8445 36.4578 82.8208 36.5287C82.8012 36.6074 82.7549 36.6769 82.6898 36.7253C82.6309 36.7763 82.5558 36.805 82.4778 36.8062C82.4218 36.8045 82.3668 36.7914 82.316 36.7676C82.2688 36.746 82.2277 36.7129 82.1965 36.6713C82.1387 36.5788 82.0925 36.5326 82.0655 36.5326C81.9152 36.5326 81.7032 36.7715 81.4219 37.2532C81.1338 37.749 80.9012 38.275 80.7282 38.8217L80.4778 39.6618H79.8573L80.6396 36.7021Z" fill="#2B233B"/>
<path d="M85.1446 37.0488C85.1399 36.8131 85.0633 36.5845 84.925 36.3937C84.8727 36.3185 84.8029 36.2572 84.7217 36.2149C84.6405 36.1726 84.5502 36.1507 84.4587 36.1509C84.3514 36.146 84.2459 36.1802 84.1619 36.2472C84.0803 36.3188 84.027 36.4172 84.0116 36.5247C83.9902 36.664 84.0117 36.8064 84.0733 36.9332C84.1788 37.151 84.3081 37.3565 84.4587 37.5459C84.6365 37.7768 84.7865 38.0277 84.9057 38.2936C84.947 38.4059 84.9678 38.5246 84.9674 38.6443C84.9684 38.7167 84.962 38.789 84.9481 38.8601C84.898 39.1236 84.7509 39.3588 84.5357 39.5191C84.315 39.6879 84.0427 39.775 83.765 39.7657C83.5208 39.7694 83.278 39.7289 83.0482 39.6462C83.0263 39.6369 83.0027 39.6321 82.9788 39.6321C82.955 39.6321 82.9314 39.6369 82.9095 39.6462C82.8617 39.6653 82.8212 39.699 82.7939 39.7426V39.7734H82.6705L82.8324 38.4631L82.9865 38.4863C83.0032 38.762 83.0938 39.0282 83.2486 39.257C83.3087 39.342 83.3884 39.4113 83.481 39.4589C83.5736 39.5065 83.6763 39.5311 83.7804 39.5306C83.9146 39.5304 84.0443 39.4826 84.1465 39.3957C84.2531 39.3119 84.3267 39.1932 84.3546 39.0605C84.3831 38.9069 84.3643 38.7483 84.3007 38.6057C84.1971 38.3808 84.0678 38.1687 83.9153 37.9737C83.7425 37.7486 83.5988 37.5026 83.4875 37.2415C83.4343 37.1104 83.4055 36.9706 83.4028 36.8291V36.6827C83.4431 36.4618 83.5606 36.2624 83.7342 36.1201C83.9077 35.9778 84.1265 35.9026 84.3508 35.9081C84.5527 35.9064 84.7531 35.9443 84.9404 36.0199C85.0094 36.0412 85.0833 36.0412 85.1523 36.0199C85.2248 36.0024 85.2889 35.9601 85.3335 35.9004H85.4491L85.2834 37.0565L85.1446 37.0488Z" fill="#2B233B"/>
<path d="M85.9308 38.7792L86.4973 36.702C86.5196 36.6523 86.5312 36.5985 86.5312 36.544C86.5312 36.4895 86.5196 36.4357 86.4973 36.386C86.4568 36.3496 86.4091 36.3222 86.3573 36.3056C86.3055 36.289 86.2508 36.2836 86.1967 36.2896H86.0349L86.0772 36.1316L86.7131 36.0199L87.3567 35.912L86.5551 38.8408C86.515 38.9654 86.4942 39.0953 86.4934 39.2262C86.4934 39.3071 86.532 39.3495 86.5859 39.3495C86.6866 39.342 86.7811 39.2982 86.8518 39.2262C86.9826 39.0966 87.0989 38.9532 87.1987 38.7984L87.3297 38.8909C87.1871 39.1386 87.0063 39.3623 86.794 39.5538C86.6561 39.6917 86.4723 39.774 86.2776 39.785C86.1931 39.7891 86.1096 39.7653 86.0399 39.7173C85.9703 39.6692 85.9184 39.5996 85.8923 39.5191C85.8605 39.4369 85.8474 39.3487 85.8537 39.2609C85.8565 39.0975 85.8824 38.9353 85.9308 38.7792ZM87.2526 34.2703C87.3071 34.2699 87.361 34.281 87.4108 34.3029C87.4606 34.3248 87.5052 34.357 87.5417 34.3975C87.6183 34.4841 87.6607 34.5958 87.6607 34.7115C87.6607 34.8272 87.6183 34.939 87.5417 35.0256C87.5052 35.066 87.4606 35.0982 87.4108 35.1202C87.361 35.1421 87.3071 35.1532 87.2526 35.1528C87.1982 35.1532 87.1443 35.1421 87.0945 35.1202C87.0447 35.0982 87.0001 35.066 86.9636 35.0256C86.8869 34.939 86.8446 34.8272 86.8446 34.7115C86.8446 34.5958 86.8869 34.4841 86.9636 34.3975C87.0001 34.357 87.0447 34.3248 87.0945 34.3029C87.1443 34.281 87.1982 34.2699 87.2526 34.2703Z" fill="#2B233B"/>
<path d="M88.2623 39.4305C88.1481 39.3177 88.0586 39.1824 87.9996 39.0331C87.9405 38.8838 87.9132 38.7238 87.9194 38.5634C87.9272 38.4662 87.9413 38.3697 87.9618 38.2744C87.9769 38.1716 87.9987 38.0699 88.0273 37.9699C88.1921 37.4141 88.5084 36.915 88.9406 36.5286C89.2908 36.1614 89.7674 35.941 90.274 35.912C90.4355 35.9058 90.5966 35.9323 90.7476 35.9899C90.8986 36.0475 91.0364 36.1351 91.1527 36.2473C91.265 36.3619 91.3528 36.4983 91.4104 36.6481C91.4681 36.7979 91.4945 36.9579 91.4879 37.1183C91.4871 37.2152 91.4781 37.3119 91.461 37.4073C91.4456 37.5098 91.4251 37.6114 91.3993 37.7117C91.233 38.2688 90.9139 38.7681 90.4783 39.153C90.1315 39.5178 89.6589 39.7369 89.1564 39.7658C88.9923 39.7748 88.8281 39.7497 88.6742 39.692C88.5203 39.6343 88.38 39.5452 88.2623 39.4305ZM89.9965 39.0451C90.2801 38.6705 90.4871 38.2435 90.6054 37.7888C90.6523 37.6319 90.6897 37.4723 90.7172 37.3109C90.7421 37.1839 90.7563 37.055 90.7596 36.9256C90.7685 36.7337 90.7144 36.5442 90.6054 36.386C90.5558 36.323 90.4917 36.2729 90.4186 36.24C90.3454 36.2072 90.2654 36.1925 90.1854 36.1972C90.0294 36.2143 89.8792 36.2661 89.7459 36.3488C89.6125 36.4315 89.4993 36.543 89.4146 36.6751C89.134 37.053 88.9274 37.4805 88.8057 37.9352C88.7595 38.101 88.7248 38.259 88.6978 38.4131C88.6728 38.5401 88.6586 38.6691 88.6554 38.7985C88.6435 38.9889 88.6965 39.1777 88.8057 39.3342C88.8555 39.3982 88.9201 39.4492 88.9939 39.4827C89.0678 39.5163 89.1487 39.5314 89.2296 39.5268C89.3855 39.5095 89.5354 39.4572 89.6682 39.3738C89.801 39.2904 89.9133 39.178 89.9965 39.0451Z" fill="#2B233B"/>
<path d="M92.5014 36.702C92.5261 36.653 92.539 36.5989 92.539 36.544C92.539 36.4891 92.5261 36.435 92.5014 36.386C92.4581 36.3492 92.4077 36.3217 92.3534 36.3051C92.299 36.2886 92.2419 36.2833 92.1854 36.2897H92.0274L92.0659 36.1317L92.7172 36.0199L93.3647 35.912L92.933 37.492C93.0959 37.2236 93.2761 36.9662 93.4726 36.7213C93.9299 36.1741 94.3268 35.9004 94.6634 35.9004C94.7577 35.8935 94.8519 35.9152 94.9337 35.9626C95.0155 36.01 95.0811 36.081 95.122 36.1663C95.2066 36.3898 95.2066 36.6365 95.122 36.86L94.5323 39.0451C94.5068 39.118 94.4976 39.1956 94.5054 39.2725C94.5059 39.2831 94.5084 39.2935 94.513 39.3032C94.5175 39.3128 94.5239 39.3214 94.5318 39.3286C94.5396 39.3357 94.5488 39.3413 94.5589 39.3449C94.5689 39.3485 94.5795 39.3501 94.5902 39.3495C94.6338 39.3495 94.7109 39.2956 94.8214 39.1877C94.9595 39.0528 95.0883 38.9085 95.2067 38.7561L95.3416 38.8486C95.196 39.0997 95.0113 39.3261 94.7944 39.5191C94.6505 39.6671 94.4599 39.761 94.2549 39.785C94.1837 39.792 94.1121 39.7778 94.049 39.7442C93.9859 39.7106 93.9342 39.6591 93.9003 39.5962C93.8346 39.4343 93.8346 39.2532 93.9003 39.0913L94.5246 36.7984C94.5584 36.6971 94.5584 36.5875 94.5246 36.4862C94.5106 36.4518 94.4856 36.4231 94.4536 36.4043C94.4215 36.3855 94.3842 36.3777 94.3474 36.3822C94.111 36.3822 93.8143 36.6172 93.4571 37.0874C93.0977 37.5616 92.8155 38.0897 92.6209 38.652L92.3396 39.6771H91.696L92.5014 36.702Z" fill="#2B233B"/>
<path d="M96.8485 39.7658C96.7 39.7686 96.5527 39.7402 96.4159 39.6825C96.2791 39.6247 96.156 39.5389 96.0546 39.4305C95.9523 39.322 95.8727 39.1942 95.8205 39.0546C95.7682 38.915 95.7443 38.7663 95.7501 38.6174C95.7515 38.4944 95.7644 38.3718 95.7887 38.2512C95.814 38.12 95.8501 37.9912 95.8966 37.8659C96.0736 37.3333 96.3888 36.8572 96.8099 36.4862C97.1525 36.1457 97.6105 35.9463 98.0932 35.9274C98.295 35.9154 98.4953 35.9695 98.6636 36.0816C98.731 36.1309 98.7853 36.1961 98.8216 36.2714C98.8579 36.3466 98.8751 36.4297 98.8717 36.5132C98.8606 36.7289 98.7965 36.9385 98.6848 37.1234C98.5732 37.3083 98.4177 37.4627 98.2319 37.573C97.7298 37.905 97.1545 38.11 96.5556 38.1703L96.5363 38.2744C96.5085 38.3931 96.4943 38.5147 96.4939 38.6366C96.4877 38.7326 96.5017 38.8288 96.5349 38.919C96.568 39.0093 96.6197 39.0916 96.6866 39.1607C96.8473 39.2904 97.0509 39.355 97.2569 39.3419C97.4395 39.3348 97.6178 39.2847 97.7772 39.1954C97.9818 39.0866 98.1689 38.9475 98.3321 38.7831L98.4439 38.9064C98.2253 39.1609 97.9646 39.376 97.6732 39.5423C97.423 39.6888 97.1383 39.7659 96.8485 39.7658ZM98.0046 36.1702C97.8559 36.187 97.7128 36.2365 97.5856 36.3151C97.4583 36.3937 97.35 36.4995 97.2685 36.625C96.9875 36.9841 96.7746 37.3916 96.6403 37.8273L96.6134 37.9006H96.6481C97.0593 37.839 97.4416 37.6519 97.7425 37.3649C97.8862 37.2562 98.0052 37.1183 98.0916 36.9601C98.1779 36.802 98.2297 36.6273 98.2435 36.4477C98.2488 36.3755 98.2268 36.304 98.1818 36.2473C98.1599 36.221 98.1321 36.2003 98.1006 36.1869C98.0691 36.1735 98.0349 36.1678 98.0007 36.1702H98.0046Z" fill="#2B233B"/>
<path d="M101.481 37.0488C101.475 36.8139 101.4 36.586 101.265 36.3937C101.212 36.3185 101.141 36.2572 101.059 36.2149C100.978 36.1726 100.887 36.1507 100.795 36.1509C100.689 36.1458 100.584 36.1801 100.502 36.2472C100.42 36.3188 100.367 36.4172 100.352 36.5247C100.326 36.6639 100.348 36.8077 100.413 36.9332C100.518 37.1513 100.648 37.3568 100.799 37.5459C100.979 37.7748 101.129 38.0261 101.246 38.2936C101.288 38.4056 101.31 38.5244 101.311 38.6443C101.311 38.7168 101.303 38.7891 101.288 38.8601C101.239 39.1232 101.093 39.3584 100.879 39.5191C100.658 39.6873 100.386 39.7744 100.109 39.7657C99.8646 39.7694 99.6217 39.7289 99.3919 39.6462C99.37 39.6369 99.3464 39.6321 99.3226 39.6321C99.2987 39.6321 99.2751 39.6369 99.2532 39.6462C99.2054 39.6653 99.165 39.699 99.1376 39.7426L99.1183 39.7734H98.9911L99.1569 38.4631L99.3072 38.4863C99.3272 38.7619 99.4189 39.0276 99.5731 39.257C99.633 39.3422 99.7126 39.4117 99.8053 39.4593C99.8979 39.507 100.001 39.5315 100.105 39.5306C100.239 39.5298 100.368 39.4821 100.471 39.3957C100.575 39.3096 100.648 39.1919 100.679 39.0605C100.706 38.9069 100.687 38.7487 100.625 38.6057C100.521 38.3811 100.392 38.169 100.24 37.9737C100.068 37.7486 99.9255 37.5026 99.8159 37.2415C99.7613 37.1106 99.7312 36.9709 99.7272 36.8291V36.6827C99.7691 36.4624 99.8863 36.2635 100.059 36.1201C100.232 35.9784 100.451 35.9033 100.675 35.9081C100.877 35.9055 101.078 35.9435 101.265 36.0199C101.334 36.041 101.408 36.041 101.477 36.0199C101.55 36.0014 101.615 35.9595 101.662 35.9004H101.781L101.616 37.0565L101.481 37.0488Z" fill="#2B233B"/>
<path d="M105.589 39.7657C105.441 39.7711 105.293 39.7454 105.156 39.6903C105.019 39.6352 104.894 39.5519 104.791 39.4459C104.689 39.3374 104.609 39.2096 104.557 39.07C104.505 38.9303 104.481 38.7817 104.487 38.6327C104.488 38.5098 104.501 38.3872 104.525 38.2666C104.551 38.1354 104.587 38.0065 104.633 37.8813C104.81 37.3487 105.125 36.8726 105.546 36.5016C105.889 36.1611 106.347 35.9616 106.83 35.9428C107.032 35.9307 107.232 35.9849 107.4 36.097C107.468 36.1463 107.522 36.2115 107.558 36.2867C107.594 36.362 107.612 36.4451 107.608 36.5286C107.597 36.7443 107.533 36.9539 107.421 37.1388C107.31 37.3237 107.154 37.4781 106.968 37.5884C106.466 37.9204 105.891 38.1253 105.292 38.1857L105.273 38.2897C105.245 38.4085 105.231 38.53 105.23 38.652C105.224 38.748 105.238 38.8442 105.271 38.9344C105.305 39.0247 105.356 39.107 105.423 39.1761C105.583 39.3064 105.787 39.3712 105.993 39.3572C106.176 39.3502 106.354 39.3 106.514 39.2108C106.718 39.1019 106.905 38.9629 107.069 38.7984L107.18 38.9218C106.96 39.1746 106.7 39.3894 106.41 39.5576C106.159 39.6981 105.876 39.7699 105.589 39.7657ZM106.745 36.1702C106.596 36.187 106.453 36.2364 106.326 36.3151C106.199 36.3937 106.09 36.4995 106.009 36.6249C105.728 36.9841 105.515 37.3915 105.381 37.8273L105.354 37.9005H105.388C105.8 37.8389 106.182 37.6518 106.483 37.3649C106.627 37.2562 106.746 37.1182 106.832 36.9601C106.918 36.802 106.97 36.6273 106.984 36.4477C106.989 36.3755 106.967 36.304 106.922 36.2473C106.9 36.221 106.872 36.2003 106.841 36.1869C106.809 36.1735 106.775 36.1678 106.741 36.1702H106.745Z" fill="#2B233B"/>
<path d="M108.552 36.7022C108.575 36.6525 108.586 36.5986 108.586 36.5442C108.586 36.4897 108.575 36.4359 108.552 36.3862C108.508 36.3493 108.457 36.3217 108.402 36.3052C108.347 36.2886 108.29 36.2834 108.232 36.2898H108.074L108.117 36.1318L108.764 36.0201L109.416 35.9122L108.965 37.5038C109.129 37.2362 109.309 36.9789 109.504 36.733C109.963 36.1858 110.36 35.9122 110.699 35.9122C110.793 35.9052 110.887 35.9269 110.969 35.9743C111.051 36.0218 111.117 36.0928 111.157 36.1781C111.242 36.4015 111.242 36.6483 111.157 36.8717L110.583 39.0453C110.557 39.118 110.546 39.1955 110.552 39.2726C110.552 39.3227 110.591 39.3497 110.637 39.3497C110.683 39.3497 110.761 39.2957 110.872 39.1878C111.009 39.0519 111.138 38.9078 111.258 38.7562L111.389 38.8487C111.244 39.1007 111.059 39.3273 110.841 39.5193C110.699 39.667 110.51 39.761 110.306 39.7852C110.235 39.7922 110.163 39.778 110.1 39.7444C110.037 39.7108 109.985 39.6593 109.951 39.5963C109.885 39.4345 109.885 39.2534 109.951 39.0915L110.579 36.7985C110.611 36.6969 110.611 36.588 110.579 36.4864C110.565 36.452 110.54 36.4232 110.508 36.4044C110.476 36.3856 110.439 36.3779 110.402 36.3823C110.167 36.3823 109.866 36.6174 109.508 37.0876C109.15 37.5627 108.868 38.0905 108.672 38.6522L108.394 39.6773H107.751L108.552 36.7022Z" fill="#2B233B"/>
<path d="M116.614 39.7657C116.322 39.7769 116.03 39.7299 115.757 39.6274C115.483 39.5248 115.232 39.3688 115.019 39.1683C114.811 38.9705 114.648 38.7306 114.541 38.4648C114.433 38.1991 114.383 37.9134 114.395 37.6268C114.392 37.1886 114.476 36.7542 114.644 36.3491C114.811 35.9441 115.058 35.5766 115.37 35.2684C115.655 34.9504 116.005 34.6962 116.395 34.5222C116.786 34.3483 117.208 34.2585 117.636 34.2587C118.045 34.2551 118.45 34.331 118.83 34.4822C118.914 34.5143 119.005 34.521 119.092 34.5015C119.192 34.4841 119.286 34.4431 119.366 34.382L119.485 34.2856L119.643 34.3126L119.227 35.962L119.046 35.9312C119.043 35.7508 119.004 35.573 118.929 35.4086C118.855 35.2442 118.748 35.0968 118.614 34.9755C118.324 34.7311 117.953 34.6046 117.574 34.6209C117.249 34.6327 116.932 34.7264 116.653 34.8936C116.374 35.0607 116.142 35.2957 115.978 35.5767C115.519 36.2583 115.284 37.067 115.308 37.8889C115.293 38.0939 115.32 38.2998 115.386 38.4943C115.452 38.6889 115.557 38.8683 115.693 39.0219C115.846 39.1579 116.025 39.2621 116.219 39.3283C116.413 39.3944 116.618 39.4213 116.822 39.4073H116.9C117.14 39.4295 117.381 39.3683 117.582 39.2339C117.758 39.0363 117.875 38.7933 117.921 38.5325L118.083 37.8966C118.131 37.7515 118.131 37.5947 118.083 37.4496C118.04 37.3686 117.928 37.3108 117.747 37.2839L117.458 37.2569L117.512 37.0642H119.697L119.643 37.2569L119.474 37.28C119.334 37.2891 119.2 37.3387 119.088 37.4226C118.992 37.5193 118.926 37.6428 118.9 37.7771L118.514 39.2763C117.925 39.6024 117.261 39.7685 116.587 39.758L116.614 39.7657Z" fill="#2B233B"/>
<path d="M120.306 39.7657C120.196 39.7684 120.086 39.7455 119.986 39.6987C119.885 39.6519 119.797 39.5825 119.728 39.4959C119.571 39.2996 119.491 39.0533 119.501 38.8023C119.517 38.08 119.79 37.3871 120.272 36.8484C120.792 36.2241 121.335 35.9119 121.894 35.9119C122.012 35.9081 122.129 35.9384 122.23 35.9993C122.331 36.0601 122.412 36.1489 122.464 36.2549V36.2819L122.538 36.016H123.131L122.36 38.8832C122.327 38.9917 122.311 39.1049 122.314 39.2185C122.314 39.2917 122.353 39.3302 122.407 39.3302C122.46 39.3302 122.511 39.2763 122.622 39.1684C122.734 39.0605 122.861 38.914 123.008 38.7368L123.135 38.8639C122.984 39.1087 122.792 39.3263 122.568 39.5075C122.421 39.6535 122.228 39.7446 122.021 39.7657C121.955 39.7709 121.89 39.754 121.835 39.7177C121.779 39.6815 121.738 39.6278 121.717 39.5653C121.659 39.3874 121.659 39.196 121.717 39.0181L121.825 38.6327C121.742 38.7588 121.652 38.8798 121.555 38.9949C121.416 39.2074 121.233 39.3867 121.017 39.5199C120.801 39.6532 120.558 39.7371 120.306 39.7657ZM121.894 36.1702C121.534 36.1702 121.164 36.4553 120.784 37.0257C120.433 37.5076 120.235 38.0833 120.214 38.6789C120.203 38.8511 120.243 39.0227 120.329 39.1722C120.365 39.2263 120.414 39.2706 120.471 39.3009C120.528 39.3312 120.592 39.3466 120.657 39.3456C120.954 39.3456 121.25 39.1337 121.547 38.7175C121.883 38.2114 122.128 37.6507 122.272 37.0604C122.344 36.8586 122.344 36.6379 122.272 36.4361C122.246 36.3569 122.195 36.2882 122.127 36.2403C122.059 36.1923 121.977 36.1677 121.894 36.1702Z" fill="#2B233B"/>
<path d="M124.187 36.702C124.212 36.653 124.225 36.5989 124.225 36.544C124.225 36.4891 124.212 36.435 124.187 36.386C124.144 36.3492 124.093 36.3217 124.039 36.3051C123.985 36.2886 123.927 36.2833 123.871 36.2897H123.713L123.751 36.1317L124.403 36.0199L125.05 35.912L124.619 37.492C124.781 37.2236 124.962 36.9662 125.158 36.7213C125.613 36.1741 126.014 35.9004 126.349 35.9004C126.443 35.8935 126.537 35.9152 126.619 35.9626C126.701 36.01 126.767 36.081 126.808 36.1663C126.892 36.3898 126.892 36.6365 126.808 36.86L126.206 39.0451C126.181 39.118 126.172 39.1956 126.179 39.2725C126.18 39.2831 126.182 39.2935 126.187 39.3032C126.192 39.3128 126.198 39.3214 126.206 39.3286C126.214 39.3357 126.223 39.3413 126.233 39.3449C126.243 39.3485 126.254 39.3501 126.264 39.3495C126.308 39.3495 126.385 39.2956 126.495 39.1877C126.634 39.0528 126.762 38.9085 126.881 38.7561L127.016 38.8486C126.87 39.0997 126.685 39.3261 126.468 39.5191C126.324 39.6671 126.134 39.761 125.929 39.785C125.858 39.792 125.786 39.7778 125.723 39.7442C125.66 39.7106 125.608 39.6591 125.574 39.5962C125.509 39.4343 125.509 39.2532 125.574 39.0913L126.199 36.7984C126.232 36.6971 126.232 36.5875 126.199 36.4862C126.185 36.4518 126.16 36.4231 126.128 36.4043C126.096 36.3855 126.058 36.3777 126.021 36.3822C125.785 36.3822 125.488 36.6172 125.131 37.0874C124.772 37.5616 124.489 38.0897 124.295 38.652L124.014 39.6771H123.374L124.187 36.702Z" fill="#2B233B"/>
<path d="M128.041 39.7657C127.93 39.7684 127.82 39.7455 127.72 39.6987C127.62 39.6519 127.532 39.5825 127.463 39.4959C127.304 39.3004 127.223 39.0535 127.235 38.8023C127.251 38.08 127.525 37.3871 128.006 36.8484C128.526 36.2241 129.07 35.9119 129.628 35.9119C129.746 35.9081 129.863 35.9384 129.964 35.9993C130.065 36.0601 130.147 36.1489 130.199 36.2549V36.2819L130.272 36.016H130.866L130.095 38.8832C130.061 38.9917 130.046 39.1049 130.049 39.2185C130.049 39.2917 130.087 39.3302 130.141 39.3302C130.195 39.3302 130.245 39.2763 130.357 39.1684C130.469 39.0605 130.596 38.914 130.742 38.7368L130.869 38.8639C130.718 39.1087 130.526 39.3263 130.303 39.5075C130.155 39.6535 129.962 39.7446 129.756 39.7657C129.69 39.7709 129.624 39.754 129.569 39.7177C129.514 39.6815 129.472 39.6278 129.451 39.5653C129.394 39.3874 129.394 39.196 129.451 39.0181L129.559 38.6327C129.477 38.7588 129.387 38.8798 129.289 38.9949C129.151 39.2074 128.967 39.3867 128.751 39.5199C128.535 39.6532 128.293 39.7371 128.041 39.7657ZM129.628 36.1702C129.271 36.1702 128.901 36.4553 128.519 37.0257C128.168 37.5076 127.969 38.0833 127.948 38.6789C127.937 38.8511 127.978 39.0227 128.064 39.1722C128.099 39.2263 128.148 39.2706 128.205 39.3009C128.263 39.3312 128.327 39.3466 128.391 39.3456C128.688 39.3456 128.985 39.1337 129.282 38.7175C129.618 38.2114 129.863 37.6507 130.006 37.0604C130.078 36.8586 130.078 36.6379 130.006 36.4361C129.981 36.3582 129.931 36.2904 129.865 36.2426C129.798 36.1948 129.718 36.1694 129.636 36.1702H129.628Z" fill="#2B233B"/>
<path d="M131.991 39.7657C131.869 39.7687 131.749 39.7439 131.639 39.6931C131.529 39.6423 131.431 39.567 131.355 39.4728C131.185 39.2602 131.097 38.9933 131.108 38.7213C131.141 38.0226 131.424 37.3589 131.906 36.8522C132.438 36.2254 132.964 35.9119 133.486 35.9119C133.607 35.9004 133.728 35.9331 133.826 36.004C133.925 36.0748 133.994 36.1791 134.022 36.2973L134.426 34.8059C134.446 34.7404 134.426 34.698 134.334 34.6749C134.183 34.656 134.03 34.656 133.879 34.6749V34.6556L133.925 34.4976L134.565 34.3935L135.209 34.2856L133.937 38.9294C133.903 39.03 133.888 39.1356 133.891 39.2416C133.891 39.3109 133.925 39.3456 133.975 39.3456C134.026 39.3456 134.103 39.2917 134.222 39.1799C134.362 39.044 134.491 38.8971 134.607 38.7406L134.742 38.8639C134.567 39.1068 134.363 39.3269 134.133 39.519C133.998 39.6586 133.821 39.7505 133.629 39.7811C133.552 39.7903 133.474 39.7761 133.405 39.7404C133.336 39.7046 133.28 39.649 133.243 39.5807C133.176 39.3847 133.176 39.1717 133.243 38.9757L133.286 38.8215C133.217 38.919 133.144 39.0129 133.066 39.1028C132.942 39.281 132.782 39.4318 132.597 39.5458C132.412 39.6598 132.206 39.7346 131.991 39.7657ZM133.474 36.1701C133.143 36.1701 132.792 36.463 132.422 37.0411C132.088 37.5284 131.899 38.1001 131.875 38.6905C131.864 38.8603 131.904 39.0296 131.991 39.176C132.028 39.2311 132.079 39.2757 132.138 39.3054C132.197 39.3351 132.264 39.349 132.33 39.3456C132.557 39.3456 132.804 39.1606 133.078 38.7907C133.359 38.4032 133.565 37.9667 133.686 37.5035C133.792 37.182 133.835 36.8432 133.814 36.5054C133.779 36.2819 133.663 36.1701 133.474 36.1701Z" fill="#2B233B"/>
<path d="M136.265 39.7657C136.117 39.7711 135.969 39.7454 135.832 39.6903C135.694 39.6352 135.57 39.5519 135.467 39.4459C135.365 39.3374 135.285 39.2096 135.233 39.07C135.18 38.9303 135.157 38.7817 135.162 38.6327C135.164 38.5098 135.177 38.3872 135.201 38.2666C135.228 38.1358 135.264 38.0071 135.309 37.8813C135.486 37.3487 135.801 36.8726 136.222 36.5016C136.565 36.1611 137.023 35.9616 137.505 35.9428C137.707 35.9307 137.908 35.9849 138.076 36.097C138.143 36.1463 138.198 36.2115 138.234 36.2867C138.27 36.362 138.287 36.4451 138.284 36.5286C138.273 36.7443 138.209 36.9539 138.097 37.1388C137.986 37.3237 137.83 37.4781 137.644 37.5884C137.142 37.9204 136.567 38.1253 135.968 38.1857V38.2897C135.94 38.4085 135.926 38.53 135.925 38.652C135.919 38.748 135.933 38.8442 135.966 38.9344C136 39.0247 136.051 39.107 136.118 39.1761C136.279 39.3058 136.482 39.3704 136.689 39.3572C136.871 39.3502 137.049 39.3 137.209 39.2108C137.413 39.1019 137.6 38.9629 137.764 38.7984L137.875 38.9218C137.655 39.1746 137.395 39.3894 137.105 39.5576C136.849 39.7014 136.558 39.7733 136.265 39.7657ZM137.421 36.1702C137.272 36.187 137.129 36.2364 137.002 36.3151C136.874 36.3937 136.766 36.4995 136.685 36.6249C136.404 36.9841 136.191 37.3915 136.056 37.8273L136.03 37.9005H136.064C136.475 37.8389 136.858 37.6518 137.159 37.3649C137.302 37.2562 137.421 37.1182 137.508 36.9601C137.594 36.802 137.646 36.6273 137.66 36.4477C137.665 36.3755 137.643 36.304 137.598 36.2473C137.576 36.221 137.548 36.2003 137.517 36.1869C137.485 36.1735 137.451 36.1678 137.417 36.1702H137.421Z" fill="#2B233B"/>
<path d="M139.413 36.7021C139.438 36.6531 139.451 36.599 139.451 36.5441C139.451 36.4892 139.438 36.4351 139.413 36.3861C139.369 36.3492 139.318 36.3217 139.263 36.3051C139.208 36.2886 139.15 36.2833 139.093 36.2898H138.935L138.978 36.1318L139.602 36.02L140.234 35.9121L139.825 37.4112C139.941 37.1993 140.068 36.9989 140.211 36.81C140.619 36.2127 140.958 35.916 141.224 35.916C141.291 35.9128 141.357 35.928 141.416 35.9599C141.474 35.9919 141.523 36.0393 141.556 36.0971C141.593 36.1621 141.616 36.2339 141.624 36.3081C141.631 36.3823 141.624 36.4574 141.602 36.5287C141.579 36.6068 141.532 36.6756 141.467 36.7253C141.41 36.7761 141.336 36.8047 141.259 36.8062C141.202 36.8049 141.145 36.7918 141.093 36.7676C141.047 36.745 141.006 36.712 140.974 36.6713C140.916 36.5788 140.874 36.5326 140.843 36.5326C140.696 36.5326 140.481 36.7715 140.199 37.2532C139.911 37.7483 139.679 38.2745 139.509 38.8217L139.255 39.6618H138.635L139.413 36.7021Z" fill="#2B233B"/>
<path d="M141.687 38.7791L142.257 36.702C142.289 36.6547 142.305 36.5987 142.303 36.5418C142.302 36.4849 142.282 36.43 142.248 36.3846C142.214 36.3392 142.166 36.3057 142.112 36.2887C142.057 36.2717 141.999 36.272 141.945 36.2896H141.795L141.833 36.1316L142.473 36.0198L143.113 35.9119L142.315 38.8408C142.273 38.9648 142.252 39.0951 142.253 39.2262C142.253 39.3071 142.288 39.3495 142.342 39.3495C142.443 39.345 142.539 39.3007 142.608 39.2262C142.74 39.0976 142.856 38.954 142.955 38.7984L143.086 38.8909C142.945 39.1386 142.765 39.3623 142.554 39.5537C142.416 39.691 142.232 39.7732 142.037 39.785C141.953 39.7891 141.869 39.7653 141.8 39.7172C141.73 39.6692 141.678 39.5995 141.652 39.5191C141.624 39.4359 141.611 39.3485 141.614 39.2608C141.617 39.0978 141.642 38.9359 141.687 38.7791ZM142.38 35.4456L143.367 34.3859C143.382 34.3651 143.4 34.3469 143.421 34.3319C143.492 34.2704 143.581 34.2339 143.675 34.2279C143.715 34.2247 143.755 34.231 143.792 34.2464C143.829 34.2619 143.862 34.2859 143.887 34.3165C143.925 34.3606 143.945 34.4166 143.945 34.4745V34.5439C143.919 34.6332 143.867 34.7126 143.795 34.7712L143.737 34.8136L142.508 35.5844L142.38 35.4456Z" fill="#2B233B"/>
<path d="M144.384 39.7658C144.274 39.7685 144.164 39.7455 144.064 39.6987C143.963 39.6519 143.875 39.5826 143.806 39.496C143.65 39.2997 143.569 39.0534 143.579 38.8023C143.595 38.0801 143.869 37.3874 144.35 36.8485C144.864 36.2242 145.403 35.912 145.968 35.912C146.086 35.9077 146.203 35.9378 146.305 35.9987C146.406 36.0596 146.487 36.1487 146.539 36.255V36.282L146.612 36.0161H147.205L146.435 38.8833C146.398 38.9912 146.381 39.1047 146.385 39.2186C146.385 39.2918 146.423 39.3303 146.481 39.3303C146.539 39.3303 146.585 39.2764 146.693 39.1685C146.801 39.0605 146.932 38.9141 147.078 38.7368L147.209 38.864C147.057 39.109 146.864 39.3266 146.639 39.5076C146.491 39.6536 146.298 39.7447 146.092 39.7658C146.026 39.7703 145.961 39.7532 145.906 39.717C145.851 39.6808 145.809 39.6275 145.787 39.5654C145.732 39.3872 145.732 39.1963 145.787 39.0182L145.895 38.6328C145.813 38.7589 145.723 38.8799 145.625 38.995C145.488 39.2066 145.305 39.3853 145.091 39.5185C144.876 39.6516 144.635 39.7361 144.384 39.7658ZM145.972 36.1702C145.618 36.1702 145.248 36.4554 144.866 37.0258C144.514 37.5068 144.315 38.0831 144.296 38.679C144.285 38.8512 144.325 39.0228 144.411 39.1723C144.447 39.2264 144.496 39.2707 144.553 39.301C144.61 39.3313 144.674 39.3467 144.739 39.3457C145.036 39.3457 145.332 39.1338 145.625 38.7176C145.961 38.2109 146.208 37.6504 146.354 37.0605C146.424 36.8583 146.424 36.6383 146.354 36.4361C146.328 36.3563 146.276 36.2872 146.208 36.2392C146.139 36.1912 146.056 36.167 145.972 36.1702Z" fill="#2B233B"/>
<path d="M149.414 41.2494C149.377 41.2201 149.347 41.1825 149.328 41.1396C149.309 41.0967 149.3 41.0498 149.302 41.0028C149.299 40.9551 149.305 40.9074 149.321 40.8623C149.337 40.8173 149.362 40.7759 149.394 40.7407C149.468 40.6761 149.563 40.6417 149.66 40.6444C149.742 40.6584 149.819 40.6959 149.88 40.7523C149.94 40.8109 150.017 40.8498 150.1 40.8641C150.202 40.8574 150.299 40.8151 150.373 40.7446C150.494 40.6326 150.597 40.5026 150.678 40.3592L150.751 40.2475L151.136 39.6386C151.036 38.9102 150.92 38.2898 150.797 37.7734C150.705 37.4265 150.589 37.0489 150.446 36.6442C150.427 36.5772 150.394 36.5151 150.348 36.462C150.303 36.4088 150.247 36.3659 150.184 36.3359C150.012 36.2773 149.829 36.2602 149.649 36.2858V36.1394L150.184 36.0199L150.72 35.9043C150.759 35.9048 150.798 35.9167 150.831 35.9386C150.864 35.9605 150.889 35.9914 150.905 36.0276C150.993 36.2214 151.068 36.421 151.129 36.6249C151.256 37.0411 151.356 37.4265 151.429 37.7811C151.502 38.1356 151.556 38.5017 151.61 38.9372L151.737 38.7214C152.006 38.2423 152.244 37.7468 152.45 37.2377C152.516 37.1008 152.549 36.9503 152.547 36.7984C152.538 36.7453 152.516 36.6952 152.483 36.6528C152.45 36.6103 152.407 36.5769 152.358 36.5556L152.258 36.5016C152.22 36.4763 152.189 36.4418 152.168 36.4014C152.147 36.3609 152.137 36.3159 152.138 36.2704C152.133 36.2238 152.137 36.1766 152.151 36.1317C152.164 36.0867 152.186 36.0448 152.215 36.0083C152.248 35.978 152.286 35.9547 152.328 35.9401C152.369 35.9255 152.414 35.9199 152.458 35.9236C152.553 35.9163 152.648 35.9446 152.723 36.003C152.799 36.0614 152.85 36.1457 152.867 36.2396C152.933 36.4865 152.909 36.7492 152.797 36.9795C152.571 37.5837 152.304 38.1721 151.999 38.7406C151.703 39.2734 151.374 39.7881 151.017 40.2821C150.821 40.5679 150.589 40.827 150.327 41.0529C150.167 41.2161 149.959 41.3229 149.733 41.3573C149.617 41.3604 149.504 41.3222 149.414 41.2494Z" fill="#2B233B"/>
<path d="M155.938 38.9449L156.975 35.3763C157.047 35.1915 157.073 34.9914 157.048 34.7944C157.017 34.689 156.909 34.6235 156.724 34.5978L156.435 34.5709L156.493 34.3782H160.412L160.258 34.9986L160.112 35.6229L159.927 35.5959L159.954 35.2915C159.961 35.2003 159.943 35.1087 159.901 35.0274C159.859 34.9462 159.794 34.8787 159.715 34.8329C159.422 34.7348 159.113 34.6955 158.805 34.7173H158.293C158.186 34.7074 158.079 34.7332 157.988 34.7905C157.909 34.8659 157.857 34.9645 157.838 35.0718L157.368 36.7328H157.892C158.125 36.7462 158.359 36.7053 158.574 36.6133C158.744 36.5162 158.879 36.3678 158.959 36.1894L159.052 36.0006L159.237 36.0353L158.955 36.9679L158.674 37.9082L158.501 37.862L158.524 37.6731C158.559 37.4303 158.524 37.2877 158.401 37.1914C158.157 37.0896 157.892 37.0499 157.63 37.0758H157.244L156.782 38.6674C156.709 38.8522 156.685 39.0526 156.713 39.2493C156.751 39.3534 156.863 39.4189 157.052 39.4458L157.352 39.4728L157.298 39.6655H155.248L155.302 39.4728L155.433 39.4497C155.547 39.4378 155.653 39.3875 155.734 39.3071C155.834 39.2074 155.904 39.082 155.938 38.9449Z" fill="#2B233B"/>
<path d="M160.354 39.4305C160.24 39.3177 160.151 39.1824 160.092 39.0331C160.032 38.8838 160.005 38.7238 160.011 38.5634C160.01 38.4668 160.015 38.3703 160.027 38.2744C160.042 38.1716 160.064 38.0699 160.092 37.9699C160.255 37.4131 160.572 36.9136 161.006 36.5286C161.355 36.1608 161.832 35.9402 162.339 35.912C162.501 35.9058 162.662 35.9323 162.813 35.9899C162.964 36.0475 163.101 36.1351 163.218 36.2473C163.33 36.3619 163.418 36.4983 163.475 36.6481C163.533 36.7979 163.559 36.9579 163.553 37.1183C163.552 37.2152 163.543 37.3119 163.526 37.4073C163.511 37.5098 163.49 37.6114 163.464 37.7117C163.298 38.2688 162.979 38.7681 162.543 39.153C162.196 39.5178 161.724 39.7369 161.221 39.7658C161.062 39.7711 160.903 39.7442 160.754 39.6866C160.605 39.629 160.469 39.5419 160.354 39.4305ZM162.089 39.0451C162.372 38.6705 162.579 38.2435 162.697 37.7888C162.744 37.6319 162.782 37.4723 162.809 37.3109C162.834 37.1839 162.848 37.055 162.852 36.9256C162.861 36.7337 162.806 36.5442 162.697 36.386C162.648 36.3233 162.583 36.2733 162.51 36.2405C162.437 36.2076 162.357 36.1928 162.277 36.1972C162.121 36.2143 161.971 36.2661 161.838 36.3488C161.704 36.4315 161.591 36.543 161.507 36.6751C161.224 37.0521 161.018 37.4799 160.898 37.9352C160.851 38.101 160.813 38.259 160.786 38.4131C160.764 38.5405 160.751 38.6693 160.747 38.7985C160.736 38.9889 160.789 39.1777 160.898 39.3342C160.948 39.3982 161.012 39.4492 161.086 39.4827C161.16 39.5163 161.241 39.5314 161.322 39.5268C161.477 39.509 161.627 39.4565 161.76 39.3731C161.892 39.2897 162.005 39.1776 162.089 39.0451Z" fill="#2B233B"/>
<path d="M164.779 36.7021C164.804 36.6534 164.818 36.5992 164.818 36.5441C164.818 36.4891 164.804 36.4348 164.779 36.3861C164.735 36.3493 164.685 36.3218 164.63 36.3053C164.576 36.2887 164.519 36.2834 164.463 36.2898H164.301L164.343 36.1318L164.971 36.02L165.599 35.9121L165.191 37.4112C165.312 37.198 165.44 36.9976 165.576 36.81C165.985 36.2127 166.324 35.916 166.59 35.916C166.656 35.9123 166.723 35.9273 166.781 35.9593C166.84 35.9913 166.888 36.039 166.921 36.0971C166.96 36.1614 166.984 36.2333 166.992 36.3078C167 36.3823 166.992 36.4577 166.967 36.5287C166.945 36.6063 166.9 36.6751 166.836 36.7253C166.777 36.7758 166.702 36.8043 166.624 36.8062C166.567 36.8045 166.511 36.7914 166.459 36.7676C166.412 36.745 166.371 36.712 166.339 36.6713C166.28 36.5788 166.238 36.5326 166.212 36.5326C166.062 36.5326 165.827 36.7715 165.565 37.2532C165.278 37.7491 165.046 38.2751 164.875 38.8217L164.621 39.6618H164.004L164.779 36.7021Z" fill="#2B233B"/>
<path d="M168.077 39.7659C167.929 39.771 167.782 39.7452 167.645 39.6901C167.507 39.635 167.383 39.5519 167.28 39.446C167.177 39.3378 167.098 39.21 167.046 39.0702C166.994 38.9305 166.971 38.7817 166.979 38.6329C166.977 38.5099 166.989 38.3871 167.014 38.2668C167.042 38.1364 167.078 38.0077 167.122 37.8814C167.299 37.3488 167.614 36.8727 168.035 36.5017C168.379 36.1637 168.836 35.9647 169.318 35.943C169.52 35.9303 169.72 35.9845 169.888 36.0971C169.956 36.1464 170.01 36.2116 170.047 36.2869C170.083 36.3622 170.1 36.4452 170.097 36.5287C170.086 36.7444 170.021 36.954 169.91 37.1389C169.798 37.3238 169.643 37.4783 169.457 37.5885C168.956 37.9199 168.382 38.1249 167.784 38.1858L167.734 38.2745C167.708 38.3936 167.694 38.5149 167.692 38.6367C167.685 38.733 167.7 38.8296 167.734 38.92C167.767 39.0104 167.82 39.0925 167.888 39.1608C168.048 39.2919 168.252 39.3567 168.459 39.342C168.641 39.3349 168.82 39.2848 168.979 39.1955C169.182 39.0858 169.368 38.9468 169.53 38.7832L169.646 38.9065C169.426 39.16 169.166 39.3749 168.875 39.5424C168.633 39.6848 168.358 39.7618 168.077 39.7659ZM169.233 36.1703C169.085 36.1869 168.941 36.2362 168.814 36.3149C168.687 36.3935 168.579 36.4995 168.497 36.6251C168.215 36.9839 168.001 37.3914 167.865 37.8274L167.842 37.9007H167.873C168.284 37.8398 168.667 37.6526 168.967 37.365C169.112 37.2565 169.231 37.1187 169.318 36.9606C169.405 36.8025 169.458 36.6277 169.472 36.4478C169.476 36.3752 169.453 36.3038 169.407 36.2474C169.386 36.2217 169.36 36.2014 169.329 36.188C169.299 36.1745 169.266 36.1685 169.233 36.1703Z" fill="#2B233B"/>
<path d="M172.713 37.0488C172.704 36.8139 172.628 36.5865 172.494 36.3937C172.44 36.3185 172.37 36.2572 172.288 36.2149C172.206 36.1726 172.116 36.1507 172.023 36.1509C171.917 36.1458 171.813 36.1801 171.731 36.2472C171.649 36.3188 171.596 36.4172 171.58 36.5247C171.559 36.664 171.58 36.8064 171.642 36.9332C171.749 37.1504 171.878 37.3558 172.027 37.5459C172.207 37.7759 172.359 38.0269 172.478 38.2936C172.519 38.4059 172.54 38.5246 172.54 38.6443C172.54 38.7168 172.532 38.7891 172.517 38.8601C172.468 39.1232 172.322 39.3584 172.108 39.5191C171.888 39.6879 171.615 39.775 171.337 39.7657C171.093 39.7694 170.85 39.7289 170.621 39.6462C170.599 39.6369 170.575 39.6321 170.551 39.6321C170.527 39.6321 170.504 39.6369 170.482 39.6462C170.434 39.6653 170.394 39.699 170.366 39.7426L170.347 39.7734H170.224L170.386 38.4631L170.536 38.4863C170.556 38.7619 170.648 39.0276 170.802 39.257C170.862 39.3422 170.941 39.4117 171.034 39.4593C171.127 39.507 171.229 39.5315 171.334 39.5306C171.468 39.5304 171.598 39.4826 171.7 39.3957C171.806 39.3119 171.88 39.1932 171.908 39.0605C171.936 38.9069 171.918 38.7483 171.854 38.6057C171.75 38.3808 171.621 38.1687 171.469 37.9737C171.296 37.7486 171.152 37.5026 171.041 37.2415C170.987 37.1104 170.959 36.9706 170.956 36.8291V36.6827C170.996 36.4618 171.114 36.2624 171.287 36.1201C171.461 35.9778 171.68 35.9026 171.904 35.9081C172.105 35.9055 172.304 35.9435 172.49 36.0199C172.56 36.0404 172.635 36.0404 172.706 36.0199C172.778 36.0012 172.841 35.9592 172.887 35.9004H173.002L172.837 37.0565L172.713 37.0488Z" fill="#2B233B"/>
<path d="M173.357 39.072L174.128 36.3243H173.515L173.565 36.1393C173.815 36.0711 174.052 35.9617 174.266 35.8156C174.521 35.6217 174.75 35.3964 174.948 35.145H175.056L174.817 36.016H175.442L175.357 36.3243H174.748L174.008 39.0219C173.983 39.0937 173.976 39.1701 173.985 39.2454C173.988 39.2665 173.999 39.2858 174.015 39.2993C174.031 39.3129 174.052 39.3198 174.074 39.3186C174.12 39.3186 174.201 39.2608 174.313 39.1452C174.451 39.0025 174.58 38.8506 174.698 38.6905L174.837 38.7714C174.693 39.0365 174.507 39.276 174.286 39.4805C174.142 39.6377 173.946 39.7376 173.735 39.7618C173.662 39.7682 173.589 39.7538 173.524 39.7204C173.459 39.687 173.405 39.6359 173.368 39.573C173.302 39.4133 173.298 39.2345 173.357 39.072Z" fill="#2B233B"/>
<path d="M176.213 39.7657C176.101 39.7682 175.991 39.7451 175.89 39.6984C175.789 39.6516 175.701 39.5824 175.631 39.496C175.475 39.2993 175.396 39.0529 175.407 38.8023C175.423 38.08 175.696 37.3871 176.178 36.8484C176.692 36.2241 177.232 35.912 177.8 35.912C177.918 35.9079 178.034 35.9382 178.135 35.9991C178.235 36.06 178.316 36.1489 178.367 36.255V36.2819L178.44 36.016H179.033L178.263 38.8832C178.229 38.9917 178.214 39.105 178.216 39.2185C178.216 39.2917 178.255 39.3303 178.309 39.3303C178.363 39.3303 178.413 39.2763 178.525 39.1684C178.637 39.0605 178.764 38.9141 178.91 38.7368L179.037 38.864C178.886 39.1088 178.694 39.3263 178.471 39.5075C178.323 39.653 178.13 39.744 177.924 39.7657C177.858 39.771 177.792 39.7541 177.737 39.7178C177.682 39.6815 177.64 39.6278 177.619 39.5653C177.56 39.3878 177.56 39.1957 177.619 39.0181L177.727 38.6327C177.643 38.758 177.553 38.8789 177.457 38.995C177.319 39.207 177.136 39.386 176.921 39.5192C176.706 39.6524 176.464 39.7366 176.213 39.7657ZM177.8 36.1702C177.443 36.1702 177.073 36.4554 176.69 37.0257C176.34 37.5077 176.141 38.0834 176.12 38.679C176.109 38.8512 176.15 39.0227 176.236 39.1723C176.271 39.2264 176.32 39.2706 176.377 39.3009C176.434 39.3312 176.498 39.3466 176.563 39.3457C176.86 39.3457 177.157 39.1337 177.453 38.7175C177.788 38.2106 178.033 37.6501 178.178 37.0604C178.25 36.8586 178.25 36.6379 178.178 36.4361C178.152 36.3549 178.099 36.2848 178.029 36.2367C177.958 36.1886 177.874 36.1652 177.789 36.1702H177.8Z" fill="#2B233B"/>
<path d="M182.167 38.895C181.965 39.1482 181.719 39.3635 181.442 39.5308C181.211 39.6761 180.945 39.7573 180.671 39.7659C180.51 39.7736 180.349 39.7466 180.198 39.6868C180.048 39.627 179.912 39.5357 179.8 39.4191C179.575 39.1609 179.459 38.825 179.477 38.4826C179.485 37.8261 179.741 37.197 180.193 36.7214C180.377 36.4836 180.61 36.2882 180.876 36.1485C181.142 36.0089 181.435 35.9282 181.735 35.9122C181.96 35.9009 182.182 35.9646 182.367 36.0933C182.444 36.1459 182.507 36.2167 182.55 36.2994C182.593 36.3821 182.615 36.4741 182.614 36.5673C182.616 36.6197 182.608 36.672 182.589 36.721C182.571 36.77 182.542 36.8148 182.506 36.8525C182.473 36.8897 182.433 36.9193 182.388 36.9393C182.342 36.9593 182.293 36.9691 182.244 36.9681C182.193 36.9714 182.143 36.9627 182.097 36.9426C182.05 36.9225 182.01 36.8916 181.978 36.8525C181.949 36.8122 181.931 36.7654 181.925 36.7162C181.919 36.6671 181.925 36.6172 181.943 36.5711C181.959 36.505 181.989 36.4432 182.032 36.39C182.054 36.3617 182.07 36.3288 182.078 36.2937C182.081 36.2828 182.08 36.2715 182.076 36.2611C182.071 36.2508 182.064 36.2419 182.055 36.2359C181.947 36.1881 181.83 36.1657 181.712 36.1704C181.491 36.1869 181.279 36.2593 181.094 36.3806C180.909 36.502 180.759 36.6683 180.656 36.864C180.346 37.3349 180.185 37.8881 180.193 38.4518C180.177 38.7071 180.247 38.9606 180.39 39.1724C180.452 39.2572 180.534 39.3252 180.629 39.3703C180.724 39.4154 180.828 39.4361 180.933 39.4306C181.114 39.4225 181.289 39.3637 181.438 39.2611C181.644 39.1324 181.829 38.9725 181.985 38.787L182.167 38.895Z" fill="#2B233B"/>
<path d="M182.957 38.7792L183.523 36.702C183.545 36.6523 183.557 36.5985 183.557 36.544C183.557 36.4895 183.545 36.4357 183.523 36.386C183.483 36.3496 183.435 36.3222 183.383 36.3056C183.331 36.289 183.277 36.2836 183.222 36.2896H183.068L183.111 36.1316L183.747 36.0199L184.39 35.912L183.589 38.8408C183.548 38.9654 183.528 39.0953 183.527 39.2262C183.527 39.3071 183.562 39.3495 183.619 39.3495C183.72 39.342 183.815 39.2982 183.885 39.2262C184.015 39.0963 184.13 38.9529 184.228 38.7984L184.363 38.8909C184.221 39.1386 184.04 39.3623 183.827 39.5538C183.689 39.6911 183.506 39.7733 183.311 39.785C183.227 39.7891 183.143 39.7653 183.073 39.7173C183.004 39.6692 182.952 39.5996 182.926 39.5191C182.894 39.4369 182.881 39.3487 182.887 39.2609C182.887 39.0978 182.911 38.9357 182.957 38.7792ZM184.278 34.2703C184.333 34.2699 184.387 34.281 184.437 34.3029C184.486 34.3248 184.531 34.357 184.567 34.3975C184.644 34.4841 184.686 34.5958 184.686 34.7115C184.686 34.8272 184.644 34.939 184.567 35.0256C184.531 35.066 184.486 35.0982 184.437 35.1202C184.387 35.1421 184.333 35.1532 184.278 35.1528C184.224 35.1532 184.17 35.1421 184.12 35.1202C184.07 35.0982 184.026 35.066 183.989 35.0256C183.913 34.939 183.87 34.8272 183.87 34.7115C183.87 34.5958 183.913 34.4841 183.989 34.3975C184.026 34.357 184.07 34.3248 184.12 34.3029C184.17 34.281 184.224 34.2699 184.278 34.2703Z" fill="#2B233B"/>
<path d="M185.288 39.4304C185.174 39.3176 185.084 39.1822 185.025 39.0329C184.966 38.8837 184.939 38.7237 184.945 38.5633C184.948 38.4665 184.957 38.3699 184.972 38.2743C184.987 38.1714 185.009 38.0697 185.038 37.9698C185.2 37.413 185.517 36.9134 185.951 36.5285C186.301 36.1606 186.778 35.9401 187.284 35.9119C187.446 35.9057 187.607 35.9321 187.758 35.9898C187.909 36.0474 188.047 36.1349 188.163 36.2472C188.275 36.3618 188.363 36.4982 188.421 36.648C188.478 36.7978 188.505 36.9578 188.498 37.1181C188.497 37.2151 188.488 37.3118 188.471 37.4072C188.456 37.5096 188.435 37.6112 188.41 37.7116C188.243 38.2687 187.924 38.768 187.489 39.1529C187.142 39.5177 186.669 39.7367 186.167 39.7657C186.005 39.7726 185.844 39.7464 185.693 39.6887C185.542 39.6311 185.404 39.5432 185.288 39.4304ZM187.022 39.045C187.306 38.6704 187.513 38.2434 187.631 37.7887C187.678 37.6318 187.715 37.4722 187.743 37.3108C187.768 37.1838 187.782 37.0549 187.785 36.9254C187.794 36.7336 187.74 36.5441 187.631 36.3859C187.582 36.3229 187.517 36.2728 187.444 36.2399C187.371 36.207 187.291 36.1923 187.211 36.1971C187.055 36.2142 186.905 36.266 186.772 36.3487C186.638 36.4314 186.525 36.5429 186.44 36.675C186.158 37.0519 185.951 37.4798 185.831 37.9351C185.785 38.1008 185.747 38.2588 185.72 38.413C185.698 38.5404 185.685 38.6691 185.681 38.7984C185.669 38.9888 185.722 39.1776 185.831 39.334C185.881 39.3981 185.946 39.4491 186.02 39.4826C186.093 39.5162 186.174 39.5313 186.255 39.5267C186.411 39.5089 186.561 39.4563 186.694 39.373C186.826 39.2896 186.939 39.1775 187.022 39.045ZM186.81 35.461L187.797 34.4012C187.812 34.3805 187.83 34.3623 187.851 34.3473C187.922 34.2858 188.011 34.2493 188.105 34.2432C188.145 34.24 188.185 34.2464 188.222 34.2618C188.259 34.2772 188.291 34.3013 188.317 34.3319C188.355 34.376 188.375 34.432 188.375 34.4899V34.5592C188.349 34.6496 188.295 34.7293 188.221 34.7866L188.159 34.8059L186.93 35.5766L186.81 35.461Z" fill="#2B233B"/>
<path d="M189.527 36.702C189.552 36.653 189.565 36.5989 189.565 36.544C189.565 36.4891 189.552 36.435 189.527 36.386C189.484 36.3492 189.433 36.3217 189.379 36.3051C189.325 36.2886 189.268 36.2833 189.211 36.2897H189.053L189.092 36.1317L189.743 36.0199L190.39 35.912L189.959 37.492C190.122 37.2236 190.302 36.9662 190.498 36.7213C190.953 36.1741 191.354 35.9004 191.689 35.9004C191.783 35.8935 191.878 35.9152 191.959 35.9626C192.041 36.01 192.107 36.081 192.148 36.1663C192.232 36.3898 192.232 36.6365 192.148 36.86L191.558 39.0451C191.533 39.118 191.523 39.1956 191.531 39.2725C191.532 39.2831 191.534 39.2935 191.539 39.3032C191.543 39.3128 191.55 39.3214 191.558 39.3286C191.565 39.3357 191.575 39.3413 191.585 39.3449C191.595 39.3485 191.605 39.3501 191.616 39.3495C191.657 39.3495 191.734 39.2956 191.847 39.1877C191.985 39.0528 192.114 38.9085 192.233 38.7561L192.367 38.8486C192.22 39.0999 192.034 39.3262 191.816 39.5191C191.674 39.6669 191.484 39.7608 191.281 39.785C191.209 39.792 191.138 39.7778 191.075 39.7442C191.012 39.7106 190.96 39.6591 190.926 39.5962C190.862 39.4339 190.862 39.2536 190.926 39.0913L191.554 36.7984C191.588 36.6971 191.588 36.5875 191.554 36.4862C191.54 36.4518 191.515 36.4231 191.483 36.4043C191.451 36.3855 191.414 36.3777 191.377 36.3822C191.141 36.3822 190.844 36.6172 190.487 37.0874C190.127 37.5616 189.845 38.0897 189.65 38.652L189.369 39.6771H188.726L189.527 36.702Z" fill="#2B233B"/>
</svg>
