<svg width="75" height="74" viewBox="0 0 75 74" fill="none" xmlns="http://www.w3.org/2000/svg">
<path d="M1.05417 36.9994C1.05417 29.0438 1.21764 21.0882 0.999677 13.0781C0.781715 5.6674 6.77567 -0.0541045 14.0774 0.000385976C29.9886 0.163858 45.8999 0.0548766 61.8111 0.0548766C69.7122 0.0548766 74.9433 5.23147 74.9433 13.1326C74.9433 29.0438 74.9433 44.9551 74.9433 60.8663C74.9433 68.7674 69.7122 73.944 61.8111 73.944C45.8454 73.944 29.8796 73.835 13.9684 73.9985C6.50322 74.1075 0.781715 68.2225 0.999677 61.0843C1.21764 53.0741 1.05417 45.064 1.05417 36.9994ZM41.8131 59.831C42.5759 61.6836 42.5759 61.6836 44.5921 61.6836C45.1915 61.6836 45.7364 61.6292 46.3358 61.6836C46.9352 61.7381 47.2076 61.5747 47.2076 60.8663C47.1531 57.3244 47.2621 53.7825 47.1531 50.2951C46.9897 45.7724 44.7556 43.3748 40.2328 42.7754C38.1622 42.503 36.0916 42.7209 34.0754 43.2114C30.9695 43.9742 30.8605 44.1922 31.8413 47.1892C32.0593 47.7886 32.2227 47.952 32.8766 47.6251C34.6748 46.7532 36.6365 46.3718 38.7071 46.5898C39.7424 46.6988 40.7233 47.0257 41.3771 47.952C41.5951 48.279 41.8676 48.7149 41.7041 49.0963C41.4861 49.4778 41.0502 49.2598 40.6688 49.3143C40.2328 49.3688 39.7424 49.3143 39.3065 49.3688C36.8544 49.5868 34.4569 50.0227 32.3317 51.4394C30.2066 52.9107 29.3347 54.9813 29.8252 57.4879C30.3156 59.9399 31.9503 61.4112 34.3479 61.9016C37.1269 62.501 39.6879 61.9016 41.8131 59.831ZM63.3913 59.2316C64.0452 59.9399 63.5548 61.3022 64.5901 61.5747C65.462 61.7926 66.4973 61.6292 67.4236 61.6292C67.6416 61.6292 67.8595 61.6292 68.023 61.6292C68.5679 61.6836 68.7314 61.4657 68.7314 60.9208C68.7314 55.2538 68.7314 49.5323 68.7314 43.8652C68.7314 43.3203 68.5134 43.1569 68.023 43.1569C66.7697 43.2114 65.5164 43.2659 64.2632 43.1569C63.1734 43.0479 62.9554 43.4838 63.0099 44.4646C63.0644 47.6796 63.0644 50.949 63.0099 54.164C62.9554 55.9076 61.4841 57.3244 59.7405 57.5424C57.8878 57.7058 56.6345 56.725 56.1986 54.7634C56.0351 54.055 55.9806 53.3466 55.9806 52.6382C55.9806 49.7502 55.9261 46.9167 55.9806 44.0287C55.9806 43.3748 55.8716 43.0479 55.1088 43.1024C53.801 43.1569 52.4387 43.1569 51.1309 43.1024C50.586 43.1024 50.3681 43.2659 50.3681 43.8108C50.4226 47.7341 50.2591 51.7119 50.4771 55.6352C50.7495 60.0489 53.9645 62.501 58.3237 61.9561C60.3943 61.7926 62.0835 60.8663 63.3913 59.2316ZM18.3277 52.2023C18.3277 53.4556 18.3277 54.7089 18.3822 55.9621C18.6001 60.5938 21.8151 62.9914 26.3378 62.0106C27.2641 61.7926 27.6455 61.4112 27.591 60.4304C27.5366 59.6675 27.5366 58.9591 27.591 58.1963C27.591 57.6513 27.5366 57.4334 26.8282 57.4334C24.7031 57.4879 23.9947 56.834 23.9402 54.6544C23.8857 53.0197 23.9402 51.4394 23.8857 49.8047C23.8857 47.4616 23.8857 47.4071 26.1743 47.4616C27.2096 47.5161 27.591 47.2437 27.4821 46.1539C27.3731 45.2275 27.8635 44.0287 27.2641 43.3748C26.7192 42.7754 25.5204 43.2114 24.6486 43.2114C24.0492 43.2114 23.8857 42.9934 23.8857 42.394C23.9402 40.8683 23.8857 39.3425 23.8857 37.7623C23.8857 37.1629 23.7222 36.945 23.1228 36.945C21.8151 36.9994 20.5618 36.9994 19.254 36.945C18.4366 36.8905 18.2732 37.2174 18.3277 37.9803C18.3822 39.397 18.3277 40.8138 18.3822 42.2305C18.3822 42.8844 18.2732 43.1569 17.5103 43.1569C15.7121 43.1569 15.7121 43.2114 15.7121 45.0095C15.7121 45.2275 15.7121 45.4455 15.7121 45.6089C15.7121 47.2981 15.7121 47.3526 17.4013 47.2981C18.1642 47.2981 18.4366 47.4616 18.3822 48.279C18.2732 49.6412 18.3277 50.8945 18.3277 52.2023ZM12.8786 49.3143C12.8786 45.5545 12.8241 41.8491 12.8786 38.1437C12.8786 37.1629 12.6062 36.945 11.6798 36.9994C10.4265 37.0539 9.17325 37.0539 7.97446 36.9994C7.32058 36.9994 7.10261 37.1629 7.10261 37.8168C7.10261 45.5 7.10261 53.1831 7.10261 60.8118C7.10261 61.5202 7.37507 61.6292 7.97446 61.6292C9.22775 61.5747 10.481 61.5747 11.6798 61.6292C12.6062 61.6836 12.8786 61.4657 12.8786 60.4849C12.8786 56.7795 12.8786 53.0741 12.8786 49.3143ZM66.3883 37.3809C66.2793 37.2719 66.1703 37.1084 66.0613 36.9994C64.5901 36.9994 63.0644 36.9994 61.5931 36.9994C61.3207 36.9994 60.9937 36.945 60.7758 37.2174C59.686 38.7431 58.6506 40.2689 57.4518 42.0126C58.5961 42.0126 59.468 42.0126 60.3398 42.0126C60.8303 42.0126 61.3207 42.176 61.7566 41.7401C63.2823 40.2689 64.8626 38.7976 66.3883 37.3809Z" fill="#013398"/>
<path d="M41.8134 59.831C39.6337 61.9016 37.1272 62.501 34.3481 61.9561C31.9506 61.4657 30.3159 59.9945 29.8254 57.5424C29.335 55.0358 30.2069 52.9652 32.332 51.494C34.4026 50.0772 36.8547 49.6413 39.3068 49.4233C39.7427 49.3688 40.2331 49.4233 40.6691 49.3688C40.996 49.3143 41.4864 49.5868 41.7044 49.1509C41.9223 48.7694 41.6499 48.3335 41.3774 48.0066C40.7235 47.0802 39.7427 46.7533 38.7074 46.6443C36.6912 46.4263 34.7296 46.8078 32.8769 47.6796C32.223 48.0066 32.0595 47.8431 31.8416 47.2437C30.8608 44.2467 30.9152 44.0288 34.0757 43.2659C36.0918 42.7755 38.1625 42.503 40.2331 42.83C44.7013 43.4294 46.9899 45.8269 47.1534 50.3497C47.2624 53.8915 47.1534 57.3789 47.2079 60.9208C47.2079 61.6292 46.9355 61.7927 46.3361 61.7382C45.7367 61.6837 45.1918 61.7382 44.5924 61.7382C42.5762 61.6292 42.5762 61.6292 41.8134 59.831ZM41.9223 54.2185C41.7044 53.8915 42.3583 52.9652 41.4319 52.9107C39.6337 52.8562 37.8355 52.9652 36.3098 54.055C35.438 54.7089 35.1655 55.6352 35.438 56.7251C35.7104 57.8149 36.5278 58.1963 37.5086 58.3598C39.5792 58.6322 42.1948 57.2155 41.9223 54.2185Z" fill="#FAFB02"/>
<path d="M63.3915 59.2316C62.0837 60.8663 60.3945 61.7926 58.3784 62.0106C54.0191 62.5555 50.8042 60.1034 50.5317 55.6897C50.3138 51.7664 50.4228 47.7886 50.4228 43.8652C50.4228 43.3203 50.6407 43.1569 51.1856 43.1569C52.4934 43.2113 53.8557 43.2113 55.1634 43.1569C55.9263 43.1024 56.0353 43.4293 56.0353 44.0832C55.9808 46.9712 56.0353 49.8047 56.0353 52.6927C56.0353 53.4011 56.0898 54.1095 56.2532 54.8178C56.6347 56.7795 57.9424 57.7603 59.7951 57.5968C61.5388 57.4334 63.0101 55.9621 63.0646 54.2184C63.119 51.0035 63.119 47.7341 63.0646 44.5191C63.0646 43.5383 63.228 43.1024 64.3178 43.2113C65.5711 43.3203 66.8244 43.2658 68.0777 43.2113C68.6226 43.2113 68.7861 43.3748 68.7861 43.9197C68.7861 49.5867 68.7861 55.3082 68.7861 60.9753C68.7861 61.5202 68.5681 61.7381 68.0777 61.6836C67.8597 61.6836 67.6418 61.6836 67.4783 61.6836C66.4975 61.6836 65.5166 61.8471 64.6448 61.6291C63.555 61.3022 64.0454 59.9399 63.3915 59.2316Z" fill="#FBFC02"/>
<path d="M18.3277 52.2022C18.3277 50.8945 18.2733 49.6412 18.3277 48.3334C18.3822 47.5161 18.1098 47.3526 17.3469 47.3526C15.6577 47.3526 15.6577 47.3526 15.6577 45.6634C15.6577 45.4454 15.6577 45.2275 15.6577 45.064C15.6577 43.2658 15.6577 43.2113 17.4559 43.2113C18.2188 43.2113 18.3277 42.9389 18.3277 42.285C18.2733 40.8682 18.3278 39.4515 18.2733 38.0347C18.2733 37.3263 18.3822 36.9994 19.1996 36.9994C20.5074 37.0539 21.7607 37.0539 23.0684 36.9994C23.6678 36.9994 23.8313 37.2174 23.8313 37.8167C23.7768 39.3425 23.8313 40.8682 23.8313 42.4484C23.8313 43.0478 23.9948 43.2113 24.5942 43.2658C25.466 43.2658 26.6648 42.8299 27.2097 43.4293C27.8091 44.0832 27.2642 45.2819 27.4277 46.2083C27.5911 47.2436 27.1552 47.5161 26.1199 47.5161C23.8313 47.4616 23.8313 47.5161 23.8313 49.8592C23.8313 51.4939 23.7768 53.0741 23.8858 54.7088C23.9948 56.8884 24.6487 57.5423 26.7738 57.4878C27.4277 57.4878 27.5366 57.7058 27.5366 58.2507C27.4822 59.0136 27.4822 59.7764 27.5366 60.4848C27.6456 61.4656 27.2642 61.8471 26.2834 62.065C21.7607 63.0459 18.5457 60.6483 18.3277 56.0166C18.2733 54.7088 18.3277 53.4555 18.3277 52.2022Z" fill="#FBFC02"/>
<path d="M12.8785 49.3143C12.8785 53.0742 12.824 56.7795 12.8785 60.4849C12.8785 61.4657 12.6061 61.6837 11.6797 61.6292C10.4265 61.5747 9.17318 61.5747 7.97439 61.6292C7.37499 61.6292 7.10254 61.5202 7.10254 60.8118C7.10254 53.1287 7.10254 45.4455 7.10254 37.8168C7.10254 37.1629 7.3205 36.945 7.97439 36.9995C9.22767 37.054 10.481 37.054 11.6797 36.9995C12.6061 36.945 12.8785 37.1629 12.8785 38.1438C12.8785 41.8491 12.8785 45.609 12.8785 49.3143Z" fill="#FBFC02"/>
<path d="M66.3883 37.3809C64.8626 38.8521 63.3368 40.2689 61.8111 41.7401C61.3752 42.176 60.8848 42.0126 60.3943 42.0126C59.5225 42.0126 58.6506 42.0126 57.5063 42.0126C58.7051 40.3234 59.7405 38.7976 60.8303 37.2174C60.9937 36.945 61.3207 36.9994 61.6476 36.9994C63.1189 36.9994 64.6446 36.9994 66.1159 36.9994C66.1703 37.1084 66.2793 37.2719 66.3883 37.3809Z" fill="#F1F407"/>
<path d="M41.9221 54.2184C42.1946 57.2153 39.579 58.6321 37.6174 58.3596C36.5821 58.1962 35.8192 57.8147 35.5467 56.7249C35.2743 55.6351 35.4922 54.7088 36.4186 54.0549C37.9443 52.9651 39.7425 52.8016 41.5407 52.9106C42.4125 52.9651 41.7042 53.8914 41.9221 54.2184Z" fill="#013398"/>
</svg>
