<svg width="75" height="74" viewBox="0 0 75 74" fill="none" xmlns="http://www.w3.org/2000/svg">
<path d="M1.05441 36.9994C1.05441 29.0438 1.21788 21.0882 0.999922 13.0781C0.78196 5.6674 6.77592 -0.0541045 14.0776 0.000385976C29.9889 0.163858 45.9001 0.0548766 61.8113 0.0548766C69.7125 0.0548766 74.9436 5.23147 74.9436 13.1326C74.9436 29.0438 74.9436 44.9551 74.9436 60.8663C74.9436 68.7674 69.7125 73.944 61.8113 73.944C45.8456 73.944 29.8799 73.835 13.9687 73.9985C6.50346 74.1075 0.78196 68.2225 0.999922 61.0843C1.21788 53.0741 1.05441 45.064 1.05441 36.9994ZM41.8133 59.831C42.5762 61.6836 42.5762 61.6836 44.5923 61.6836C45.1917 61.6836 45.7366 61.6292 46.336 61.6836C46.9354 61.7381 47.2079 61.5747 47.2079 60.8663C47.1534 57.3244 47.2624 53.7825 47.1534 50.2951C46.9899 45.7724 44.7558 43.3748 40.2331 42.7754C38.1624 42.503 36.0918 42.7209 34.0757 43.2114C30.9697 43.9742 30.8607 44.1922 31.8416 47.1892C32.0595 47.7886 32.223 47.952 32.8769 47.6251C34.6751 46.7532 36.6367 46.3718 38.7074 46.5898C39.7427 46.6988 40.7235 47.0257 41.3774 47.952C41.5954 48.279 41.8678 48.7149 41.7043 49.0963C41.4864 49.4778 41.0504 49.2598 40.669 49.3143C40.2331 49.3688 39.7427 49.3143 39.3068 49.3688C36.8547 49.5868 34.4571 50.0227 32.332 51.4394C30.2068 52.9107 29.335 54.9813 29.8254 57.4879C30.3158 59.9399 31.9505 61.4112 34.3481 61.9016C37.1271 62.501 39.6882 61.9016 41.8133 59.831ZM63.3916 59.2316C64.0454 59.9399 63.555 61.3022 64.5903 61.5747C65.4622 61.7926 66.4975 61.6292 67.4239 61.6292C67.6418 61.6292 67.8598 61.6292 68.0233 61.6292C68.5682 61.6836 68.7316 61.4657 68.7316 60.9208C68.7316 55.2538 68.7316 49.5323 68.7316 43.8652C68.7316 43.3203 68.5137 43.1569 68.0233 43.1569C66.77 43.2114 65.5167 43.2659 64.2634 43.1569C63.1736 43.0479 62.9556 43.4838 63.0101 44.4646C63.0646 47.6796 63.0646 50.949 63.0101 54.164C62.9556 55.9076 61.4844 57.3244 59.7407 57.5424C57.888 57.7058 56.6347 56.725 56.1988 54.7634C56.0353 54.055 55.9809 53.3466 55.9809 52.6382C55.9809 49.7502 55.9264 46.9167 55.9809 44.0287C55.9809 43.3748 55.8719 43.0479 55.109 43.1024C53.8012 43.1569 52.439 43.1569 51.1312 43.1024C50.5863 43.1024 50.3683 43.2659 50.3683 43.8108C50.4228 47.7341 50.2593 51.7119 50.4773 55.6352C50.7498 60.0489 53.9647 62.501 58.3239 61.9561C60.3946 61.7926 62.0838 60.8663 63.3916 59.2316ZM18.3279 52.2023C18.3279 53.4556 18.3279 54.7089 18.3824 55.9621C18.6004 60.5938 21.8153 62.9914 26.338 62.0106C27.2643 61.7926 27.6458 61.4112 27.5913 60.4304C27.5368 59.6675 27.5368 58.9591 27.5913 58.1963C27.5913 57.6513 27.5368 57.4334 26.8284 57.4334C24.7033 57.4879 23.9949 56.834 23.9404 54.6544C23.8859 53.0197 23.9404 51.4394 23.8859 49.8047C23.8859 47.4616 23.8859 47.4071 26.1745 47.4616C27.2099 47.5161 27.5913 47.2437 27.4823 46.1539C27.3733 45.2275 27.8637 44.0287 27.2644 43.3748C26.7194 42.7754 25.5207 43.2114 24.6488 43.2114C24.0494 43.2114 23.8859 42.9934 23.8859 42.394C23.9404 40.8683 23.8859 39.3425 23.8859 37.7623C23.8859 37.1629 23.7225 36.945 23.1231 36.945C21.8153 36.9994 20.562 36.9994 19.2542 36.945C18.4369 36.8905 18.2734 37.2174 18.3279 37.9803C18.3824 39.397 18.3279 40.8138 18.3824 42.2305C18.3824 42.8844 18.2734 43.1569 17.5105 43.1569C15.7124 43.1569 15.7124 43.2114 15.7124 45.0095C15.7124 45.2275 15.7124 45.4455 15.7124 45.6089C15.7124 47.2981 15.7124 47.3526 17.4016 47.2981C18.1644 47.2981 18.4369 47.4616 18.3824 48.279C18.2734 49.6412 18.3279 50.8945 18.3279 52.2023ZM12.8789 49.3143C12.8789 45.5545 12.8244 41.8491 12.8789 38.1437C12.8789 37.1629 12.6064 36.945 11.6801 36.9994C10.4268 37.0539 9.1735 37.0539 7.97471 36.9994C7.32082 36.9994 7.10286 37.1629 7.10286 37.8168C7.10286 45.5 7.10286 53.1831 7.10286 60.8118C7.10286 61.5202 7.37531 61.6292 7.97471 61.6292C9.22799 61.5747 10.4813 61.5747 11.6801 61.6292C12.6064 61.6836 12.8789 61.4657 12.8789 60.4849C12.8789 56.7795 12.8789 53.0741 12.8789 49.3143ZM66.3885 37.3809C66.2796 37.2719 66.1706 37.1084 66.0616 36.9994C64.5904 36.9994 63.0646 36.9994 61.5934 36.9994C61.3209 36.9994 60.994 36.945 60.776 37.2174C59.6862 38.7431 58.6509 40.2689 57.4521 42.0126C58.5964 42.0126 59.4682 42.0126 60.3401 42.0126C60.8305 42.0126 61.3209 42.176 61.7568 41.7401C63.2826 40.2689 64.8628 38.7976 66.3885 37.3809Z" fill="#013398"/>
</svg>
