<svg width="172" height="85" viewBox="0 0 172 85" fill="none" xmlns="http://www.w3.org/2000/svg">
<path d="M25.9399 40.5895C25.9564 40.5123 25.9925 40.4406 26.0447 40.3814C26.1729 40.2219 26.3394 40.0976 26.5287 40.02C26.6154 39.9846 26.7078 39.9655 26.8014 39.9636H30.9138C31.0849 39.9595 31.2513 40.02 31.38 40.133C31.4859 40.2221 31.5826 40.3215 31.6688 40.4298L32.0705 41.3446L40.5114 63.0905C40.5557 63.1727 40.5747 63.2662 40.5661 63.3592C40.5575 63.4522 40.5216 63.5406 40.463 63.6132C40.3452 63.7472 40.1403 63.8133 39.8532 63.8133H35.2391C35.0395 63.8253 34.8409 63.7781 34.668 63.6778C34.5175 63.5623 34.4078 63.4018 34.355 63.2196C34.1399 62.6743 33.9312 62.1311 33.729 61.5901C33.5257 61.0481 33.3224 60.506 33.1192 59.9591H24.5911C24.3863 60.506 24.1814 61.0481 23.9716 61.5901C23.7619 62.1322 23.557 62.6743 23.3537 63.2196C23.3054 63.3972 23.1977 63.553 23.0486 63.661C22.8995 63.769 22.718 63.8227 22.5342 63.8133H17.7974C17.615 63.82 17.4358 63.763 17.2909 63.652C17.157 63.5455 17.1295 63.3842 17.2183 63.168L25.9399 40.5895ZM28.8632 47.4639C28.6599 48.0114 28.4534 48.6029 28.2437 49.2386C28.034 49.8742 27.828 50.5115 27.6258 51.1503C27.4225 51.7957 27.2166 52.4297 27.0079 53.0524C26.7992 53.6752 26.5933 54.2619 26.39 54.8126H31.3155L28.8632 47.4639Z" fill="#3EAF9C"/>
<path d="M44.3837 40.7025C44.3731 40.5074 44.4365 40.3156 44.5612 40.1653C44.6291 40.0947 44.7117 40.0401 44.8032 40.0052C44.8947 39.9704 44.9927 39.9562 45.0903 39.9636H55.4656C56.53 39.9562 57.5846 40.1665 58.5648 40.5815C59.5037 40.9773 60.3593 41.5471 61.0864 42.261C61.8049 42.9708 62.3786 43.8135 62.7756 44.7422C63.1901 45.6971 63.4011 46.7279 63.3951 47.7688C63.3981 48.4728 63.2981 49.1734 63.0982 49.8484C62.9039 50.4978 62.6251 51.1189 62.269 51.6957C61.9166 52.2668 61.4927 52.7906 61.0074 53.2541C60.5253 53.7162 59.989 54.1182 59.4102 54.4512L63.5371 62.2242C63.6129 62.3742 63.7081 62.5469 63.8275 62.7534C63.9302 62.9125 63.9907 63.0952 64.0033 63.2842C64.0082 63.3577 63.9962 63.4314 63.9682 63.4997C63.9403 63.5679 63.8971 63.6288 63.842 63.6778C63.7093 63.7742 63.5476 63.822 63.3838 63.8133H57.8679C57.6933 63.8133 57.5235 63.7567 57.3839 63.652C57.2398 63.5467 57.1394 63.3923 57.1015 63.218L53.1989 55.879H50.5934V63.1212C50.5934 63.5826 50.3465 63.8117 49.8545 63.8117H45.0839C44.8984 63.8227 44.7153 63.7653 44.5692 63.6504C44.5013 63.5824 44.4489 63.5004 44.4157 63.4101C44.3826 63.3199 44.3694 63.2235 44.3773 63.1277L44.3837 40.7025ZM56.9595 47.8334C56.9584 47.5027 56.8983 47.1749 56.7821 46.8654C56.6651 46.5459 56.4973 46.2473 56.2852 45.9813C56.0698 45.7128 55.8088 45.4845 55.514 45.3069C55.2095 45.1231 54.8709 45.0029 54.5186 44.9536L53.6748 44.8971C53.4119 44.881 53.1263 44.8729 52.8149 44.8729H50.5934V50.768H53.5474C53.741 50.768 53.912 50.768 54.062 50.7519C54.2121 50.7357 54.3847 50.7244 54.5605 50.7035C54.9167 50.6685 55.2614 50.5585 55.5721 50.3808C55.8626 50.2103 56.1186 49.9871 56.3271 49.7226C56.5319 49.4569 56.6891 49.1578 56.7918 48.8385C56.8994 48.5143 56.9539 48.1749 56.9531 47.8334H56.9595Z" fill="#3EAF9C"/>
<path d="M88.2385 51.9134C88.2437 53.007 88.0977 54.0961 87.8045 55.1497C87.5228 56.1538 87.1071 57.1154 86.5687 58.0085C85.4964 59.7765 83.9824 61.2349 82.1756 62.2403C81.2516 62.7509 80.2667 63.1423 79.2442 63.4051C78.1792 63.6795 77.0835 63.8167 75.9837 63.8133H68.0671C67.8873 63.8169 67.7098 63.7729 67.5525 63.6858C67.4024 63.6003 67.3282 63.418 67.3282 63.1389V40.7024C67.3192 40.5041 67.3848 40.3095 67.5121 40.1571C67.5836 40.0836 67.6703 40.0267 67.7663 39.9904C67.8622 39.9542 67.9649 39.9395 68.0671 39.9474H75.9837C77.0798 39.9441 78.1717 40.0846 79.2313 40.3653C80.2527 40.6347 81.2352 41.0343 82.1547 41.5543C83.0551 42.0642 83.8886 42.6842 84.6359 43.3999C85.3818 44.113 86.0276 44.9238 86.5558 45.8102C87.0906 46.7109 87.506 47.6773 87.7916 48.6852C88.0913 49.7349 88.2417 50.8217 88.2385 51.9134ZM73.5427 45.7134V58.0634H74.8915C75.1383 58.0634 75.3755 58.0553 75.6143 58.0408C75.853 58.0263 76.0853 58.0053 76.3209 57.9843C77.0999 57.9265 77.862 57.7276 78.5699 57.3971C79.2501 57.0799 79.8677 56.6427 80.3929 56.1064C80.9176 55.5678 81.3324 54.9322 81.6142 54.235C81.9131 53.49 82.0627 52.6935 82.0546 51.8908C82.0644 51.0373 81.8923 50.1914 81.5497 49.4095C81.2253 48.67 80.7572 48.0024 80.1726 47.4454C79.5879 46.8884 78.8983 46.4532 78.1439 46.1651C77.3532 45.8572 76.5112 45.7018 75.6626 45.707L73.5427 45.7134Z" fill="#3EAF9C"/>
<path d="M93.1364 40.6703C93.1329 40.4886 93.196 40.3118 93.3139 40.1734C93.3802 40.1003 93.4624 40.0434 93.5541 40.0071C93.6458 39.9707 93.7447 39.9559 93.8431 39.9637H98.5653C98.7528 39.9732 98.9326 40.0409 99.0799 40.1573C99.1654 40.2124 99.2353 40.2885 99.2831 40.3783C99.3308 40.4681 99.3547 40.5686 99.3526 40.6703V63.1068C99.3526 63.5779 99.0901 63.8134 98.5653 63.8134H93.8431C93.372 63.8134 93.1364 63.5779 93.1364 63.1068V40.6703Z" fill="#3EAF9C"/>
<path d="M105.23 40.6703C105.227 40.4886 105.29 40.3118 105.408 40.1734C105.474 40.1003 105.556 40.0434 105.648 40.0071C105.74 39.9707 105.838 39.9559 105.937 39.9637H111.19C111.351 39.9661 111.51 40.0047 111.654 40.0766C111.828 40.1623 111.973 40.2962 112.072 40.4622C113.432 42.6563 114.781 44.8193 116.12 46.951C117.459 49.0827 118.813 51.2451 120.182 53.4382V40.5735C120.215 40.3992 120.306 40.2411 120.441 40.125C120.565 40.0183 120.725 39.9609 120.889 39.9637H125.468C125.671 39.9564 125.87 40.0222 126.029 40.1492C126.104 40.2128 126.164 40.2929 126.203 40.3834C126.242 40.4738 126.259 40.572 126.253 40.6703V63.1875C126.261 63.276 126.247 63.3651 126.214 63.4476C126.181 63.53 126.128 63.6033 126.061 63.6618C125.907 63.7709 125.721 63.8244 125.532 63.8134H120.408C120.271 63.8141 120.139 63.7628 120.039 63.6698C119.914 63.5529 119.801 63.4238 119.702 63.2843L115.478 56.297C114.085 53.9953 112.672 51.6667 111.238 49.3113V63.1068C111.252 63.2976 111.195 63.4868 111.077 63.6376C110.97 63.7554 110.777 63.8134 110.499 63.8134H105.937C105.838 63.8223 105.738 63.8089 105.646 63.7743C105.553 63.7397 105.469 63.6847 105.4 63.6134C105.29 63.4765 105.232 63.3048 105.238 63.1294L105.23 40.6703Z" fill="#3EAF9C"/>
<path d="M132.132 40.7024C132.122 40.5063 132.188 40.314 132.316 40.1652C132.383 40.0962 132.465 40.0425 132.555 40.0077C132.645 39.9729 132.741 39.9578 132.837 39.9635H148.765C148.866 39.9573 148.967 39.9727 149.061 40.0086C149.156 40.0445 149.241 40.1 149.312 40.1716C149.445 40.3276 149.514 40.5283 149.504 40.733V44.7034C149.501 44.8938 149.433 45.0775 149.312 45.2245C149.245 45.3081 149.159 45.3742 149.061 45.4175C148.963 45.4607 148.856 45.4797 148.749 45.473H138.342V49.4563H146.373C146.552 49.4488 146.729 49.4991 146.878 49.5999C146.949 49.6576 147.004 49.732 147.04 49.8165C147.075 49.9009 147.089 49.9928 147.08 50.0839V53.5525C147.075 53.7139 147.012 53.8681 146.902 53.9865C146.838 54.0576 146.758 54.1133 146.669 54.1493C146.581 54.1854 146.485 54.2008 146.389 54.1946H138.342V58.3102H149.135C149.617 58.3102 149.858 58.5554 149.858 59.0459V63.0792C149.857 63.1334 149.846 63.1869 149.823 63.2363C149.801 63.2858 149.769 63.3301 149.729 63.3663C149.687 63.6664 149.467 63.8148 149.07 63.8148H132.837C132.652 63.826 132.469 63.7686 132.324 63.6535C132.256 63.5857 132.203 63.5038 132.17 63.4134C132.137 63.3231 132.124 63.2267 132.132 63.1308V40.7024Z" fill="#3EAF9C"/>
<path d="M157.46 56.1049C157.641 56.2549 157.874 56.455 158.158 56.7066C158.464 56.9772 158.787 57.2267 159.126 57.4536C159.631 57.7971 160.172 58.0828 160.74 58.3054C161.279 58.5093 161.851 58.6127 162.427 58.6104C162.892 58.6217 163.355 58.5597 163.8 58.4264C164.123 58.3306 164.422 58.1654 164.675 57.9424C164.883 57.7487 165.04 57.5066 165.133 57.2374C165.225 56.9629 165.271 56.6751 165.27 56.3856C165.269 56.2196 165.235 56.0554 165.17 55.9025C165.106 55.7496 165.011 55.6111 164.892 55.495C164.62 55.2183 164.309 54.9834 163.968 54.7981C163.603 54.594 163.222 54.4192 162.829 54.2754C162.432 54.1318 162.09 54.0108 161.801 53.9156C160.641 53.5205 159.513 53.035 158.428 52.4636C157.548 52.0032 156.739 51.4186 156.026 50.7277C155.407 50.1321 154.913 49.4191 154.574 48.6303C154.243 47.8184 154.078 46.9483 154.09 46.0716C154.077 45.1332 154.283 44.2048 154.691 43.3596C155.097 42.5415 155.685 41.8277 156.411 41.2736C157.217 40.6641 158.129 40.2095 159.101 39.9329C160.244 39.6043 161.428 39.445 162.618 39.4602C163.561 39.4545 164.502 39.5628 165.42 39.7829C166.344 40.014 167.233 40.3677 168.063 40.8348C168.427 41.0477 168.771 41.2704 169.098 41.5011C169.426 41.7318 169.711 41.9528 169.958 42.1674C170.173 42.3505 170.37 42.5548 170.544 42.7772C170.666 42.9166 170.742 43.091 170.76 43.2757C170.761 43.4112 170.726 43.5445 170.657 43.6613C170.566 43.8053 170.461 43.9399 170.344 44.063L167.885 46.6798C167.817 46.7596 167.734 46.825 167.64 46.8721C167.547 46.9192 167.444 46.9471 167.34 46.9541C167.193 46.955 167.05 46.9098 166.93 46.825C166.807 46.7395 166.67 46.6314 166.52 46.5024L166.377 46.3733C166.162 46.1915 165.923 46.0044 165.662 45.8119C165.395 45.6156 165.113 45.4408 164.818 45.2892C164.515 45.1327 164.198 45.0037 163.871 44.9036C163.543 44.8029 163.202 44.7518 162.86 44.7519C162.525 44.7502 162.192 44.7793 161.863 44.839C161.577 44.8901 161.301 44.9853 161.045 45.1214C160.818 45.2407 160.625 45.4142 160.482 45.6263C160.343 45.8602 160.271 46.1278 160.274 46.3998C160.276 46.6718 160.354 46.9378 160.498 47.1687C160.678 47.4162 160.908 47.6239 161.172 47.7785C161.526 47.9916 161.9 48.1694 162.288 48.3093C162.733 48.4749 163.249 48.654 163.839 48.8465C164.973 49.2219 166.019 49.6155 166.978 50.0275C167.868 50.399 168.703 50.8908 169.46 51.4891C170.142 52.035 170.698 52.7225 171.089 53.5042C171.482 54.2861 171.677 55.2337 171.676 56.3469C171.692 57.457 171.444 58.555 170.954 59.5509C170.478 60.5015 169.8 61.3371 168.969 61.9999C168.086 62.6983 167.082 63.2292 166.007 63.5665C164.823 63.9431 163.587 64.1299 162.345 64.1199C161.105 64.1185 159.876 63.895 158.715 63.46C157.532 63.0212 156.413 62.4242 155.39 61.6853C155.004 61.4093 154.642 61.1023 154.306 60.7674C154.012 60.4657 153.78 60.2253 153.607 60.043L153.56 59.9946C153.554 59.9782 153.543 59.9642 153.528 59.9543C153.516 59.9476 153.506 59.9394 153.496 59.93C153.489 59.9137 153.478 59.8997 153.464 59.8897C153.452 59.883 153.441 59.8749 153.431 59.8655C153.184 59.5966 153.061 59.3815 153.062 59.2202C153.062 59.0373 153.185 58.8335 153.431 58.6087L156.209 55.958C156.365 55.8267 156.555 55.7433 156.756 55.7177C156.865 55.7218 156.97 55.7552 157.061 55.8145C157.202 55.9002 157.335 55.9973 157.46 56.1049Z" fill="#3EAF9C"/>
<path d="M7.937 40.6121C7.937 40.2152 8.14512 40.0023 8.56136 39.9668H13.2868C13.8643 39.9668 14.1531 40.2448 14.1531 40.8009V56.3985C14.1601 57.4254 13.9438 58.4416 13.5191 59.3767C13.1089 60.284 12.5302 61.1052 11.8138 61.7967C11.0928 62.4914 10.2479 63.0447 9.32285 63.4277C8.37554 63.8236 7.35845 64.0255 6.33175 64.0214C5.71544 64.022 5.10108 63.9522 4.50063 63.8133C3.90752 63.6761 3.33288 63.4687 2.78889 63.1954C2.24667 62.9204 1.74009 62.5802 1.28044 62.1822C0.8104 61.7763 0.396932 61.3091 0.0510862 60.7932C0.0188198 60.7835 0.00268853 60.698 0.00268853 60.5367C-0.00737199 60.4217 0.0108976 60.3059 0.0558964 60.1996C0.100895 60.0933 0.171254 59.9997 0.260821 59.9268L3.05509 57.3084C3.13745 57.2353 3.22913 57.1735 3.32774 57.1245C3.41172 57.0794 3.50509 57.0545 3.60039 57.0519C3.76909 57.0546 3.93139 57.1169 4.05858 57.2277L4.54257 57.6214C4.73386 57.7751 4.94165 57.9072 5.16209 58.015C5.40849 58.1264 5.67492 58.1867 5.94528 58.1923C6.21564 58.1978 6.48432 58.1485 6.73508 58.0473C6.96253 57.956 7.17221 57.8255 7.3546 57.6617C7.53132 57.5009 7.67538 57.3076 7.7789 57.0922C7.88607 56.875 7.9413 56.6359 7.94023 56.3936L7.937 40.6121Z" fill="#3EAF9C"/>
<path d="M31.814 84.8462V72.1848H37.1525C37.9028 72.1848 38.6456 72.3336 39.338 72.6228C40.0303 72.9119 40.6584 73.3355 41.1858 73.8691C41.7482 74.4387 42.1908 75.1151 42.4878 75.8584C43.1275 77.5754 43.1275 79.4653 42.4878 81.1823C42.1906 81.9196 41.7497 82.5903 41.1907 83.1554C40.6632 83.689 40.0351 84.1126 39.3428 84.4018C38.6504 84.6909 37.9076 84.8397 37.1573 84.8397L31.814 84.8462ZM33.2483 83.4877H37.096C37.9331 83.508 38.7558 83.2673 39.4499 82.7989C40.1153 82.3385 40.6482 81.7115 40.9954 80.9806C41.3547 80.2036 41.5408 79.3578 41.5408 78.5018C41.5408 77.6457 41.3547 76.7999 40.9954 76.0229C40.6511 75.2942 40.1194 74.6701 39.4547 74.2144C38.7582 73.7523 37.9365 73.5152 37.1009 73.5352H33.2515L33.2483 83.4877Z" fill="#818282"/>
<path d="M49.4784 84.8462V72.1848H58.7985V73.5626H50.9126V77.8105H57.9564V79.2076H50.9126V83.4765H58.7985V84.8542L49.4784 84.8462Z" fill="#818282"/>
<path d="M73.6104 84.8462V72.1848H79.6781C80.9785 72.1848 82.0153 72.5419 82.7886 73.2561C83.5619 73.9702 83.9475 74.9334 83.9454 76.1455C83.9454 76.964 83.7894 77.6147 83.4775 78.0976C83.1877 78.5609 82.7817 78.9403 82.2998 79.1979C81.8519 79.4378 81.3761 79.6215 80.8833 79.7448L84.2132 84.8542H82.5095L79.4442 79.9933H75.0463V84.8542L73.6104 84.8462ZM75.0463 78.6252H79.4297C79.9031 78.6232 80.3737 78.5526 80.8268 78.4155C81.2887 78.2812 81.7032 78.0188 82.0223 77.6588C82.3449 77.2964 82.5063 76.7892 82.5063 76.1375C82.5063 75.334 82.232 74.6994 81.6835 74.2337C81.135 73.768 80.4079 73.5352 79.5023 73.5352H75.0463V78.6252Z" fill="#818282"/>
<path d="M96.2519 84.9996C95.3534 85.0108 94.4618 84.8413 93.6302 84.5011C92.8595 84.1845 92.1645 83.7084 91.591 83.1039C91.0222 82.5046 90.577 81.799 90.2809 81.0276C89.6678 79.4024 89.6678 77.6095 90.2809 75.9843C90.5796 75.2171 91.0245 74.5152 91.591 73.9177C92.1653 73.3142 92.8601 72.8382 93.6302 72.5206C95.3152 71.8581 97.1885 71.8581 98.8735 72.5206C99.6429 72.8387 100.337 73.3146 100.911 73.9177C101.478 74.5155 101.923 75.2173 102.223 75.9843C102.834 77.6099 102.834 79.402 102.223 81.0276C101.925 81.7988 101.48 82.5042 100.911 83.1039C100.338 83.708 99.6436 84.1841 98.8735 84.5011C98.0418 84.8412 97.1503 85.0107 96.2519 84.9996ZM96.2519 83.6025C97.1875 83.6272 98.1118 83.392 98.9219 82.9232C99.6554 82.4826 100.251 81.8463 100.643 81.0857C101.041 80.2834 101.248 79.3999 101.248 78.5044C101.248 77.6088 101.041 76.7253 100.643 75.923C100.25 75.1662 99.6538 74.5334 98.9219 74.0952C98.1051 73.6506 97.1899 73.4178 96.2599 73.4178C95.33 73.4178 94.4148 73.6506 93.5979 74.0952C92.861 74.5306 92.2607 75.1638 91.8652 75.923C91.4686 76.7257 91.2623 77.609 91.2623 78.5044C91.2623 79.3997 91.4686 80.283 91.8652 81.0857C92.2568 81.8476 92.8543 82.4842 93.5899 82.9232C94.3978 83.3904 95.3189 83.6254 96.2519 83.6025Z" fill="#818282"/>
<path d="M109.189 84.8462V72.1848H114.528C115.278 72.1848 116.021 72.3336 116.713 72.6228C117.405 72.9119 118.033 73.3355 118.561 73.8691C119.123 74.4387 119.566 75.1151 119.863 75.8584C120.502 77.5754 120.502 79.4653 119.863 81.1823C119.566 81.9263 119.124 82.6033 118.561 83.1731C118.033 83.7068 117.405 84.1304 116.713 84.4195C116.021 84.7086 115.278 84.8575 114.528 84.8575L109.189 84.8462ZM110.625 83.4877H114.471C115.308 83.508 116.131 83.2673 116.825 82.7989C117.489 82.3383 118.02 81.7113 118.366 80.9806C118.725 80.2036 118.911 79.3578 118.911 78.5018C118.911 77.6457 118.725 76.7999 118.366 76.0229C118.022 75.2939 117.49 74.6697 116.825 74.2144C116.128 73.7523 115.307 73.5152 114.471 73.5352H110.625V83.4877Z" fill="#818282"/>
<path d="M132.479 84.9995C131.581 85.0106 130.689 84.8411 129.857 84.5009C129.087 84.184 128.393 83.7079 127.82 83.1038C127.251 82.504 126.806 81.7986 126.508 81.0275C125.897 79.4019 125.897 77.6098 126.508 75.9842C126.808 75.2172 127.253 74.5154 127.82 73.9175C128.394 73.3145 129.088 72.8386 129.857 72.5204C131.543 71.8578 133.417 71.8578 135.102 72.5204C135.872 72.8386 136.566 73.3145 137.14 73.9175C137.706 74.5154 138.152 75.2172 138.452 75.9842C139.063 77.6098 139.063 79.4019 138.452 81.0275C138.154 81.7986 137.709 82.504 137.14 83.1038C136.567 83.7079 135.872 84.184 135.102 84.5009C134.27 84.8412 133.378 85.0107 132.479 84.9995ZM132.479 83.6023C133.415 83.6274 134.339 83.3923 135.149 82.9231C135.883 82.483 136.48 81.8466 136.872 81.0855C137.27 80.2833 137.477 79.3998 137.477 78.5042C137.477 77.6086 137.27 76.7252 136.872 75.9229C136.479 75.1656 135.882 74.5327 135.149 74.095C134.332 73.6502 133.417 73.4172 132.487 73.4172C131.557 73.4172 130.642 73.6502 129.825 74.095C129.088 74.5305 128.488 75.1637 128.093 75.9229C127.694 76.7252 127.487 77.6086 127.487 78.5042C127.487 79.3998 127.694 80.2833 128.093 81.0855C128.486 81.8485 129.087 82.4853 129.825 82.9231C130.631 83.3889 131.549 83.6239 132.479 83.6023ZM131.834 70.97L133.002 68.9614H135.052L133.005 70.97H131.834Z" fill="#818282"/>
<path d="M84.339 0.00317383C82.0855 1.498 80.1184 3.38479 78.531 5.57397L84.339 11.3819V0.00317383Z" fill="#DDBA58"/>
<path d="M95.0581 10.9286C93.3942 6.46052 90.3572 2.63455 86.3833 0V19.6051L95.0581 10.9286Z" fill="#91C176"/>
<path d="M77.3873 7.31641C75.3376 10.7747 74.2585 14.7218 74.2639 18.7419C74.2639 26.5698 78.2698 28.4219 84.3391 31.9196V14.2666L77.3873 7.31641Z" fill="#3EAF9C"/>
<path d="M86.3833 22.4945V31.9211C92.4526 28.4234 96.4601 26.5713 96.4601 18.7419C96.4609 16.8484 96.2218 14.9625 95.7486 13.1292L86.3833 22.4945Z" fill="#E5D6B3"/>
<path d="M0.25769 78.7302V77.8493C0.25769 77.7749 0.287268 77.7035 0.339912 77.6508C0.392557 77.5982 0.463961 77.5686 0.538412 77.5686H19.7369C19.8114 77.5686 19.8828 77.5982 19.9354 77.6508C19.9881 77.7035 20.0177 77.7749 20.0177 77.8493V78.7302" fill="#818282"/>
<path d="M151.186 78.7302V77.8493C151.186 77.8123 151.193 77.7757 151.207 77.7415C151.221 77.7074 151.242 77.6763 151.268 77.6503C151.295 77.6242 151.326 77.6035 151.36 77.5895C151.394 77.5755 151.431 77.5684 151.468 77.5686H170.667C170.741 77.5686 170.812 77.5982 170.865 77.6508C170.918 77.7035 170.947 77.7749 170.947 77.8493V78.7302" fill="#818282"/>
</svg>
