<svg width="81" height="71" viewBox="0 0 81 71" fill="none" xmlns="http://www.w3.org/2000/svg">
<g clip-path="url(#clip0_140_808)">
<path d="M47.4785 52.9561H38.9132L38.823 52.8477C38.7933 52.8047 38.7748 52.7549 38.769 52.7029V28.0599C37.2813 29.6239 36.3075 31.2871 35.0903 32.7426C33.8732 34.198 32.8003 35.8615 31.6372 37.4074C30.4742 38.9532 29.257 40.508 28.0308 42.1171L16.8961 27.3638V52.7391C15.5166 53.0013 5.24737 53.0826 0.117249 52.8746V0.388681L0.631114 -0.0273438C5.59895 -0.0273438 10.7021 -0.0273438 15.7961 -0.0273438C16.1601 0.0111041 16.5176 0.0961969 16.86 0.225802L27.9407 14.7712L39.2468 -0.00924614H55.115L55.5658 0.433704V32.6885C55.3523 32.9806 55.1236 33.2612 54.8806 33.5292L47.4964 40.8607L47.4785 52.9561Z" fill="#F03201"/>
<path d="M47.4785 52.9561V40.9058L54.8625 33.5745C55.1055 33.3065 55.3342 33.0259 55.5478 32.7338C55.9445 32.3993 56.3591 32.0828 56.7288 31.7122L75.6625 12.8909C75.6625 12.8909 75.7526 12.8909 75.7797 12.8909C75.8067 12.8909 75.8699 12.9723 75.8699 13.0085C75.8699 23.3774 75.8699 33.8005 75.8699 44.2326H80.9819V52.9109H75.8969V70.4124L75.383 70.9187H66.6825C66.6394 70.8871 66.6001 70.8506 66.5653 70.8101C66.5341 70.7679 66.5154 70.7179 66.5113 70.6655V52.9471L47.4785 52.9561ZM66.4752 34.6592C63.0401 37.778 59.6501 40.8245 56.4945 44.2145H66.4752V34.6592Z" fill="#302E2B"/>
<path d="M42.3122 66.4888V70.8824H39.4811V58.4071C41.2843 58.4071 43.0876 58.3348 44.9449 58.4071C45.9914 58.5255 46.9874 58.9218 47.83 59.5552C48.1005 59.736 48.2087 60.1429 48.4341 60.5045V64.5001L46.7842 66.0187C47.2711 67.6279 48.1727 69.0924 48.4883 70.8371H45.54C44.981 69.4811 44.3859 68.0075 43.7368 66.4526L42.3122 66.4888ZM45.2154 63.4063C45.3507 62.8729 45.4949 62.3396 45.6211 61.8605C45.2785 61.517 45.008 61.2546 44.7916 61.0286H42.2942C42.3664 62.014 42.2401 62.9452 42.3663 63.8583H44.3048L45.2064 63.4063" fill="#302E2B"/>
<path d="M2.51546 70.9546L0.40574 69.6257C-0.270462 66.6878 0.0992175 63.8854 0.0902015 61.1011C0.0589449 60.6112 0.195752 60.1254 0.477829 59.7241C0.759906 59.3229 1.17026 59.0305 1.64093 58.8954C2.0281 58.7392 2.40197 58.5517 2.75891 58.3348C3.10152 58.2083 3.93104 58.8049 4.38184 58.145L7.63661 58.7416L9.04317 60.1338V62.5204H6.33836C6.23017 62.0775 6.11294 61.5621 5.98672 61.0287H3.75076L3.36302 61.4176V67.9263C3.52531 68.08 3.63346 68.1975 3.7687 68.3331H5.74327C6.36538 67.9444 6.23013 67.4292 6.18505 66.8506C5.63507 66.4981 4.74242 67.1851 4.31867 66.1726V64.238H9.05208V69.1647L7.51038 70.6202C6.0047 71.2169 4.23757 70.7919 2.56058 70.9546" fill="#302E2B"/>
<path d="M13.6773 68.7582C13.3798 69.5447 13.1094 70.2408 12.8659 70.8736H10.0439C10.0163 70.6545 10.0163 70.4328 10.0439 70.2137C10.5621 68.9824 10.9753 67.7092 11.2791 66.4079C11.4775 65.0519 12.3791 63.9038 12.2979 62.4935C13.0643 61.246 12.911 59.6731 13.7585 58.4255H16.31C16.6347 58.699 16.8994 59.037 17.0871 59.4183C17.2749 59.7995 17.3817 60.2155 17.4009 60.6403C17.6804 61.9149 18.1493 63.1262 18.4468 64.3918C18.7443 65.6574 19.2222 66.8417 19.5919 68.0802C19.8353 68.8757 20.0156 69.6893 20.25 70.5662L19.8803 70.9279H17.1755C16.9411 70.2047 16.6978 69.4543 16.4814 68.7582H13.6773ZM15.0568 62.3399C14.7953 63.7863 14.5789 64.9433 14.3806 66.0643H15.8141C15.5707 64.8891 15.3453 63.7682 15.0568 62.3399Z" fill="#302E2B"/>
<path d="M61.1196 58.4707C62.6974 62.376 63.4909 66.5252 64.8703 70.5389C63.9687 71.3616 62.8237 70.6565 61.859 71L61.0656 68.7128H58.1805C57.9641 69.436 57.7566 70.1412 57.5132 70.9728C56.5214 70.783 55.5748 71.2171 54.7092 70.6566C55.0068 68.6407 55.8543 66.8416 56.2149 64.9071C56.382 64.3424 56.5868 63.7896 56.8281 63.2527C57.0514 62.593 57.2321 61.9197 57.369 61.2368C57.6129 60.6264 57.7678 59.9841 57.8288 59.3295C57.8288 59.0763 58.0813 58.8052 58.2526 58.4707H61.1196ZM59.6501 62.2675C59.5453 63.5874 59.2695 64.8881 58.8296 66.1366L60.3442 66.0371C60.1008 64.6991 59.8755 63.4878 59.6501 62.2675Z" fill="#302E2B"/>
<path d="M30.1046 58.4346H37.4256V60.9296H33.3323V63.1896H37.11V65.4406C35.992 66.1999 34.6666 65.549 33.3142 65.8835C33.2331 66.6067 33.3142 67.4293 33.3142 68.3152H37.3084L37.8583 68.8577C37.687 69.5086 38.1919 70.3222 37.3714 70.9007H30.1586L30.1046 58.4346Z" fill="#302E2B"/>
<path d="M28.2292 68.3061L28.7792 68.8577C28.6259 69.4995 29.1128 70.3041 28.3014 70.9007H21.8549C21.2328 70.5933 21.3409 70.087 21.3409 69.6169V58.8956L21.7828 58.4526H24.127C24.2893 58.6154 24.4065 58.7238 24.5687 58.8956V68.3061H28.2292Z" fill="#302E2B"/>
<path d="M50.4087 71.0002V58.3985C51.4726 58.516 52.5634 58.1635 53.5822 58.6969V70.521C52.6806 71.3798 51.5537 70.6928 50.4087 71.0002Z" fill="#302E2B"/>
<path d="M51.5807 54.9268H54.6461C54.2779 55.995 53.6595 56.9591 52.8429 57.7383H50.7242C50.6791 56.6625 51.3373 55.876 51.6258 54.9268" fill="white"/>
</g>
<defs>
<clipPath id="clip0_140_808">
<rect width="81" height="71" fill="white"/>
</clipPath>
</defs>
</svg>
