<svg width="162" height="64" viewBox="0 0 162 64" fill="none" xmlns="http://www.w3.org/2000/svg">
<g clip-path="url(#clip0_140_1689)">
<path d="M26.81 21.46L12.88 20.6299L7.62 26.9199L18.97 26.3098L27.12 28.0598L26.81 21.46Z" fill="#003851"/>
<path d="M81.81 45.47V17.9199L74.28 45.5698H65.92L58.5 18.0298V45.47H50.66V5.22998H63.04L70.36 34.74L77.68 5.22998H89.86V45.5698L81.81 45.47Z" fill="#50AD95"/>
<path d="M111.74 45.4701C111.462 44.6002 111.288 43.7005 111.22 42.7899C110.21 43.9113 108.934 44.7606 107.51 45.2599C105.787 45.8778 103.97 46.1926 102.14 46.1901C98.74 46.1901 96.14 45.47 94.61 43.92C93.8134 43.1695 93.189 42.2552 92.7798 41.2401C92.3707 40.225 92.1865 39.1331 92.24 38.0399C92.1654 36.2654 92.5079 34.4982 93.24 32.88C93.8911 31.6202 94.8954 30.5776 96.13 29.88C97.4645 29.0784 98.9305 28.5199 100.46 28.2301C102.11 27.9201 103.97 27.6099 105.93 27.2999C107.325 27.1914 108.685 26.8075 109.93 26.17C110.215 25.9401 110.452 25.6561 110.627 25.3343C110.802 25.0126 110.912 24.6595 110.95 24.2953C110.988 23.931 110.954 23.5628 110.849 23.2118C110.744 22.8608 110.571 22.534 110.34 22.2501C110.153 21.9886 109.906 21.7758 109.62 21.63C108.488 20.9952 107.195 20.7065 105.9 20.7999C104.482 20.6856 103.075 21.1307 101.98 22.0399C101.173 22.9271 100.669 24.0478 100.54 25.2401H93.21C93.2404 23.8023 93.483 22.3767 93.93 21.0099C94.3671 19.7212 95.1528 18.5791 96.2 17.7101C97.3531 16.695 98.7204 15.9531 100.2 15.5399C102.178 14.9893 104.228 14.7465 106.28 14.8199C108.311 14.7788 110.335 15.0556 112.28 15.64C113.74 16.0936 115.08 16.8694 116.2 17.91C117.228 18.9451 117.975 20.2255 118.37 21.63C118.877 23.2454 119.084 24.9401 118.98 26.63V45.5099L111.74 45.4701ZM111.22 30.92C110.724 31.3719 110.122 31.6917 109.47 31.85C108.33 32.16 107.3 32.47 106.17 32.68C104.524 32.8952 102.942 33.4575 101.53 34.33C101.102 34.6975 100.767 35.1605 100.552 35.6818C100.336 36.203 100.247 36.7676 100.29 37.33C100.29 39.6 101.53 40.63 104.11 40.63C105.06 40.6168 106 40.4409 106.89 40.11C107.713 39.8079 108.466 39.342 109.104 38.7404C109.742 38.1387 110.251 37.414 110.6 36.61C111.001 35.8446 111.214 34.9943 111.22 34.13V30.92Z" fill="#50AD95"/>
<path d="M122.57 45.47V4.71997H130.41V45.47H122.57Z" fill="#50AD95"/>
<path d="M140.94 32.6799C140.953 34.6467 141.661 36.5453 142.94 38.0398C143.527 38.7106 144.259 39.2392 145.08 39.5857C145.901 39.9322 146.79 40.0875 147.68 40.0398C148.881 40.0497 150.061 39.7279 151.09 39.1099C152.048 38.5729 152.764 37.6889 153.09 36.6399H161.24C160.497 39.5007 158.783 42.0144 156.39 43.75C153.977 45.4476 151.079 46.3177 148.13 46.23C138.23 46.23 133.13 40.7599 133.13 29.9299C133.127 27.7988 133.44 25.679 134.06 23.6399C134.658 21.8838 135.608 20.2677 136.85 18.8899C138.119 17.5396 139.669 16.4846 141.39 15.7998C143.327 15.0538 145.396 14.7134 147.47 14.7998C152.12 14.7998 155.62 16.24 157.89 19.23C160.16 22.22 161.4 26.6598 161.4 32.5398L140.94 32.6799ZM153.42 27.6199C153.421 26.6234 153.21 25.6382 152.8 24.73C152.514 23.9515 152.056 23.2474 151.46 22.6699C150.876 22.1358 150.198 21.7153 149.46 21.4299C148.74 21.1358 147.967 20.996 147.19 21.0198C146.42 21.0232 145.658 21.1798 144.949 21.4802C144.24 21.7807 143.598 22.2189 143.06 22.7698C141.79 24.0661 141.073 25.8051 141.06 27.6199H153.42ZM143.42 11.8398L141.56 8.53979L154.15 1.20996L157.04 6.20996L143.42 11.8398Z" fill="#50AD95"/>
<path d="M44.15 43.3298L42.91 34.5598C42.91 34.2498 42.6 34.0399 42.29 33.9399L28.16 32.9399V31.3898L38.37 31.6999C38.58 31.6999 38.79 31.5998 38.79 31.3898V31.1298L28.26 7.40985V6.98993L33.73 4.61981C33.8643 4.53686 33.9612 4.40505 34.0004 4.25214C34.0395 4.09922 34.0179 3.93704 33.94 3.79974C33.83 3.68974 33.73 3.48993 33.63 3.48993L28.16 1.1098V0.69989C28.1583 0.540871 28.1074 0.386184 28.0143 0.257263C27.9212 0.128342 27.7904 0.0315424 27.64 -0.0200808C27.4664 -0.0360124 27.2924 0.00504801 27.1444 0.0971067C26.9963 0.189165 26.8824 0.327194 26.82 0.489929V5.33978L1.53999 31.1298L0.720001 31.0297C0.542803 31.0186 0.368288 31.0774 0.233749 31.1933C0.0992104 31.3092 0.0153178 31.473 -3.22005e-07 31.6498C-0.0147941 31.7939 0.0205127 31.9386 0.0999905 32.0598L6.91 43.7199C7.66665 43.9399 8.45215 44.0442 9.23999 44.0297H43.43C43.5614 44.0265 43.6893 43.9865 43.7989 43.914C43.9086 43.8415 43.9956 43.7395 44.05 43.6198C44.0849 43.5804 44.1117 43.5346 44.1289 43.4848C44.1461 43.435 44.1532 43.3823 44.15 43.3298ZM28.15 10.7299L37.23 30.4299L28.15 30.0197V10.7299ZM26.81 7.31976V20.9399C22.7076 19.8445 18.4299 19.5658 14.22 20.1198L26.81 7.31976ZM12.47 21.9699C18.14 20.2199 24.95 21.8698 26.81 22.3898V27.2299C22.4335 25.7432 17.7879 25.2179 13.19 25.6899C11.5096 25.8219 9.83941 26.0624 8.19 26.4099L12.52 21.9699H12.47ZM6.28 28.2697C7.72 27.8497 18.35 25.2699 26.81 28.6799V32.9099H26.09L11.03 31.9099L3.28999 31.3898L6.28999 28.2997L6.28 28.2697Z" fill="#003851"/>
<path d="M90.7099 52.5097C91.6225 52.4372 92.4976 52.1156 93.2399 51.5798C94.0799 51.0313 95.028 50.6698 96.0199 50.5197C96.5499 50.5197 96.9499 50.3897 97.2199 50.5197C96.1478 49.8335 94.9029 49.4661 93.6299 49.4599C92.5647 49.4475 91.5124 49.6949 90.5645 50.1811C89.6165 50.6673 88.8014 51.3776 88.1899 52.25C88.9869 52.5795 89.8625 52.6696 90.7099 52.5097Z" fill="#50AD95"/>
<path d="M91.3801 54.7698C92.1868 54.842 92.9998 54.7504 93.77 54.5C94.5989 54.1225 95.5167 53.9838 96.42 54.0998C97.3344 54.1498 98.2125 54.4738 98.94 55.0298C99.3736 55.3543 99.8713 55.5829 100.4 55.6999C100.271 54.0876 99.56 52.5773 98.4 51.4499C97.6191 51.2535 96.8077 51.2093 96.0101 51.3198C95.101 51.3942 94.2295 51.7159 93.49 52.25C92.6424 52.7907 91.6928 53.1513 90.7 53.3098H89.81C89.1216 53.3306 88.4375 53.1939 87.81 52.9099H87.68C87.6667 53.0086 87.621 53.1 87.55 53.1699C88.1259 53.3336 88.6654 53.6051 89.14 53.97C89.7901 54.4543 90.5703 54.7327 91.3801 54.7698Z" fill="#808938"/>
<path d="M90.71 58.48C91.6225 58.4074 92.4977 58.0856 93.24 57.5498C94.0837 57.0086 95.0301 56.6479 96.02 56.49C97.0009 56.3436 98.0026 56.436 98.94 56.7598C99.4106 56.9203 99.9029 57.008 100.4 57.0198V56.3599C99.7417 56.202 99.1158 55.9313 98.55 55.5598C97.892 55.0775 97.1051 54.8024 96.29 54.7698C95.4839 54.6889 94.6698 54.7774 93.9 55.0298C93.0724 55.4115 92.1534 55.5503 91.25 55.4299C90.3318 55.3838 89.4494 55.0595 88.72 54.5C88.2867 54.1771 87.7886 53.9518 87.26 53.8398C87.0002 54.6101 86.8652 55.4171 86.86 56.23C86.8863 56.8115 86.9768 57.3883 87.13 57.95C87.53 58.09 87.93 58.09 88.19 58.22C88.9856 58.5547 89.8628 58.6453 90.71 58.48Z" fill="#593C1B"/>
<path d="M93.81 61.0098C92.9776 61.3873 92.0557 61.5226 91.15 61.3999C90.2368 61.3522 89.359 61.0318 88.63 60.48C88.36 60.34 88.23 60.2098 87.97 60.0798C88.5103 60.894 89.2194 61.5826 90.049 62.0989C90.8787 62.6152 91.8096 62.9471 92.7787 63.0723C93.7478 63.1974 94.7326 63.113 95.6662 62.8245C96.5998 62.5359 97.4605 62.0501 98.19 61.3999C97.5777 61.0404 96.8959 60.8155 96.19 60.74C95.3865 60.6628 94.5757 60.7546 93.81 61.0098Z" fill="#E9A818"/>
<path d="M98.55 57.5497C97.7012 57.2323 96.7841 57.1427 95.89 57.2897C94.9802 57.361 94.108 57.6831 93.37 58.2199C92.5246 58.765 91.5741 59.126 90.58 59.2797H89.65C88.9611 59.3056 88.2759 59.1687 87.65 58.8798C87.39 58.8798 87.25 58.7499 86.99 58.7499C87.0034 58.8486 87.0491 58.9398 87.12 59.0097C87.6958 59.1733 88.2354 59.4449 88.71 59.8097C89.3638 60.3012 90.1526 60.5805 90.97 60.6098C91.7768 60.6875 92.5909 60.5955 93.36 60.3398C94.189 59.9628 95.1067 59.8244 96.01 59.9399C96.8521 60.0442 97.6648 60.3162 98.4 60.7399C99.1824 59.9254 99.7345 58.9176 100 57.8198C99.5065 57.797 99.0186 57.7061 98.55 57.5497Z" fill="#C45941"/>
<g clip-path="url(#clip1_140_1689)">
<path d="M74 54H75.0009V56.6953H75.0263C75.0839 56.6239 75.1488 56.5583 75.2199 56.4992C75.3063 56.4261 75.4011 56.3629 75.5025 56.3106C75.6242 56.2478 75.7534 56.1992 75.8871 56.166C76.0535 56.1256 76.2248 56.1067 76.3964 56.1097C76.6665 56.1069 76.9342 56.1603 77.1808 56.2665C77.4143 56.3666 77.6234 56.5126 77.7945 56.6953C77.968 56.8832 78.1028 57.101 78.1918 57.3372C78.2879 57.5916 78.3362 57.8604 78.3345 58.1311C78.3365 58.402 78.2909 58.6712 78.1995 58.9274C78.1154 59.1648 77.982 59.3832 77.8073 59.5694C77.6317 59.7527 77.4184 59.8987 77.1808 59.9982C76.9203 60.1056 76.6391 60.1591 76.3557 60.155C76.082 60.1575 75.811 60.1032 75.5611 59.9957C75.3156 59.8872 75.1116 59.7072 74.9779 59.4812H74.9626V60.0594H74.0102L74 54ZM77.3107 58.1434C77.3112 57.9954 77.2845 57.8486 77.2317 57.7097C77.1807 57.5722 77.101 57.4463 76.9975 57.3397C76.8915 57.2352 76.7652 57.1519 76.6257 57.0946C76.4699 57.0307 76.3022 56.9977 76.1328 56.9977C75.9635 56.9977 75.7958 57.0307 75.64 57.0946C75.5005 57.1543 75.375 57.2403 75.2709 57.3477C75.1667 57.455 75.0862 57.5815 75.034 57.7195C74.9277 57.9995 74.9277 58.3068 75.034 58.5869C75.0862 58.7248 75.1667 58.8513 75.2709 58.9586C75.375 59.066 75.5005 59.152 75.64 59.2116C75.8642 59.312 76.1154 59.3423 76.3584 59.2984C76.6013 59.2544 76.8239 59.1384 76.9949 58.9666C77.0984 58.86 77.1782 58.7341 77.2292 58.5966C77.282 58.4577 77.3087 58.3109 77.3081 58.163" fill="#435761"/>
<path d="M78.7164 56.2175H79.8192L80.9372 58.8907H80.955L81.9558 56.2175H83L81.1053 60.8999C81.0412 61.0656 80.9619 61.2255 80.8684 61.3777C80.787 61.5083 80.6838 61.6251 80.5628 61.7232C80.4412 61.8186 80.3009 61.8894 80.1503 61.9315C79.9636 61.9804 79.7707 62.0035 79.5772 62.0001C79.3194 62 79.0626 61.9679 78.8133 61.9045L78.938 61.0371C79.0213 61.0653 79.1063 61.0882 79.1927 61.1057C79.2763 61.1242 79.3616 61.1341 79.4474 61.1351C79.5511 61.1369 79.6546 61.1262 79.7555 61.1033C79.8331 61.0859 79.9056 61.052 79.9678 61.0041C80.0299 60.9562 80.0801 60.8955 80.1146 60.8264C80.1553 60.7553 80.1961 60.6672 80.2394 60.5667L80.4304 60.1085L78.7164 56.2175Z" fill="#435761"/>
</g>
<path d="M110.204 58.5429C110.124 58.9762 109.982 59.3956 109.781 59.7874C109.592 60.1486 109.34 60.4731 109.038 60.7458C108.737 61.0137 108.39 61.223 108.012 61.3625C107.602 61.5122 107.168 61.5864 106.731 61.5817C106.223 61.5873 105.719 61.4966 105.245 61.3142C104.797 61.1397 104.395 60.8667 104.067 60.5155C103.722 60.1339 103.456 59.6867 103.287 59.2005C103.086 58.615 102.989 57.9989 103.001 57.3801C102.992 56.7599 103.08 56.142 103.261 55.5488C103.414 55.0433 103.667 54.5734 104.004 54.1668C104.327 53.7928 104.731 53.4968 105.185 53.3013C105.678 53.0949 106.208 52.9925 106.742 53.0004C107.205 52.9946 107.665 53.0699 108.101 53.2233C108.488 53.3612 108.846 53.5704 109.156 53.84C109.448 54.1006 109.685 54.4162 109.855 54.7687C110.03 55.1249 110.14 55.51 110.178 55.9054H108.495C108.406 55.4833 108.176 55.1045 107.841 54.8318C107.644 54.6826 107.419 54.5737 107.18 54.5116C106.94 54.4494 106.69 54.4353 106.445 54.4698C106.2 54.5043 105.965 54.5869 105.751 54.7127C105.538 54.8386 105.352 55.0053 105.204 55.2033C104.879 55.8493 104.71 56.5624 104.71 57.2855C104.71 58.0085 104.879 58.7216 105.204 59.3676C105.363 59.6127 105.584 59.8108 105.846 59.9414C106.107 60.0721 106.398 60.1305 106.69 60.1106C107.128 60.1333 107.558 59.9885 107.893 59.7056C108.221 59.3938 108.44 58.9849 108.517 58.5392L110.204 58.5429Z" fill="#435761"/>
<path d="M113.492 61.4588C113.049 61.4654 112.609 61.3871 112.195 61.2285C111.832 61.086 111.504 60.8659 111.235 60.5836C110.965 60.3012 110.76 59.9635 110.635 59.594C110.495 59.1854 110.425 58.7555 110.431 58.3235C110.425 57.8871 110.497 57.4533 110.642 57.0419C110.774 56.6723 110.981 56.3344 111.252 56.05C111.523 55.7719 111.851 55.5553 112.214 55.4148C112.622 55.2604 113.056 55.1847 113.492 55.1919C113.922 55.185 114.349 55.2607 114.751 55.4148C115.113 55.5532 115.44 55.7698 115.708 56.0491C115.977 56.3285 116.18 56.6636 116.304 57.0307C116.586 57.8682 116.586 58.775 116.304 59.6125C116.173 59.9794 115.968 60.3157 115.702 60.6007C115.432 60.8795 115.105 61.0963 114.744 61.2359C114.344 61.389 113.919 61.4647 113.492 61.4588ZM113.492 60.1401C114.45 60.1401 114.933 59.5345 114.933 58.3235C114.933 57.1124 114.45 56.5218 113.492 56.5218C112.533 56.5218 112.05 57.1236 112.05 58.3235C112.05 59.5233 112.533 60.1401 113.492 60.1401Z" fill="#435761"/>
<path d="M120.899 61.3025V57.6954C120.935 57.3671 120.853 57.0366 120.669 56.763C120.56 56.6725 120.434 56.6045 120.299 56.5631C120.164 56.5216 120.022 56.5075 119.881 56.5215C119.069 56.5215 118.661 56.9772 118.659 57.8886V61.3025H117.084V55.3587H118.57V56.228C118.74 55.9076 118.997 55.6421 119.313 55.4628C119.679 55.2752 120.087 55.1857 120.498 55.2027C120.765 55.1997 121.032 55.2424 121.285 55.3291C121.517 55.4071 121.73 55.5337 121.909 55.7006C122.087 55.879 122.227 56.0912 122.322 56.3246C122.426 56.5971 122.477 56.8873 122.47 57.1791V61.3062L120.899 61.3025Z" fill="#435761"/>
<path d="M126.549 57.38H128.013V59.074C128.014 59.3804 127.966 59.6852 127.872 59.9767C127.781 60.258 127.633 60.5173 127.437 60.7382C127.232 60.9673 126.978 61.1477 126.694 61.2658C126.351 61.4031 125.983 61.4688 125.613 61.4589C125.233 61.4696 124.854 61.4039 124.499 61.2658C124.217 61.1468 123.964 60.9695 123.756 60.7456C123.559 60.5263 123.413 60.2663 123.329 59.9841C123.238 59.6853 123.193 59.3748 123.195 59.0628V53.7395H124.744V55.348H128.035V56.4624H124.744V58.9068C124.726 59.2136 124.8 59.5189 124.956 59.7836C125.036 59.8896 125.142 59.9736 125.263 60.0275C125.385 60.0815 125.518 60.1036 125.65 60.0918C125.783 60.1022 125.916 60.0799 126.038 60.0268C126.159 59.9737 126.266 59.8914 126.349 59.7873C126.513 59.5323 126.591 59.2316 126.572 58.9291L126.549 57.38Z" fill="#435761"/>
<path d="M128.689 54.6384V53.1748H130.264V54.6384H128.689ZM128.689 61.3251V55.3814H130.264V61.3251H128.689Z" fill="#435761"/>
<path d="M134.789 61.3029V57.6958C134.825 57.3675 134.743 57.037 134.558 56.7634C134.45 56.6727 134.324 56.6047 134.189 56.5632C134.054 56.5217 133.912 56.5077 133.771 56.5219C132.956 56.5219 132.549 56.9776 132.549 57.889V61.3029H130.977V55.3591H132.463V56.2284C132.632 55.9071 132.89 55.6413 133.206 55.4632C133.823 55.1705 134.528 55.1228 135.179 55.3295C135.41 55.4066 135.622 55.5334 135.799 55.701C135.978 55.8784 136.118 56.0909 136.212 56.325C136.317 56.5972 136.369 56.8875 136.364 57.1795V61.3066L134.789 61.3029Z" fill="#435761"/>
<path d="M138.503 58.7249C138.507 59.1186 138.646 59.499 138.897 59.8021C139.014 59.9335 139.159 60.0373 139.321 60.1061C139.482 60.1748 139.658 60.2068 139.833 60.1997C140.073 60.206 140.31 60.1455 140.517 60.0251C140.609 59.973 140.689 59.9026 140.753 59.8183C140.817 59.734 140.863 59.6374 140.888 59.5347H142.523C142.369 60.1026 142.027 60.6015 141.553 60.9501C141.072 61.2874 140.495 61.4619 139.908 61.4479C137.926 61.4479 136.936 60.3669 136.936 58.2048C136.929 57.7809 136.995 57.3588 137.129 56.9566C137.248 56.603 137.439 56.2778 137.69 56.0019C137.94 55.7322 138.249 55.5238 138.593 55.3927C138.983 55.2449 139.398 55.173 139.815 55.1809C140.207 55.1547 140.601 55.2207 140.963 55.3735C141.326 55.5264 141.647 55.762 141.902 56.0614C142.373 56.6508 142.608 57.5386 142.608 58.7249H138.503ZM140.985 57.733C140.98 57.5359 140.942 57.3409 140.87 57.1572C140.806 57.0038 140.714 56.8638 140.599 56.7448C140.487 56.6382 140.354 56.556 140.209 56.5034C140.066 56.4518 139.915 56.4254 139.763 56.4254C139.61 56.424 139.459 56.4539 139.318 56.5133C139.178 56.5727 139.051 56.6604 138.945 56.7709C138.703 57.0337 138.563 57.3754 138.552 57.733H140.985Z" fill="#435761"/>
<path d="M146.981 61.3029V57.6958C147.017 57.3675 146.935 57.037 146.75 56.7634C146.642 56.6727 146.516 56.6047 146.381 56.5632C146.246 56.5217 146.104 56.5077 145.963 56.5219C145.148 56.5219 144.741 56.9776 144.741 57.889V61.3029H143.169V55.3591H144.655V56.2284C144.824 55.9071 145.082 55.6413 145.398 55.4632C146.015 55.1705 146.72 55.1228 147.371 55.3295C147.602 55.4066 147.814 55.5334 147.991 55.701C148.17 55.8784 148.31 56.0909 148.404 56.325C148.509 56.5972 148.561 56.8875 148.556 57.1795V61.3066L146.981 61.3029Z" fill="#435761"/>
<path d="M152.613 57.38H154.076V59.074C154.078 59.3802 154.032 59.685 153.939 59.9767C153.848 60.2655 153.695 60.5307 153.49 60.7535C153.285 60.9763 153.034 61.1513 152.754 61.2658C152.409 61.4027 152.04 61.4684 151.669 61.4589C151.288 61.4693 150.91 61.4036 150.555 61.2658C150.273 61.1472 150.02 60.9698 149.812 60.7456C149.614 60.5265 149.467 60.2665 149.381 59.9841C149.291 59.6853 149.246 59.3748 149.247 59.0628V53.7395H150.796V55.348H154.087V56.4624H150.796V58.9068C150.778 59.2136 150.852 59.5189 151.008 59.7836C151.089 59.8897 151.195 59.9736 151.317 60.0275C151.439 60.0814 151.573 60.1035 151.706 60.0918C151.838 60.1023 151.971 60.0799 152.092 60.0268C152.213 59.9736 152.319 59.8914 152.401 59.7873C152.565 59.5323 152.643 59.2316 152.624 58.9291L152.613 57.38Z" fill="#435761"/>
<path d="M158.3 57.1492C158.294 57.0315 158.263 56.9164 158.209 56.8114C158.155 56.7064 158.08 56.614 157.988 56.5401C157.745 56.405 157.467 56.3442 157.189 56.3654C156.954 56.3539 156.718 56.3919 156.498 56.4768C156.425 56.507 156.363 56.5586 156.32 56.6249C156.277 56.6913 156.255 56.7692 156.257 56.8483C156.254 56.9318 156.276 57.0143 156.319 57.086C156.361 57.1578 156.424 57.2158 156.498 57.2533C156.728 57.3739 156.971 57.4662 157.223 57.5282C157.565 57.6248 157.884 57.7102 158.192 57.7882C158.467 57.8532 158.738 57.935 159.002 58.0333C159.293 58.1387 159.55 58.3211 159.745 58.5609C159.927 58.8298 160.016 59.1507 159.998 59.4747C160.012 59.7521 159.959 60.0287 159.844 60.2814C159.729 60.5341 159.555 60.7555 159.337 60.9272C158.766 61.3118 158.084 61.4949 157.397 61.4473C156.648 61.4972 155.903 61.293 155.284 60.8678C155.055 60.693 154.869 60.4683 154.74 60.2108C154.611 59.9533 154.543 59.6698 154.541 59.3819H156.16C156.154 59.5098 156.181 59.6372 156.238 59.7517C156.295 59.8663 156.381 59.9641 156.487 60.0357C156.759 60.2031 157.075 60.2834 157.394 60.266C157.648 60.2718 157.902 60.2237 158.137 60.1248C158.233 60.0894 158.315 60.0242 158.372 59.9387C158.429 59.8532 158.457 59.7519 158.452 59.6493C158.457 59.554 158.432 59.4596 158.381 59.3791C158.33 59.2985 158.255 59.2359 158.166 59.1998C157.95 59.1024 157.725 59.0252 157.494 58.9695C156.996 58.8506 156.591 58.7392 156.287 58.6426C156.013 58.562 155.752 58.4445 155.51 58.2934C155.262 58.1502 155.059 57.9405 154.923 57.6879C154.813 57.4558 154.757 57.2017 154.76 56.9449C154.759 56.7044 154.804 56.466 154.894 56.2429C154.987 56.021 155.137 55.8275 155.328 55.6819C155.562 55.5084 155.827 55.3822 156.108 55.3104C156.487 55.2173 156.877 55.1736 157.267 55.1804C158.129 55.1804 158.764 55.3451 159.173 55.6745C159.382 55.857 159.55 56.0819 159.665 56.3343C159.78 56.5866 159.841 56.8606 159.842 57.1381L158.3 57.1492Z" fill="#435761"/>
</g>
<defs>
<clipPath id="clip0_140_1689">
<rect width="161.37" height="63.13" fill="white"/>
</clipPath>
<clipPath id="clip1_140_1689">
<rect width="9" height="8" fill="white" transform="translate(74 54)"/>
</clipPath>
</defs>
</svg>
