<svg width="131" height="70" viewBox="0 0 131 70" fill="none" xmlns="http://www.w3.org/2000/svg">
<g clip-path="url(#clip0_140_416)">
<path d="M59.42 0.219851C58.3284 0.202043 57.2516 0.474721 56.3 1.00989C55.0899 1.59521 54.0739 2.51661 53.3734 3.66394C52.673 4.81128 52.3176 6.136 52.35 7.47986C52.31 18.1932 52.31 28.9 52.35 39.6C52.3784 41.309 52.9882 42.9573 54.0789 44.2733C55.1695 45.5894 56.6759 46.4947 58.35 46.84C58.6914 46.8759 59.0272 46.9531 59.35 47.07H37.85V46.9799C38.36 46.8999 38.85 46.8399 39.37 46.7199C40.6381 46.4321 41.7986 45.7911 42.7172 44.8707C43.6357 43.9504 44.2747 42.7885 44.56 41.5199C44.7901 40.6796 44.9011 39.811 44.89 38.9398C44.89 26.6532 44.89 14.3599 44.89 2.05994C44.8881 1.65557 44.9523 1.25366 45.08 0.869998C45.1594 0.636476 45.3083 0.432813 45.5067 0.286258C45.705 0.139702 45.9435 0.0571871 46.19 0.0499295C46.3498 0.0399975 46.5101 0.0399975 46.67 0.0499295H58.76C58.96 0.0499295 59.15 0.0499295 59.35 0.0499295L59.42 0.219851Z" fill="#16548A"/>
<path d="M0.390015 0.0400518C0.600015 0.0400518 0.81002 0.0400518 1.02002 0.0400518H13.02C13.6458 0.0119864 14.2642 0.185283 14.7843 0.534437C15.3044 0.88359 15.6989 1.39016 15.91 1.97999C18.17 7.27999 20.46 12.5801 22.73 17.8801C25.42 24.1301 28.09 30.3801 30.79 36.6301C30.8737 36.7996 30.9173 36.986 30.9173 37.1751C30.9173 37.3641 30.8737 37.5505 30.79 37.72C29.46 40.72 28.17 43.7201 26.86 46.6401C26.8 46.8001 26.71 46.95 26.57 47.24C26.43 46.96 26.34 46.8202 26.27 46.6602L16.73 24.4302C14.1766 18.4835 11.62 12.5334 9.06 6.58009C8.57493 5.23624 7.80303 4.01421 6.79797 2.99879C5.79291 1.98337 4.5788 1.19878 3.23999 0.699964C2.32602 0.450116 1.39759 0.256587 0.459961 0.12013L0.390015 0.0400518Z" fill="#16548A"/>
<path d="M110.49 23L112 24C113.76 25.3712 115.138 27.1723 116 29.23C118 33.23 120 37.23 122.06 41.23C122.958 43.0422 124.221 44.6492 125.77 45.95C126.383 46.3885 127.024 46.7862 127.69 47.1401C127.553 47.1486 127.417 47.1486 127.28 47.1401C123.9 47.1401 120.52 47.1401 117.15 47.1401C116.963 47.1599 116.774 47.1138 116.617 47.0098C116.461 46.9057 116.345 46.7502 116.29 46.5701C114.42 42.4201 112.62 38.2402 110.61 34.1602C109.327 31.669 107.895 29.2577 106.32 26.9399C105.389 25.4044 103.948 24.244 102.25 23.6602L103.46 23.5C105.301 23.3274 107.067 22.6851 108.588 21.6345C110.11 20.584 111.336 19.1603 112.15 17.5C112.854 16.1948 113.295 14.7635 113.445 13.2881C113.596 11.8127 113.455 10.322 113.03 8.90112C112.605 7.48028 111.904 6.15712 110.967 5.00732C110.03 3.85753 108.876 2.90354 107.57 2.19995C105.996 1.36051 104.281 0.818278 102.51 0.600098C101.19 0.420098 99.86 0.290088 98.51 0.0900879C98.6653 0.060279 98.8222 0.0401811 98.98 0.0300293C102.21 0.100029 105.45 0.0300488 108.66 0.300049C111.52 0.419387 114.291 1.33349 116.66 2.93994C117.846 3.76975 118.847 4.83774 119.597 6.07568C120.348 7.31363 120.833 8.69454 121.02 10.1301C121.456 12.5728 121.069 15.0909 119.92 17.29C119.215 18.6338 118.222 19.8056 117.012 20.7217C115.802 21.6378 114.405 22.2757 112.92 22.5901C112.09 22.7501 111.31 22.81 110.49 23Z" fill="#16548A"/>
<path d="M99.17 47.0901H76.9V46.96C77.27 46.96 77.65 46.9101 78.02 46.8701C80.18 46.6301 82.36 45.67 83.02 42.98C83.2999 41.7159 83.1702 40.3955 82.65 39.21C81.25 35.5966 79.8267 31.9935 78.38 28.4001C75.78 21.9601 73.18 15.5234 70.58 9.09009C70.4853 8.82839 70.4853 8.54172 70.58 8.28003C71.7133 5.67336 72.8567 3.06997 74.01 0.469971C74.09 0.289971 74.29 0.170029 74.44 0.0300293C74.58 0.190029 74.8 0.330029 74.88 0.530029L81.15 15.99C84.03 23.08 86.87 30.19 89.82 37.25C90.9889 40.2174 92.8066 42.8859 95.14 45.0601C96.1704 46.0828 97.5098 46.7368 98.95 46.9202C99.0212 46.9355 99.0914 46.9554 99.16 46.98L99.17 47.0901Z" fill="#16548A"/>
<path d="M0.380005 46.96C0.769735 46.9319 1.15719 46.8785 1.53998 46.8C2.96467 46.5086 4.26965 45.7977 5.28717 44.7588C6.30469 43.7199 6.98826 42.4004 7.25 40.97C7.5 39.85 7.58997 38.69 7.77997 37.55C7.77997 37.41 7.98002 37.2902 8.08002 37.1602C8.16002 37.2802 8.29001 37.39 8.32001 37.51C8.57055 39.0305 8.90438 40.5361 9.32001 42.02C9.71047 43.2281 10.4156 44.3104 11.3629 45.1558C12.3101 46.0011 13.4654 46.5791 14.71 46.8301C14.8898 46.8403 15.0701 46.8403 15.25 46.8301C15.4293 46.8544 15.5987 46.927 15.74 47.04H0.390015L0.380005 46.96Z" fill="url(#paint0_linear_140_416)"/>
<path d="M11.93 67.2301C10.9281 68.1793 9.67005 68.8142 8.31128 69.056C6.95251 69.2978 5.55262 69.136 4.28479 68.5907C3.01696 68.0454 1.93679 67.1406 1.1778 65.9879C0.418797 64.8352 0.0142822 63.4852 0.0142822 62.1051C0.0142822 60.725 0.418797 59.3752 1.1778 58.2225C1.93679 57.0699 3.01696 56.1648 4.28479 55.6195C5.55262 55.0742 6.95251 54.9126 8.31128 55.1544C9.67005 55.3962 10.9281 56.0309 11.93 56.9801L10.31 58.6901C9.64205 58.0556 8.80271 57.6311 7.89587 57.4689C6.98904 57.3066 6.05452 57.4138 5.20801 57.7772C4.3615 58.1407 3.64018 58.7445 3.1333 59.5138C2.62642 60.283 2.35626 61.1839 2.35626 62.1051C2.35626 63.0263 2.62642 63.9274 3.1333 64.6966C3.64018 65.4659 4.3615 66.0698 5.20801 66.4332C6.05452 66.7967 6.98904 66.9038 7.89587 66.7416C8.80271 66.5793 9.64205 66.1546 10.31 65.5201L11.93 67.2301Z" fill="#2BB3D8"/>
<path d="M22.9 57.4102V60.9399H28.36V63.29H22.9V66.8101H29.34V69.1602H20.55V55.04H29.34V57.4001L22.9 57.4102Z" fill="#2BB3D8"/>
<path d="M48.96 69.1702H46.1L42.05 63.2901H40.3101V69.1702H37.9501V55.0501H44.03C45.0535 55.0471 46.0414 55.4252 46.8015 56.1106C47.5615 56.7961 48.0392 57.7397 48.1415 58.7581C48.2439 59.7764 47.9635 60.7964 47.355 61.6194C46.7466 62.4424 45.8536 63.0093 44.85 63.21L48.96 69.1702ZM44.03 60.94C44.273 60.9583 44.5171 60.9264 44.7471 60.846C44.9771 60.7656 45.188 60.6386 45.3666 60.4729C45.5453 60.3072 45.6878 60.1064 45.7852 59.8831C45.8827 59.6598 45.933 59.4187 45.933 59.1751C45.933 58.9314 45.8827 58.6904 45.7852 58.4671C45.6878 58.2438 45.5453 58.0431 45.3666 57.8775C45.188 57.7118 44.9771 57.5846 44.7471 57.5042C44.5171 57.4238 44.273 57.3919 44.03 57.4102H40.3101V60.94H44.03Z" fill="#2BB3D8"/>
<path d="M68.49 67.2301C67.4881 68.1793 66.23 68.8142 64.8713 69.056C63.5125 69.2978 62.1126 69.136 60.8448 68.5907C59.577 68.0454 58.4968 67.1406 57.7378 65.9879C56.9788 64.8352 56.5743 63.4852 56.5743 62.1051C56.5743 60.725 56.9788 59.3752 57.7378 58.2225C58.4968 57.0699 59.577 56.1648 60.8448 55.6195C62.1126 55.0742 63.5125 54.9126 64.8713 55.1544C66.23 55.3962 67.4881 56.0309 68.49 56.9801L66.88 58.6901C66.2121 58.0556 65.3727 57.6311 64.4659 57.4689C63.559 57.3066 62.6245 57.4138 61.778 57.7772C60.9315 58.1407 60.2102 58.7445 59.7033 59.5138C59.1964 60.283 58.9263 61.1839 58.9263 62.1051C58.9263 63.0263 59.1964 63.9274 59.7033 64.6966C60.2102 65.4659 60.9315 66.0698 61.778 66.4332C62.6245 66.7967 63.559 66.9038 64.4659 66.7416C65.3727 66.5793 66.2121 66.1546 66.88 65.5201L68.49 67.2301Z" fill="#2BB3D8"/>
<path d="M87.95 69.1702H85.4L84.4 66.8301H79.57L78.57 69.1702H76.02L82.02 54.9399L87.95 69.1702ZM83.45 64.48L82.02 61.05L80.59 64.48H83.45Z" fill="#2BB3D8"/>
<path d="M107.75 55.05V69.23L98.93 60.6001V69.1702H96.57V55L105.4 63.6301V55.05H107.75Z" fill="#2BB3D8"/>
<path d="M130.49 62.1201C130.488 63.516 130.072 64.8799 129.295 66.0396C128.518 67.1992 127.415 68.1027 126.125 68.6355C124.835 69.1683 123.415 69.3067 122.046 69.0332C120.678 68.7597 119.421 68.0864 118.434 67.0986C117.448 66.1109 116.777 64.8529 116.505 63.4836C116.233 62.1144 116.374 60.6955 116.908 59.406C117.443 58.1165 118.348 57.0146 119.509 56.2393C120.67 55.4639 122.034 55.0501 123.43 55.05C124.358 55.05 125.277 55.233 126.134 55.5884C126.991 55.9438 127.77 56.4647 128.426 57.1213C129.081 57.778 129.601 58.5576 129.955 59.4153C130.31 60.273 130.491 61.1921 130.49 62.1201ZM128.14 62.1201C128.144 61.1852 127.869 60.2701 127.352 59.4917C126.834 58.7133 126.096 58.1065 125.232 57.7488C124.368 57.391 123.418 57.2985 122.501 57.4829C121.585 57.6673 120.744 58.1203 120.085 58.7842C119.427 59.4481 118.981 60.2931 118.805 61.2112C118.628 62.1293 118.729 63.0792 119.094 63.9399C119.459 64.8006 120.072 65.533 120.855 66.0442C121.638 66.5553 122.555 66.822 123.49 66.8101C124.727 66.7969 125.909 66.2977 126.781 65.4202C127.653 64.5426 128.145 63.3572 128.15 62.1201H128.14Z" fill="#2BB3D8"/>
<path d="M61.24 31.5599C62.6703 30.7814 64.2823 30.3981 65.91 30.4498C68.19 30.6898 71.77 31.4498 71.77 31.4498C69.9941 30.6601 68.1665 29.9919 66.3 29.4498C65.3418 29.2232 64.3366 29.3053 63.4278 29.6842C62.519 30.0632 61.7533 30.7197 61.24 31.5599Z" fill="url(#paint1_linear_140_416)"/>
<path d="M73.49 28.5C73.49 28.5 77.71 30.9901 81.19 30.8501C82.0043 30.8301 82.7977 30.5884 83.4849 30.1511C84.1721 29.7138 84.7272 29.0973 85.0902 28.3682C85.4533 27.639 85.6106 26.8246 85.5454 26.0127C85.4802 25.2008 85.1948 24.4219 84.72 23.76C84.7839 24.4092 84.7082 25.0646 84.4977 25.6821C84.2873 26.2996 83.9471 26.865 83.5 27.3401C82.2856 28.2094 80.8656 28.7471 79.38 28.9001C79.38 28.9001 75.72 29.46 73.49 28.5Z" fill="#16548A"/>
<path d="M60.77 30.97C61.1544 30.2673 61.7094 29.6729 62.384 29.2412C63.0586 28.8095 63.831 28.5546 64.63 28.5C64.63 28.5 66.56 28.36 70.17 29.96C73.78 31.56 76.05 32.4001 77.87 32.6101C80.3974 32.8563 82.925 32.1423 84.95 30.6101C85.6367 30.0723 86.2031 29.3968 86.613 28.627C87.0229 27.8571 87.2672 27.01 87.33 26.1401C87.3752 24.9552 86.9977 23.7927 86.265 22.8604C85.5323 21.928 84.4921 21.2864 83.33 21.05C83.33 21.05 85.66 22.44 85.81 24.3C85.9762 25.1646 85.8735 26.0593 85.516 26.8638C85.1584 27.6683 84.5631 28.344 83.81 28.8C82.3185 29.7432 80.5727 30.2042 78.81 30.1201C78.81 30.1201 77.81 30.12 73.63 28.7C69.45 27.28 67.98 26.82 64.97 27.05C61.96 27.28 60.73 30.55 60.77 30.97Z" fill="#2BB3D8"/>
<path d="M84.41 23.98C84.6459 24.4929 84.7058 25.0697 84.58 25.6201C84.34 26.4701 85.17 25.6201 85.17 25.6201V24.1201L84.41 23.98Z" fill="#16548A"/>
</g>
<defs>
<linearGradient id="paint0_linear_140_416" x1="0.380005" y1="42.1201" x2="15.75" y2="42.1201" gradientUnits="userSpaceOnUse">
<stop stop-color="#E8CE32"/>
<stop offset="1" stop-color="#E59630"/>
</linearGradient>
<linearGradient id="paint1_linear_140_416" x1="61.24" y1="30.4699" x2="71.77" y2="30.4699" gradientUnits="userSpaceOnUse">
<stop stop-color="#E8CE32"/>
<stop offset="1" stop-color="#E59630"/>
</linearGradient>
<clipPath id="clip0_140_416">
<rect width="130.5" height="69.22" fill="white"/>
</clipPath>
</defs>
</svg>
