<svg width="141" height="73" viewBox="0 0 141 73" fill="none" xmlns="http://www.w3.org/2000/svg">
<path d="M25.2468 20.8145C22.6696 14.8162 20.0937 8.81792 17.5192 2.81964C17.2807 2.15266 16.8343 1.57992 16.2457 1.18584C15.6571 0.791757 14.9575 0.597167 14.25 0.630746C9.73512 0.614621 5.22028 0.614621 0.705444 0.630746C0.467608 0.630746 0.233804 0.658966 0 0.671059L0.0322496 0.735558C1.09064 0.890827 2.13814 1.11298 3.16845 1.40069C4.49548 1.84574 5.71093 2.57172 6.73195 3.52911V44.2433L10.5172 43.0622V9.77733C13.1696 15.9261 15.8127 22.0789 18.4463 28.2358C20.0427 31.9524 21.6376 35.6705 23.2313 39.3898C26.35 38.75 29.5103 38.3324 32.6882 38.1402C30.2051 32.3623 27.7246 26.587 25.2468 20.8145Z" fill="#F4A42F"/>
<path d="M58.8055 9.07189C58.8055 5.7946 60.3333 3.30338 63.2679 1.74334C64.3489 1.14384 65.5672 0.835465 66.8032 0.848436V0.64688C66.5815 0.64688 66.3598 0.610596 66.1421 0.610596H52.4363C52.2549 0.610596 52.0695 0.610596 51.8881 0.642845C51.6999 0.658134 51.5158 0.70587 51.3439 0.783936C50.7748 0.966841 50.2542 1.27564 49.8208 1.68739C49.3874 2.09914 49.0524 2.60326 48.8406 3.16229L34.4939 38.0515C35.8604 38.0072 37.231 37.9991 38.5935 38.0515L50.4168 9.30569C50.4168 19.327 50.4168 29.347 50.4168 39.3657C53.2629 39.9412 56.0659 40.7129 58.8055 41.6755C58.7759 30.8076 58.7759 19.9397 58.8055 9.07189Z" fill="#F4A42F"/>
<path d="M137.646 47.2021C135.308 42.7155 133.067 38.1805 130.793 33.6656C129.656 31.4203 128.451 29.2314 126.29 27.7439C125.75 27.3771 125.194 27.0304 124.585 26.6354C125.537 26.4661 126.419 26.3492 127.282 26.1436C130.801 25.3092 133.51 23.3218 135.219 20.1453C136.526 17.6604 136.97 14.8115 136.481 12.0468C136.269 10.4224 135.721 8.8598 134.873 7.45859C134.024 6.05738 132.893 4.84821 131.551 3.90802C128.858 1.97712 125.726 1.1709 122.513 0.916942C119.768 0.703293 117.007 0.687169 114.245 0.658951V0.638795H112.399H111.557C111.499 0.634821 111.441 0.634821 111.383 0.638795H110.44V53.4906C109.248 53.1138 108.159 52.4683 107.256 51.6041C104.539 49.1451 102.636 46.0895 101.241 42.7638C97.8993 34.7742 94.6866 26.7281 91.4254 18.7022C89.0578 12.8732 86.6915 7.04019 84.3266 1.20315C84.1896 0.989594 84.021 0.797975 83.8268 0.634766C83.6615 0.800041 83.4236 0.937095 83.343 1.13462C82.1498 3.82202 80.9714 6.50943 79.8077 9.19683L79.6667 9.53948C79.6062 9.6846 79.5417 9.82972 79.4772 9.97484C79.4667 10.0037 79.4587 10.0334 79.453 10.0635L65.3199 44.4287C66.4594 45.0011 67.572 45.6098 68.6577 46.2548L81.3194 15.4692C83.6467 21.231 85.9726 26.9888 88.2973 32.7425C89.9339 36.8112 91.5463 40.8907 93.1346 44.981C93.7204 46.3218 93.8617 47.8149 93.5377 49.2418C92.7315 52.2893 90.2765 53.3737 87.8377 53.6478C87.4346 53.6962 86.9912 53.7204 86.5679 53.7526V53.8292C95.6315 55.9812 105.04 56.2555 114.213 54.6355V1.09834C114.645 1.15074 115.076 1.20315 115.507 1.26362C117.514 1.50948 119.457 2.1245 121.239 3.07761C122.718 3.87287 124.025 4.95172 125.086 6.25247C126.147 7.55322 126.942 9.05036 127.424 10.6583C127.906 12.2663 128.067 13.9535 127.896 15.6235C127.726 17.2936 127.228 18.9137 126.432 20.3912C124.343 24.3135 121.094 26.6838 116.604 27.1957C116.14 27.2481 115.681 27.3126 115.221 27.3731C117.145 28.0328 118.777 29.3466 119.833 31.0857C121.609 33.7115 123.225 36.4429 124.67 39.2649C126.472 42.8928 128.125 46.6297 129.781 50.3504L137.965 47.8027C137.856 47.5931 137.747 47.3996 137.646 47.2021Z" fill="#2A91BA"/>
<path d="M20.4539 56.6713C19.922 56.6511 19.3984 56.5322 18.91 56.3206L19.2244 54.813C19.6482 54.9951 20.0989 55.1067 20.5587 55.1435C21.0399 55.19 21.5254 55.1614 21.9978 55.0589C22.399 54.9955 22.7769 54.8288 23.0943 54.5752C23.1929 54.4911 23.2668 54.3818 23.3079 54.2589C23.3491 54.1361 23.3561 54.0043 23.3281 53.8778C23.3082 53.7906 23.2689 53.7091 23.213 53.6393C23.1572 53.5695 23.0863 53.5132 23.0056 53.4747C22.8094 53.3762 22.5957 53.3173 22.3767 53.3013C22.1308 53.2772 21.8043 53.261 21.3972 53.257C20.873 53.2529 20.3494 53.2193 19.8291 53.1562C19.4166 53.0969 19.0256 52.9347 18.6923 52.6846C18.3269 52.3926 18.0816 51.9766 18.003 51.5156C17.9009 51.0752 17.9346 50.6142 18.0997 50.1934C18.293 49.7353 18.6151 49.3432 19.0269 49.0646C19.554 48.7017 20.1514 48.4531 20.7804 48.335C21.2761 48.2229 21.7841 48.1742 22.2921 48.1899C22.76 48.1955 23.2241 48.2758 23.6667 48.4277L23.4087 49.9354C22.6617 49.686 21.862 49.6387 21.0908 49.7983C20.6932 49.8571 20.3209 50.0293 20.0185 50.2941C19.9204 50.3862 19.8482 50.5024 19.8093 50.6312C19.7704 50.76 19.7661 50.8968 19.7968 51.0278C19.8244 51.1595 19.8925 51.2792 19.9915 51.3703C20.0905 51.4614 20.2155 51.5192 20.3491 51.5357C20.8026 51.6169 21.2631 51.652 21.7237 51.6405C22.2479 51.6428 22.7716 51.6765 23.2918 51.7413C23.7015 51.7988 24.0906 51.9567 24.4245 52.2008C24.7888 52.488 25.0331 52.9004 25.1098 53.3578C25.2087 53.7963 25.1721 54.2546 25.005 54.6719C24.8076 55.1309 24.4831 55.524 24.0698 55.8047C23.538 56.1645 22.9387 56.4127 22.3082 56.5343C21.6996 56.6669 21.0754 56.7131 20.4539 56.6713Z" fill="#2A91BA"/>
<path d="M45.4225 53.7446L45.3096 55.2361L39.0856 54.7766L39.6822 46.7385L45.7571 47.186L45.6442 48.6815L41.4196 48.3671L41.2906 50.1126L45.0234 50.3867L44.9146 51.8338L41.1817 51.5597L41.0447 53.4181L45.4225 53.7446Z" fill="#2A91BA"/>
<path d="M63.3608 60.251L62.7804 57.5824L62.6957 57.5502L61.1961 56.9294L60.3375 59.0054L58.6122 58.2838L61.6839 50.8303L64.9088 52.1606C65.5053 52.3879 66.0456 52.7412 66.493 53.1966C66.8782 53.5825 67.1364 54.0769 67.2329 54.6137C67.3295 55.1504 67.2598 55.7037 67.0332 56.1997C66.8454 56.7105 66.5038 57.1504 66.0554 57.4587C65.607 57.767 65.074 57.9286 64.5298 57.921L65.2151 61.0048L63.3608 60.251ZM65.2796 54.3616C65.0355 53.98 64.6665 53.695 64.2356 53.5553L62.8287 52.9749L61.7605 55.5749L63.1673 56.1514C63.5769 56.3552 64.0455 56.4066 64.4895 56.2965C64.6702 56.2257 64.8349 56.1194 64.9737 55.9839C65.1126 55.8484 65.2229 55.6863 65.2981 55.5074C65.3732 55.3285 65.4118 55.1364 65.4114 54.9423C65.411 54.7483 65.3717 54.5563 65.2958 54.3777L65.2796 54.3616Z" fill="#2A91BA"/>
<path d="M84.6412 68.6637L84.1575 70.0826L78.2519 68.067L80.852 60.4321L86.6124 62.4074L86.1287 63.8223L82.1177 62.4477L81.5534 64.1045L85.0927 65.3138L84.621 66.6884L81.0817 65.4791L80.4771 67.2407L84.6412 68.6637Z" fill="#2A91BA"/>
<path d="M107.191 64.3503L107.332 72.4126L105.805 72.4408L101.697 67.6034L101.786 72.4972L99.9434 72.5295L99.7983 64.4672L101.342 64.4431L105.438 69.2804L105.349 64.3866L107.191 64.3503Z" fill="#2A91BA"/>
<path d="M124.549 68.3614C123.824 68.2287 123.149 67.8996 122.598 67.4101C122.177 67.0408 121.837 66.5896 121.596 66.084C121.356 65.5785 121.222 65.0292 121.202 64.4699C121.181 63.9106 121.275 63.3531 121.478 62.8314C121.681 62.3097 121.988 61.8349 122.38 61.436C122.942 60.8771 123.635 60.4682 124.396 60.2468C125.141 60.0002 125.937 59.9462 126.71 60.0896C127.442 60.2268 128.124 60.5608 128.681 61.0556C129.238 61.5505 129.65 62.1877 129.873 62.8988C130.096 63.61 130.121 64.3684 129.946 65.0928C129.771 65.8172 129.402 66.4803 128.878 67.011C128.315 67.5628 127.629 67.973 126.876 68.2078C126.124 68.4426 125.326 68.4952 124.549 68.3614ZM127.528 65.9871C127.825 65.6667 128.029 65.2706 128.116 64.8423C128.198 64.3841 128.168 63.9128 128.027 63.469C127.887 63.0253 127.641 62.6222 127.31 62.2946C126.994 61.9919 126.601 61.7825 126.173 61.6899C125.733 61.5976 125.275 61.6226 124.847 61.7625C124.414 61.8898 124.023 62.1306 123.714 62.4599C123.414 62.7789 123.209 63.1754 123.122 63.6047C123.034 64.0616 123.064 64.5336 123.211 64.9753C123.34 65.4232 123.584 65.8292 123.92 66.1524C124.235 66.4565 124.629 66.666 125.057 66.757C125.499 66.8532 125.958 66.8282 126.387 66.6845C126.821 66.5588 127.215 66.321 127.528 65.9952V65.9871Z" fill="#2A91BA"/>
<path d="M8.93712 58.2595C10.0013 58.2595 10.864 57.3968 10.864 56.3326C10.864 55.2684 10.0013 54.4058 8.93712 54.4058C7.87294 54.4058 7.01025 55.2684 7.01025 56.3326C7.01025 57.3968 7.87294 58.2595 8.93712 58.2595Z" fill="#2A91BA"/>
<path d="M139.073 62.1133C140.137 62.1133 141 61.2506 141 60.1864C141 59.1222 140.137 58.2595 139.073 58.2595C138.009 58.2595 137.146 59.1222 137.146 60.1864C137.146 61.2506 138.009 62.1133 139.073 62.1133Z" fill="#2A91BA"/>
</svg>
