<svg width="197" height="34" viewBox="0 0 197 34" fill="none" xmlns="http://www.w3.org/2000/svg">
<g clip-path="url(#clip0_140_1940)">
<g style="mix-blend-mode:multiply">
<path d="M18.75 17.4601C14.75 17.6501 15.58 17.57 15.51 14.37C15.51 12.59 15.51 10.81 15.51 8.58999C14.16 10.81 13.03 12.6599 11.91 14.5199C10.79 16.3799 9.27999 16.35 8.14999 14.62C7.09581 12.8621 5.93709 11.169 4.68002 9.54995C4.68002 11.62 4.68002 13.6999 4.68002 15.7699C4.68002 17.0999 4.23997 17.5599 2.87997 17.5399C-0.340029 17.4799 0.0399953 17.7201 0.0299953 14.7201C0.0299953 10.4201 0.0299953 6.11998 0.0299953 1.82998C0.0299953 0.69998 0.379978 0.310117 1.44998 0.470117C1.69166 0.510216 1.93834 0.510216 2.18002 0.470117C3.69002 0.190117 4.55 0.870078 5.28 2.18008C6.77 4.85008 8.43002 7.42008 10.12 10.1801C11.82 7.30008 13.42 4.58001 15.04 1.86001C15.77 0.63001 18.23 -0.140029 19.45 0.569971C20.36 1.08997 19.85 2.05999 19.93 2.83999C19.765 5.01924 19.7249 7.20621 19.81 9.39004C19.81 11.53 19.81 13.67 19.81 15.82C19.8766 16.177 19.8038 16.5462 19.6067 16.8512C19.4095 17.1563 19.1029 17.3742 18.75 17.4601Z" fill="#575756"/>
<path d="M88.9 17.7901C86.9001 17.8928 84.9055 17.5049 83.09 16.6602C81.89 16.1602 82.09 15.4101 82.55 14.5401C83.01 13.6701 83.16 12.35 84.63 12.99C86.3636 13.7825 88.2687 14.1264 90.17 13.99C91.03 13.92 91.77 13.6303 91.9 12.7303C92.03 11.8303 91.18 11.6202 90.56 11.4302C89.36 11.0602 88.12 10.7902 86.9 10.4302C83.58 9.60022 82.27 8.21006 82.28 5.52006C82.29 2.83006 84 0.990062 87.05 0.270062C89.6791 -0.295978 92.4169 -0.0732054 94.92 0.910199C95.81 1.2302 96.09 1.58012 95.66 2.58012C94.66 4.94012 94.66 4.97026 92.25 4.22026C91.1837 3.88769 90.0595 3.78203 88.95 3.9102C88.03 4.0102 87.22 4.31004 87.13 5.25004C87.04 6.19004 88.01 6.42016 88.74 6.62016C90.28 7.05016 91.87 7.34012 93.39 7.83012C94.2924 8.06382 95.0981 8.5763 95.6924 9.29448C96.2867 10.0127 96.6392 10.8999 96.7 11.8301C97.04 15.4601 93.93 17.4103 90.8 17.7303C90.17 17.8403 89.54 17.7901 88.9 17.7901Z" fill="#575756"/>
<path d="M46.34 8.75002C46.34 6.36002 46.34 3.96009 46.34 1.57009C46.34 0.770086 46.59 0.490213 47.43 0.450213C51.3 0.300213 51.3 0.270183 51.3 4.17018C51.3 6.95018 51.3 9.74004 51.3 12.52C51.3 13.44 51.6 13.7002 52.47 13.6702C54.32 13.6702 56.18 13.6702 58.03 13.6702C59.03 13.6702 59.5099 14.0201 59.5099 15.1201C59.5099 17.5401 59.51 17.5401 57.14 17.5401C54.14 17.5401 51.14 17.4901 48.21 17.5401C46.78 17.5401 46.32 16.9901 46.35 15.6301C46.41 13.3401 46.34 11.04 46.34 8.75002Z" fill="#575756"/>
<path d="M183.9 3.61005C182.98 8.18005 182.09 12.35 181.34 16.55C181.17 17.55 180.72 17.61 179.97 17.55C178.79 17.47 179.47 16.68 179.55 16.27C180.48 11.4 181.46 6.54012 182.43 1.68012C182.53 1.18012 182.43 0.559933 183.19 0.489933C183.504 0.445342 183.825 0.501909 184.105 0.651065C184.385 0.800222 184.611 1.03435 184.75 1.32001C185.92 3.40001 187.12 5.46998 188.32 7.53998L192.32 14.4802C192.89 11.6502 193.4 9.18015 193.89 6.71015C194.23 4.99015 194.57 3.26999 194.89 1.54999C195.03 0.729991 195.44 0.349991 196.28 0.549991C197.12 0.749991 196.8 1.46013 196.71 1.94013C195.79 6.66679 194.843 11.3901 193.87 16.1101C193.76 16.66 193.87 17.42 193 17.59C192.13 17.76 191.71 17.1002 191.35 16.4702C189.063 12.4702 186.78 8.49666 184.5 4.54999C184.41 4.27999 184.23 4.08005 183.9 3.61005Z" fill="#575756"/>
<path d="M171.05 0.200195C173.05 0.340195 175.1 0.610049 176.74 2.05005C177.07 2.33005 177.74 2.62015 177.01 3.15015C176.61 3.46015 176.34 4.25021 175.64 3.47021C173.8 1.47021 168.83 1.47 166.18 3.25C164.783 4.19841 163.7 5.53999 163.066 7.10474C162.432 8.66948 162.277 10.3871 162.62 12.04C163.29 14.86 166.49 16.5802 169.88 15.9602C172.64 15.4502 173.05 15.0601 173.6 12.3301C173.77 11.5201 173.91 10.7101 174.04 9.89014C174.17 9.07014 174.82 8.89 175.54 9C176.26 9.11 175.86 9.75015 175.79 10.1501C175.516 11.1836 175.322 12.2367 175.21 13.3C175.21 15.66 173.71 16.6202 171.77 17.1902C170.365 17.6897 168.864 17.8592 167.383 17.6858C165.902 17.5124 164.481 17.0007 163.23 16.1902C160.45 14.3102 159.71 9.92019 161.45 6.19019C163.34 2.15019 166.65 0.330195 171.05 0.200195Z" fill="#575756"/>
<path d="M121.8 17.51C120.19 17.51 118.58 17.46 116.97 17.51C116.03 17.51 115.8 17.3001 115.97 16.3701C116.97 11.8101 117.84 7.23015 118.77 2.66015C118.837 2.3299 118.883 1.99597 118.91 1.66015C118.99 0.78015 119.4 0.430179 120.34 0.440179C123.46 0.500179 126.58 0.440179 129.7 0.440179C130.11 0.440179 130.81 0.140169 130.84 0.930169C130.87 1.72017 130.34 1.93017 129.57 1.93017C127.08 1.93017 124.57 1.93017 122.11 1.93017C121.11 1.93017 120.59 2.16019 120.45 3.20019C120.274 4.50267 120.027 5.79446 119.71 7.07006C119.5 7.90006 119.71 8.07006 120.54 8.07006C122.63 8.07006 124.73 8.07006 126.83 8.07006C127.34 8.07006 128.23 7.64 128.24 8.76C128.25 9.88 127.46 9.55004 126.87 9.55004C124.72 9.55004 122.57 9.61004 120.43 9.55004C119.51 9.55004 119.14 9.83021 119 10.7202C118.76 12.2002 118.44 13.7201 118.11 15.1501C117.98 15.7601 118.11 15.9101 118.76 15.9001C121.29 15.9001 123.82 16.0401 126.35 15.8301C127.92 15.6901 128.35 16.07 127.98 17.02C127.73 17.62 127.29 17.4602 126.89 17.4702C125.18 17.4702 123.48 17.4702 121.77 17.4702L121.8 17.51Z" fill="#575756"/>
<path d="M142.85 0.220176C144.477 0.184239 146.094 0.483679 147.6 1.10006C148.24 1.35006 148.68 1.62996 148.26 2.49996C147.84 3.36996 147.38 3.00018 146.86 2.72018C145.001 1.77855 142.849 1.59917 140.86 2.22018C140.154 2.33397 139.508 2.68358 139.027 3.21212C138.545 3.74066 138.257 4.41681 138.21 5.13009C138.21 6.82009 139.46 7.32 140.69 7.79C141.92 8.26 143.36 8.71011 144.69 9.15011C147.99 10.2401 147.48 14.6502 145.37 16.2002C142.61 18.2002 137.18 18.13 134.44 16.09C133.69 15.53 134.1 15.1601 134.34 14.6401C134.72 13.8001 135.07 14.3901 135.42 14.6401C136.455 15.336 137.629 15.7967 138.861 15.9902C140.093 16.1837 141.352 16.1051 142.55 15.76C143.256 15.6443 143.903 15.2964 144.389 14.771C144.874 14.2456 145.17 13.573 145.23 12.8601C145.23 11.2601 144.07 10.75 142.83 10.32C141.59 9.89003 140.33 9.51001 139.11 9.05001C138.441 8.88665 137.833 8.53385 137.359 8.03365C136.886 7.53346 136.567 6.90728 136.44 6.23019C136.269 5.36269 136.353 4.46403 136.684 3.64376C137.014 2.82349 137.575 2.11689 138.3 1.61007C139.645 0.705069 141.229 0.221272 142.85 0.220176Z" fill="#575756"/>
<path d="M96.1399 17.5099C96.3357 17.0248 96.6828 16.6159 97.1296 16.3439C97.5764 16.0718 98.0991 15.9511 98.6199 15.9999C99.98 16.0347 101.341 15.9645 102.69 15.7899C103.822 15.6765 104.918 15.3249 105.904 14.7582C106.891 14.1915 107.747 13.4228 108.415 12.5021C109.084 11.5814 109.55 10.5296 109.784 9.41591C110.017 8.30224 110.012 7.15166 109.77 6.03994C109.24 3.56994 106.98 2.04012 103.77 1.98012C102.55 1.98012 101.34 1.98012 100.12 1.98012C99.5399 1.98012 99.3499 1.72007 99.3499 1.18007C99.3499 0.640075 99.5699 0.460123 100.06 0.480123C102.29 0.580123 104.54 0.209909 106.75 0.759909C108.376 1.15092 109.8 2.13113 110.746 3.51089C111.691 4.89065 112.092 6.57218 111.87 8.23012C111.16 14.0301 107.42 17.4199 101.59 17.5099C99.8099 17.5299 98.0599 17.5099 96.1399 17.5099Z" fill="#575756"/>
<path d="M157.41 1.08015L154.88 13.8502C154.7 14.7502 154.51 15.6501 154.36 16.5601C154.21 17.4701 153.63 17.6601 152.88 17.4901C152.13 17.3201 152.44 16.6903 152.53 16.2203C153.46 11.5103 154.37 6.79016 155.34 2.09016C155.48 1.40016 155.34 0.300277 156.65 0.460277C157.17 0.520277 157.65 0.52015 157.41 1.08015Z" fill="#575756"/>
<path d="M40.14 2.68021C37.45 0.0802138 34.14 -0.399874 30.65 0.340126C29.0709 0.599322 27.6027 1.31643 26.4276 2.40263C25.2525 3.48882 24.4223 4.89638 24.04 6.45023C23.6156 7.83234 23.5378 9.29757 23.8136 10.7168C24.0894 12.1361 24.7102 13.4656 25.6214 14.5882C26.5325 15.7108 27.7058 16.592 29.038 17.1538C30.3701 17.7157 31.8201 17.9411 33.26 17.8101H33.99C35.7537 17.7988 37.4742 17.2631 38.9326 16.2713C40.391 15.2794 41.5214 13.8762 42.18 12.24C42.8258 10.6238 42.9767 8.85212 42.6135 7.14994C42.2503 5.44776 41.3893 3.89206 40.14 2.68021ZM33.22 13.8301C31.969 13.7574 30.7945 13.2042 29.9417 12.2862C29.0888 11.3681 28.6234 10.1563 28.6428 8.90336C28.6621 7.65044 29.1647 6.4533 30.0456 5.56205C30.9264 4.6708 32.1174 4.15425 33.37 4.12016C34.5916 4.23338 35.7253 4.80338 36.5448 5.71635C37.3642 6.62931 37.8089 7.81784 37.7899 9.04447C37.771 10.2711 37.2898 11.4456 36.4426 12.3328C35.5953 13.22 34.4444 13.7547 33.22 13.8301Z" fill="#575756"/>
<path d="M79.7099 15.49C77.8499 11.26 75.9599 7.04004 74.1299 2.79004C73.1299 0.490039 73.1899 0.470215 70.6999 0.470215C68.2099 0.470215 68.08 0.470176 67.1 2.93018C66.92 3.38018 66.7 3.82002 66.5 4.27002C64.82 8.05002 63.1533 11.8335 61.5 15.6201C61.19 16.3101 60.8699 17.2102 61.8799 17.4202C63.03 17.6351 64.2099 17.6351 65.36 17.4202C66.29 17.2502 66.26 16.1001 66.54 15.3701C66.6263 14.9981 66.8513 14.673 67.1691 14.4612C67.4868 14.2494 67.8734 14.1669 68.25 14.2302C69.6113 14.3352 70.9786 14.3352 72.34 14.2302C73.72 14.1002 74.56 14.5002 74.87 15.9202C74.8891 16.1894 74.9682 16.451 75.1015 16.6858C75.2349 16.9205 75.419 17.1225 75.6405 17.2769C75.862 17.4312 76.1151 17.534 76.3815 17.5779C76.6479 17.6217 76.9207 17.6053 77.18 17.53C77.6161 17.5 78.0538 17.5 78.49 17.53C80.21 17.5 80.4099 17.15 79.7099 15.49ZM69.3 10.5901C68.46 10.6601 68.4999 10.39 68.7599 9.79004C69.3399 8.42004 69.88 7.03002 70.6 5.27002C71.34 7.16002 71.98 8.77007 72.69 10.5701C71.41 10.6101 70.34 10.5001 69.3 10.6101V10.5901Z" fill="#575756"/>
<path d="M43.5699 27.3801H44.0099V33.0901H43.5699V27.3801Z" fill="#575756"/>
<path d="M53.17 31.9001L52.1 30.53H51.73H50.47V31.8801H49.97V27.6101H51.73C52.227 27.5809 52.7196 27.718 53.1299 28C53.4072 28.2272 53.5859 28.553 53.6288 28.9089C53.6716 29.2648 53.5753 29.6235 53.36 29.9101C53.1557 30.1556 52.8793 30.3306 52.5699 30.4101L53.71 31.8701L53.17 31.9001ZM52.78 29.9001C52.8973 29.8049 52.9916 29.6844 53.0557 29.5476C53.1197 29.4107 53.152 29.2611 53.15 29.1101C53.1567 28.9583 53.1266 28.8072 53.0622 28.6696C52.9978 28.532 52.9009 28.412 52.78 28.32C52.4635 28.1121 52.0877 28.0137 51.71 28.04H50.47V30.1801H51.71C52.0883 30.1984 52.4627 30.0969 52.78 29.8901V29.9001Z" fill="#575756"/>
<path d="M59.4599 31.51V31.9001H56.1499V27.6101H59.4099V28H56.6999V29.51H59.1199V29.9001H56.6999V31.4802L59.4599 31.51Z" fill="#575756"/>
<path d="M62.26 31.79C61.9867 31.7133 61.7339 31.5768 61.52 31.3901L61.71 31.04C61.9091 31.2085 62.1405 31.3345 62.39 31.4101C62.6692 31.5099 62.9635 31.5606 63.26 31.56C63.587 31.5821 63.9135 31.5092 64.2 31.3501C64.296 31.2935 64.3759 31.2132 64.4319 31.1169C64.488 31.0206 64.5183 30.9114 64.52 30.8C64.5232 30.7225 64.5086 30.6452 64.4774 30.5742C64.4462 30.5031 64.3992 30.4402 64.34 30.3901C64.2217 30.2845 64.0818 30.2061 63.9301 30.1601C63.7042 30.0853 63.4737 30.0253 63.2401 29.9802C62.9514 29.9202 62.6674 29.8398 62.39 29.74C62.1878 29.6725 62.0056 29.5558 61.86 29.4001C61.7819 29.3155 61.7214 29.2163 61.6819 29.1081C61.6424 29 61.6248 28.885 61.63 28.77C61.6293 28.5582 61.6958 28.3517 61.82 28.1801C61.9693 27.9919 62.166 27.8468 62.39 27.76C62.7089 27.6387 63.0492 27.5843 63.39 27.6001C63.6533 27.5982 63.9157 27.6319 64.17 27.7002C64.4062 27.7591 64.6321 27.8536 64.84 27.9802L64.67 28.3401C64.4753 28.218 64.2628 28.1269 64.04 28.07C63.8279 28.0145 63.6093 27.9875 63.39 27.99C63.0662 27.9687 62.7432 28.0418 62.46 28.2002C62.3644 28.2588 62.2856 28.341 62.2313 28.4392C62.177 28.5373 62.149 28.6478 62.15 28.76C62.147 28.8365 62.1607 28.9128 62.1901 28.9836C62.2194 29.0544 62.2637 29.1181 62.32 29.1701C62.4463 29.2774 62.5924 29.3589 62.7501 29.4101L63.4401 29.5901C63.7212 29.6496 63.9983 29.7264 64.27 29.82C64.4764 29.8847 64.6625 30.002 64.8101 30.1601C64.8866 30.2433 64.9455 30.3412 64.9833 30.4477C65.0211 30.5543 65.037 30.6672 65.03 30.78C65.033 30.9891 64.9661 31.1933 64.84 31.3601C64.6944 31.5563 64.4919 31.7029 64.26 31.78C63.9407 31.8994 63.6007 31.9539 63.26 31.9402C62.921 31.9415 62.5837 31.8908 62.26 31.79Z" fill="#575756"/>
<path d="M67.4099 27.6101H67.8999V31.8701H67.4099V27.6101Z" fill="#575756"/>
<path d="M70.78 27.6101H72.6901C73.1415 27.6003 73.5893 27.6927 74.0001 27.8801C74.3581 28.0424 74.663 28.3023 74.88 28.6301C75.083 28.9647 75.1904 29.3485 75.1904 29.74C75.1904 30.1314 75.083 30.5154 74.88 30.8501C74.663 31.1778 74.3581 31.4378 74.0001 31.6001C73.5893 31.7875 73.1415 31.8798 72.6901 31.8701H70.78V27.6101ZM72.66 31.4802C73.0321 31.4898 73.4014 31.4144 73.7401 31.26C74.0272 31.124 74.2724 30.9135 74.45 30.6501C74.6226 30.3782 74.7129 30.062 74.71 29.74C74.7145 29.4208 74.624 29.1076 74.45 28.8401C74.2757 28.5713 74.0298 28.3567 73.7401 28.2202C73.4014 28.0658 73.0321 27.9903 72.66 28H71.27V31.4802H72.66Z" fill="#575756"/>
<path d="M80.9599 31.51V31.9001H77.6399V27.6101H80.8599V28H78.1399V29.51H80.5599V29.9001H78.1399V31.4802L80.9599 31.51Z" fill="#575756"/>
<path d="M87.41 27.6101V31.8701H87.0001L84.0001 28.4102V31.8701H83.51V27.6101H83.92L86.92 31.0701V27.6101H87.41Z" fill="#575756"/>
<path d="M91.0199 31.6602C90.6601 31.4866 90.3554 31.2166 90.1399 30.8802C89.9314 30.5475 89.8208 30.1627 89.8208 29.7701C89.8208 29.3774 89.9314 28.9929 90.1399 28.6602C90.3578 28.3258 90.6618 28.0563 91.0199 27.8802C91.4113 27.6871 91.8435 27.591 92.2799 27.6001C92.6204 27.5897 92.9597 27.6439 93.2799 27.7601C93.561 27.8558 93.8172 28.0132 94.0299 28.2203L93.7199 28.5101C93.3389 28.1685 92.8414 27.986 92.3299 28C91.9819 27.9968 91.6385 28.0792 91.3299 28.24C91.0394 28.3802 90.7936 28.5984 90.6199 28.8702C90.4503 29.1397 90.3604 29.4516 90.3604 29.7701C90.3604 30.0885 90.4503 30.4007 90.6199 30.6702C90.7961 30.9424 91.041 31.163 91.3299 31.3101C91.6409 31.4631 91.9833 31.5418 92.3299 31.5401C92.8414 31.5542 93.3389 31.3716 93.7199 31.0301L94.0299 31.3101C93.8181 31.5208 93.5619 31.6814 93.2799 31.7801C92.9592 31.8942 92.6202 31.9486 92.2799 31.9402C91.8434 31.9501 91.4111 31.854 91.0199 31.6602Z" fill="#575756"/>
<path d="M96.4099 27.6101H96.8999V31.8701H96.4099V27.6101Z" fill="#575756"/>
<path d="M102.68 30.76H100.07L99.5099 31.9001H99L101.14 27.6401H101.63L103.77 31.9001H103.24L102.68 30.76ZM102.5 30.4001L101.41 28.1101L100.28 30.4001H102.5Z" fill="#575756"/>
<path d="M106.17 31.7899C105.898 31.7106 105.645 31.5743 105.43 31.39L105.63 31.0399C105.825 31.2084 106.053 31.3345 106.3 31.4101C106.579 31.5099 106.873 31.5605 107.17 31.56C107.517 31.5916 107.865 31.5185 108.17 31.35C108.265 31.2929 108.343 31.2123 108.397 31.1159C108.452 31.0195 108.48 30.9106 108.48 30.7999C108.483 30.7234 108.469 30.6471 108.44 30.5763C108.411 30.5055 108.366 30.442 108.31 30.39C108.189 30.2823 108.046 30.2037 107.89 30.1601C107.665 30.0827 107.434 30.0226 107.2 29.9801C106.915 29.919 106.634 29.8385 106.36 29.7399C106.156 29.6703 105.971 29.554 105.82 29.4C105.743 29.315 105.684 29.2155 105.646 29.1073C105.609 28.9991 105.593 28.8843 105.6 28.7699C105.596 28.5592 105.659 28.3529 105.78 28.1801C105.933 27.9918 106.133 27.8468 106.36 27.7599C106.679 27.6381 107.019 27.5837 107.36 27.6C107.627 27.5981 107.892 27.6318 108.15 27.7001C108.386 27.7591 108.612 27.8535 108.82 27.9801L108.65 28.34C108.262 28.1025 107.815 27.9809 107.36 27.9899C107.039 27.967 106.719 28.0403 106.44 28.2001C106.344 28.2588 106.266 28.341 106.211 28.4391C106.157 28.5372 106.129 28.6477 106.13 28.7599C106.125 28.8367 106.137 28.9139 106.167 28.985C106.196 29.0561 106.242 29.1194 106.3 29.1701C106.423 29.2773 106.565 29.3589 106.72 29.4101L107.42 29.59C107.701 29.6495 107.978 29.7263 108.25 29.82C108.454 29.8896 108.639 30.0061 108.79 30.1601C108.866 30.2433 108.925 30.3411 108.963 30.4477C109.001 30.5542 109.017 30.6671 109.01 30.7799C109.013 30.989 108.946 31.1932 108.82 31.36C108.67 31.5565 108.465 31.7029 108.23 31.7799C107.911 31.9012 107.571 31.9558 107.23 31.9401C106.871 31.9478 106.513 31.8969 106.17 31.7899Z" fill="#575756"/>
<path d="M117.74 31.51V31.9001H114.41V27.6101H117.62V28H114.9V29.51H117.32V29.9001H114.9V31.4802L117.74 31.51Z" fill="#575756"/>
<path d="M124.16 27.6101V31.8701H123.75L120.75 28.4102V31.8701H120.25V27.6101H120.66L123.66 31.0701V27.6101H124.16Z" fill="#575756"/>
<path d="M133.05 30.76H130.41L129.85 31.9001H129.41L131.55 27.6401H132.04L134.18 31.9001H133.66L133.05 30.76ZM132.87 30.4001L131.74 28.1101L130.62 30.4001H132.87Z" fill="#575756"/>
<path d="M136.25 27.6101H136.74V31.4802H139.41V31.8701H136.3L136.25 27.6101Z" fill="#575756"/>
<path d="M142 28.03H140.41V27.6101H144.19V28H142.55V31.8701H142.05L142 28.03Z" fill="#575756"/>
<path d="M146.65 31.4602C146.471 31.2802 146.333 31.0638 146.245 30.8257C146.157 30.5876 146.121 30.3332 146.14 30.0801V27.6101H146.63V30.03C146.615 30.2304 146.64 30.4317 146.703 30.6223C146.767 30.8129 146.868 30.989 147 31.1401C147.303 31.3794 147.679 31.5095 148.065 31.5095C148.451 31.5095 148.826 31.3794 149.13 31.1401C149.264 30.9903 149.367 30.8145 149.43 30.6235C149.494 30.4326 149.518 30.2305 149.5 30.03V27.6101H149.99V30.05C150.009 30.3032 149.973 30.5575 149.885 30.7957C149.797 31.0338 149.659 31.2502 149.48 31.4302C149.087 31.7682 148.578 31.9403 148.06 31.9102C147.55 31.946 147.045 31.785 146.65 31.4602Z" fill="#575756"/>
<path d="M156.01 31.9001L154.94 30.53H154.57H153.31V31.8801H152.82V27.6101H154.57C155.067 27.5809 155.56 27.718 155.97 28C156.247 28.2272 156.426 28.553 156.469 28.9089C156.512 29.2648 156.415 29.6235 156.2 29.9101C155.996 30.1556 155.719 30.3306 155.41 30.4101L156.56 31.8701L156.01 31.9001ZM155.62 29.9001C155.737 29.8049 155.832 29.6844 155.896 29.5476C155.96 29.4107 155.992 29.2611 155.99 29.1101C155.997 28.9583 155.967 28.8072 155.902 28.6696C155.838 28.532 155.741 28.412 155.62 28.32C155.304 28.1121 154.928 28.0137 154.55 28.04H153.31V30.1801H154.55C154.928 30.1984 155.303 30.0969 155.62 29.8901V29.9001Z" fill="#575756"/>
<path d="M161.93 30.76H159.32L158.76 31.9001H158.24L160.41 27.6101H160.9L163.04 31.8701H162.52L161.93 30.76ZM161.75 30.4001L160.62 28.1101L159.5 30.4001H161.75Z" fill="#575756"/>
<path d="M168.22 27.3801H168.66V33.0901H168.22V27.3801Z" fill="#575756"/>
</g>
</g>
<defs>
<clipPath id="clip0_140_1940">
<rect width="196.89" height="33.09" fill="white"/>
</clipPath>
</defs>
</svg>
