<svg width="212" height="28" viewBox="0 0 212 28" fill="none" xmlns="http://www.w3.org/2000/svg">
<path d="M156.365 24.5705H156.928V26.6786C156.659 26.9111 156.347 27.0881 156.01 27.1994C155.65 27.3219 155.273 27.3834 154.893 27.3813C154.371 27.3902 153.856 27.2649 153.397 27.0174C152.962 26.7847 152.6 26.4361 152.353 26.0104C152.103 25.5713 151.972 25.0753 151.972 24.5705C151.972 24.0658 152.103 23.5697 152.353 23.1306C152.6 22.705 152.962 22.3564 153.397 22.1237C153.858 21.8758 154.376 21.7505 154.9 21.7598C155.296 21.7545 155.691 21.8226 156.063 21.9605C156.405 22.0858 156.712 22.2901 156.959 22.5566L156.594 22.9267C156.374 22.7121 156.113 22.5443 155.826 22.4332C155.539 22.3221 155.232 22.2702 154.925 22.2805C154.502 22.2738 154.084 22.3753 153.711 22.5754C153.356 22.7651 153.061 23.0497 152.859 23.3973C152.657 23.7549 152.551 24.1585 152.551 24.569C152.551 24.9795 152.657 25.383 152.859 25.7407C153.061 26.0852 153.353 26.3683 153.705 26.5594C154.074 26.7673 154.491 26.8754 154.915 26.8731C155.432 26.89 155.94 26.7404 156.365 26.4465V24.5705Z" fill="#898989"/>
<path d="M161.912 24.7209C162.049 24.5879 162.158 24.4287 162.233 24.2527C162.308 24.0768 162.346 23.8877 162.346 23.6967C162.346 23.5056 162.308 23.3165 162.233 23.1406C162.158 22.9647 162.049 22.8055 161.912 22.6724C161.548 22.409 161.103 22.2814 160.654 22.3117H159.179V25.0848H160.654C161.103 25.1142 161.548 24.9854 161.912 24.7209ZM162.377 27.3341L161.119 25.5585C160.965 25.5706 160.809 25.5737 160.654 25.5679H159.167V27.3215H158.582V21.8035H160.654C161.251 21.7692 161.841 21.9483 162.317 22.3085C162.518 22.4786 162.677 22.6924 162.781 22.9333C162.886 23.1743 162.934 23.4359 162.921 23.6982C162.934 24.0894 162.818 24.4739 162.591 24.7931C162.354 25.1029 162.023 25.3283 161.648 25.4362L163 27.3184L162.377 27.3341Z" fill="#898989"/>
<path d="M164.858 26.7663C164.428 26.2709 164.212 25.6257 164.258 24.9719V21.8035H164.842V24.9405C164.801 25.4573 164.957 25.9705 165.28 26.3773C165.443 26.5418 165.64 26.6693 165.857 26.7511C166.074 26.8328 166.306 26.8669 166.537 26.851C166.769 26.8655 167 26.8307 167.217 26.7491C167.434 26.6674 167.631 26.5407 167.795 26.3773C168.115 25.9693 168.27 25.4567 168.229 24.9405V21.8035H168.801V24.9719C168.847 25.6257 168.631 26.2709 168.201 26.7663C167.981 26.9817 167.719 27.1489 167.431 27.257C167.143 27.365 166.835 27.4116 166.528 27.3937C166.22 27.4102 165.912 27.363 165.623 27.255C165.334 27.147 165.07 26.9806 164.849 26.7663" fill="#898989"/>
<path d="M173.892 24.7178C174.037 24.5926 174.152 24.436 174.227 24.2598C174.302 24.0836 174.336 23.8926 174.326 23.7014C174.339 23.5076 174.306 23.3135 174.231 23.1344C174.156 22.9553 174.04 22.7961 173.892 22.6693C173.527 22.4087 173.082 22.2823 172.634 22.3117H171.163V25.0754H172.634C173.082 25.1047 173.527 24.9784 173.892 24.7178ZM174.31 22.3117C174.5 22.49 174.651 22.7051 174.754 22.9438C174.858 23.1825 174.911 23.4398 174.911 23.6998C174.911 23.9598 174.858 24.2171 174.754 24.4558C174.651 24.6945 174.5 24.9096 174.31 25.0879C173.833 25.4471 173.244 25.625 172.647 25.5899H171.16V27.3341H170.575V21.8035H172.647C173.244 21.7692 173.834 21.9483 174.31 22.3085" fill="#898989"/>
<path d="M179.867 26.5656C180.215 26.3742 180.502 26.0895 180.697 25.7437C180.895 25.3842 180.999 24.9807 180.999 24.5705C180.999 24.1603 180.895 23.7568 180.697 23.3972C180.503 23.0508 180.215 22.7659 179.867 22.5753C179.503 22.3753 179.093 22.2736 178.678 22.2804C178.262 22.2748 177.852 22.3764 177.486 22.5753C177.137 22.7666 176.847 23.0512 176.65 23.3972C176.45 23.7561 176.345 24.1599 176.345 24.5705C176.345 24.981 176.45 25.3848 176.65 25.7437C176.848 26.0892 177.137 26.3736 177.486 26.5656C177.852 26.7646 178.262 26.8662 178.678 26.8605C179.093 26.8673 179.503 26.7657 179.867 26.5656ZM177.188 27.0142C176.753 26.7814 176.392 26.4328 176.144 26.0072C175.896 25.5686 175.766 25.0738 175.766 24.5705C175.766 24.0672 175.896 23.5724 176.144 23.1337C176.392 22.7082 176.753 22.3596 177.188 22.1267C177.645 21.8793 178.158 21.753 178.678 21.7597C179.197 21.7511 179.709 21.8765 180.165 22.1236C180.597 22.3583 180.956 22.7066 181.203 23.1306C181.453 23.5697 181.584 24.0658 181.584 24.5705C181.584 25.0752 181.453 25.5713 181.203 26.0104C180.956 26.4344 180.597 26.7827 180.165 27.0174C179.709 27.2645 179.197 27.3898 178.678 27.3813C178.158 27.388 177.645 27.2616 177.188 27.0142Z" fill="#898989"/>
<path d="M187.181 26.2832C187.666 26.3077 188.142 26.1423 188.508 25.8221C188.826 25.4816 189.004 25.0331 189.004 24.5673C189.004 24.1014 188.826 23.6529 188.508 23.3125C188.142 22.9923 187.666 22.8269 187.181 22.8513H186.011V26.277L187.181 26.2832ZM184.728 21.8035H187.244C187.794 21.7918 188.34 21.9089 188.838 22.1455C189.283 22.3593 189.657 22.6957 189.916 23.1148C190.168 23.5578 190.3 24.0582 190.3 24.5673C190.3 25.0763 190.168 25.5767 189.916 26.0197C189.657 26.4389 189.283 26.7752 188.838 26.9891C188.34 27.2257 187.794 27.3428 187.244 27.331H184.728V21.8035Z" fill="#898989"/>
<path d="M194.834 26.1139C195.099 25.9676 195.317 25.7502 195.463 25.4865C195.612 25.204 195.69 24.8896 195.69 24.5705C195.69 24.2513 195.612 23.937 195.463 23.6545C195.317 23.3908 195.099 23.1734 194.834 23.027C194.562 22.8788 194.257 22.8011 193.948 22.8011C193.638 22.8011 193.333 22.8788 193.061 23.027C192.797 23.1741 192.579 23.3913 192.432 23.6545C192.283 23.937 192.205 24.2513 192.205 24.5705C192.205 24.8896 192.283 25.204 192.432 25.4865C192.579 25.7497 192.797 25.9669 193.061 26.1139C193.333 26.2622 193.638 26.3399 193.948 26.3399C194.257 26.3399 194.562 26.2622 194.834 26.1139ZM192.394 27.055C191.946 26.8196 191.57 26.4658 191.309 26.0323C191.052 25.5868 190.916 25.0816 190.916 24.5673C190.916 24.0531 191.052 23.5479 191.309 23.1023C191.57 22.6689 191.946 22.3151 192.394 22.0797C192.876 21.8363 193.408 21.7095 193.948 21.7095C194.487 21.7095 195.019 21.8363 195.501 22.0797C195.948 22.3176 196.322 22.6707 196.586 23.1023C196.843 23.5479 196.979 24.0531 196.979 24.5673C196.979 25.0816 196.843 25.5868 196.586 26.0323C196.322 26.4639 195.948 26.8171 195.501 27.055C195.019 27.2984 194.487 27.4252 193.948 27.4252C193.408 27.4252 192.876 27.2984 192.394 27.055Z" fill="#898989"/>
<path d="M202.988 27.3341L202.982 24.0183L201.35 26.7506H200.771L199.149 24.0904V27.3341H197.944V21.8066H199.007L201.082 25.2417L203.123 21.8066H204.177L204.192 27.3341H202.988Z" fill="#898989"/>
<path d="M209.079 26.1139C209.343 25.9675 209.561 25.7502 209.708 25.4865C209.854 25.2033 209.931 24.8892 209.931 24.5705C209.931 24.2517 209.854 23.9376 209.708 23.6544C209.561 23.3907 209.343 23.1734 209.079 23.027C208.807 22.8788 208.502 22.8011 208.192 22.8011C207.882 22.8011 207.577 22.8788 207.305 23.027C207.041 23.1734 206.823 23.3907 206.676 23.6544C206.53 23.9376 206.453 24.2517 206.453 24.5705C206.453 24.8892 206.53 25.2033 206.676 25.4865C206.823 25.7502 207.041 25.9675 207.305 26.1139C207.577 26.2621 207.882 26.3399 208.192 26.3399C208.502 26.3399 208.807 26.2621 209.079 26.1139ZM206.635 27.055C206.185 26.8136 205.808 26.4548 205.545 26.0167C205.282 25.5787 205.144 25.0778 205.144 24.5673C205.144 24.0569 205.282 23.556 205.545 23.1179C205.808 22.6799 206.185 22.321 206.635 22.0796C207.115 21.8282 207.65 21.7009 208.192 21.7095C208.732 21.7001 209.265 21.8274 209.742 22.0796C210.193 22.321 210.57 22.6799 210.832 23.1179C211.095 23.556 211.234 24.0569 211.234 24.5673C211.234 25.0778 211.095 25.5787 210.832 26.0167C210.57 26.4548 210.193 26.8136 209.742 27.055C209.265 27.3072 208.732 27.4346 208.192 27.4252C207.65 27.4337 207.115 27.3064 206.635 27.055Z" fill="#898989"/>
<path d="M144.155 25.6339C144.155 25.292 144.23 23.9242 144.381 23.6544C144.527 23.3898 144.745 23.1721 145.01 23.027C145.282 22.8787 145.587 22.801 145.897 22.801C146.207 22.801 146.512 22.8787 146.784 23.027C147.048 23.1734 147.266 23.3907 147.413 23.6544C147.56 23.9242 147.636 25.292 147.636 25.6339H148.934C148.934 25.0912 148.802 23.5415 148.538 23.1054C148.276 22.6727 147.901 22.3191 147.453 22.0828C146.976 21.8309 146.443 21.7036 145.903 21.7126C145.362 21.704 144.826 21.8313 144.347 22.0828C143.899 22.3183 143.525 22.6721 143.265 23.1054C143.001 23.5415 142.872 25.0912 142.872 25.6339H144.155Z" fill="#898989"/>
<path d="M148.919 26.2957H142.856V27.334H148.919V26.2957Z" fill="#898989"/>
<path d="M137.225 1.95545L135.995 8.06954H144.929L144.633 9.6161H135.699L134.42 16H144.781L144.46 17.5716H132.303L135.75 0.383789H147.564L147.243 1.95545H137.225Z" fill="#17525B"/>
<path d="M170.106 0.383789L166.66 17.5716H164.915L167.644 3.94433L158.736 15.3851H157.874L153.271 3.72474L150.516 17.5716H148.768L152.214 0.383789H153.692L158.663 13.1515L168.506 0.383789H170.106Z" fill="#17525B"/>
<path d="M109.44 9.25534C110.505 8.38952 111.037 7.11274 111.037 5.42501C111.037 4.29568 110.653 3.43718 109.883 2.8495C109.114 2.26183 108.009 1.96381 106.569 1.95545H102.041L100.28 10.5478H104.884C106.852 10.5478 108.37 10.1138 109.437 9.24593M111.232 1.66056C112.314 2.50966 112.856 3.70487 112.858 5.2462C112.858 7.44004 112.148 9.13823 110.729 10.3408C109.31 11.5433 107.353 12.1446 104.859 12.1446H99.9846L98.8777 17.5716H97.0791L100.538 0.383789H106.717C108.65 0.383789 110.159 0.809381 111.245 1.66056" fill="#17525B"/>
<path d="M126.901 9.25534C127.96 8.38952 128.484 7.11274 128.473 5.42501C128.473 4.29568 128.088 3.43718 127.316 2.8495C126.545 2.26183 125.445 1.96695 124.018 1.96486H119.461L117.716 10.5572H122.367C124.335 10.5572 125.849 10.1233 126.908 9.25534M128.926 9.56905C127.917 10.7405 126.543 11.5402 125.024 11.8403L128.266 17.5716H126.298L123.197 12.0944C123.015 12.1132 122.719 12.1195 122.31 12.1195H117.414L116.317 17.5716H114.496L117.955 0.383789H124.156C126.108 0.383789 127.621 0.809381 128.697 1.66056C129.772 2.51175 130.31 3.70696 130.31 5.2462C130.31 6.99667 129.847 8.43239 128.92 9.55336" fill="#17525B"/>
<path d="M208.563 9.25528C209.611 8.38946 210.135 7.11268 210.135 5.42496C210.135 4.29562 209.75 3.43712 208.978 2.84944C208.207 2.26177 207.107 1.96689 205.68 1.9648H201.117L199.369 10.5572H204.023C205.991 10.5572 207.505 10.1232 208.563 9.25528ZM210.582 9.56899C209.573 10.7404 208.198 11.5401 206.68 11.8402L209.928 17.5873H207.959L204.859 12.11C204.677 12.1288 204.384 12.1351 203.972 12.1351H199.076L197.991 17.5873H196.187L199.645 0.399414H205.846C207.8 0.399414 209.314 0.825006 210.387 1.67619C211.46 2.52737 211.998 3.72259 212 5.26183C212 7.0123 211.537 8.44802 210.61 9.56899" fill="#17525B"/>
<path d="M15.2947 16.4077L15.2507 8.27331L11.4427 14.6478C11.2765 14.9268 11.0409 15.1582 10.7586 15.3195C10.4764 15.4808 10.1571 15.5666 9.83179 15.5685C9.5065 15.5704 9.18624 15.4883 8.90211 15.3303C8.61798 15.1723 8.37963 14.9436 8.21021 14.6666L4.43684 8.51486V16.4014C4.43684 16.6219 4.34905 16.8333 4.19278 16.9892C4.03651 17.1451 3.82456 17.2327 3.60356 17.2327H0.726374C0.533728 17.2327 0.348973 17.1564 0.212752 17.0205C0.0765303 16.8846 0 16.7002 0 16.508V0.330322H3.94631L9.90193 10.0865L15.7098 0.330322H19.6561L19.7032 16.4014C19.7032 16.6219 19.6154 16.8333 19.4592 16.9892C19.3029 17.1451 19.091 17.2327 18.87 17.2327H16.1248C15.9055 17.2319 15.6953 17.1448 15.5398 16.9903C15.3844 16.8359 15.2963 16.6265 15.2947 16.4077Z" fill="#808081"/>
<path d="M35.1709 13.0199C35.8675 12.6161 36.4372 12.0261 36.8154 11.3165C37.2144 10.5347 37.4224 9.66993 37.4224 8.7927C37.4224 7.91547 37.2144 7.05068 36.8154 6.26895C36.4361 5.56083 35.8667 4.97208 35.1709 4.56868C34.461 4.17161 33.6609 3.96308 32.8471 3.96308C32.0333 3.96308 31.2332 4.17161 30.5233 4.56868C29.8275 4.97208 29.2581 5.56083 28.8788 6.26895C28.4798 7.05068 28.2718 7.91547 28.2718 8.7927C28.2718 9.66993 28.4798 10.5347 28.8788 11.3165C29.257 12.0261 29.8267 12.6161 30.5233 13.0199C31.2338 13.4149 32.0337 13.6223 32.8471 13.6223C33.6605 13.6223 34.4604 13.4149 35.1709 13.0199ZM28.0172 16.4487C26.6165 15.7173 25.4432 14.6173 24.6245 13.268C23.8058 11.9187 23.373 10.3715 23.373 8.79427C23.373 7.21703 23.8058 5.66988 24.6245 4.32057C25.4432 2.97126 26.6165 1.87128 28.0172 1.13989C29.5172 0.393119 31.1707 0.00439453 32.8471 0.00439453C34.5235 0.00439453 36.177 0.393119 37.677 1.13989C39.0768 1.87204 40.2492 2.9723 41.0672 4.32151C41.8851 5.67072 42.3175 7.21747 42.3175 8.79427C42.3175 10.3711 41.8851 11.9178 41.0672 13.267C40.2492 14.6162 39.0768 15.7165 37.677 16.4487C36.177 17.1954 34.5235 17.5841 32.8471 17.5841C31.1707 17.5841 29.5172 17.1954 28.0172 16.4487Z" fill="#808081"/>
<path d="M45.991 0.330322H50.7831V13.44H58.0154C58.1263 13.4388 58.2364 13.4594 58.3393 13.5007C58.4423 13.542 58.536 13.6032 58.6152 13.6807C58.6944 13.7582 58.7574 13.8506 58.8007 13.9525C58.844 14.0544 58.8667 14.1638 58.8676 14.2745V16.3888C58.868 16.4989 58.8465 16.608 58.8045 16.7099C58.7625 16.8117 58.7006 16.9042 58.6226 16.982C58.5445 17.0599 58.4518 17.1216 58.3498 17.1635C58.2477 17.2055 58.1384 17.2268 58.028 17.2264H46.95C46.6959 17.2256 46.4525 17.1245 46.2728 16.9453C46.0931 16.766 45.9918 16.5231 45.991 16.2696V0.330322Z" fill="#808081"/>
<path d="M72.1089 10.4223L69.9298 5.01407L67.7507 10.4223H72.1089ZM73.5113 13.9609H66.3482L65.2382 16.6964C65.172 16.8586 65.0589 16.9974 64.9133 17.0952C64.7677 17.193 64.5962 17.2452 64.4207 17.2454H61.5026C61.3535 17.2455 61.2066 17.2085 61.0754 17.1377C60.9443 17.0669 60.8329 16.9645 60.7513 16.8399C60.6698 16.7153 60.6208 16.5723 60.6087 16.424C60.5966 16.2757 60.6217 16.1267 60.6819 15.9906L67.5997 0.343018H72.3164L79.2343 15.9467C79.2924 16.0878 79.3153 16.2409 79.301 16.3928C79.2867 16.5447 79.2355 16.6909 79.152 16.8187C79.0684 16.9465 78.955 17.0521 78.8214 17.1264C78.6878 17.2008 78.5382 17.2416 78.3853 17.2454H75.4389C75.2608 17.2459 75.0866 17.193 74.9391 17.0934C74.7916 16.9938 74.6776 16.8522 74.6119 16.687L73.5113 13.9609Z" fill="#808081"/>
<path d="M84.3566 17.0634C83.4824 16.8542 82.6375 16.5381 81.841 16.1223C81.6604 16.0235 81.5237 15.8607 81.4578 15.666C81.392 15.4713 81.402 15.2591 81.4857 15.0714L82.3096 13.2268C82.3647 13.1021 82.4445 12.9898 82.5442 12.8965C82.6438 12.8033 82.7613 12.7311 82.8896 12.6843C83.0179 12.6374 83.1544 12.6168 83.2908 12.6238C83.4272 12.6308 83.5609 12.6652 83.6837 12.7249C84.2388 13 84.8163 13.2278 85.41 13.4056C86.3656 13.7052 87.361 13.8596 88.3627 13.8636C90.2032 13.8636 91.1224 13.4056 91.1204 12.4896C91.1186 12.2507 91.0418 12.0185 90.9008 11.8254C90.7597 11.6324 90.5616 11.4884 90.3342 11.4136C89.5196 11.093 88.6777 10.8462 87.8187 10.6764C86.7336 10.4564 85.6651 10.1618 84.6207 9.79487C83.7709 9.4858 83.0135 8.96662 82.4196 8.28596C81.8054 7.59581 81.4983 6.66201 81.4983 5.48458C81.4876 4.49006 81.784 3.51635 82.3473 2.69575C82.979 1.81262 83.8523 1.12975 84.8629 0.728823C86.1757 0.210835 87.5803 -0.0357009 88.9916 0.00416739C90.0986 0.00393421 91.202 0.129172 92.2807 0.377474C93.2837 0.596932 94.2474 0.967145 95.139 1.47544L93.6768 5.01402C92.2446 4.19462 90.6296 3.74598 88.979 3.70901C88.0356 3.70901 87.3344 3.85018 86.8973 4.13251C86.6998 4.24035 86.5349 4.39913 86.4198 4.59226C86.3048 4.7854 86.2438 5.00581 86.2433 5.23048C86.2433 5.68221 86.5011 6.02101 87.0168 6.24688C87.8252 6.55453 88.6598 6.78866 89.5104 6.94644C90.5993 7.16323 91.6712 7.45782 92.7177 7.82795C93.5625 8.14075 94.318 8.65438 94.9189 9.32432C95.5478 10.0082 95.8622 10.9399 95.8622 12.1131C95.8712 13.0962 95.5758 14.0581 95.0163 14.8675C94.3722 15.7502 93.49 16.4323 92.4725 16.8344C91.1664 17.358 89.7666 17.6089 88.3595 17.5716C87.012 17.5747 85.6697 17.4039 84.366 17.0634" fill="#808081"/>
<path d="M175.719 0.383789H177.515L174.068 17.5716H172.273L175.719 0.383789Z" fill="#17525B"/>
<path d="M184.627 1.95545L183.398 8.06954H192.331L192.036 9.6161H183.102L181.823 16H192.184L191.863 17.5716H179.706L183.149 0.383789H194.963L194.643 1.95545H184.627Z" fill="#17525B"/>
</svg>
