<svg width="143" height="95" viewBox="0 0 143 95" fill="none" xmlns="http://www.w3.org/2000/svg">
<path fill-rule="evenodd" clip-rule="evenodd" d="M37.9073 43.8836C37.9073 49.7297 36.1294 54.6266 32.5736 58.5744C30.9276 60.4771 28.8833 61.9946 26.5855 63.0194C24.2877 64.0441 21.7927 64.5511 19.2772 64.5044C16.6939 64.5613 14.1287 64.0611 11.756 63.0378C9.3833 62.0146 7.25889 60.4922 5.52724 58.5744C1.83367 54.5898 -0.147976 49.3145 0.00875928 43.8836C0.00875928 37.8528 1.80346 32.8467 5.39285 28.8653C7.05834 26.9463 9.12566 25.4173 11.4482 24.3866C13.7708 23.356 16.2916 22.849 18.8321 22.9017C21.4013 22.8524 23.9503 23.3651 26.3007 24.404C28.6511 25.4428 30.7461 26.9826 32.4393 28.9157C36.0902 32.9251 37.9157 37.9144 37.9157 43.8836H37.9073ZM29.6758 43.7912C29.6758 37.1556 28.6511 32.0011 26.6016 28.3277C25.0897 25.6119 22.5558 24.254 19 24.254C15.6402 24.254 13.0028 25.9871 11.0877 29.4533C9.17262 32.9195 8.22348 37.7296 8.24028 43.8836C8.24028 49.9761 9.25102 54.7358 11.2725 58.1628C13.294 61.5898 16.1134 63.2949 19.7308 63.2781C20.9464 63.3572 22.1607 63.1043 23.2437 62.5465C24.3267 61.9887 25.2377 61.1471 25.8792 60.1115C28.4327 56.1021 29.7094 50.662 29.7094 43.7912H29.6758Z" fill="#8FCB5D"/>
<path fill-rule="evenodd" clip-rule="evenodd" d="M75.9571 62.7318C73.4372 60.3856 69.9458 59.2152 65.4829 59.2208C62.7227 59.248 59.9694 59.5036 57.2514 59.9852C54.4636 60.5273 51.639 60.8586 48.8015 60.9763C44.1929 60.9763 41.8887 59.0752 41.8887 55.273C41.9081 54.5045 42.0834 53.7479 42.4039 53.049C42.7244 52.3502 43.1835 51.7238 43.7534 51.2077C44.288 50.6254 44.9368 50.1594 45.6593 49.8386C46.3818 49.5178 47.1626 49.3491 47.9531 49.343C48.5887 49.4204 49.214 49.5669 49.8178 49.7798C53.3372 50.8801 55.7479 51.4597 57.0666 51.4597C59.4347 51.5245 61.7916 51.1117 63.9967 50.2459C66.2017 49.38 68.2098 48.0788 69.901 46.42C71.5875 44.8026 72.9179 42.8511 73.8074 40.6904C74.6969 38.5296 75.1258 36.207 75.0667 33.8711C75.0093 32.1411 74.8268 30.4175 74.5208 28.7138C74.1512 26.4459 73.9748 25.2028 73.9748 24.9844C74.0113 23.9347 74.4399 22.9367 75.1759 22.1874C75.4709 21.7888 75.8491 21.4591 76.2842 21.2212C76.7193 20.9833 77.201 20.843 77.6958 20.8099C78.7205 20.8099 79.2329 21.2886 79.2329 22.2378C79.2037 22.7477 79.0931 23.2496 78.9053 23.7245C78.7221 24.1604 78.6087 24.6224 78.5693 25.0936C78.5689 25.3797 78.6172 25.6637 78.7121 25.9336C78.7961 25.8412 78.8801 25.7572 78.9725 25.6732C81.2466 23.7397 84.0896 22.6013 87.0696 22.431C86.7 19.3904 84.6366 17.8701 80.8792 17.8701C77.4354 17.8701 74.546 19.5891 72.2109 23.0273C70.3282 21.0518 68.1172 19.4176 65.6761 18.1976C63.3485 17.3099 60.8664 16.8985 58.3769 16.9881C52.8948 16.9881 48.4711 18.5784 45.1057 21.759C41.7403 24.9396 40.0604 29.1646 40.066 34.4339C39.9941 37.0635 40.5547 39.6719 41.7006 42.0398C42.8466 44.4077 44.5444 46.4658 46.6512 48.0411C39.9316 50.0906 36.5718 53.7499 36.5718 59.0192C36.5718 63.2638 39.1672 66.408 44.3581 68.4519C41.669 68.9521 39.0772 69.8794 36.681 71.1985C33.4556 73.3208 31.8457 76.4678 31.8513 80.6396C31.7872 82.6337 32.2317 84.6114 33.1427 86.3865C34.0537 88.1615 35.4014 89.6756 37.059 90.7862C40.5364 93.2388 45.2961 94.4651 51.3381 94.4651C59.536 94.4651 66.3228 92.3793 71.6985 88.2075C77.0742 84.0358 79.7621 78.8057 79.7621 72.5172C79.7621 68.3455 78.4993 65.0893 75.9739 62.7486L75.9571 62.7318ZM57.9065 18.3992C63.7582 18.3992 66.684 23.7021 66.684 34.3079C66.684 44.6953 63.943 49.889 58.4609 49.889C52.3797 49.889 49.3418 44.3313 49.3474 33.216C49.3474 23.3381 52.2005 18.3992 57.9065 18.3992ZM69.4475 87.4768C65.6621 90.5174 60.9948 92.0349 55.4455 92.0293C51.0721 92.0293 47.5528 90.8954 44.8873 88.6275C43.5844 87.5281 42.5483 86.1471 41.8572 84.5887C41.166 83.0303 40.8379 81.3353 40.8975 79.6316C40.8975 74.6591 42.7566 71.1845 46.4748 69.2078C49.469 69.1026 52.4509 68.7713 55.3951 68.2167C58.3739 67.6721 61.3894 67.352 64.4162 67.2591C71.5669 67.2591 75.1395 70.2942 75.1339 76.3642C75.1339 80.7376 73.2384 84.4417 69.4475 87.4768Z" fill="#5716A3"/>
<path fill-rule="evenodd" clip-rule="evenodd" d="M92.9911 76.4988C92.8294 77.2355 92.4074 77.8891 91.8025 78.3396C91.1977 78.7902 90.4506 79.0074 89.6985 78.9515C87.2206 78.9515 85.9691 77.07 85.9691 74.7517C85.9691 72.4334 87.2206 70.4595 89.7405 70.4595C90.502 70.3879 91.2623 70.6084 91.8674 71.0762C92.4725 71.5441 92.8772 72.2244 92.9995 72.9794H91.8656C91.7456 72.4957 91.4576 72.0704 91.0529 71.7796C90.6482 71.4887 90.1532 71.3513 89.6565 71.3919C87.8338 71.3919 87.0863 73.0718 87.0863 74.7517C87.0863 76.4316 87.7918 78.1115 89.7069 78.1115C90.1973 78.132 90.6798 77.9828 91.0731 77.6891C91.4663 77.3953 91.7462 76.9749 91.8656 76.4988H92.9911Z" fill="#283849"/>
<path fill-rule="evenodd" clip-rule="evenodd" d="M94.4277 70.0564H95.4693V71.3583H94.4277V70.0564ZM94.4277 72.761H95.4693V78.8003H94.4277V72.761Z" fill="#283849"/>
<path fill-rule="evenodd" clip-rule="evenodd" d="M102.105 77.0447C102.105 77.6326 102.105 78.4474 102.105 78.8002H101.105C101.105 78.6406 101.105 78.2794 101.063 77.9014C100.908 78.2449 100.648 78.5306 100.321 78.7176C99.9935 78.9047 99.6155 78.9835 99.2407 78.943C98.2159 78.943 97.2416 78.439 97.2416 76.7339V72.7609H98.2747V76.4987C98.2747 77.2883 98.5267 78.019 99.5262 78.019C100.526 78.019 101.063 77.4059 101.063 75.894V72.7441H102.113L102.105 77.0447Z" fill="#283849"/>
<path fill-rule="evenodd" clip-rule="evenodd" d="M108.925 70.0563V77.0951C108.925 77.6663 108.925 78.2206 108.925 78.775H107.917C107.886 78.4961 107.869 78.2157 107.867 77.9351C107.689 78.2744 107.412 78.5518 107.073 78.7303C106.734 78.9088 106.349 78.98 105.968 78.9346C104.415 78.9346 103.449 77.6831 103.449 75.8352C103.449 73.9873 104.482 72.6098 106.153 72.6098C107.22 72.6098 107.699 73.0465 107.833 73.3825V70.0227L108.925 70.0563ZM104.557 75.81C104.557 77.2715 105.254 78.061 106.237 78.061C107.648 78.061 107.959 77.0195 107.959 75.6924C107.959 74.3652 107.674 73.5001 106.279 73.5001C105.221 73.5001 104.557 74.3485 104.557 75.81Z" fill="#283849"/>
<path fill-rule="evenodd" clip-rule="evenodd" d="M115.132 77.4899C115.13 77.9281 115.158 78.3659 115.216 78.8002H114.217C114.155 78.5414 114.121 78.2767 114.116 78.0106C113.932 78.3326 113.656 78.5928 113.324 78.7587C112.993 78.9246 112.619 78.9887 112.251 78.943C111.993 78.9729 111.732 78.9475 111.485 78.8683C111.238 78.7891 111.01 78.6581 110.818 78.4839C110.625 78.3098 110.472 78.0965 110.369 77.8585C110.266 77.6204 110.214 77.363 110.218 77.1035C110.218 75.7512 111.285 75.138 113.074 75.138H114.107V74.6172C114.107 74.0881 113.939 73.4329 112.806 73.4329C111.672 73.4329 111.63 73.9369 111.52 74.4073H110.504C110.588 73.5673 111.1 72.6182 112.839 72.6182C114.317 72.6182 115.132 73.2229 115.132 74.6004V77.4899ZM114.116 75.8604H113.133C111.932 75.8604 111.285 76.1879 111.285 77.0447C111.282 77.1959 111.311 77.346 111.37 77.4851C111.43 77.6242 111.518 77.7492 111.629 77.8516C111.74 77.9541 111.872 78.0317 112.015 78.0794C112.159 78.1271 112.311 78.1437 112.461 78.1282C113.923 78.1282 114.141 77.1455 114.141 76.0536L114.116 75.8604Z" fill="#283849"/>
<path fill-rule="evenodd" clip-rule="evenodd" d="M121.953 70.0563V77.0951C121.953 77.6663 121.953 78.2206 121.953 78.775H120.953C120.918 78.4964 120.901 78.2158 120.903 77.9351C120.723 78.2743 120.444 78.5513 120.104 78.7297C119.764 78.908 119.378 78.9794 118.996 78.9346C117.442 78.9346 116.476 77.6831 116.476 75.8352C116.476 73.9873 117.501 72.6098 119.173 72.6098C119.497 72.5695 119.826 72.6205 120.123 72.757C120.419 72.8935 120.672 73.1102 120.853 73.3825V70.0227L121.953 70.0563ZM117.585 75.81C117.585 77.2715 118.274 78.061 119.223 78.061C120.634 78.061 120.945 77.0195 120.945 75.6924C120.945 74.3652 120.668 73.5001 119.307 73.5001C118.24 73.5001 117.585 74.3485 117.585 75.81Z" fill="#283849"/>
<path fill-rule="evenodd" clip-rule="evenodd" d="M88.111 86.8049C88.111 88.678 87.3719 89.3248 85.9859 89.3248C85.7039 89.3246 85.4225 89.2964 85.146 89.2408V88.3421C85.3988 88.3824 85.6544 88.402 85.9104 88.4008C86.9099 88.4008 87.0443 87.6617 87.0443 86.8469V80.9673H88.1446L88.111 86.8049Z" fill="#283849"/>
<path fill-rule="evenodd" clip-rule="evenodd" d="M94.3183 87.9054C94.3162 88.3463 94.3442 88.7869 94.4023 89.2241H93.4027C93.3408 88.9655 93.3098 88.7005 93.3103 88.4345C93.123 88.7556 92.8459 89.0149 92.5131 89.1806C92.1803 89.3462 91.8064 89.411 91.4372 89.3669C91.1794 89.3956 90.9183 89.369 90.6716 89.2887C90.4248 89.2085 90.1981 89.0765 90.0064 88.9016C89.8148 88.7266 89.6627 88.5128 89.5604 88.2744C89.458 88.0359 89.4078 87.7784 89.413 87.519C89.413 86.1751 90.4713 85.5535 92.2604 85.5535H93.2935V85.0411C93.2935 84.512 93.1255 83.8568 91.9916 83.8568C90.8577 83.8568 90.8157 84.3608 90.7065 84.8311H89.6985C89.7741 83.9912 90.2865 83.0336 92.0252 83.042C93.5035 83.042 94.3183 83.6468 94.3183 85.0159V87.9054ZM93.3019 86.2759H92.3276C91.1181 86.2759 90.4713 86.6118 90.4713 87.4602C90.4669 87.6121 90.495 87.7631 90.5537 87.9033C90.6124 88.0434 90.7004 88.1694 90.8117 88.2727C90.9231 88.3761 91.0552 88.4545 91.1993 88.5027C91.3434 88.5509 91.4961 88.5677 91.6472 88.5521C93.1087 88.5521 93.3271 87.5694 93.3271 86.469L93.3019 86.2759Z" fill="#283849"/>
<path fill-rule="evenodd" clip-rule="evenodd" d="M96.1242 84.8226C96.1242 83.9827 96.1242 83.5039 96.1242 83.1847H97.1405C97.1405 83.3527 97.1405 83.8231 97.1405 84.4195C97.2952 84.0077 97.5737 83.6541 97.9378 83.4074C98.3018 83.1607 98.7335 83.033 99.1732 83.0419V84.0583C97.9385 84.0583 97.1405 84.7387 97.1405 86.2674V89.1988H96.099L96.1242 84.8226Z" fill="#283849"/>
<path fill-rule="evenodd" clip-rule="evenodd" d="M105.246 80.4801V87.5189C105.246 88.0817 105.246 88.6444 105.246 89.1988H104.238C104.207 88.9199 104.19 88.6395 104.188 88.3589C104.01 88.6983 103.733 88.9756 103.394 89.1541C103.055 89.3326 102.67 89.4039 102.29 89.3584C100.736 89.3584 99.7697 88.0985 99.7697 86.259C99.7697 84.4195 100.803 83.0336 102.474 83.0336C103.541 83.0336 104.02 83.462 104.154 83.8063V80.4465L105.246 80.4801ZM100.878 86.2338C100.878 87.6953 101.576 88.4849 102.558 88.4849C103.969 88.4849 104.28 87.4433 104.28 86.1162C104.28 84.7891 103.995 83.9239 102.6 83.9239C101.542 83.9239 100.878 84.7723 100.878 86.2338Z" fill="#283849"/>
<path fill-rule="evenodd" clip-rule="evenodd" d="M109.832 80.354L108.009 82.1851H106.985L108.513 80.354H109.832ZM107.027 83.2182H108.068V89.2575H107.027V83.2182Z" fill="#283849"/>
<path fill-rule="evenodd" clip-rule="evenodd" d="M109.857 84.7051C109.857 84.1843 109.857 83.6467 109.857 83.1848H110.874C110.874 83.3612 110.916 84.0247 110.916 84.1759C111.074 83.8123 111.342 83.5074 111.683 83.304C112.023 83.1006 112.419 83.009 112.814 83.042C113.948 83.042 114.838 83.7307 114.838 85.335V89.224H113.788V85.4694C113.788 84.5623 113.435 83.9407 112.512 83.9407C111.369 83.9407 110.916 84.7807 110.916 86.0238V89.224H109.874L109.857 84.7051Z" fill="#283849"/>
<path fill-rule="evenodd" clip-rule="evenodd" d="M112.117 59.3471C112.117 60.3719 111.05 61.4414 108.917 62.5557C107.03 63.6111 104.913 64.1878 102.752 64.2356C98.6079 64.2356 96.4492 62.0965 96.2756 57.8184C94.0022 62.2981 90.4632 64.538 85.6586 64.538C83.3087 64.6188 81.0185 63.7882 79.2666 62.2197C78.4427 61.4742 77.7906 60.5585 77.3555 59.536C76.9204 58.5136 76.7127 57.4088 76.7468 56.2981C76.7468 51.3536 79.7062 47.4338 85.6251 44.5388C87.6521 43.5756 91.1743 42.6097 96.1916 41.641V39.3815C96.1916 34.0786 95.9116 30.5816 95.3517 28.8905C94.3885 25.8163 92.2159 24.2792 88.8337 24.2792C86.9273 24.2009 85.0541 24.7956 83.542 25.9591C82.8779 26.4688 82.3428 27.1273 81.9795 27.8815C81.6163 28.6357 81.4351 29.4646 81.4505 30.3016C81.4505 30.7888 81.8201 31.0324 82.5592 31.0324C82.9526 31.045 83.3376 31.1495 83.6833 31.3377C84.029 31.5259 84.3258 31.7924 84.5499 32.1159C85.1242 32.8005 85.4367 33.6667 85.4319 34.5602C85.4319 37.2144 84.1215 38.5331 81.4925 38.5331C80.8587 38.5521 80.228 38.4369 79.6417 38.1952C79.0555 37.9535 78.527 37.5906 78.0907 37.1304C77.6428 36.6531 77.2935 36.0921 77.0628 35.4795C76.8322 34.8669 76.7248 34.2148 76.7468 33.5606C76.7437 32.1694 77.0425 30.7941 77.6226 29.5296C78.2026 28.2651 79.0501 27.1415 80.1066 26.2363C82.576 23.9964 86.0114 22.8765 90.4128 22.8765C97.0484 22.8765 101.119 24.6852 102.626 28.3025C103.163 29.6885 103.466 32.4267 103.466 36.5257V53.4423C103.466 56.2141 103.466 57.8436 103.558 58.3224C103.852 60.4978 104.734 61.5814 106.179 61.5814C106.962 61.6031 107.74 61.4526 108.458 61.1405C109.177 60.8285 109.818 60.3625 110.336 59.7755C110.941 59.1119 111.395 58.7759 111.697 58.7759C111.999 58.7759 112.151 58.9607 112.151 59.3219L112.117 59.3471ZM96.158 49.7633V43.1529C91.7063 44.186 88.5061 45.5215 86.5742 47.1846C85.6288 48.0039 84.8809 49.0263 84.3864 50.1754C83.8918 51.3245 83.6635 52.5705 83.7184 53.8202C83.6569 55.5578 84.2573 57.254 85.3983 58.566C85.9072 59.1636 86.543 59.6403 87.2593 59.9614C87.9756 60.2825 88.7544 60.4399 89.5392 60.4223C92.1039 60.4223 94.1561 58.9747 95.6961 56.0797C96.0264 55.4245 96.1916 53.3191 96.1916 49.7633H96.158Z" fill="#8FCB5D"/>
<path fill-rule="evenodd" clip-rule="evenodd" d="M112.117 59.3471C112.117 60.3719 111.05 61.4414 108.917 62.5557C107.03 63.6111 104.913 64.1878 102.752 64.2356C98.6079 64.2356 96.4492 62.0965 96.2756 57.8184C94.0022 62.2981 90.4632 64.538 85.6586 64.538C83.3087 64.6188 81.0185 63.7882 79.2666 62.2197C78.4427 61.4742 77.7906 60.5585 77.3555 59.536C76.9204 58.5136 76.7127 57.4088 76.7468 56.2981C76.7468 51.3536 79.7062 47.4338 85.6251 44.5388C87.6521 43.5756 91.1743 42.6097 96.1916 41.641V39.3815C96.1916 34.0786 95.9116 30.5816 95.3517 28.8905C94.3885 25.8163 92.2159 24.2792 88.8337 24.2792C86.9273 24.2009 85.0541 24.7956 83.542 25.9591C82.8779 26.4688 82.3428 27.1273 81.9795 27.8815C81.6163 28.6357 81.4351 29.4646 81.4505 30.3016C81.4505 30.7888 81.8201 31.0324 82.5592 31.0324C82.9526 31.045 83.3376 31.1495 83.6833 31.3377C84.029 31.5259 84.3258 31.7924 84.5499 32.1159C85.1242 32.8005 85.4367 33.6667 85.4319 34.5602C85.4319 37.2144 84.1215 38.5331 81.4925 38.5331C80.8587 38.5521 80.228 38.4369 79.6417 38.1952C79.0555 37.9535 78.527 37.5906 78.0907 37.1304C77.6428 36.6531 77.2935 36.0921 77.0628 35.4795C76.8322 34.8669 76.7248 34.2148 76.7468 33.5606C76.7437 32.1694 77.0425 30.7941 77.6226 29.5296C78.2026 28.2651 79.0501 27.1415 80.1066 26.2363C82.576 23.9964 86.0114 22.8765 90.4128 22.8765C97.0484 22.8765 101.119 24.6852 102.626 28.3025C103.163 29.6885 103.466 32.4267 103.466 36.5257V53.4423C103.466 56.2141 103.466 57.8436 103.558 58.3224C103.852 60.4978 104.734 61.5814 106.179 61.5814C106.962 61.6031 107.74 61.4526 108.458 61.1405C109.177 60.8285 109.818 60.3625 110.336 59.7755C110.941 59.1119 111.395 58.7759 111.697 58.7759C111.999 58.7759 112.151 58.9607 112.151 59.3219L112.117 59.3471ZM96.158 49.7633V43.1529C91.7063 44.186 88.5061 45.5215 86.5742 47.1846C85.6288 48.0039 84.8809 49.0263 84.3864 50.1754C83.8918 51.3245 83.6635 52.5705 83.7184 53.8202C83.6569 55.5578 84.2573 57.254 85.3983 58.566C85.9072 59.1636 86.543 59.6403 87.2593 59.9614C87.9756 60.2825 88.7544 60.4399 89.5392 60.4223C92.1039 60.4223 94.1561 58.9747 95.6961 56.0797C96.0264 55.4245 96.1916 53.3191 96.1916 49.7633H96.158Z" fill="#8FCB5D"/>
<path fill-rule="evenodd" clip-rule="evenodd" d="M135.333 9.05073C135.386 9.05723 135.44 9.05723 135.493 9.05073C135.426 9.15992 135.417 9.19352 135.333 9.05073ZM104.205 10.9826L104.406 10.8482V10.9742C104.406 10.9742 104.348 10.8902 104.213 10.9742H104.171L104.205 10.9826ZM104.793 10.6886C104.793 10.739 104.969 11.075 104.793 11.075C104.616 11.075 104.684 11.075 104.566 11.0078C104.768 10.7138 104.642 10.7054 104.826 10.6886H104.793ZM103.508 11.8814C103.608 11.9486 103.558 11.8814 103.575 12.0074C103.575 12.0074 103.575 12.0074 103.533 11.957C103.491 11.9066 103.533 11.9066 103.533 11.8814H103.508ZM138.651 14.2584C138.651 14.2584 138.651 14.1912 138.71 14.3256C138.811 14.3256 138.601 14.2164 138.71 14.3256L138.651 14.2584ZM98.8459 18.727V18.8194C98.7283 18.8194 98.7451 18.8194 98.6947 18.727H98.7703H98.8543H98.8459ZM100.711 22.0028H100.61C100.61 21.8432 100.61 21.9104 100.677 21.8432C100.744 21.776 100.769 21.8432 100.677 22.0028H100.711ZM122.574 31.5278C122.709 31.5278 122.633 31.5278 122.717 31.5782L122.86 31.721C122.927 31.7798 122.91 31.721 122.952 31.8302H123.011C123.011 31.721 123.204 31.6706 123.356 31.5278L123.498 31.4438C123.498 31.5782 123.44 31.9562 123.608 31.847C123.776 31.7378 123.608 31.7714 123.784 31.763C123.784 31.763 124.868 30.7467 125.17 30.8642C125.472 30.9818 125.388 30.8223 125.565 30.7719H125.649L125.716 30.8642C125.833 30.8642 125.716 30.8643 125.875 30.8055C125.875 30.9482 125.968 30.8978 126.127 30.9398C126.169 30.8558 126.127 30.8726 126.127 30.7719C126.27 30.7719 126.169 30.7719 126.321 30.7719C126.321 30.6039 126.321 30.7299 126.321 30.6795C126.321 30.8139 126.371 30.7635 126.455 30.8391C126.539 30.9146 126.455 30.839 126.522 30.965C126.571 31.0609 126.608 31.1625 126.631 31.2674C126.631 31.4018 126.589 31.3598 126.581 31.511C126.573 31.6622 126.581 31.511 126.665 31.6202C126.682 31.6698 126.696 31.7203 126.707 31.7714H126.816C126.917 31.7714 126.9 31.847 126.967 31.679L127.026 31.5446C127.063 31.5727 127.105 31.5931 127.15 31.6047C127.194 31.6162 127.241 31.6186 127.287 31.6118C127.287 31.7042 127.287 31.9058 127.396 31.8722H127.446C127.692 31.9274 127.942 31.9611 128.194 31.973C128.32 31.973 128.706 31.679 128.673 31.6118C128.639 31.5446 128.731 31.6118 128.765 31.7462C128.899 31.7462 128.849 31.6286 128.992 31.553C128.958 31.4697 128.935 31.3821 128.924 31.2926C128.924 31.1918 128.983 31.2338 128.924 31.133C128.866 31.0322 128.866 31.0574 128.79 31.0322C128.857 30.9398 128.874 31.0322 128.916 30.9062C129.151 30.9566 129.193 31.0322 129.109 30.6795C129.151 30.6795 129.227 30.5535 129.269 30.5535C129.311 30.5535 129.756 30.7887 129.773 30.6207C129.761 30.5682 129.761 30.5136 129.773 30.4611C129.773 30.4611 129.773 30.4611 129.773 30.3603C129.958 30.3603 129.89 30.4611 130.033 30.5199C130.176 30.5787 130.176 30.5199 130.352 30.5199C130.529 30.5199 130.352 30.5199 130.445 30.5199C130.394 30.7047 130.252 30.6627 130.252 30.9734C130.394 30.9734 130.352 30.9734 130.478 30.9734C130.478 31.1666 130.411 31.3094 130.588 31.1834C130.764 31.0574 130.546 31.1834 130.638 31.133C130.73 31.0826 130.722 31.2002 130.764 31.2002C130.806 31.2002 130.856 31.133 131.058 31.133C131.058 31.2338 131.058 31.2002 131.15 31.2338C131.1 31.4102 131.041 31.2842 131.024 31.4858H131.285C131.228 31.6073 131.194 31.7383 131.184 31.8722C131.369 31.8722 131.419 31.805 131.503 31.805C131.587 31.805 131.57 31.805 131.696 31.805C131.695 31.8839 131.668 31.9603 131.621 32.0234C131.436 32.4182 131.831 32.0738 131.915 32.1158C131.999 32.1578 131.915 32.309 131.915 32.4518H132.049C131.923 32.6785 131.789 32.603 131.789 32.9305C131.789 33.0985 131.898 32.9305 132.049 32.9305C131.974 33.2329 132.049 33.1153 132.049 33.3169H132.15C132.15 33.2413 132.301 33.6445 132.276 33.9637H132.469C132.385 34.0897 132.343 34.0225 132.343 34.2157C132.477 34.2157 132.687 34.2661 132.822 34.2829C132.815 34.3358 132.815 34.3894 132.822 34.4424C133.04 34.4424 133.242 34.2408 133.267 34.4424C133.266 34.556 133.292 34.6682 133.343 34.77C133.435 34.7112 133.485 34.5936 133.561 34.5096C133.838 34.5852 133.67 34.6776 134.048 34.5096C134.048 34.6104 134.048 34.56 134.115 34.6104C134.165 34.5801 134.219 34.5574 134.275 34.5432C134.199 34.686 134.183 34.7532 134.334 34.8708C134.334 34.7784 134.409 34.812 134.519 34.7868C134.582 34.7763 134.64 34.747 134.687 34.7028C134.818 34.8021 134.976 34.8605 135.14 34.8708V34.5012C135.207 34.5458 135.286 34.5692 135.367 34.5684C135.373 34.4817 135.373 34.3948 135.367 34.3081C135.501 34.2325 135.485 34.308 135.434 34.0813C135.384 33.8545 135.434 34.0813 135.434 33.9637C135.434 33.8461 135.375 33.7117 135.552 33.6697C135.535 33.7585 135.535 33.8497 135.552 33.9385C135.552 34.0309 135.753 33.9973 135.879 34.1233C136.005 34.2493 135.938 34.2157 136.047 34.2409C136.156 34.2661 136.089 34.0981 136.114 34.0225C136.215 34.0897 136.114 34.0729 136.274 34.0813C136.308 33.9896 136.328 33.8933 136.333 33.7957C136.383 33.7957 136.274 33.7957 136.434 33.7957C136.434 33.5437 136.299 33.4765 136.299 33.3421C136.299 33.2077 136.358 33.2497 136.4 33.1825C136.359 33.2542 136.336 33.335 136.333 33.4177C136.397 33.4279 136.462 33.4279 136.526 33.4177C136.534 33.5158 136.556 33.6121 136.593 33.7033C136.641 33.6931 136.684 33.6694 136.718 33.6351C136.753 33.6009 136.776 33.5575 136.786 33.5101C137.215 33.7453 137.047 33.6445 137.265 33.5101C137.294 33.5603 137.317 33.6139 137.332 33.6697H137.425C137.5 33.3589 137.5 33.7117 137.492 33.2497H137.652C137.652 33.0649 137.408 32.9389 137.232 32.9305V32.7961C137.164 32.6701 137.232 32.8717 137.164 32.7037C137.27 32.6849 137.378 32.6849 137.484 32.7037C137.61 32.519 137.484 32.603 137.71 32.5106C137.698 32.4017 137.698 32.2918 137.71 32.183C137.761 32.1326 137.761 32.183 137.878 32.183C137.878 32.015 137.878 32.183 137.836 32.0318C137.794 31.8806 137.836 32.0318 137.836 31.889C138.072 31.889 138.046 31.889 138.139 31.9478C138.231 32.0066 138.139 31.9478 138.248 32.0318L138.382 32.1158V32.4434C138.382 32.561 138.382 32.4434 138.382 32.5358C138.382 32.6282 138.458 32.4518 138.643 32.4098V32.5358H138.836L138.912 32.9137C138.954 33.0565 139.012 33.0817 139.189 33.0817C139.239 32.8549 139.382 32.9137 139.382 32.6365C139.483 32.7037 139.382 32.6869 139.541 32.6953C139.541 32.561 139.583 32.5946 139.541 32.4434C139.516 32.3614 139.476 32.2847 139.424 32.2166L139.541 32.1158C139.575 32.1882 139.601 32.2643 139.617 32.3426C139.709 32.3426 139.701 32.3426 139.76 32.267C139.76 32.393 139.76 32.3258 139.861 32.4182C139.961 32.5106 139.861 32.4937 139.953 32.6197C140.121 32.5693 140.062 32.5022 140.171 32.4182C140.281 32.3342 140.381 32.4182 140.398 32.1998C140.457 32.1998 140.566 32.4266 140.625 32.4266C140.684 32.4266 140.726 32.3846 140.818 32.3594C140.818 32.4938 140.768 32.4854 140.818 32.5862C141.053 32.4602 140.978 32.2586 141.045 32.1326L141.095 32.057C141.095 31.9058 141.095 32.015 141.095 31.973H141.423V31.8806C141.423 31.6958 141.423 31.9646 141.423 31.8218L141.717 32.015C141.776 31.7462 141.927 31.3934 141.549 31.3094C141.641 31.1498 141.44 31.1246 141.683 31.1162C141.683 31.3682 142.053 31.6706 141.969 31.3094C142.028 31.3438 142.084 31.3831 142.137 31.427C142.229 31.511 142.187 31.5194 142.322 31.5362C142.334 31.4302 142.334 31.323 142.322 31.217C142.238 30.8055 142.322 31.1414 142.322 30.9902C142.322 30.8391 142.171 30.7887 142.07 30.7635C142.112 30.5871 142.448 30.4443 142.003 30.4443C141.893 30.4443 141.683 30.6039 141.524 30.3771C141.65 30.3771 141.616 30.3771 141.65 30.2847C141.594 30.2601 141.534 30.2475 141.473 30.2475C141.413 30.2475 141.353 30.2601 141.297 30.2847L141.406 30.1671C141.406 30.0243 141.205 30.0075 141.087 29.9739V29.8143C140.944 29.8143 141.028 29.8143 140.86 29.8143C140.86 29.5623 140.793 29.4699 140.793 29.2347C140.642 29.2347 140.743 29.2347 140.65 29.1591C140.549 29.0584 140.65 29.092 140.65 28.9912C140.65 28.8904 140.575 28.924 140.474 28.9156C140.483 28.8627 140.483 28.8088 140.474 28.756C140.642 28.756 140.524 28.756 140.583 28.756C140.642 28.756 140.726 28.84 140.751 28.6552L140.793 28.546C140.793 28.462 140.684 28.3948 140.633 28.3192C140.759 28.3192 140.751 28.2268 140.86 28.1596C141.028 28.2856 141.02 28.5544 141.213 28.2184C141.213 28.1512 141.297 28.0672 141.331 27.9832C141.389 27.7888 141.389 27.5813 141.331 27.3869C141.566 27.3869 141.751 27.496 141.877 27.2525C141.954 27.2921 142.027 27.34 142.095 27.3952C142.17 27.4708 142.171 27.538 142.263 27.6136C142.347 27.5315 142.407 27.4274 142.435 27.3131C142.463 27.1988 142.459 27.0788 142.422 26.9669C142.33 26.5469 142.422 26.8073 142.422 26.4209C142.599 26.4209 142.733 26.4209 142.775 26.3201V26.1689C142.728 26.0284 142.666 25.8932 142.59 25.7658C142.55 25.6934 142.505 25.6233 142.456 25.5558L142.297 25.329C142.49 25.035 142.742 25.329 142.742 24.909C142.742 24.489 142.414 24.2454 142.355 24.069H142.297C142.297 24.1782 142.297 24.1362 142.196 24.195L142.078 24.0522C141.829 23.8689 141.542 23.7427 141.238 23.6827C141.28 23.5987 141.238 23.6827 141.238 23.5231C141.364 23.5231 141.331 23.5735 141.364 23.7163L141.431 23.5483C141.683 23.5483 141.734 23.5903 141.591 23.3299C141.994 23.1115 141.742 23.1871 141.717 22.8763C141.574 22.8763 141.667 22.8763 141.591 22.8091C141.675 22.7798 141.763 22.76 141.851 22.7503C141.801 22.6747 141.851 22.7083 141.751 22.6831C141.751 22.5571 141.801 22.6075 141.818 22.5739C141.835 22.5403 141.818 22.5739 141.818 22.4899C141.924 22.4954 142.031 22.4954 142.137 22.4899L141.969 22.3051C142.065 22.2811 142.164 22.2671 142.263 22.2631C142.204 22.1792 142.213 22.2044 142.137 22.1372C142.061 22.07 142.137 22.1372 142.07 22.0112H141.751C141.729 21.9282 141.678 21.856 141.606 21.8081C141.535 21.7602 141.449 21.7398 141.364 21.7508C141.566 21.3728 141.549 21.4988 141.692 21.2972C141.532 21.0704 141.104 21.2552 140.927 21.3476L140.768 21.4652C140.684 21.5072 140.675 21.4652 140.659 21.5912C140.432 21.44 140.474 21.2804 140.079 21.272C140.108 21.1074 140.088 20.9378 140.02 20.7848C139.861 20.8268 139.936 20.8856 139.693 20.8856C139.693 20.5748 139.491 20.8016 139.6 20.3397C139.659 20.3397 139.861 20.5917 139.886 20.5917C139.911 20.5917 140.113 20.2305 140.113 20.0793C140.25 20.1304 140.39 20.1725 140.533 20.2053C140.552 20.0373 140.519 19.8675 140.44 19.7181C140.44 19.6509 140.373 19.6257 140.373 19.6005C140.373 19.3485 140.642 19.6005 140.558 19.2813L140.398 18.8614C140.827 18.8194 140.768 18.2818 141.011 18.2146V18.1222H140.852C140.852 18.0466 140.978 17.9626 140.978 17.929C140.978 17.7106 140.65 17.6098 140.432 17.6014C140.432 17.4334 140.491 17.5006 140.499 17.3158C140.326 17.3212 140.156 17.2646 140.02 17.1563C140.113 16.9547 140.155 16.9043 140.407 16.8707C140.659 16.8371 140.692 16.8203 140.457 16.4591C140.381 16.3583 140.297 16.2743 140.239 16.1903C140.423 16.1903 140.474 16.1231 140.398 15.9635C140.533 15.9635 140.474 15.9635 140.566 15.9635C140.432 15.4092 140.062 15.342 139.609 15.216C139.545 15.1864 139.477 15.1693 139.407 15.1656C139.407 15.0312 139.407 14.9724 139.407 14.8632C139.407 14.754 139.34 14.7624 139.273 14.7456C139.34 14.6364 139.357 14.6952 139.365 14.5524C139.232 14.4954 139.09 14.4613 138.945 14.4516C138.752 14.4516 138.752 14.5272 138.752 14.292C138.752 14.2332 138.92 13.8973 138.559 14.0988C138.497 14.1433 138.444 14.1972 138.399 14.2584L138.332 14.3508L138.29 14.4012C138.097 14.6196 137.845 14.166 137.694 14.166C137.542 14.166 137.559 14.3676 137.517 14.4348C137.475 14.502 137.517 14.4348 137.475 14.4936C137.467 14.5549 137.467 14.6171 137.475 14.6784C137.33 14.5762 137.168 14.4996 136.996 14.4516V14.3928C137.05 14.388 137.103 14.388 137.156 14.3928C137.151 14.2885 137.119 14.1872 137.064 14.0988C137.145 14.0578 137.218 14.0039 137.282 13.9392C137.416 13.8301 137.391 13.8804 137.475 13.7125C137.335 13.6517 137.183 13.6203 137.03 13.6201C137.089 13.3597 137.03 13.3597 136.803 13.3597C136.803 13.0237 137.064 12.9061 137.064 12.6541C137.064 12.4021 136.912 12.5533 136.837 12.5953C136.837 12.2929 136.744 12.2509 136.736 12.0158C136.459 12.0158 136.602 12.4021 136.341 12.083C136.266 11.9906 136.173 11.873 136.03 11.8898C135.888 11.9066 136.098 11.9654 135.871 11.8898C135.871 11.7722 135.93 11.7974 135.997 11.6966C135.879 11.6294 135.795 11.6966 135.678 11.6966C135.678 11.3942 135.459 11.579 135.417 11.7638C135.258 11.6798 135.241 11.8058 135.199 11.6294C135.157 11.453 135.199 11.579 135.199 11.4698C135.199 11.3606 135.199 11.4698 135.132 11.3438C135.308 11.3438 135.249 11.285 135.392 11.243C135.408 11.357 135.465 11.4614 135.552 11.537C135.661 11.4782 135.644 11.537 135.678 11.3774C135.764 11.3741 135.848 11.4042 135.913 11.4614C135.992 11.5254 136.089 11.5635 136.19 11.5706C136.242 11.4694 136.265 11.3563 136.257 11.243L136.358 11.3102C136.442 11.3606 136.358 11.3102 136.484 11.3774C136.533 11.2316 136.553 11.0774 136.543 10.9238C136.686 10.9238 136.694 10.9238 136.711 10.7978C136.762 10.8177 136.808 10.8494 136.845 10.8902C136.946 10.9742 136.845 10.9406 136.996 10.9574C137.001 10.7477 136.933 10.5429 136.803 10.3779C136.87 10.3333 136.949 10.3099 137.03 10.3107C136.946 9.94948 136.408 9.91588 136.291 9.73109L136.232 9.6219H136.366C136.366 9.32792 135.871 9.25232 135.652 9.30272C135.745 9.10953 135.459 9.04233 135.3 9.04233C135.602 8.63076 135.913 9.04233 135.812 8.65595C135.904 8.69795 135.854 8.65595 135.98 8.65595V8.56356C136.048 8.59795 136.122 8.61798 136.198 8.62236C136.308 8.62236 136.299 8.57196 136.392 8.52996H136.492C136.462 8.49043 136.422 8.45852 136.377 8.43667C136.332 8.41483 136.282 8.40363 136.232 8.40396L136.324 8.30317C136.423 8.09032 136.444 7.84947 136.383 7.62282C136.434 7.48842 136.442 7.62282 136.45 7.43803C136.056 7.34563 136.022 7.64802 135.778 7.66482C135.764 7.58994 135.764 7.51291 135.778 7.43803C135.568 7.43803 135.711 7.43803 135.552 7.50522C135.342 7.32043 135.384 7.20284 134.972 7.32043C134.779 7.37083 134.905 7.32043 134.779 7.32043C134.653 7.32043 134.603 7.42963 134.519 7.48003C134.519 7.33723 134.519 7.21124 134.519 7.12725C134.519 6.82487 134.342 6.81646 134.199 7.02645L134.006 6.92566C133.99 6.90148 133.976 6.87622 133.964 6.85006C133.863 6.69887 133.805 6.76607 133.721 6.64008L134.199 6.48048C134.174 6.41595 134.134 6.35837 134.082 6.3125C133.981 6.2285 133.989 6.31249 133.88 6.2285C133.931 6.2285 133.821 6.2285 133.973 6.2285C133.905 6.0857 134.065 5.95131 134.073 5.74132H133.863C133.863 5.37174 134.124 5.43895 133.964 5.19536C134.351 5.09457 133.964 4.75019 133.611 4.90978L133.443 4.97698L133.645 4.79219C133.587 4.75652 133.52 4.73628 133.452 4.73338C133.48 4.5406 133.546 4.35517 133.645 4.18742C133.553 4.18742 133.586 4.18742 133.452 4.18742C133.452 4.06983 133.62 3.92703 133.452 3.94383C133.284 3.96063 133.242 4.07823 133.183 4.12022C133.183 3.59945 132.965 3.56586 132.956 3.28027C132.738 3.28027 132.654 3.53226 132.62 3.71705C132.593 3.81509 132.585 3.9177 132.598 4.01874C132.611 4.11978 132.644 4.21716 132.696 4.30501H132.503C132.518 4.19331 132.505 4.07956 132.466 3.974C132.426 3.86844 132.361 3.77437 132.276 3.70025L132.125 3.83464C131.873 3.46507 131.906 3.64145 131.696 3.47346C131.486 3.30547 131.604 3.25508 131.503 3.17948C131.46 3.22177 131.426 3.27293 131.404 3.32948C131.383 3.38602 131.373 3.44661 131.377 3.50706C131.243 3.41467 131.159 3.26347 130.932 3.24667L131.092 2.98629C130.969 2.94501 130.838 2.93265 130.71 2.95013C130.582 2.96761 130.46 3.01449 130.352 3.08709C130.352 2.9611 130.058 2.8099 130.058 2.98629C130.058 3.16268 130.058 3.02829 130.058 3.12068C129.89 3.12068 129.748 3.07028 129.655 3.12068C129.563 3.17108 129.605 3.20468 129.504 3.22988C129.403 3.25508 129.403 3.22988 129.286 3.22988C129.112 3.08882 128.896 3.00909 128.673 3.00309C128.673 3.18788 128.673 3.11229 128.773 3.22988C128.639 3.29707 128.597 3.22987 128.58 3.42306C128.636 3.43382 128.688 3.46118 128.728 3.50162C128.769 3.54205 128.796 3.59369 128.807 3.64985C128.622 3.76745 128.286 3.69184 128.051 3.75904C127.816 3.82623 127.917 3.80104 127.908 3.93543C127.961 3.93066 128.015 3.93066 128.068 3.93543C127.992 4.03623 128.009 3.93543 127.933 4.06142C127.865 4.11931 127.821 4.19987 127.807 4.28821H128.001C128.051 4.35536 128.085 4.43285 128.101 4.515C127.921 4.55303 127.76 4.65432 127.648 4.80058L127.102 4.70819C127.128 4.59362 127.171 4.48334 127.228 4.38061C127.228 4.12022 126.623 3.99422 126.388 3.99422V4.12862C126.091 4.16487 125.805 4.2621 125.548 4.4142C125.548 4.3386 125.548 4.41421 125.548 4.35541C125.548 4.29661 125.548 4.35541 125.548 4.28821C125.616 4.22053 125.705 4.17641 125.8 4.16222C125.8 4.01943 125.8 4.02782 125.64 3.99422C125.647 3.91035 125.647 3.82613 125.64 3.74225C125.204 3.63306 125.254 3.93543 124.616 3.93543C124.893 3.51546 124.817 3.79264 124.742 3.51546C124.876 3.46506 124.901 3.26347 124.901 3.12908L124.515 3.22988C124.515 3.07869 124.448 2.96949 124.448 2.8099C124.322 2.8099 124.338 2.8099 124.263 2.8771C124.118 3.02184 124.036 3.21821 124.036 3.42306C124.036 3.48186 124.078 3.52385 124.095 3.61625C123.666 3.61625 123.868 3.54066 123.515 3.77584C123.515 3.70025 123.465 3.68345 123.398 3.63305C123.036 3.36427 123.288 3.80944 123.011 3.74225C122.943 3.72654 122.876 3.7069 122.81 3.68345C122.763 3.63761 122.731 3.57924 122.717 3.51546C123.146 3.51546 123.146 3.51546 122.843 3.06189C122.934 3.00988 123.029 2.96763 123.129 2.93589C123.062 2.67551 122.742 2.7679 122.65 2.61671C122.558 2.46551 122.65 2.6839 122.65 2.42352C122.523 2.34179 122.38 2.28744 122.23 2.26393C122.381 1.94475 122.163 1.81876 122.163 1.49117C122.028 1.49117 122.112 1.49118 122.003 1.55837C122.003 1.42398 122.003 1.44918 122.003 1.36519C121.76 1.30639 121.718 1.36519 121.491 1.52478C121.479 1.45825 121.459 1.39338 121.432 1.33158C121.239 1.38198 121.331 1.51638 121.012 1.52478C120.937 1.2056 121.121 1.21399 121.138 0.978804C120.962 0.917265 120.778 0.883269 120.592 0.878014C120.668 0.718424 120.643 0.71842 120.525 0.651224C120.575 0.575629 120.567 0.651229 120.592 0.525237C120.436 0.446468 120.258 0.418686 120.085 0.445799C119.912 0.472913 119.751 0.553556 119.626 0.676422L119.433 0.785619C119.433 0.592431 119.265 0.626027 119.114 0.626027V0.491631C119.018 0.494882 118.927 0.532188 118.856 0.596843C118.785 0.661498 118.739 0.749266 118.727 0.844409L118.685 0.794014C118.593 0.710019 118.534 0.693221 118.501 0.558829C118.249 0.626025 118.375 0.894818 118.375 1.172C118.274 1.172 117.896 1.172 117.896 1.29799L117.997 1.60877C117.997 1.65076 118.047 1.65917 118.089 1.71796C117.945 1.7436 117.804 1.78587 117.669 1.84395C117.669 1.69276 117.812 1.62557 117.51 1.61717V1.172C117.266 1.172 117.325 1.31478 117.123 1.33158C117.123 1.19719 117.123 1.23919 116.964 1.23079C116.804 1.22239 116.964 1.32318 116.838 1.33158C116.712 1.33998 116.762 1.1132 116.72 0.995607C116.678 0.878014 116.67 0.785619 116.485 0.785619V0.911607C116.369 0.817636 116.242 0.738619 116.107 0.676422C115.914 0.626025 116.166 0.903206 116.006 0.936804C115.846 0.970402 115.712 0.878008 115.62 0.936804C115.527 0.995601 115.72 1.04601 115.519 1.0628V0.903212C115.376 0.903212 115.376 0.953605 115.359 1.0964C115.166 0.995603 115.158 1.09641 115.233 1.28959H115.174H115.124C114.99 1.2476 115.04 1.1972 114.864 1.1972C114.864 1.05441 114.864 1.0964 114.864 0.970409C115.141 0.970409 115.158 1.10479 115.141 0.819212C115.141 0.701619 115.191 0.81922 115.09 0.710027C115.09 0.710027 115.091 0.710027 115.158 0.710027C115.225 0.710027 115.158 0.710023 115.158 0.600829C115.158 0.500035 115.116 0.449632 115.015 0.424434C115.09 0.348838 115.107 0.382447 115.107 0.264854H114.914C114.914 0.138861 114.914 0.130458 114.914 0.0380638C114.914 -0.0543308 114.847 0.0380597 114.755 0.138854C114.755 0.0464592 114.755 0.0884608 114.687 0.0380638C114.64 0.0984524 114.58 0.147286 114.511 0.180854C114.385 0.231251 114.351 0.180855 114.335 0.365644C114.242 0.365644 114.267 0.365648 114.242 0.264854H114.141V0.458039C114.049 0.458039 114.083 0.458039 114.015 0.458039C114.022 0.544721 114.022 0.63174 114.015 0.718422C113.831 0.57563 113.915 0.491631 113.595 0.491631C113.595 0.676421 113.595 0.49163 113.637 0.634422C113.679 0.777213 113.637 0.634433 113.637 0.777224C113.682 0.782145 113.725 0.795813 113.763 0.817443C113.802 0.839073 113.837 0.868227 113.864 0.903212C113.705 0.978807 113.747 0.827616 113.511 0.810817C113.511 1.0124 113.562 0.894816 113.511 1.13L113.453 1.0712C113.394 0.962006 113.453 0.920012 113.318 0.878014C113.503 0.542034 113.394 0.684829 113.226 0.684829C113.058 0.684829 113.15 0.684829 112.999 0.684829C112.999 0.852819 113.058 0.760419 112.999 0.836014C112.94 0.91161 112.923 0.836017 112.881 0.970409C112.781 0.903213 112.881 0.920006 112.722 0.911607V0.718422C112.52 0.718422 112.646 0.785615 112.571 0.676422C112.495 0.567228 112.503 0.53364 112.419 0.542039C112.335 0.550439 112.562 0.810817 112.209 0.810817C112.209 0.995606 112.109 1.0292 112.008 0.911607L111.949 0.810817C111.873 0.861214 111.907 0.810813 111.882 0.911607C111.697 0.86121 111.764 0.827612 111.563 0.911607C111.563 1.0292 111.563 0.978805 111.655 1.0712C111.504 1.17199 111.546 1.1972 111.546 1.29799C111.546 1.39878 111.496 1.44078 111.655 1.45758C111.655 1.61717 111.655 1.45758 111.655 1.57517C111.655 1.69277 111.655 1.52477 111.748 1.68436C111.613 1.68436 111.672 1.68436 111.554 1.68436C111.437 1.68436 111.554 1.72636 111.462 1.72636C111.37 1.72636 111.462 1.66756 111.336 1.72636C111.21 1.78516 111.403 1.84395 111.134 1.86915C111.244 1.71796 111.21 1.86916 111.227 1.70957C111.16 1.65077 111.076 1.70957 111.008 1.70957V1.60877H110.908C110.922 1.53671 110.922 1.46244 110.908 1.39038C110.731 1.39038 110.807 1.54998 110.714 1.54998C110.622 1.54998 110.555 1.48277 110.429 1.44917C110.303 1.41558 110.429 1.44918 110.429 1.51637V1.58357C110.362 1.53317 110.496 1.58357 110.345 1.53317C110.309 1.51405 110.268 1.50406 110.227 1.50406C110.186 1.50406 110.146 1.51405 110.11 1.53317C110.126 1.58313 110.156 1.6276 110.196 1.66169C110.236 1.69577 110.284 1.71815 110.336 1.72636C110.294 1.87755 110.227 1.78516 110.336 1.94476H110.143L110.185 2.15474C110.185 2.20514 110.185 2.25554 110.37 2.27234C110.311 2.49912 110.32 2.40673 110.177 2.36473C110.034 2.32273 110.177 2.36472 110.11 2.49911C110.009 2.49911 110.017 2.45713 109.916 2.43193C109.816 2.40673 109.916 2.43192 109.849 2.49911C109.849 2.6755 109.849 2.59992 109.95 2.71751C109.824 2.71751 109.874 2.71751 109.79 2.71751C109.866 2.8351 109.866 2.7175 109.79 2.8435C109.756 2.86261 109.717 2.87264 109.677 2.87264C109.637 2.87264 109.598 2.86261 109.564 2.8435C109.463 2.7847 109.488 2.75111 109.37 2.71751V2.8771C109.286 2.8771 109.303 2.8771 109.211 2.8771V2.91909C109.261 3.02828 109.211 2.99469 109.211 3.13748H109.505C109.505 3.25508 109.505 3.25507 109.379 3.26347C109.253 3.27187 109.379 3.20468 109.379 3.13748H109.169C109.127 3.06189 109.127 3.04509 108.984 3.13748C108.841 3.22988 108.715 3.21308 108.505 3.21308C108.505 3.36427 108.564 3.32226 108.64 3.43146C108.446 3.48186 108.48 3.54065 108.404 3.68345L108.346 3.95224C108.665 3.95224 108.522 3.95224 108.606 3.95224C108.69 3.95224 108.749 3.85984 108.858 3.95224C108.858 4.02783 108.74 4.00263 108.698 4.14542C108.448 4.12052 108.196 4.15209 107.959 4.23782C107.959 4.39741 108.06 4.38061 108.06 4.59059C107.472 4.87618 106.523 4.3554 106.061 5.04416H106.145C106.095 5.11136 106.044 5.14496 106.011 5.19536C105.977 5.24576 106.011 5.34656 105.885 5.39695C105.759 5.44735 105.465 5.39695 105.271 5.39695C105.213 5.48935 105.213 5.39694 105.179 5.55653C105.243 5.54632 105.308 5.54632 105.372 5.55653C105.343 5.64943 105.343 5.74923 105.372 5.84213C105.171 5.95456 104.987 6.09607 104.826 6.2621C104.935 6.2621 104.927 6.26209 104.952 6.39648C104.684 6.45528 104.608 6.65687 104.507 6.87526H104.759C104.73 6.92427 104.71 6.97843 104.7 7.03485C104.809 7.1155 104.944 7.15156 105.078 7.13564C105.07 7.22495 105.094 7.31427 105.145 7.38763C105.087 7.40998 105.034 7.44488 104.991 7.48987C104.947 7.53486 104.914 7.58884 104.894 7.64801C104.814 7.58804 104.716 7.55562 104.616 7.55562C104.516 7.55562 104.419 7.58804 104.339 7.64801C104.415 7.74881 104.398 7.64801 104.474 7.774C104.364 7.93359 104.138 7.95039 104.121 8.19398C104.245 8.14355 104.383 8.14355 104.507 8.19398C104.489 8.32215 104.489 8.45218 104.507 8.58036H104.767C104.763 8.62463 104.749 8.66748 104.727 8.70641C104.706 8.74534 104.676 8.77959 104.642 8.80715C104.642 8.70636 104.642 8.75675 104.642 8.67275C104.585 8.66619 104.529 8.67936 104.481 8.71001C104.434 8.74066 104.398 8.78687 104.381 8.84074C104.264 8.84074 104.339 8.84074 104.222 8.77354L104.129 8.87435C104.083 8.85207 104.033 8.84049 103.982 8.84049C103.931 8.84049 103.881 8.85207 103.835 8.87435C103.835 9.00034 103.953 9.01713 104.028 9.12632C103.967 9.12627 103.908 9.14702 103.86 9.18513C103.751 9.26072 103.768 9.38671 103.709 9.48751C103.482 9.86549 103.776 9.73949 103.902 9.70589V9.80669C104.023 9.78608 104.142 9.75227 104.255 9.70589C104.196 9.85708 104.255 9.7059 104.188 9.80669C103.986 10.0923 104.188 9.94948 103.919 10.1175C103.869 10.1175 103.76 10.2771 103.793 10.3443C103.827 10.4115 103.97 10.3443 104.096 10.3443C104.028 10.4451 103.844 10.7054 104.096 10.7306C104.091 10.7809 104.091 10.8315 104.096 10.8818C104.096 11.0162 104.096 10.9574 104.188 10.9826C104.28 11.0078 104.087 11.0834 104.087 11.1506V11.1926C104.087 11.2766 103.944 11.2514 103.902 11.1926C103.659 11.0834 103.827 11.3522 103.768 11.4698C103.709 11.5874 103.684 11.4698 103.667 11.6882C103.508 11.6882 103.533 11.6882 103.44 11.7554C103.416 11.5662 103.337 11.3882 103.214 11.243C103.121 11.3018 103.096 11.3522 103.088 11.495H103.02C103.02 11.369 102.894 11.3354 102.768 11.3354C102.642 11.3354 102.768 11.4026 102.768 11.5286C102.626 11.5286 102.71 11.5286 102.609 11.5958C102.5 11.4362 102.432 11.537 102.416 11.3354C102.329 11.3297 102.242 11.3297 102.155 11.3354C102.12 11.2643 102.064 11.2051 101.996 11.1648C101.927 11.1246 101.848 11.1051 101.769 11.1086V11.2346C101.374 11.2346 101.441 10.9322 101.114 10.8986C101.013 10.8986 101.055 10.8566 101.021 10.8986C100.988 10.9406 101.021 10.8986 101.021 10.991C101.021 11.0834 100.895 11.117 100.845 11.2598C100.702 11.6294 100.475 11.411 99.963 11.411C99.8874 11.5118 99.879 11.453 99.8622 11.5958C100.03 11.5958 99.9966 11.5958 100.089 11.663C100.039 11.8646 99.9714 11.7638 100.089 11.9822C99.9126 12.1082 99.4674 12.3181 99.417 12.5281C99.543 12.5281 99.543 12.5281 99.5766 12.6625C99.4383 12.7025 99.3139 12.7803 99.2175 12.8871C99.121 12.994 99.0563 13.1256 99.0306 13.2673C99.1245 13.2445 99.2224 13.2445 99.3162 13.2673C99.3162 13.4101 99.1986 13.4437 99.3162 13.5361C99.4398 13.6021 99.5797 13.6313 99.7194 13.6201C99.7207 13.7298 99.7436 13.8383 99.7866 13.9392C99.7149 13.9525 99.6487 13.9867 99.5964 14.0376C99.5441 14.0884 99.508 14.1535 99.4926 14.2248C99.291 14.1744 99.1566 13.9728 98.8207 14.2248C98.9215 14.3592 99.0474 14.334 98.8207 14.4768C98.5939 14.6196 98.5183 14.6448 98.4931 14.8632C98.6275 14.8632 98.5687 14.8632 98.6863 14.8632C98.8039 14.8632 98.8375 14.8632 98.9803 14.8632C98.9379 15.0314 98.9379 15.2074 98.9803 15.3756C99.0862 15.3614 99.1935 15.3614 99.2994 15.3756C99.2573 15.4559 99.2235 15.5403 99.1986 15.6275C99.4338 15.6863 99.8706 15.7871 99.5178 16.0391C99.4567 16.0791 99.4053 16.1323 99.3675 16.1948C99.3297 16.2574 99.3064 16.3276 99.2994 16.4003C99.1902 16.4003 99.2238 16.4003 99.1398 16.3079C99.0256 16.2451 98.9078 16.189 98.7871 16.1399C98.6695 16.0811 98.7871 16.0643 98.5939 16.0475C98.5015 16.4423 98.7031 16.5347 98.8459 16.8203H98.5603C98.5582 16.8737 98.5703 16.9267 98.5954 16.9739C98.6205 17.0212 98.6576 17.0609 98.7031 17.0891L98.8626 17.1563C98.9201 17.1738 98.9816 17.1738 99.0391 17.1563V17.6266C99.0894 17.7442 99.1566 17.761 99.249 17.8366C99.3414 17.9122 99.1986 17.9122 99.3666 18.0634C99.5346 18.2146 99.4338 18.1138 99.5094 18.1558C99.3246 18.433 99.207 18.3658 98.9718 18.2734C98.8572 18.2275 98.7339 18.2074 98.6107 18.2146C98.5099 18.3994 98.5687 18.3742 98.3839 18.475C98.4259 18.5338 98.4511 18.5338 98.4763 18.601L98.4343 18.6598C98.4343 18.6598 98.4343 18.7186 98.3923 18.7438C98.366 18.7923 98.3435 18.8429 98.3251 18.895C98.2826 19.0213 98.249 19.1504 98.2243 19.2813C98.1004 19.2309 97.9618 19.2309 97.8379 19.2813C97.9135 19.5669 97.9303 19.2813 97.9303 19.8945C97.6615 19.8945 97.6867 20.0289 97.5691 20.1717C97.4515 20.3145 97.3255 20.3229 97.3171 20.6C97.4935 20.6 97.5019 20.6 97.6447 20.6C97.6385 20.6867 97.6385 20.7738 97.6447 20.8604C97.7006 20.8185 97.7681 20.795 97.8379 20.7932C97.858 20.9477 97.8348 21.1048 97.7707 21.2468C97.855 21.2156 97.9422 21.1931 98.0311 21.1796C97.9302 21.3673 97.8864 21.5805 97.9051 21.7928C98.1067 21.7424 98.0815 21.5156 98.2579 21.4652C98.2579 21.5996 98.2579 21.5744 98.2579 21.6584C98.6779 21.566 98.3923 21.6584 98.3923 22.112C98.6493 22.0877 98.908 22.0877 99.165 22.112L99.1231 22.4311C99.3027 22.432 99.4794 22.3857 99.6354 22.2968C99.7698 22.2044 99.837 22.07 99.963 21.986C99.921 22.1624 99.8958 22.154 99.963 22.3388C100.081 22.3388 100.081 22.2464 100.181 22.1792V22.5319H99.9966C100.022 22.6059 100.042 22.6817 100.055 22.7587C99.963 22.7587 99.9882 22.7587 99.963 22.8511C99.7194 22.8511 99.6858 22.8511 99.5262 22.9267C99.3666 23.0023 99.333 23.0695 99.4002 23.1283C101.501 23.9989 103.177 25.6571 104.07 27.748C104.446 28.847 104.675 29.9909 104.751 31.1498C104.877 32.4098 104.952 33.9217 104.961 35.6856H105.003C104.997 35.7378 104.982 35.7888 104.961 35.8368C104.961 36.0215 104.961 36.2063 104.961 36.3911V37.0211L105.187 36.8531V36.9791C105.381 36.9791 105.54 36.8027 105.7 36.7187C105.7 36.8279 105.742 36.9119 105.759 37.0127C105.969 37.0127 105.943 36.9119 106.086 36.8195L106.246 36.9791C106.632 37.2731 106.531 36.9119 106.531 36.8195C106.725 36.9455 106.8 37.1051 106.918 37.1387C106.962 36.9282 106.962 36.7108 106.918 36.5003H107.044C107.048 36.3961 107.019 36.2932 106.962 36.206C106.905 36.1187 106.822 36.0513 106.725 36.0131C106.753 35.9629 106.776 35.9093 106.792 35.8536C106.918 35.8536 106.859 35.8536 106.96 35.9711C107.061 36.0887 107.111 36.0467 107.178 36.0803C107.245 36.1139 107.229 36.0803 107.237 35.9543C107.329 36.0425 107.427 36.1239 107.531 36.1979L107.758 36.3659C107.808 36.4163 107.758 36.4079 107.85 36.4331C107.943 36.2483 107.909 36.0467 108.01 35.8536H108.363C108.363 35.736 108.363 35.736 108.363 35.6604C108.359 35.596 108.359 35.5315 108.363 35.4672C108.598 35.4672 108.497 35.4 108.682 35.4672C108.682 35.6016 108.682 35.5848 108.682 35.6604C108.682 35.736 108.749 35.8368 108.774 35.946C108.925 35.904 108.942 35.736 109.127 35.694C109.127 35.694 110.496 35.3076 110.605 34.5684C110.714 33.8293 110.647 34.392 110.672 34.2744C110.698 34.1569 110.513 34.2745 110.479 34.1485C110.647 34.0057 110.882 34.266 110.992 34.2744C110.992 34.1233 111.042 34.1653 111.126 34.0477C111.075 33.9605 111.019 33.8764 110.958 33.7957C111.134 33.7957 111.067 33.8629 111.151 34.0225C111.26 33.9469 111.151 33.9637 111.286 33.8881C111.449 33.9479 111.624 33.9709 111.798 33.9553C111.739 33.8461 111.798 33.8629 111.672 33.7957C111.739 33.6865 111.831 33.9301 111.831 33.5689C111.871 33.5523 111.914 33.5437 111.957 33.5437C112.001 33.5437 112.044 33.5523 112.083 33.5689C112.083 33.8461 111.991 33.8125 112.083 34.0477L112.352 33.8293C112.478 33.7201 112.554 33.8293 112.571 33.6025H112.629C112.671 33.7621 112.747 33.8545 112.923 33.8545C112.923 33.8125 112.923 33.8545 112.923 33.7873C112.923 33.7201 112.923 33.7873 112.923 33.7285H112.982C113.029 33.7652 113.084 33.7898 113.143 33.8C113.201 33.8103 113.262 33.8059 113.318 33.7873C113.402 33.7873 113.369 33.7873 113.394 33.7033C113.486 33.7033 113.755 33.8965 113.562 33.6361C113.481 33.5202 113.367 33.4321 113.234 33.3841V33.2581C113.352 33.2581 113.327 33.1993 113.461 33.1909C113.461 33.0397 113.461 33.1069 113.36 32.9977L113.587 32.9305C113.587 32.7289 113.486 32.6953 113.343 32.5945L113.234 32.519C113.016 32.519 112.999 32.5945 112.781 32.519C112.77 32.4465 112.77 32.373 112.781 32.3006C113.041 32.1746 112.974 32.3006 112.949 32.0318C112.949 31.9142 112.949 31.9814 112.949 31.847C112.949 31.7126 112.848 31.7966 112.823 31.6874C112.999 31.637 113.108 31.427 113.402 31.6202C113.503 31.553 113.453 31.6202 113.461 31.4942C113.507 31.5111 113.55 31.5368 113.587 31.5698C113.696 31.6622 113.772 31.7126 113.822 31.5278H113.881C113.881 31.6286 113.881 31.6538 113.982 31.6874C114.083 31.721 113.982 31.6874 114.167 31.7294C114.351 31.7714 114.259 31.7294 114.318 31.5446L114.368 31.4606C114.424 31.5026 114.492 31.526 114.561 31.5278C114.57 31.475 114.57 31.4211 114.561 31.3682C114.713 31.4774 114.561 31.553 114.889 31.6202C114.889 31.8134 114.889 31.9646 115.082 32.0066C115.082 32.1158 114.998 32.225 115.141 32.267C115.063 32.3717 115.008 32.492 114.981 32.6197C115.032 32.6197 114.981 32.6197 115.049 32.6197H115.107C115.125 32.7522 115.159 32.882 115.208 33.0061C115.317 33.0061 115.284 33.0061 115.334 32.9053H115.376C115.435 32.9053 115.309 32.9053 115.468 32.9053C115.512 32.8574 115.544 32.7998 115.561 32.7373C115.561 32.6449 115.561 32.7373 115.561 32.6449C115.561 32.5525 115.603 32.5945 115.628 32.5525C115.752 32.602 115.882 32.6331 116.014 32.6449C116.014 32.7373 116.065 33.1321 116.199 33.0229C116.25 33.2245 116.317 33.2497 116.359 33.4345C116.476 33.4345 116.409 33.4345 116.485 33.3589C116.56 33.2833 116.586 33.4345 116.67 33.3001C116.687 33.2793 116.699 33.255 116.707 33.229C116.714 33.2029 116.716 33.1757 116.712 33.1489C116.896 33.2329 116.905 33.0817 116.905 32.8885H116.972C116.972 33.0817 116.972 33.2581 117.165 33.1489C117.165 33.3001 117.165 33.2077 117.232 33.2749L117.35 33.1993C117.389 33.1511 117.434 33.1087 117.484 33.0733C117.577 33.1405 117.526 33.1405 117.644 33.1741C117.686 32.9893 117.694 33.0565 117.82 32.9641C117.946 32.8717 117.871 32.8801 118.131 32.8801C118.131 32.7037 118.081 32.8801 118.064 32.6617C118.165 32.6617 118.165 32.7793 118.257 32.8549C118.341 32.7877 118.35 32.7121 118.35 32.561C118.434 32.6114 118.35 32.603 118.484 32.6282C118.484 32.477 119.71 32.2082 119.828 32.1746V32.309C119.945 32.309 120.088 32.1746 120.105 32.183H120.214C120.214 32.183 120.29 32.309 120.298 32.057H120.424L120.491 31.9226C120.559 32.1158 120.626 31.9898 120.651 31.9898C120.676 31.9898 120.651 31.9898 120.777 31.9898C120.777 31.8218 120.777 31.679 120.617 31.637V31.5698C120.727 31.5698 120.617 31.5698 120.727 31.5194C120.836 31.469 120.903 31.3766 120.911 31.6034C121.071 31.6034 121.138 31.469 121.239 31.6034C121.34 31.7378 121.239 31.6034 121.239 31.7714L121.365 31.9646C121.393 31.9492 121.419 31.9294 121.441 31.9058L121.684 31.7714C121.684 31.8806 121.743 31.9058 121.852 31.931V31.9814L121.944 32.0486C121.944 31.7882 121.944 31.9478 122.02 31.8218C122.096 31.6958 121.961 31.721 122.104 31.7546C122.104 31.6538 122.104 31.6622 121.986 31.6118L122.574 31.5278Z" fill="#5716A3"/>
<path fill-rule="evenodd" clip-rule="evenodd" d="M123.54 31.4521L123.397 31.5361C123.246 31.6705 123.086 31.7293 123.053 31.8385H122.994C122.952 31.7041 122.994 31.7881 122.902 31.7293L122.759 31.5865C122.675 31.5361 122.759 31.5865 122.616 31.5361L122.398 31.6201C122.498 31.6705 122.49 31.6621 122.515 31.7629C122.372 31.7629 122.473 31.7629 122.431 31.8301C122.389 31.8973 122.356 31.8301 122.356 32.0569L122.263 31.9897V32.1157C122.154 32.1157 122.129 32.0653 122.095 31.9561L121.852 32.0905C121.83 32.1141 121.804 32.134 121.776 32.1493L121.65 31.9561C121.65 31.8301 121.701 31.8553 121.65 31.7881C121.6 31.7209 121.482 31.7881 121.323 31.7881C121.323 31.5613 121.255 31.6033 121.138 31.7041C121.02 31.8049 121.138 31.7041 121.029 31.7545V31.8217C121.205 31.8637 121.18 32.0065 121.188 32.1745C121.096 32.1745 121.138 32.1745 121.062 32.1745C120.987 32.1745 120.97 32.3005 120.903 32.1073L120.835 32.2417H120.709C120.715 32.2666 120.715 32.2924 120.709 32.3173C120.709 32.7625 120.651 33.1573 120.634 33.6108C120.568 35.25 120.161 36.8575 119.441 38.3313C119.058 37.7746 118.737 37.1775 118.484 36.5507C118.204 35.8421 118.006 35.1037 117.896 34.35C117.896 34.1988 117.812 33.7872 117.753 33.3504L117.635 33.426C117.534 33.3588 117.576 33.426 117.568 33.3C117.358 33.4092 117.375 33.2328 117.375 33.0397H117.308C117.308 33.2328 117.308 33.384 117.114 33.3C117.118 33.3268 117.117 33.354 117.109 33.3801C117.102 33.4061 117.09 33.4304 117.072 33.4512C116.988 33.5856 116.988 33.4512 116.888 33.51C116.787 33.5688 116.888 33.5604 116.762 33.5856C116.754 33.5418 116.74 33.4993 116.72 33.4596V33.7116C116.878 35.5107 117.291 37.2781 117.946 38.9613C118.384 39.7281 118.607 40.5984 118.593 41.4812C118.064 44.2446 118.383 45.6809 118.408 48.4024V49.2423C118.408 50.9222 118.408 60.3968 118.055 62.0599C117.982 62.2993 117.926 62.5435 117.887 62.7907C118.403 63.0992 118.973 63.3046 119.567 63.3955H120.071C120.312 63.3696 120.549 63.3131 120.777 63.2275C120.995 63.1519 121.289 62.9251 121.415 62.8915C121.415 62.0936 120.575 49.7967 120.457 47.9656C120.457 47.5288 120.39 47.0668 120.357 46.5965L120.281 45.1685C120.251 44.7622 120.342 44.3562 120.541 44.001C121.247 42.1615 122.07 40.1876 122.062 38.1214L122.204 35.2655C122.274 34.4136 122.423 33.57 122.65 32.7457C122.792 32.3173 122.86 32.3761 123.372 32.0233L123.616 31.8553C123.564 31.7273 123.538 31.5902 123.54 31.4521Z" fill="#3D8F1A"/>
</svg>
