<svg width="182" height="80" viewBox="0 0 182 80" fill="none" xmlns="http://www.w3.org/2000/svg">
<g clip-path="url(#clip0_140_494)">
<path d="M52.476 25.2388C52.4442 23.0475 52.6621 20.8597 53.1254 18.7183C53.4772 17.0863 54.1832 15.5529 55.193 14.228C56.1857 13.0157 57.4842 12.0946 58.9523 11.5614C62.7232 10.3685 66.7667 10.3685 70.5376 11.5614C71.9949 12.1061 73.285 13.0255 74.2798 14.228C75.3083 15.5436 76.0217 17.0801 76.3645 18.7183C76.8428 20.8575 77.0665 23.0464 77.0309 25.2388C77.0693 27.4626 76.8282 29.6823 76.3133 31.8452C75.9348 33.503 75.1934 35.0547 74.1432 36.3872C73.1445 37.6008 71.8402 38.5218 70.3668 39.0538C68.5394 39.6687 66.6199 39.9597 64.6937 39.914C62.79 39.9573 60.8933 39.6662 59.0889 39.0538C57.6081 38.5268 56.2971 37.6052 55.2955 36.3872C54.2516 35.0508 53.5108 33.5005 53.1254 31.8452C52.6425 29.6779 52.4244 27.4594 52.476 25.2388ZM56.9701 25.2388C56.8942 27.4753 57.1651 29.71 57.7732 31.8624C58.1715 33.3132 59.0675 34.575 60.3022 35.4237C61.6885 36.1257 63.2188 36.4913 64.7706 36.4913C66.3224 36.4913 67.8526 36.1257 69.239 35.4237C70.479 34.5805 71.3766 33.3165 71.7679 31.8624C72.3829 29.7112 72.6597 27.4763 72.5882 25.2388C72.6556 23.0333 72.3964 20.8299 71.8192 18.7012C71.4406 17.2965 70.5734 16.0754 69.3757 15.2603C67.9408 14.5473 66.3622 14.1763 64.762 14.1763C63.1619 14.1763 61.5833 14.5473 60.1484 15.2603C58.9418 16.0663 58.072 17.291 57.7048 18.7012C57.15 20.8337 56.9026 23.0354 56.9701 25.2388Z" fill="#D60720"/>
<path d="M79.9529 38.228L80.6193 34.9248C81.2514 35.1915 81.9026 35.4101 82.5673 35.5785C83.285 35.7678 84.071 35.9398 84.8912 36.0774C85.7113 36.2193 86.5384 36.3169 87.3689 36.3699C88.2062 36.3699 89.0776 36.3699 89.7611 36.3699C91.473 36.4729 93.1803 36.1041 94.6995 35.3032C95.2461 34.9678 95.6931 34.4905 95.9937 33.9215C96.2943 33.3525 96.4375 32.7126 96.4082 32.0688C96.421 31.393 96.2496 30.7266 95.9127 30.1419C95.5439 29.5645 95.0466 29.0815 94.4602 28.7312C93.7259 28.2677 92.9402 27.8925 92.1192 27.6129C91.1794 27.2861 90.0687 26.9419 88.7017 26.5978C87.5833 26.3297 86.491 25.9612 85.438 25.4967C84.5024 25.0565 83.6383 24.4765 82.8748 23.7763C82.1805 23.1538 81.632 22.3841 81.2686 21.5225C80.8831 20.5794 80.6969 19.5658 80.7218 18.5462C80.6639 17.4254 80.8725 16.3069 81.3301 15.2836C81.7878 14.2602 82.4814 13.3616 83.3533 12.6624C85.6462 11.0937 88.3971 10.3482 91.1623 10.5462C92.1558 10.5491 93.1483 10.6066 94.1356 10.7183C95.8337 10.8957 97.5038 11.2828 99.1081 11.871L98.4758 15.3118C97.7752 15.0882 97.0576 14.899 96.3399 14.7269C95.6222 14.5549 94.802 14.4173 93.9305 14.2968C92.9945 14.19 92.0531 14.1383 91.1111 14.1419C89.494 14.0474 87.8846 14.4301 86.4804 15.243C85.9785 15.5626 85.568 16.0084 85.2893 16.5363C85.0107 17.0643 84.8734 17.6562 84.8912 18.2538C84.8601 18.931 85.0458 19.6004 85.4209 20.1634C85.8006 20.7127 86.312 21.1565 86.9075 21.4538C87.6267 21.8399 88.3752 22.1678 89.146 22.4344C90.0004 22.7269 90.9402 23.0194 91.9484 23.2946C93.2983 23.6903 94.5115 24.0861 95.5539 24.499C96.5332 24.8864 97.4491 25.4199 98.2708 26.0817C99.0115 26.7121 99.5965 27.5071 99.9795 28.4043C100.401 29.4526 100.605 30.5769 100.578 31.7076C100.598 32.7389 100.43 33.7652 100.082 34.7354C99.7658 35.6062 99.2507 36.39 98.5784 37.0236C97.8757 37.6674 97.0807 38.2009 96.2203 38.6064C95.2579 39.0389 94.2485 39.3566 93.2128 39.5527C92.0229 39.7663 90.8161 39.87 89.6074 39.8624C88.431 39.8627 87.2557 39.7938 86.0873 39.656C84.9254 39.5183 83.7976 39.3291 82.6698 39.1054C81.7386 38.9002 80.8289 38.6064 79.9529 38.228Z" fill="#D60720"/>
<path d="M103.824 32.6365C103.761 31.1684 104.13 29.7141 104.884 28.4559C105.669 27.2901 106.782 26.3859 108.079 25.858C109.759 25.1419 111.521 24.6392 113.325 24.3613C115.41 23.9828 117.836 23.6731 120.587 23.4323V19.4924C120.628 18.7929 120.507 18.0935 120.234 17.4488C119.961 16.8041 119.544 16.2317 119.015 15.7763C117.636 14.8319 115.98 14.3834 114.316 14.5032C113.615 14.5032 112.829 14.5032 111.941 14.6065C111.03 14.6783 110.123 14.7988 109.224 14.9677C108.301 15.1397 107.327 15.3806 106.319 15.6559L105.533 12.129C107.04 11.6759 108.576 11.3252 110.13 11.0795C111.582 10.8433 113.05 10.7168 114.521 10.7011C116.508 10.6395 118.488 10.9728 120.348 11.6817C121.801 12.246 123.031 13.2731 123.851 14.6065C124.682 16.0766 125.09 17.7505 125.03 19.4409V33.0666C124.94 33.902 125.114 34.7445 125.525 35.4753C125.679 35.6831 125.881 35.8497 126.113 35.9607C126.346 36.0717 126.601 36.1236 126.858 36.1118C127.08 36.135 127.303 36.135 127.525 36.1118C127.777 36.0636 128.023 35.9886 128.26 35.8882L128.789 39.1398C128.246 39.4216 127.673 39.6408 127.08 39.7935C126.496 39.9535 125.892 40.0345 125.286 40.0344C124.205 40.0983 123.14 39.741 122.313 39.0365C121.51 38.234 121.009 37.176 120.895 36.043C120.022 36.7651 119.096 37.4207 118.127 38.0043C117.081 38.6345 115.962 39.1315 114.794 39.4838C113.5 39.8578 112.16 40.0432 110.813 40.0344C109.829 40.054 108.85 39.8908 107.925 39.5527C107.087 39.2599 106.327 38.7772 105.704 38.1419C105.063 37.4954 104.573 36.7139 104.269 35.8537C103.922 34.8187 103.771 33.7275 103.824 32.6365ZM108.25 32.2752C108.199 32.8943 108.271 33.5173 108.462 34.1081C108.652 34.6989 108.958 35.2455 109.361 35.7161C109.758 36.1075 110.233 36.4107 110.754 36.6063C111.274 36.8019 111.83 36.8854 112.385 36.8516C113.375 36.8454 114.36 36.6947 115.307 36.4043C116.304 36.091 117.261 35.6639 118.161 35.1312C119.053 34.6108 119.87 33.9681 120.587 33.2215V26.1161C118.776 26.2882 117.17 26.4946 115.563 26.7527C114.221 26.9488 112.904 27.2891 111.633 27.7677C110.658 28.1044 109.791 28.6986 109.121 29.4881C108.528 30.279 108.221 31.2502 108.25 32.2409V32.2752Z" fill="#D60720"/>
<path d="M153.652 39.8108C153.13 39.8113 152.609 39.7595 152.097 39.656C151.484 39.4984 150.905 39.2302 150.388 38.8646C149.556 38.2744 148.763 37.6308 148.013 36.9377C147.056 36.0775 145.894 34.942 144.595 33.4969L136.445 25.1872V39.3807H132.258V0.4646H136.445V19.3893L145.586 28.8001C147.364 30.5894 148.782 31.9485 149.841 32.8775C150.622 33.6112 151.488 34.2466 152.421 34.77C152.949 35.0576 153.532 35.2279 154.13 35.269H154.472H154.865L154.967 39.7936C154.764 39.8665 154.551 39.9071 154.335 39.9141L153.652 39.8108ZM141.588 26.6668L138.17 24.7227C139.281 23.7421 140.409 22.7442 141.588 21.712C142.705 20.7107 143.761 19.6419 144.749 18.5119C145.728 17.3838 146.619 16.1818 147.415 14.9163C148.222 13.6052 148.87 12.2017 149.346 10.7356L153.686 11.1485C153.198 12.7889 152.485 14.3525 151.567 15.7937C150.65 17.2527 149.615 18.6336 148.474 19.9227C147.4 21.1875 146.259 22.3936 145.057 23.5356L141.588 26.6668Z" fill="#D60720"/>
<path d="M156.881 32.6366C156.823 31.1667 157.198 29.7124 157.958 28.456C158.737 27.2908 159.843 26.3862 161.136 25.8581C162.817 25.1442 164.579 24.6415 166.382 24.3614C168.484 23.9829 170.893 23.6732 173.644 23.4324V19.4925C173.688 18.7942 173.57 18.0953 173.301 17.4505C173.031 16.8057 172.616 16.2326 172.089 15.7764C170.703 14.832 169.042 14.3836 167.373 14.5033C166.69 14.5033 165.886 14.5033 164.998 14.6066C164.087 14.6784 163.18 14.799 162.281 14.9678C161.358 15.1398 160.401 15.3807 159.393 15.656L158.607 12.1291C160.114 11.6741 161.65 11.3234 163.204 11.0796C164.656 10.8427 166.124 10.7162 167.595 10.7012C169.582 10.6414 171.562 10.9746 173.422 11.6818C174.842 12.2641 176.04 13.2891 176.84 14.6066C177.67 16.0767 178.079 17.7506 178.019 19.441V33.0667C177.937 33.9017 178.11 34.7419 178.514 35.4754C178.668 35.6832 178.869 35.8499 179.102 35.9608C179.334 36.0718 179.59 36.1237 179.847 36.1119C180.074 36.1349 180.303 36.1349 180.53 36.1119C180.781 36.0588 181.027 35.984 181.265 35.8883L181.778 39.1399C181.236 39.4259 180.663 39.6453 180.069 39.7936C179.478 39.9529 178.869 40.0339 178.258 40.0345C177.177 40.0949 176.113 39.738 175.285 39.0366C174.487 38.2324 173.992 37.1742 173.883 36.0431C173.01 36.7652 172.085 37.4208 171.115 38.0044C170.042 38.6399 168.894 39.1369 167.698 39.4839C166.409 39.8579 165.074 40.0434 163.733 40.0345C162.744 40.0528 161.76 39.8896 160.828 39.5528C159.993 39.2557 159.234 38.7736 158.607 38.142C157.967 37.4955 157.476 36.714 157.172 35.8538C156.886 34.8074 156.787 33.7179 156.881 32.6366ZM161.324 32.2753C161.271 32.8932 161.34 33.5156 161.528 34.1063C161.715 34.697 162.018 35.2442 162.418 35.7162C162.817 36.105 163.292 36.4065 163.812 36.6019C164.333 36.7973 164.888 36.8824 165.442 36.8517C166.438 36.8452 167.428 36.6946 168.381 36.4044C169.372 36.0914 170.324 35.6643 171.218 35.1313C172.113 34.6153 172.931 33.9722 173.644 33.2216V26.1162C171.833 26.2883 170.227 26.4947 168.638 26.7528C167.289 26.947 165.966 27.2872 164.69 27.7678C163.72 28.1133 162.854 28.706 162.178 29.4882C161.598 30.2851 161.298 31.2534 161.324 32.241V32.2753Z" fill="#D60720"/>
<path d="M129.353 54.1937C129.265 54.6535 129.116 55.0991 128.909 55.5183C128.715 55.9053 128.448 56.2503 128.123 56.5334C127.812 56.8225 127.445 57.0449 127.046 57.1872C126.615 57.3494 126.157 57.4309 125.696 57.428C125.164 57.4305 124.637 57.3312 124.141 57.1355C123.666 56.9555 123.239 56.6669 122.894 56.2926C122.524 55.8903 122.239 55.4161 122.057 54.899C121.854 54.2715 121.756 53.6146 121.766 52.9549C121.754 52.2964 121.846 51.64 122.04 51.0108C122.2 50.4694 122.467 49.9662 122.826 49.5313C123.165 49.1329 123.592 48.8204 124.073 48.6194C124.612 48.3844 125.195 48.2728 125.782 48.2925C126.276 48.2899 126.767 48.3714 127.234 48.5334C127.641 48.6822 128.017 48.9037 128.345 49.1872C128.65 49.4632 128.9 49.7962 129.08 50.1678C129.263 50.5521 129.378 50.9654 129.421 51.3894H127.713C127.617 50.9359 127.37 50.529 127.012 50.2366C126.685 49.98 126.282 49.8408 125.867 49.8409C125.536 49.8045 125.201 49.8607 124.9 50.0034C124.598 50.146 124.342 50.3695 124.158 50.6495C123.811 51.3338 123.629 52.0916 123.629 52.8603C123.629 53.629 123.811 54.3867 124.158 55.071C124.323 55.3312 124.555 55.5421 124.828 55.6813C125.102 55.8205 125.408 55.8831 125.713 55.8624C125.942 55.8798 126.172 55.8508 126.389 55.7769C126.606 55.703 126.807 55.5858 126.978 55.4323C127.328 55.1033 127.562 54.6685 127.644 54.1937H129.353Z" fill="#540F01"/>
<path d="M132.839 57.2903C132.372 57.3049 131.906 57.2229 131.472 57.0494C131.094 56.8976 130.751 56.6692 130.464 56.3784C130.173 56.0775 129.957 55.7122 129.832 55.3117C129.676 54.876 129.601 54.4155 129.609 53.9526C129.603 53.4899 129.678 53.0295 129.832 52.5934C129.969 52.2 130.191 51.8419 130.481 51.544C130.767 51.2477 131.11 51.0136 131.489 50.8559C131.922 50.6996 132.379 50.6238 132.839 50.6322C133.293 50.6223 133.745 50.6982 134.172 50.8559C134.547 51.014 134.889 51.2415 135.18 51.5268C135.465 51.8256 135.68 52.184 135.812 52.5763C135.973 53.017 136.054 53.4831 136.051 53.9526C136.057 54.4224 135.976 54.8891 135.812 55.3289C135.68 55.7212 135.465 56.0795 135.18 56.3784C134.894 56.6746 134.551 56.9088 134.172 57.0666C133.745 57.2242 133.293 57.3001 132.839 57.2903ZM132.839 55.8967C133.864 55.8967 134.36 55.2429 134.36 53.9526C134.36 52.6623 133.864 52.043 132.839 52.043C131.814 52.043 131.318 52.6795 131.318 53.9526C131.318 55.2257 131.831 55.8967 132.839 55.8967Z" fill="#540F01"/>
<path d="M140.682 57.1356V53.2819C140.725 52.9286 140.633 52.5721 140.426 52.284C140.314 52.1866 140.184 52.1134 140.042 52.069C139.901 52.0246 139.753 52.01 139.606 52.026C138.734 52.026 138.307 52.5077 138.307 53.4883V57.1184H136.598V50.77H138.187V51.6991C138.355 51.3564 138.624 51.074 138.956 50.8904C139.347 50.6898 139.783 50.595 140.221 50.6152C140.499 50.6106 140.776 50.6513 141.041 50.7357C141.286 50.8318 141.512 50.9717 141.707 51.1485C141.9 51.3354 142.046 51.5653 142.135 51.8195C142.256 52.1014 142.315 52.4068 142.306 52.7141V57.1184L140.682 57.1356Z" fill="#540F01"/>
<path d="M146.646 52.955H148.201V54.7614C148.201 55.0888 148.149 55.4141 148.047 55.7248C147.952 56.03 147.79 56.3101 147.575 56.5451C147.359 56.7801 147.094 56.9642 146.8 57.084C146.436 57.2294 146.046 57.2996 145.655 57.2905C145.252 57.3009 144.851 57.2308 144.476 57.084C144.169 56.9662 143.894 56.7776 143.673 56.5335C143.463 56.3034 143.31 56.0261 143.228 55.7248C143.125 55.4085 143.073 55.0773 143.075 54.7442V49.084H144.783V50.8044H148.201V51.9915H144.783V54.5894C144.765 54.9197 144.843 55.2483 145.005 55.5356C145.092 55.6466 145.204 55.7344 145.332 55.7914C145.46 55.8484 145.6 55.8728 145.74 55.8625C145.88 55.876 146.021 55.853 146.15 55.7958C146.279 55.7386 146.391 55.649 146.475 55.5356C146.656 55.2683 146.741 54.9464 146.714 54.6238L146.646 52.955Z" fill="#540F01"/>
<path d="M148.918 50.0301V48.4646H150.627V50.0301H148.918ZM148.918 57.1355V50.7871H150.627V57.1355H148.918Z" fill="#540F01"/>
<path d="M155.36 57.1354V53.2817C155.406 52.9307 155.321 52.575 155.121 52.2838C155.006 52.1859 154.873 52.1126 154.729 52.0682C154.585 52.0238 154.434 52.0094 154.284 52.0258C153.43 52.0258 153.002 52.5075 153.002 53.4881V57.1182H151.294V50.7698H152.883V51.6989C153.062 51.3587 153.335 51.0778 153.669 50.8902C154.053 50.6896 154.484 50.5946 154.916 50.615C155.2 50.6091 155.483 50.6498 155.753 50.7355C155.998 50.8316 156.224 50.9715 156.42 51.1483C156.608 51.3386 156.754 51.5674 156.847 51.8193C156.955 52.1048 157.007 52.4085 157.001 52.7139V57.1182L155.36 57.1354Z" fill="#540F01"/>
<path d="M159.291 54.4C159.303 54.8182 159.446 55.2217 159.701 55.5527C159.83 55.689 159.987 55.7963 160.161 55.8675C160.335 55.9386 160.521 55.972 160.709 55.9655C160.962 55.9772 161.212 55.9112 161.426 55.7763C161.525 55.7232 161.61 55.6497 161.678 55.5607C161.746 55.4718 161.794 55.3694 161.82 55.2602H163.528C163.356 55.8624 162.997 56.3931 162.503 56.7742C161.999 57.1173 161.403 57.2973 160.794 57.2903C158.692 57.2903 157.65 56.1548 157.65 53.8494C157.643 53.3993 157.712 52.9513 157.855 52.5247C157.979 52.1415 158.183 51.7896 158.453 51.4925C158.712 51.2081 159.034 50.9899 159.393 50.8559C159.807 50.6973 160.249 50.6213 160.692 50.6322C161.106 50.6037 161.52 50.6728 161.903 50.8341C162.286 50.9954 162.626 51.2444 162.896 51.5612C163.452 52.3975 163.717 53.396 163.648 54.4H159.291ZM161.922 53.3504C161.914 53.1391 161.873 52.9303 161.802 52.7311C161.734 52.5703 161.635 52.4242 161.512 52.301C161.397 52.1838 161.257 52.0955 161.102 52.043C160.944 52.0086 160.781 52.0086 160.623 52.043C160.297 52.0441 159.984 52.1737 159.752 52.4042C159.496 52.6871 159.35 53.0539 159.342 53.4366L161.922 53.3504Z" fill="#540F01"/>
<path d="M168.262 57.1356V53.2819C168.304 52.9286 168.213 52.5721 168.005 52.284C167.893 52.1866 167.763 52.1134 167.622 52.069C167.481 52.0246 167.332 52.01 167.185 52.026C166.314 52.026 165.886 52.5077 165.886 53.4883V57.1184H164.178V50.77H165.767V51.6991C165.934 51.3564 166.203 51.074 166.536 50.8904C166.926 50.6898 167.362 50.595 167.8 50.6152C168.078 50.6106 168.355 50.6513 168.62 50.7357C168.865 50.8318 169.091 50.9717 169.287 51.1485C169.479 51.3354 169.626 51.5653 169.714 51.8195C169.836 52.1014 169.894 52.4068 169.885 52.7141V57.1184L168.262 57.1356Z" fill="#540F01"/>
<path d="M174.208 52.955H175.763V54.7614C175.764 55.0888 175.712 55.4141 175.609 55.7248C175.514 56.03 175.352 56.3101 175.137 56.5451C174.921 56.7801 174.657 56.9642 174.362 57.084C173.998 57.2294 173.608 57.2996 173.217 57.2905C172.814 57.3009 172.413 57.2308 172.038 57.084C171.731 56.9662 171.456 56.7776 171.235 56.5335C171.025 56.3034 170.873 56.0261 170.791 55.7248C170.687 55.4085 170.635 55.0773 170.637 54.7442V49.084H172.346V50.8044H175.763V51.9915H172.346V54.5894C172.328 54.9197 172.405 55.2483 172.568 55.5356C172.654 55.6466 172.766 55.7344 172.894 55.7914C173.023 55.8484 173.163 55.8728 173.302 55.8625C173.442 55.876 173.584 55.853 173.712 55.7958C173.841 55.7386 173.953 55.649 174.037 55.5356C174.218 55.2683 174.303 54.9464 174.276 54.6238L174.208 52.955Z" fill="#540F01"/>
<path d="M180.223 52.7138C180.218 52.5879 180.186 52.4647 180.13 52.352C180.074 52.2394 179.995 52.1398 179.898 52.06C179.637 51.9177 179.341 51.8522 179.044 51.8708C178.799 51.8652 178.556 51.9061 178.326 51.9912C178.247 52.0259 178.18 52.084 178.134 52.1577C178.089 52.2314 178.066 52.3173 178.07 52.4041C178.067 52.493 178.09 52.5807 178.135 52.657C178.181 52.7332 178.247 52.7948 178.326 52.8342C178.571 52.9605 178.829 53.0586 179.095 53.1267L180.103 53.402L180.975 53.66C181.275 53.7796 181.54 53.9751 181.744 54.2278C181.929 54.5132 182.019 54.8508 182 55.1912C182.019 55.4874 181.964 55.7836 181.842 56.0536C181.72 56.3237 181.534 56.5593 181.299 56.7396C180.698 57.153 179.975 57.3472 179.249 57.2902C178.46 57.349 177.674 57.13 177.028 56.6708C176.777 56.4912 176.574 56.2537 176.434 55.9782C176.294 55.7027 176.222 55.3974 176.224 55.088H177.933C177.928 55.2249 177.956 55.361 178.016 55.4842C178.075 55.6073 178.164 55.7136 178.275 55.7934C178.568 55.97 178.908 56.0538 179.249 56.0342C179.513 56.0397 179.776 55.987 180.018 55.8794C180.113 55.8383 180.194 55.7699 180.252 55.6828C180.309 55.5956 180.339 55.4935 180.339 55.389C180.339 55.2846 180.309 55.1825 180.252 55.0953C180.194 55.0082 180.113 54.9399 180.018 54.8988C179.791 54.8003 179.557 54.7198 179.317 54.6579L178.036 54.3138C177.748 54.222 177.472 54.0949 177.215 53.9353C176.949 53.7884 176.729 53.5675 176.583 53.2988C176.475 53.0491 176.416 52.78 176.412 52.5073C176.41 52.247 176.463 51.989 176.566 51.7504C176.657 51.5128 176.818 51.3088 177.028 51.1655C177.268 50.9729 177.548 50.8376 177.848 50.7697C178.243 50.6651 178.652 50.6188 179.061 50.6321C179.771 50.5742 180.481 50.7558 181.077 51.1482C181.298 51.3452 181.475 51.586 181.599 51.8555C181.722 52.1249 181.789 52.4171 181.795 52.7138H180.223Z" fill="#540F01"/>
<path d="M109.258 47.8109C110.191 47.7178 111.085 47.3862 111.855 46.8475C112.719 46.2514 113.718 45.8845 114.76 45.7808C115.187 45.741 115.616 45.741 116.042 45.7808C114.904 45.0824 113.598 44.7134 112.266 44.7141C111.149 44.7107 110.047 44.9722 109.05 45.4773C108.052 45.9825 107.187 46.7171 106.524 47.6217C107.406 47.913 108.345 47.978 109.258 47.8109Z" fill="#540F01"/>
<path d="M109.942 50.2539C110.783 50.3616 111.638 50.2428 112.419 49.9097C113.311 49.5173 114.292 49.3804 115.256 49.5141C116.222 49.592 117.146 49.944 117.922 50.5292C118.369 50.8451 118.866 51.0835 119.391 51.2345C119.26 49.5243 118.512 47.9214 117.289 46.727C116.505 46.4782 115.675 46.4135 114.863 46.5378C113.926 46.636 113.027 46.9671 112.248 47.5012C111.388 48.0937 110.396 48.4657 109.361 48.5851C109.025 48.6079 108.688 48.6079 108.352 48.5851C107.641 48.5779 106.937 48.4498 106.268 48.2065H106.08C106.08 48.3098 105.96 48.413 105.909 48.5334C106.519 48.7071 107.096 48.9803 107.618 49.3421C108.295 49.8543 109.099 50.1696 109.942 50.2539Z" fill="#540F01"/>
<path d="M109.258 54.1936C110.191 54.1115 111.089 53.7982 111.873 53.2817C112.736 52.6856 113.735 52.3187 114.777 52.215C115.812 52.0514 116.871 52.1581 117.853 52.5247C118.345 52.6907 118.856 52.7947 119.374 52.8343C119.374 52.5935 119.374 52.3527 119.374 52.1118C118.686 51.9447 118.037 51.6469 117.46 51.2344C116.776 50.7283 115.965 50.4244 115.119 50.3569C114.279 50.2379 113.423 50.3509 112.641 50.6838C111.75 51.0763 110.769 51.2132 109.805 51.0795C108.844 50.9927 107.923 50.6482 107.139 50.0817C106.665 49.7253 106.125 49.4679 105.55 49.3247C105.234 50.1479 105.072 51.0228 105.072 51.9054C105.073 52.4849 105.142 53.0623 105.277 53.6258C105.678 53.6941 106.072 53.7977 106.456 53.9354C107.353 54.2608 108.317 54.3496 109.258 54.1936Z" fill="#540F01"/>
<path d="M112.522 56.8774C111.633 57.2558 110.659 57.3865 109.702 57.2559C108.736 57.1688 107.81 56.8243 107.02 56.258C106.795 56.0909 106.555 55.9468 106.302 55.8279C106.958 56.8154 107.845 57.6254 108.885 58.1864C109.925 58.7475 111.086 59.0423 112.265 59.0451C114.027 59.0504 115.727 58.3941 117.033 57.2043C116.424 56.8211 115.732 56.5909 115.017 56.5333C114.169 56.4092 113.305 56.5285 112.522 56.8774Z" fill="#540F01"/>
<path d="M117.614 53.1786C116.734 52.8577 115.788 52.7631 114.863 52.9034C113.926 53.0016 113.027 53.3327 112.248 53.8668C111.395 54.4738 110.4 54.8472 109.361 54.9506C109.025 54.9734 108.688 54.9734 108.352 54.9506C107.641 54.945 106.936 54.8171 106.268 54.5721L105.601 54.3829C105.601 54.5034 105.687 54.6066 105.738 54.7098C106.349 54.887 106.927 55.1661 107.447 55.5356C108.129 56.0478 108.94 56.3577 109.788 56.4302C110.629 56.5355 111.484 56.4168 112.266 56.0861C113.129 55.7327 114.064 55.5936 114.992 55.6804C115.92 55.7672 116.813 56.0775 117.597 56.585C118.384 55.6971 118.941 54.6275 119.22 53.471C118.675 53.4411 118.135 53.3428 117.614 53.1786Z" fill="#540F01"/>
<path d="M91.5724 56.7225V49.8408H92.3584V52.215C92.6136 52.0434 92.8892 51.9047 93.1786 51.8021C93.4382 51.719 93.7094 51.6783 93.9817 51.6817C94.2268 51.6685 94.471 51.7203 94.69 51.8321C94.9089 51.9438 95.0948 52.1114 95.2292 52.3182C95.5568 52.8796 95.7114 53.5263 95.6734 54.1763C95.688 54.7197 95.607 55.2614 95.4342 55.7763C95.2876 56.1503 95.0155 56.4607 94.6652 56.6538C94.2517 56.8603 93.7938 56.9607 93.3324 56.9462H92.5122L91.5724 56.7225ZM92.3584 56.2408H92.8882H93.3324C93.636 56.2512 93.9368 56.1799 94.2039 56.0343C94.4385 55.8722 94.6128 55.6363 94.6994 55.3634C94.8211 54.9563 94.8787 54.5325 94.8703 54.1075C94.877 53.7584 94.8309 53.4103 94.7336 53.0752C94.6628 52.8309 94.5269 52.6108 94.3406 52.4387C94.1578 52.3022 93.9358 52.2298 93.7083 52.2322C93.5607 52.2153 93.4117 52.2153 93.264 52.2322C93.1154 52.2645 92.9718 52.3165 92.8369 52.387L92.3584 52.6451V56.2408Z" fill="#540F01"/>
<path d="M97.3994 58.8558L98.0316 56.8774H97.8778L95.9469 51.8193H96.8013L98.3563 56.2236L99.7062 51.8193H100.509L98.2025 58.9075L97.3994 58.8558Z" fill="#540F01"/>
<path d="M50.1521 54.7784C49.8709 53.6598 49.3007 52.636 48.4994 51.8111C47.6981 50.9862 46.6942 50.3895 45.5897 50.0817C44.6274 49.5665 43.5234 49.3851 42.4484 49.5655C41.3734 49.7458 40.3875 50.2779 39.6432 51.0794C39.1782 51.6848 38.8476 52.3835 38.6737 53.1284C38.4998 53.8734 38.4866 54.6472 38.6351 55.3977C38.6351 55.6386 38.7205 55.9655 38.7717 56.3612C39.0281 58.0816 39.5236 61.6946 40.0875 62.1419C40.6855 62.1419 46.6491 62.1419 48.4775 60.6967C49.3276 60.0037 49.9447 59.0634 50.2444 58.0042C50.5441 56.945 50.5119 55.8185 50.1521 54.7784Z" fill="#E2BDD9"/>
<path d="M38.0711 57.1353C37.9572 56.4983 37.883 55.8548 37.849 55.2084C37.8126 54.3464 37.675 53.4917 37.4389 52.6622C37.0687 51.6542 36.3883 50.7916 35.4968 50.2005C34.6053 49.6093 33.5495 49.3205 32.4835 49.3762C32.1588 49.3762 31.8341 49.3762 31.4924 49.3762C30.2733 49.5798 29.1528 50.1763 28.2993 51.076C27.4457 51.9757 26.9053 53.13 26.7592 54.3654C25.956 58.2364 30.433 59.716 33.4062 60.6966L33.936 60.8686C34.329 61.0063 34.8074 61.2127 35.303 61.4192C36.4065 62.0162 37.6242 62.3683 38.8743 62.4515C38.8015 60.8273 38.5726 59.214 38.1908 57.6343C38.1395 57.4967 38.1053 57.3074 38.0711 57.1353Z" fill="#E2BDD9"/>
<path d="M36.5161 66.0818C37.2167 65.256 38.2249 64.1377 37.7464 63.4152C37.5414 63.0883 36.7725 62.8474 36.1573 62.641C35.9007 62.5736 35.6494 62.4873 35.4055 62.3828L34.8416 62.1076C34.1651 61.7423 33.4556 61.4427 32.7227 61.213C32.0886 61.0335 31.4334 60.941 30.7747 60.9377C29.8963 60.948 29.0314 61.1574 28.2445 61.5506C27.4576 61.9437 26.7688 62.5106 26.2294 63.2087C25.7869 63.6539 25.2727 64.0204 24.7086 64.2926C23.7346 64.8603 22.7948 65.3937 22.7948 66.5464C22.795 66.8457 22.8611 67.1413 22.9881 67.4119C23.1151 67.6826 23.3 67.9216 23.5296 68.1119L23.8713 68.5248C24.1539 68.9002 24.3627 69.3265 24.4865 69.7808C24.5401 69.9996 24.6145 70.2128 24.7086 70.4173C24.9421 70.992 25.3201 71.4956 25.8054 71.8787C26.2908 72.2618 26.8668 72.5111 27.4768 72.6022C28.4754 72.7488 29.4942 72.6622 30.4542 72.3489C31.4142 72.0357 32.2898 71.5043 33.0132 70.7958C34.1052 69.5633 35.0833 68.233 35.9352 66.8216C36.1124 66.5623 36.3065 66.3152 36.5161 66.0818Z" fill="#E2BDD9"/>
<path d="M51.2799 62.6237C49.3603 62.1505 47.3556 62.1505 45.4359 62.6237L43.8127 62.8646H43.4538C42.6214 62.9937 41.7743 62.9937 40.9419 62.8646H40.5489C40.5489 62.8646 40.4293 62.8646 40.3951 62.8646C40.361 62.8646 40.2413 63.1055 40.173 63.4839C40.0705 65.6689 42.5653 67.699 44.2398 69.0409L44.4278 69.213C45.4482 70.2003 46.7195 70.8849 48.1016 71.1914C49.2486 71.1965 50.3654 70.8217 51.2799 70.1248L51.5362 69.9872C52.2862 69.6299 52.8901 69.0219 53.245 68.2668C53.336 67.8782 53.3649 67.4774 53.3304 67.0797C53.2874 66.7082 53.2874 66.3329 53.3304 65.9614C53.4644 65.2477 53.3283 64.5094 52.9488 63.8917C52.5694 63.274 51.974 62.8217 51.2799 62.6237Z" fill="#E2BDD9"/>
<path d="M41.3862 78.3485C42.6848 76.6281 45.5898 72.7399 44.2398 71.0022C43.5222 70.0732 42.8386 69.1097 42.1722 68.1979C40.7881 66.271 39.4724 64.4646 38.9256 64.4302H38.8402C37.2175 66.1715 35.7588 68.0606 34.4828 70.0732C33.4208 71.8865 33.056 74.0289 33.4575 76.0947C33.6693 76.5576 33.9996 76.9554 34.4145 77.2474C34.6647 77.459 34.8988 77.689 35.115 77.9356L35.4909 78.4345C35.8004 78.9043 36.2162 79.2936 36.7042 79.57C37.4978 79.9791 38.4128 80.0806 39.2758 79.8555C40.1389 79.6303 40.8898 79.0941 41.3862 78.3485Z" fill="#E2BDD9"/>
<path d="M41.164 23.4838C41.3519 22.7956 42.7873 16.8085 39.9166 15.7419C39.7059 15.6515 39.4792 15.6047 39.2502 15.6042C38.9928 15.5998 38.7391 15.6653 38.5154 15.7935C36.8067 16.7226 36.089 20.7312 35.6618 22.8817C35.5848 23.3913 35.4822 23.8966 35.3542 24.3957C34.9037 26.5743 34.0579 28.6506 32.8594 30.5204C32.2567 31.2123 31.5398 31.7943 30.7405 32.2408C29.8178 32.843 28.8438 33.4795 28.6046 34.2193C28.3654 34.9591 28.6046 35.544 28.8438 35.716C29.9976 36.1366 31.2613 36.1366 32.4151 35.716C33.5964 35.4905 34.7225 35.0347 35.7301 34.3742C38.8572 31.7419 40.1045 27.372 41.164 23.4838Z" fill="#E2BDD9"/>
<path d="M27.1352 34.0129C27.6843 32.9497 28.5591 32.0931 29.6299 31.5699C30.3359 31.1743 30.9713 30.6626 31.5096 30.0559V29.9355C31.1982 28.3834 30.5824 26.9095 29.6983 25.6C28.6603 23.9302 27.2888 22.4961 25.6709 21.3884C24.053 20.2807 22.224 19.5237 20.3001 19.1656C19.3432 18.9935 18.3692 18.7699 17.3439 18.5463C15.1602 17.9612 12.9202 17.6151 10.6627 17.514C8.71598 17.4103 6.80508 18.0701 5.33136 19.3549C4.6098 19.9511 3.82465 20.4645 2.99037 20.886C1.5721 21.6774 0.119641 22.5033 -0.0683225 23.5355C-0.0701251 23.8578 -0.00577864 24.1769 0.120659 24.4729C0.247097 24.769 0.432939 25.0356 0.666484 25.256C1.45642 26.0838 2.35295 26.8012 3.33214 27.3893C4.21208 27.9438 5.03619 28.5833 5.79276 29.2989C6.37562 29.9286 6.91781 30.5952 7.41605 31.2946C7.92605 32.0199 8.49779 32.6993 9.12481 33.3248C12.1458 35.3524 15.7589 36.2922 19.3774 35.9914H20.7957C22.8592 36.0037 24.9173 35.7785 26.9301 35.3204C26.9001 34.8746 26.9702 34.4277 27.1352 34.0129Z" fill="#E2BDD9"/>
<path d="M30.2963 37.4193C29.6053 37.4565 28.9179 37.2954 28.3142 36.9548L28.0237 36.7139C26.1382 37.0907 24.2215 37.2866 22.2993 37.2989C21.8038 37.2989 21.3253 37.2989 20.8811 37.2989C19.2128 37.3799 17.5411 37.241 15.9086 36.8859C13.1968 36.9893 10.4811 36.8569 7.79195 36.4902C6.68126 36.3526 2.92199 35.6129 2.88782 37.2989C2.88782 38.2967 5.2288 39.3634 5.96356 39.8795C8.57786 41.5207 11.6159 42.3468 14.6954 42.2537C18.0398 42.2478 21.3641 41.7315 24.5549 40.7225C27.4085 39.7763 32.0563 38.7956 34.4828 36.4902C33.15 37.0376 31.7342 37.3518 30.2963 37.4193Z" fill="#E2BDD9"/>
<path d="M44.8549 8.80874C44.3081 7.62164 43.6076 6.77863 43.1462 6.6582H43.0266C42.8136 6.6718 42.6129 6.76356 42.4627 6.9162C41.5741 7.75922 42.0013 10.1679 42.3089 11.9227C42.453 12.6033 42.5501 13.293 42.5994 13.9871C42.6213 14.8549 42.5813 15.7231 42.4798 16.585C43.1476 18.6146 43.2188 20.7953 42.6848 22.8646C42.907 22.5377 43.112 22.1936 43.3342 21.8495C46.2049 17.1528 46.7175 12.9378 44.8549 8.80874Z" fill="#E2BDD9"/>
<path d="M30.9457 24.5333C31.6696 25.6879 32.2438 26.931 32.6545 28.2323C33.346 26.7687 33.8787 25.2345 34.2436 23.656V23.5526C34.2436 23.243 34.4316 22.7269 34.5341 22.1248C35.0467 19.5097 35.8157 15.5354 37.832 14.4172C38.1604 14.2311 38.5269 14.1235 38.9031 14.1027C39.2794 14.0818 39.6554 14.1483 40.0021 14.2968L40.3781 14.4688C40.4962 11.9855 40.1125 9.5039 39.2503 7.17422C37.8149 3.73336 33.7822 -0.688123 29.5616 0.103275C27.9383 0.395748 27.682 1.49676 26.6567 2.61504C25.0676 4.33547 25.1701 2.61504 23.2392 2.8387C19.6508 3.26881 19.1382 10.0645 19.1894 12.7656C19.2144 14.313 19.3227 15.858 19.5141 17.3936L20.9324 17.686C22.9798 18.0715 24.9261 18.8787 26.6492 20.057C28.3722 21.2352 29.835 22.7592 30.9457 24.5333Z" fill="#EBDCE5"/>
<path d="M42.6335 43.9398C42.7444 43.1202 42.6743 42.2861 42.4284 41.4968C41.4316 38.6384 40.2325 35.8556 38.8401 33.1699C37.1313 37.0925 31.9196 39.3979 31.9196 39.3979C34.4267 41.8892 37.4006 43.8541 40.6684 45.1785C40.9447 45.235 41.2295 45.235 41.5057 45.1785C43.9322 47.3806 50.5109 52.3527 62.9506 55.0882L61.9596 55.2258C61.0771 55.3439 60.2037 55.5221 59.3452 55.7592C58.918 55.8624 58.4908 56.0172 58.0636 56.1376C57.6364 56.2581 57.2263 56.4474 56.7991 56.6366C55.9729 56.9878 55.1831 57.42 54.441 57.9269C53.7125 58.4093 53.0515 58.9879 52.4759 59.6474L52.6297 59.8366C54.0873 59.0062 55.6512 58.381 57.2775 57.9785C58.0831 57.775 58.8988 57.6142 59.7211 57.4968C60.5242 57.3592 61.4299 57.256 62.1817 57.1699C62.9336 57.0839 63.8905 57.0322 64.6936 56.9978L67.2054 56.8775C68.4357 56.8775 71.9558 56.6882 74.9462 56.6882C79.201 56.5849 82.721 57.0151 87.1638 56.8086V53.6946C53.7746 55.9656 44.6328 46.7785 42.6335 43.9398Z" fill="#540F01"/>
</g>
<defs>
<clipPath id="clip0_140_494">
<rect width="182" height="80" fill="white"/>
</clipPath>
</defs>
</svg>
