<svg width="201" height="48" viewBox="0 0 201 48" fill="none" xmlns="http://www.w3.org/2000/svg">
<g clip-path="url(#clip0_272_93)">
<path d="M27.5098 38.9326C30.0328 38.9326 32.0689 40.9574 32.0689 43.4663C32.0689 45.9753 30.0328 48 27.5098 48H24.854V38.9326H27.5098ZM30.564 43.4663C30.564 41.7937 29.2139 40.4512 27.5319 40.4512H26.3811V46.5035H27.5319C29.1918 46.4814 30.564 45.1389 30.564 43.4663Z" fill="#355D7D"/>
<path d="M41.5635 40.4514V42.7182H45.0824V44.2368H41.5635V46.5037H45.7242V48.0222H40.0364V38.9548H45.7242V40.4734H41.5635V40.4514Z" fill="#355D7D"/>
<path d="M59.1582 45.4033V45.4473C59.1582 46.8338 58.0295 47.9782 56.6131 47.9782H56.2147C54.9754 47.9782 53.913 47.0979 53.7138 45.8874L55.2188 45.6233C55.3073 46.1075 55.7278 46.4596 56.2147 46.4596H56.6131C57.1664 46.4596 57.6312 45.9975 57.6312 45.4473V45.4033C57.6312 44.9851 57.3656 44.611 56.9672 44.4569L55.3073 43.8407C54.1565 43.4005 53.4704 42.2341 53.6917 41.0236C53.913 39.8132 54.9532 38.9548 56.1926 38.9548H56.591C57.5648 38.9548 58.45 39.505 58.8705 40.3634L57.4984 41.0236C57.3213 40.6715 56.9672 40.4514 56.591 40.4514H56.2147C55.7278 40.4514 55.3073 40.8035 55.2188 41.2877C55.1303 41.7719 55.3959 42.2561 55.8606 42.4101L57.5205 43.0264C58.4943 43.4005 59.1582 44.3469 59.1582 45.4033Z" fill="#355D7D"/>
<path d="M74.1412 48.0001H72.5035L71.8838 46.5036H68.7632L68.1214 48.0001H66.4836L70.3346 38.8667L74.1412 48.0001ZM71.2198 44.985L70.2903 42.7842L69.3608 44.985H71.2198Z" fill="#355D7D"/>
<path d="M89.1907 48H87.3538L84.7422 44.2146H83.6135V48H82.0864V38.9326H86.0037C87.3759 38.9326 88.5046 39.967 88.6374 41.3095C88.7702 42.652 87.8628 43.8845 86.5349 44.1706L89.1907 48ZM86.0259 42.718C86.4464 42.74 86.8226 42.52 87.0439 42.1678C87.2652 41.8157 87.2652 41.3755 87.0439 41.0014C86.8226 40.6493 86.4464 40.4292 86.0259 40.4512H83.6135V42.718H86.0259Z" fill="#355D7D"/>
<path d="M104.262 48H102.426L99.814 44.2146H98.6853V48H97.1582V38.9326H101.076C102.448 38.9326 103.576 39.967 103.709 41.3095C103.842 42.652 102.935 43.8845 101.607 44.1706L104.262 48ZM101.076 42.718C101.496 42.74 101.872 42.52 102.094 42.1678C102.315 41.8157 102.315 41.3755 102.094 41.0014C101.872 40.6493 101.496 40.4292 101.076 40.4512H98.6632V42.718H101.076Z" fill="#355D7D"/>
<path d="M120.419 43.4663C120.419 45.9753 118.382 48 115.859 48C113.336 48 111.3 45.9753 111.3 43.4663C111.3 40.9574 113.336 38.9326 115.859 38.9326C118.36 38.9326 120.396 40.9574 120.419 43.4663ZM118.891 43.4663C118.891 41.7937 117.519 40.4512 115.859 40.4512C114.177 40.4512 112.827 41.8157 112.827 43.4663C112.827 45.1389 114.2 46.4814 115.859 46.4814C117.519 46.4814 118.891 45.1389 118.891 43.4663Z" fill="#355D7D"/>
<path d="M133.698 46.4814V48H128.386V38.9326H129.913V46.4814H133.698Z" fill="#355D7D"/>
<path d="M146.954 46.4814V48H141.643V38.9326H143.17V46.4814H146.954Z" fill="#355D7D"/>
<path d="M162.712 43.4663C162.712 45.9753 160.676 48 158.153 48C155.63 48 153.594 45.9753 153.594 43.4663C153.594 40.9574 155.63 38.9326 158.153 38.9326C160.676 38.9326 162.712 40.9574 162.712 43.4663ZM161.185 43.4663C161.185 41.7937 159.813 40.4512 158.153 40.4512C156.471 40.4512 155.121 41.8157 155.121 43.4663C155.121 45.1389 156.493 46.4814 158.153 46.4814C159.835 46.4814 161.185 45.1389 161.185 43.4663Z" fill="#355D7D"/>
<path d="M176.146 45.4033V45.4473C176.146 46.8338 175.018 47.9782 173.601 47.9782H173.203C171.963 47.9782 170.901 47.0979 170.702 45.8874L172.207 45.6233C172.295 46.1075 172.716 46.4596 173.203 46.4596H173.601C174.154 46.4596 174.619 45.9975 174.619 45.4473V45.4033C174.619 44.9851 174.354 44.611 173.955 44.4569L172.295 43.8407C171.145 43.4005 170.458 42.2341 170.68 41.0236C170.901 39.8132 171.941 38.9548 173.181 38.9548H173.579C174.553 38.9548 175.438 39.505 175.859 40.3634L174.486 41.0236C174.309 40.6715 173.955 40.4514 173.579 40.4514H173.181C172.694 40.4514 172.273 40.8035 172.185 41.2877C172.096 41.7719 172.362 42.2561 172.827 42.4101L174.486 43.0264C175.504 43.4005 176.146 44.3469 176.146 45.4033Z" fill="#355D7D"/>
<path d="M13.8766 26.388L7.06001 15.758H3.38615V26.388H0V0.374268H8.60923C11.5749 0.374268 13.8102 1.07853 15.293 2.48706C16.7758 3.89559 17.5283 5.7883 17.5283 8.12117C17.5283 10.234 16.9307 11.9506 15.7356 13.2271C14.5405 14.5256 12.8364 15.3179 10.5789 15.648L17.7054 26.388H13.8766ZM3.38615 13.3371H8.32152C12.1503 13.3371 14.0758 11.6645 14.0758 8.31925C14.0758 4.97399 12.1503 3.30137 8.32152 3.30137H3.38615V13.3371Z" fill="#355D7D"/>
<path d="M50.7258 6.47039C49.6192 4.44563 48.0921 2.86104 46.1445 1.71661C44.1969 0.594187 42.0059 0.0219727 39.5935 0.0219727C37.159 0.0219727 34.968 0.594187 32.9983 1.71661C31.0286 2.83903 29.4794 4.42362 28.3728 6.47039C27.2662 8.49515 26.7129 10.806 26.7129 13.359C26.7129 15.9119 27.2662 18.2228 28.3728 20.2476C29.4794 22.2723 31.0286 23.8569 32.9983 25.0013C34.968 26.1238 37.159 26.696 39.5935 26.696C42.028 26.696 44.1969 26.1238 46.1445 25.0013C48.0921 23.8789 49.6192 22.2943 50.7258 20.2476C51.8324 18.2228 52.3857 15.9119 52.3857 13.359C52.3857 10.806 51.8324 8.51716 50.7258 6.47039Z" fill="#355D7D"/>
<path d="M78.5674 23.0646C77.9699 24.121 77.0625 24.9794 75.8674 25.6396C74.6501 26.2999 73.1673 26.63 71.3746 26.63C69.6484 26.63 68.0992 26.3219 66.7491 25.6836C65.3991 25.0454 64.3146 24.1871 63.5179 23.1087C62.7212 22.0083 62.2564 20.7538 62.1236 19.3673H65.7311C65.7975 20.1155 66.063 20.8198 66.4835 21.5241C66.9262 22.2283 67.5459 22.8005 68.3426 23.2627C69.1393 23.7249 70.1131 23.945 71.264 23.945C72.7468 23.945 73.8977 23.5488 74.6723 22.7565C75.469 21.9642 75.8674 20.9519 75.8674 19.7194C75.8674 18.663 75.5797 17.8047 75.0264 17.1444C74.4731 16.4842 73.787 15.956 72.9681 15.5818C72.1493 15.2077 71.0427 14.7895 69.6262 14.3494C67.9664 13.7992 66.6385 13.293 65.6425 12.8088C64.6466 12.3246 63.7835 11.5983 63.0753 10.652C62.367 9.68363 62.0129 8.42916 62.0129 6.84457C62.0129 5.50206 62.3449 4.29161 62.9867 3.25722C63.6507 2.22283 64.5802 1.43054 65.7975 0.858322C67.0147 0.286107 68.4533 0 70.1131 0C72.6804 0 74.7387 0.616231 76.2436 1.8707C77.7486 3.10316 78.6338 4.68776 78.8773 6.62448H75.2477C75.0485 5.5901 74.5173 4.68776 73.6542 3.89546C72.7911 3.10316 71.6181 2.70702 70.1353 2.70702C68.7631 2.70702 67.6787 3.05915 66.8598 3.76341C66.0409 4.46768 65.6425 5.45805 65.6425 6.73453C65.6425 7.7469 65.9081 8.56121 66.4393 9.19945C66.9704 9.83769 67.6344 10.3219 68.4311 10.674C69.2279 11.0261 70.3123 11.4223 71.7066 11.8845C73.3886 12.4347 74.7387 12.9409 75.7788 13.425C76.7969 13.9092 77.6822 14.6575 78.3904 15.6699C79.0986 16.6602 79.4748 17.9807 79.4748 19.6314C79.4527 20.8638 79.165 22.0083 78.5674 23.0646Z" fill="#355D7D"/>
<path d="M110.614 0.330078V26.3879H106.343V14.7015H94.0155V26.4099H89.7883V0.330078H94.0155V11.2682H106.343V0.330078H110.614Z" fill="#A6B4B4"/>
<path d="M156.98 0.330078V15.8019C156.98 18.1127 157.489 19.8294 158.529 20.9738C159.547 22.0962 161.008 22.6685 162.845 22.6685C164.682 22.6685 166.098 22.0962 167.139 20.9738C168.157 19.8514 168.688 18.1127 168.688 15.8019V0.330078H172.915V15.8019C172.915 19.3672 171.985 22.0742 170.126 23.9009C168.267 25.7276 165.811 26.6519 162.779 26.6519C159.769 26.6519 157.334 25.7276 155.497 23.9009C153.66 22.0742 152.753 19.3672 152.753 15.8019V0.330078H156.98Z" fill="#A6B4B4"/>
<path d="M200.071 23.0207C199.451 24.1211 198.521 25.0014 197.238 25.6617C195.976 26.3219 194.427 26.652 192.59 26.652C190.797 26.652 189.204 26.3439 187.81 25.7057C186.393 25.0674 185.264 24.2091 184.423 23.0647C183.582 21.9423 183.096 20.6218 182.985 19.1472H187.522C187.655 20.2696 188.142 21.26 188.983 22.0743C189.846 22.8886 190.974 23.2848 192.413 23.2848C193.697 23.2848 194.693 22.9326 195.401 22.2504C196.109 21.5681 196.463 20.6658 196.463 19.5874C196.463 18.663 196.197 17.8927 195.688 17.2765C195.179 16.6823 194.515 16.1981 193.763 15.846C192.988 15.4938 191.948 15.0977 190.598 14.6575C188.96 14.1513 187.633 13.6231 186.614 13.117C185.596 12.6108 184.711 11.8405 184.003 10.8721C183.295 9.88174 182.918 8.60526 182.918 6.99866C182.918 5.59013 183.273 4.35767 183.959 3.30127C184.645 2.24488 185.641 1.43057 186.924 0.836349C188.208 0.264135 189.691 -0.0219727 191.373 -0.0219727C194.051 -0.0219727 196.175 0.616267 197.747 1.89275C199.318 3.16922 200.225 4.84185 200.447 6.91063H195.888C195.711 5.92026 195.246 5.08394 194.493 4.37968C193.741 3.67541 192.701 3.32328 191.395 3.32328C190.2 3.32328 189.248 3.6314 188.54 4.22562C187.832 4.81984 187.455 5.70017 187.455 6.82259C187.455 7.70292 187.699 8.4512 188.208 9.02342C188.695 9.59563 189.337 10.0578 190.089 10.3879C190.842 10.7181 191.882 11.1142 193.188 11.5544C194.847 12.0606 196.197 12.5888 197.26 13.117C198.322 13.6452 199.207 14.4154 199.938 15.4278C200.668 16.4402 201.022 17.7607 201.022 19.4113C201 20.7318 200.69 21.9203 200.071 23.0207Z" fill="#A6B4B4"/>
<path d="M121.835 26.2119H145.959L133.897 0.550293L121.835 26.2119Z" fill="#A6B4B4"/>
</g>
<defs>
<clipPath id="clip0_272_93">
<rect width="201" height="48" fill="white"/>
</clipPath>
</defs>
</svg>
