<svg width="188" height="33" viewBox="0 0 188 33" fill="none" xmlns="http://www.w3.org/2000/svg">
<path d="M24.863 15.1823C24.7997 13.9752 24.447 12.8015 23.8351 11.7616L18.47 2.3043C18.0676 1.58451 17.7754 0.807652 17.6033 0L17.368 0.395958C16.708 1.54279 16.3604 2.84486 16.3604 4.17045C16.3604 5.49603 16.708 6.79811 17.368 7.94494L21.6923 15.5004C22.3508 16.6478 22.6974 17.9496 22.6974 19.2749C22.6974 20.6001 22.3508 21.902 21.6923 23.0494L21.4539 23.4486C21.2828 22.6406 20.9905 21.8636 20.5871 21.1443L16.6398 14.2282L14.1135 9.77862C13.7111 9.0577 13.4189 8.27978 13.2467 7.47109L13.0115 7.86703C12.3515 9.01447 12.004 10.3171 12.004 11.6431C12.004 12.9692 12.3515 14.2718 13.0115 15.4193L17.3519 22.9715C18.0107 24.1194 18.3575 25.4218 18.3575 26.7476C18.3575 28.0734 18.0107 29.3758 17.3519 30.5237L17.1135 30.9229C16.943 30.1137 16.6507 29.3356 16.2467 28.6154L10.801 19.1548C10.1171 17.8926 9.7675 16.4742 9.78603 15.0363C4.02462 16.5454 0 19.8072 0 23.5427C0 28.7874 7.73345 33 17.2843 33C26.8351 33 34.5685 28.7809 34.5685 23.5427C34.649 19.9532 30.7147 16.6915 24.863 15.1823ZM41.1999 31.3188C41.2375 30.1783 41.455 29.051 41.8444 27.9793C43.7091 28.8103 45.7245 29.2435 47.7637 29.2515C50.7636 29.2515 52.4972 28.2973 52.4972 26.3111C52.4972 24.4027 51.2373 23.5297 48.2374 22.1763L46.5811 21.5272C43.5006 20.1771 41.448 18.4278 41.448 15.0103C41.448 11.2748 44.0548 8.88936 49.262 8.88936C51.2701 8.87117 53.2668 9.19374 55.1685 9.84353C55.0986 10.9495 54.8819 12.0411 54.524 13.089C52.7977 12.4845 50.9864 12.1624 49.1589 12.1348C46.3169 12.1348 45.0538 13.248 45.0538 14.9974C45.0538 16.6655 46.3169 17.6976 48.5982 18.655L50.3351 19.369C54.4402 21.1183 56.177 23.0234 56.177 26.2072C56.177 29.9428 53.335 32.5651 47.7991 32.5651C45.2149 32.5911 43.0141 32.1951 41.1999 31.3188ZM73.6385 15.6594V32.0361H70.3228L70.1649 30.0466C69.2175 31.4779 67.8771 32.432 65.586 32.432C61.3262 32.432 58.4036 29.2515 58.4036 23.7666C58.4036 18.0449 61.4809 14.7053 67.4807 14.7053C69.8491 14.7831 71.8211 15.0363 73.6385 15.6594ZM70.094 28.2973V18.0449C69.2341 17.8995 68.3615 17.8451 67.4904 17.8826C63.7816 17.8826 62.0448 20.1901 62.0448 23.8478C62.0448 27.1874 63.3852 29.5695 66.5559 29.5695C67.8343 29.5229 69.067 29.0784 70.0843 28.2973H70.094ZM91.9378 21.0631V32.0361H88.3933V21.6993C88.3933 19.0769 87.5232 17.8826 83.9723 17.8826C83.0214 17.8901 82.0723 17.9703 81.1335 18.1227V32.0361H77.589V15.6594C79.88 15.1012 82.4031 14.7053 84.0625 14.7053C90.0527 14.7831 91.9378 17.0907 91.9378 21.0631ZM101.885 29.4105C102.826 29.4346 103.764 29.2725 104.643 28.9334C104.566 29.8876 104.408 31.0008 104.25 31.955C103.295 32.3319 102.276 32.5203 101.25 32.5099C97.7797 32.5099 95.5692 30.9229 95.5692 26.9472V9.69748C96.7127 9.31845 97.91 9.12991 99.1137 9.13927V15.3381H104.827C104.749 16.4546 104.666 17.4866 104.505 18.4408H99.1299V26.4701C99.1299 28.5375 100.158 29.4105 101.895 29.4105H101.885ZM121.061 15.6594V32.0361H117.758L117.597 30.0466C116.653 31.4779 115.309 32.432 113.021 32.432C108.758 32.432 105.839 29.2515 105.839 23.7666C105.839 18.0449 108.916 14.7053 114.916 14.7053C117.284 14.7831 119.179 15.0363 121.07 15.6594H121.061ZM117.429 28.2973V18.0449C116.569 17.8995 115.697 17.8451 114.826 17.8826C111.117 17.8826 109.38 20.1901 109.38 23.8478C109.38 27.1874 110.724 29.5695 113.891 29.5695C115.179 29.5409 116.423 29.0947 117.439 28.2973H117.429ZM139.373 21.0631V32.0361H135.761V21.6993C135.761 19.0769 134.891 17.8826 131.343 17.8826C130.391 17.8899 129.441 17.9702 128.501 18.1227V32.0361H124.956V15.6594C127.247 15.1012 129.79 14.7053 131.43 14.7053C137.407 14.7831 139.382 17.0907 139.382 21.0631H139.373ZM157.446 9.13927V32.0361H154.128L153.966 29.9687C153.022 31.4779 151.679 32.432 149.313 32.432C145.05 32.432 142.131 29.2515 142.131 23.7666C142.131 18.0449 145.212 14.7053 151.208 14.7053C152.107 14.7012 153.005 14.7816 153.889 14.9454V9.53846C155.055 9.24346 156.255 9.10918 157.456 9.13927H157.446ZM153.902 28.2876V18.2006C152.965 18.0153 152.014 17.9068 151.06 17.8761C147.515 17.8761 145.853 20.1025 145.853 23.8413C145.853 27.1809 147.196 29.5631 150.364 29.5631C151.642 29.5069 152.875 29.066 153.902 28.2973V28.2876ZM175.449 25.0421H164.007C164.481 27.9825 166.134 29.3326 169.372 29.3326C171.344 29.3583 173.295 28.9228 175.072 28.0604C174.911 29.0113 174.75 30.2835 174.518 31.3059C172.848 32.0222 171.046 32.375 169.23 32.3412C163.23 32.3412 160.392 28.9983 160.392 23.4356C160.392 18.5868 162.602 14.6923 168.283 14.6923C173.413 14.6923 175.623 18.0319 175.623 22.1569C175.65 23.1208 175.592 24.0852 175.449 25.0389V25.0421ZM164.007 22.0206H172.063C172.063 19.3171 170.645 17.7268 168.196 17.7268C165.586 17.8047 164.242 19.2359 164.007 22.0173V22.0206ZM188 14.9487C187.992 15.9898 187.884 17.0278 187.678 18.0481C186.786 17.9487 185.89 17.8945 184.994 17.8858C184.124 17.8858 183.257 17.967 182.39 18.0481V32.0394H178.846V15.6594C180.347 15.1012 182.951 14.7053 184.926 14.7053C185.944 14.7831 187.211 14.7831 188 14.9454V14.9487Z" fill="#FF0000"/>
</svg>
