<svg width="176" height="56" viewBox="0 0 176 56" fill="none" xmlns="http://www.w3.org/2000/svg">
<g clip-path="url(#clip0_140_445)">
<path d="M21.71 46.93C31.4965 46.93 39.43 36.919 39.43 24.57C39.43 12.2209 31.4965 2.20996 21.71 2.20996C11.9235 2.20996 3.98999 12.2209 3.98999 24.57C3.98999 36.919 11.9235 46.93 21.71 46.93Z" fill="#024C73"/>
<path d="M42.02 15.95C41.0607 13.1134 39.6122 10.4667 37.7401 8.12988C36.7836 6.94989 35.719 5.86183 34.5601 4.87988C33.3807 3.88641 32.0964 3.02482 30.7301 2.31006C29.3517 1.58214 27.8914 1.02134 26.3801 0.639893C24.8543 0.248355 23.2853 0.050291 21.71 0.0500488C20.1348 0.050291 18.5659 0.248355 17.0401 0.639893C15.5287 1.02134 14.0684 1.58214 12.6901 2.31006C11.3237 3.02482 10.0394 3.88641 8.86006 4.87988C7.70117 5.86183 6.63655 6.94989 5.68007 8.12988C3.80789 10.4667 2.35932 13.1134 1.40004 15.95C-0.486698 21.5862 -0.486698 27.6838 1.40004 33.3201C2.36249 36.1501 3.81826 38.7873 5.70002 41.1099C6.65409 42.289 7.71901 43.3739 8.88008 44.3499C10.0564 45.337 11.3373 46.1921 12.7 46.8999C14.0759 47.6229 15.5328 48.1803 17.0401 48.5601C18.5556 48.9516 20.1147 49.1497 21.6801 49.1499C23.2454 49.1497 24.8044 48.9516 26.32 48.5601C27.8272 48.1803 29.2841 47.6229 30.66 46.8999C32.0228 46.1921 33.3038 45.337 34.4801 44.3499C35.6411 43.3739 36.706 42.289 37.66 41.1099C39.5418 38.7873 40.9976 36.1501 41.96 33.3201C43.8468 27.6838 43.8468 21.5862 41.96 15.95H42.02ZM39.78 32.8201C39.4022 34.1582 38.9138 35.4626 38.32 36.72C37.7347 37.9951 37.0388 39.2163 36.2401 40.3699C35.4252 41.5322 34.501 42.6137 33.4801 43.5999C32.4444 44.5958 31.2968 45.4684 30.0601 46.2C28.8032 46.9344 27.4594 47.5088 26.0601 47.9099C23.2152 48.7098 20.2049 48.7098 17.3601 47.9099C15.9607 47.5088 14.6169 46.9344 13.3601 46.2C12.1234 45.4684 10.9757 44.5958 9.94008 43.5999C8.91911 42.6137 7.99488 41.5322 7.18007 40.3699C6.38138 39.2163 5.68536 37.9951 5.10005 36.72C4.50624 35.4626 4.01787 34.1582 3.64003 32.8201C2.12437 27.472 2.12437 21.808 3.64003 16.46C4.02232 15.1232 4.51056 13.8192 5.10005 12.5601C5.69242 11.2909 6.3951 10.0761 7.20002 8.92993C8.00903 7.7722 8.93015 6.69705 9.95002 5.71997C10.9856 4.7296 12.1334 3.86364 13.3701 3.13989C14.624 2.40211 15.9686 1.8307 17.3701 1.43994C20.1945 0.639836 23.1856 0.639836 26.01 1.43994C27.4115 1.8307 28.7561 2.40211 30.01 3.13989C31.2467 3.86364 32.3945 4.7296 33.4301 5.71997C34.4499 6.69705 35.3711 7.7722 36.1801 8.92993C36.985 10.0761 37.6877 11.2909 38.28 12.5601C38.8695 13.8192 39.3578 15.1232 39.7401 16.46C40.501 19.1201 40.888 21.8731 40.89 24.6399C40.8906 27.3877 40.5172 30.1229 39.78 32.77V32.8201Z" fill="#B3935F"/>
<path d="M30.4901 11.81C30.8656 11.81 31.1701 11.5055 31.1701 11.13C31.1701 10.7544 30.8656 10.45 30.4901 10.45C30.1145 10.45 29.8101 10.7544 29.8101 11.13C29.8101 11.5055 30.1145 11.81 30.4901 11.81Z" fill="#B3935F"/>
<path d="M27.9401 11.78C29.8201 8.26003 26.74 6.78003 26.04 6.78003C27.04 8.51003 25.5601 10.9499 23.1901 11.8899C24.7443 11.4918 26.369 11.4543 27.9401 11.78Z" fill="#B3935F"/>
<path d="M60.71 13.3799C60.71 11.6199 60.42 10.4298 59.84 9.82983C59.26 9.22983 58.16 8.91992 56.55 8.91992H55.66V24.3699H57.74V24.97H49.12V24.3699H51.2V8.94995H50.31C49.1493 8.81586 47.9823 9.14252 47.06 9.85986C46.47 10.4599 46.18 11.6499 46.18 13.4099H45.6V8.40991H61.3199V13.4099L60.71 13.3799Z" fill="#B3935F"/>
<path d="M70.19 24.95C68.323 24.9485 66.5153 24.2939 65.08 23.0999C64.3153 22.4684 63.7096 21.6663 63.3119 20.7578C62.9141 19.8494 62.7354 18.8601 62.79 17.8699C62.7756 16.7541 63.0042 15.6485 63.46 14.6299C63.8576 13.7411 64.4734 12.9671 65.25 12.3799C65.9735 11.8312 66.7804 11.4024 67.64 11.1099C68.4814 10.8279 69.3626 10.6828 70.25 10.6799C71.1439 10.6836 72.0316 10.8287 72.88 11.1099C73.7477 11.3979 74.5619 11.827 75.29 12.3799C76.0639 12.9725 76.6817 13.7448 77.09 14.6299C77.5879 15.624 77.822 16.7293 77.77 17.8398C77.7885 18.9378 77.5559 20.0256 77.09 21.02C76.6789 21.9007 76.0572 22.6665 75.28 23.25C73.8191 24.366 72.0284 24.9641 70.19 24.95ZM67.99 22.8499C68.1591 23.3071 68.4691 23.6989 68.8753 23.9685C69.2816 24.2381 69.763 24.3716 70.25 24.3499C70.7421 24.3712 71.2283 24.2367 71.6394 23.9656C72.0506 23.6945 72.3658 23.3005 72.54 22.8398C73.4544 19.5692 73.4544 16.1105 72.54 12.8398C72.3691 12.3754 72.0554 11.9773 71.644 11.7024C71.2325 11.4275 70.7445 11.2902 70.25 11.3101C69.7593 11.2904 69.2752 11.4283 68.8686 11.7036C68.4619 11.9789 68.154 12.377 67.99 12.8398C67.4739 14.4537 67.2536 16.1476 67.34 17.8398C67.2507 19.5256 67.471 21.2137 67.99 22.8201V22.8499Z" fill="#B3935F"/>
<path d="M87.28 24.95H79.85V24.3499H81.34V11.6199H79.85V11.03H85.85V14.5601C85.9894 13.7016 86.3323 12.8888 86.85 12.1899C87.2334 11.6378 87.7732 11.2129 88.4 10.97C88.9221 10.7774 89.4735 10.6759 90.03 10.6699C90.5493 10.672 91.064 10.7668 91.55 10.95C91.7967 11.0561 92.0194 11.2109 92.205 11.405C92.3905 11.5992 92.5351 11.8286 92.63 12.0798C92.7439 12.3488 92.8025 12.6379 92.8025 12.9299C92.8025 13.222 92.7439 13.5111 92.63 13.78C92.5312 14.0468 92.3791 14.2908 92.1832 14.4971C91.9872 14.7034 91.7514 14.8676 91.49 14.98C91.067 15.1803 90.5872 15.2261 90.1341 15.1091C89.681 14.9922 89.2831 14.7198 89.0099 14.3398C88.8296 14.0711 88.6882 13.7783 88.59 13.47C88.39 12.73 88.12 12.3699 87.79 12.3699C87.46 12.3699 87 13.0101 86.54 14.3101C86.0798 15.6759 85.85 17.1088 85.86 18.55V24.3499H87.34L87.28 24.95Z" fill="#B3935F"/>
<path d="M101.6 24.95H94.17V24.3499H95.65V11.6199H94.17V11.03H100.11V14.5601C100.249 13.7016 100.592 12.8888 101.11 12.1899C101.49 11.6385 102.026 11.2136 102.65 10.97C103.176 10.7774 103.73 10.6759 104.29 10.6699C104.806 10.6719 105.318 10.7668 105.8 10.95C106.049 11.055 106.273 11.2094 106.461 11.4036C106.648 11.5978 106.794 11.8277 106.89 12.0798C107.11 12.6251 107.11 13.2348 106.89 13.78C106.791 14.0481 106.637 14.2929 106.439 14.4993C106.242 14.7057 106.004 14.8692 105.74 14.98C105.509 15.0968 105.257 15.1649 104.999 15.1804C104.741 15.1959 104.483 15.1584 104.24 15.0701C103.838 14.9386 103.488 14.6828 103.24 14.3398C103.06 14.0711 102.918 13.7783 102.82 13.47C102.63 12.73 102.36 12.3699 102.02 12.3699C101.68 12.3699 101.23 13.0101 100.77 14.3101C100.314 15.6771 100.085 17.1092 100.09 18.55V24.3499H101.6V24.95Z" fill="#B3935F"/>
<path d="M121.7 18.6798H112.7C112.9 22.1598 114.26 23.9098 116.77 23.9098C117.562 23.8864 118.344 23.724 119.08 23.4298C119.832 23.1926 120.49 22.7235 120.96 22.0897L121.38 22.3898C120.84 23.2079 120.062 23.8399 119.15 24.1998C118.168 24.6641 117.096 24.9098 116.01 24.9198C115.068 24.9274 114.128 24.8233 113.21 24.6097C112.345 24.3899 111.521 24.0322 110.77 23.5499C109.941 23.0097 109.293 22.2328 108.91 21.32C108.438 20.1832 108.21 18.9602 108.24 17.7299C108.164 16.7478 108.303 15.7608 108.648 14.8383C108.994 13.9158 109.537 13.08 110.24 12.3898C111.577 11.2276 113.299 10.607 115.07 10.6498C115.946 10.6262 116.818 10.7827 117.632 11.1095C118.446 11.4363 119.183 11.9266 119.8 12.5499C121.067 13.8233 121.7 15.8665 121.7 18.6798ZM112.7 18.0797H117.55C117.573 16.4675 117.378 14.8598 116.97 13.2999C116.58 11.9299 115.97 11.2999 115.11 11.2999C114.25 11.2999 113.64 11.9599 113.27 13.2999C112.869 14.7793 112.677 16.3072 112.7 17.8397V18.0797Z" fill="#B3935F"/>
<path d="M75.68 26.6299H73.85V45.04H75.68V45.75H66.5V45.04H68.34V27.95L61.0699 45.78H60.23L52.08 27.46V45.05H55.0099V45.76H49.14V45.05H51.34V26.6399H49.1V25.95H57.29L63.02 39.23L68.34 25.95H75.68V26.6299Z" fill="#024C73"/>
<path d="M90.92 45.76V43.51C90.3424 44.2279 89.5876 44.7827 88.73 45.1199C87.718 45.561 86.6239 45.7827 85.52 45.77C81.16 45.77 78.98 43.4933 78.98 38.9399V29.8101H77.15V29.0999H84.4901V39.72C84.3872 40.9632 84.6551 42.2091 85.26 43.3C85.53 43.6536 85.8829 43.935 86.2875 44.1199C86.6921 44.3047 87.136 44.3872 87.58 44.3599C88.2783 44.3441 88.9589 44.1373 89.5477 43.7617C90.1366 43.3862 90.6112 42.8564 90.92 42.23V29.8101H89.08V29.0999H96.42V45.05H98.26V45.76H90.92Z" fill="#024C73"/>
<path d="M120.1 45.07H121.94V45.7699H112.76V45.07H114.6V35.1498C114.708 33.9094 114.44 32.6652 113.83 31.5797C113.565 31.2225 113.215 30.9376 112.811 30.7506C112.408 30.5637 111.964 30.4809 111.52 30.5099C110.82 30.5189 110.137 30.723 109.547 31.0993C108.957 31.4756 108.483 32.0091 108.18 32.6398V45.07H110.02V45.7699H100.84V45.07H102.67V29.82H100.84V29.1098H108.18V31.3297C108.759 30.6252 109.51 30.0813 110.36 29.7499C111.377 29.3145 112.473 29.0931 113.58 29.0998C117.933 29.0998 120.11 31.3765 120.11 35.9298L120.1 45.07Z" fill="#024C73"/>
<path d="M131.85 45.0701H133.68V45.77H124.51V45.0701H126.34V29.8201H124.87V29.1099H131.87L131.85 45.0701Z" fill="#024C73"/>
<path d="M135.89 37.3101C135.809 36.1311 135.994 34.9489 136.432 33.8513C136.87 32.7538 137.549 31.769 138.42 30.97C140.231 29.4884 142.522 28.7202 144.86 28.8101C147.47 28.8101 149.41 29.45 150.68 30.71C151.251 31.1683 151.681 31.7783 151.922 32.4697C152.162 33.1612 152.203 33.9062 152.04 34.6199C151.959 34.9592 151.807 35.2779 151.595 35.5552C151.384 35.8325 151.116 36.0623 150.81 36.23C150.199 36.5609 149.487 36.6569 148.81 36.5C148.168 36.4418 147.573 36.1418 147.144 35.6609C146.715 35.18 146.485 34.5541 146.5 33.9099C146.513 33.3712 146.556 32.8338 146.63 32.3C146.7 31.7798 146.73 31.2548 146.72 30.73C146.713 30.4557 146.637 30.1874 146.5 29.9499C146.25 29.5499 145.68 29.39 144.77 29.49C142.57 29.8166 141.47 32.4167 141.47 37.29C141.47 42.1634 143.27 44.6032 146.87 44.6099C147.751 44.5932 148.617 44.3744 149.4 43.97C150.152 43.6289 150.809 43.1066 151.31 42.4499L151.82 42.8C151.204 43.7501 150.325 44.5005 149.29 44.96C148.107 45.5113 146.815 45.7883 145.51 45.77C139.097 45.77 135.89 42.9501 135.89 37.3101Z" fill="#024C73"/>
<path d="M173.99 45.0701H175.83V45.77H166.65V45.0701H168.49V35.1499C168.593 33.9099 168.325 32.6673 167.72 31.5798C167.452 31.2231 167.1 30.9387 166.695 30.752C166.29 30.5652 165.845 30.4821 165.4 30.51C164.7 30.519 164.017 30.7231 163.427 31.0994C162.837 31.4757 162.363 32.0092 162.06 32.6399V45.0701H163.9V45.77H154.72V45.0701H156.6V22.76H154.76V22.05H162.1V31.3298C162.668 30.6152 163.417 30.0662 164.27 29.74C165.29 29.303 166.39 29.0848 167.5 29.0999C171.847 29.0999 174.023 31.3766 174.03 35.9299L173.99 45.0701Z" fill="#024C73"/>
<path d="M132.18 21.8698C132.186 22.2819 132.106 22.6907 131.944 23.0697C131.782 23.4487 131.542 23.7896 131.24 24.07C130.941 24.3635 130.586 24.5941 130.196 24.7487C129.806 24.9032 129.389 24.9785 128.97 24.9699C128.114 24.9864 127.287 24.6628 126.67 24.07C126.366 23.789 126.123 23.448 125.956 23.0685C125.79 22.689 125.704 22.2792 125.704 21.8649C125.704 21.4506 125.79 21.0408 125.956 20.6613C126.123 20.2818 126.366 19.9407 126.67 19.6598C126.972 19.3599 127.331 19.124 127.726 18.966C128.122 18.8079 128.545 18.731 128.97 18.7399C129.391 18.7298 129.81 18.8063 130.2 18.9645C130.591 19.1227 130.945 19.3594 131.24 19.6598C131.541 19.9436 131.779 20.2864 131.941 20.6666C132.103 21.0469 132.184 21.4565 132.18 21.8698Z" fill="#B3935F"/>
<path d="M33.68 19.1199V18.6699H32.41C32.2112 19.36 31.876 20.0033 31.4243 20.5615C30.9725 21.1198 30.4134 21.5816 29.78 21.9199C29.7997 20.8256 29.6788 19.7334 29.42 18.6699H29.1L25.77 27.26L22.2 18.6699H18.48V30.77H18.94V19.6499L24.03 31.73H24.6L29.1 19.95V31.03H27.95V31.48H33.68V31.03H32.54V19.0999L33.68 19.1199Z" fill="#B3935F"/>
<path d="M28.22 32.6499C28.312 32.8585 28.3921 33.0724 28.46 33.29C28.5926 33.7853 28.6499 34.2977 28.63 34.8101C28.5691 35.8998 28.2244 36.9545 27.63 37.8699C26.998 38.8369 26.1443 39.6392 25.14 40.21C24.1207 40.8075 22.9615 41.1248 21.78 41.1299C20.5863 41.1371 19.4009 40.9306 18.28 40.52C17.95 40.39 17.62 40.2498 17.28 40.0898C16.9813 39.8544 16.7005 39.5972 16.44 39.3201C16.1321 39.0069 15.8726 38.6496 15.67 38.26C15.4643 37.8945 15.364 37.4792 15.38 37.0601C15.4245 36.6482 15.5957 36.2603 15.87 35.95C16.0953 35.7182 16.384 35.5582 16.7 35.49C17.0179 35.4249 17.3487 35.4781 17.63 35.6399C17.9206 35.7935 18.1473 36.045 18.27 36.3499C18.336 36.5017 18.3733 36.6644 18.38 36.8298C18.321 36.7493 18.2407 36.6868 18.1482 36.6492C18.0557 36.6115 17.9546 36.6001 17.856 36.6165C17.7575 36.6328 17.6655 36.6764 17.5901 36.7419C17.5147 36.8075 17.4591 36.8925 17.4292 36.9878C17.3994 37.0831 17.3965 37.1849 17.421 37.2817C17.4455 37.3786 17.4964 37.4667 17.5679 37.5364C17.6395 37.606 17.729 37.6544 17.8265 37.6763C17.924 37.6981 18.0256 37.6924 18.12 37.6599C18.2517 37.613 18.3595 37.5159 18.42 37.3899C18.5816 37.0316 18.61 36.6274 18.5 36.25C18.3687 35.8685 18.1075 35.5453 17.762 35.3369C17.4165 35.1285 17.0087 35.048 16.61 35.1099C16.2292 35.195 15.8816 35.3897 15.61 35.6699C15.4501 35.8562 15.3187 36.0653 15.22 36.29C15.1204 36.5184 15.0595 36.7617 15.04 37.01C15.0233 37.4997 15.152 37.9833 15.41 38.3999C15.6438 38.8075 15.9408 39.1755 16.29 39.49C14.8985 38.6108 13.7173 37.4364 12.83 36.05C12.193 35.0631 11.6792 34.0017 11.3 32.8899C11.1097 32.3322 10.9495 31.7648 10.82 31.1899C10.7 30.6199 10.61 30.04 10.53 29.46C10.395 28.295 10.3649 27.1203 10.44 25.95C10.5958 23.649 11.3508 21.4289 12.63 19.51L11.85 19.6099C11.22 20.2199 9.03997 23.8999 9.69997 29.6099C9.86808 30.8291 10.1803 32.0242 10.63 33.1699C11.5241 35.4664 13.0324 37.4729 14.99 38.97C15.4749 39.3403 15.9862 39.6745 16.52 39.97C17.0553 40.2553 17.61 40.5025 18.18 40.71C19.3258 41.1242 20.5319 41.3471 21.75 41.3699C22.9811 41.3961 24.2059 41.1892 25.36 40.76C26.5608 40.323 27.6899 39.7096 28.71 38.9399C29.8126 38.0937 30.7774 37.0817 31.57 35.9399C32.01 35.3286 32.3948 34.6794 32.72 34C32.944 33.5474 33.1442 33.0833 33.32 32.6099L28.22 32.6499Z" fill="#B3935F"/>
<path d="M31.36 14.3C29.11 12.3 23.95 11.6498 17.87 14.3998C16.7385 14.8828 15.6786 15.5189 14.72 16.29H15.87C16.1 16.12 16.33 15.96 16.58 15.8C17.072 15.4855 17.583 15.2015 18.11 14.9499C20.0547 14.0621 22.1462 13.54 24.28 13.4099C27.19 13.4699 30.43 14.8198 30.38 20.3398C31.22 20.0298 33.68 16.44 31.36 14.3Z" fill="#B3935F"/>
<path d="M14.18 18.01V30.74H12.47V31.23H19.6V30.74H17.88V18.01H21.88L21.67 17.52H9.59998V21.1899C10.26 17.3799 14.18 18.01 14.18 18.01Z" fill="#B3935F"/>
<path d="M136.84 53.45L137.58 52.1099H138.08L137.14 53.76L138.32 54.99H137.67L136.9 54.1599C136.712 54.4225 136.478 54.6493 136.21 54.8298C135.937 55.0077 135.616 55.0983 135.29 55.0898C135.082 55.09 134.875 55.0529 134.68 54.98C134.494 54.9155 134.323 54.8128 134.178 54.6785C134.033 54.5442 133.918 54.3812 133.84 54.2C133.757 54.004 133.716 53.7926 133.72 53.5798C133.715 53.4012 133.749 53.2239 133.82 53.0601C133.886 52.9122 133.978 52.7767 134.09 52.6599C134.202 52.5404 134.326 52.4331 134.46 52.3398L134.9 52.0601L134.68 51.79C134.603 51.6972 134.536 51.5966 134.48 51.49C134.42 51.3883 134.37 51.2811 134.33 51.1699C134.292 51.0641 134.271 50.9524 134.27 50.8398C134.269 50.667 134.306 50.4961 134.38 50.3398C134.443 50.1963 134.539 50.0696 134.66 49.97C134.786 49.8701 134.928 49.7923 135.08 49.74C135.238 49.6883 135.404 49.6612 135.57 49.6599C135.72 49.6614 135.869 49.6885 136.01 49.74C136.143 49.7953 136.268 49.8693 136.38 49.96C136.491 50.0561 136.58 50.1757 136.64 50.3101C136.706 50.4509 136.74 50.6045 136.74 50.76C136.74 50.9252 136.706 51.0885 136.64 51.24C136.568 51.3726 136.477 51.4937 136.37 51.5999C136.261 51.7096 136.14 51.8069 136.01 51.8899L135.58 52.1299L136.84 53.45ZM135.18 52.3699C135.06 52.4339 134.943 52.504 134.83 52.5798C134.718 52.6558 134.614 52.7429 134.52 52.8398C134.425 52.9321 134.347 53.0405 134.29 53.1599C134.229 53.2877 134.198 53.4283 134.2 53.5701C134.196 53.7217 134.227 53.8721 134.29 54.01C134.347 54.1408 134.432 54.2569 134.54 54.3499C134.646 54.4492 134.772 54.5245 134.91 54.5701C135.058 54.6234 135.213 54.6504 135.37 54.6499C135.5 54.6515 135.629 54.6276 135.75 54.5798C135.868 54.5394 135.979 54.4822 136.08 54.4099C136.18 54.3345 136.274 54.2509 136.36 54.1599C136.449 54.0635 136.529 53.9597 136.6 53.8499L135.18 52.3699ZM135.53 50.0999C135.328 50.0956 135.132 50.1672 134.98 50.3C134.905 50.3656 134.845 50.4471 134.805 50.5388C134.765 50.6305 134.746 50.7299 134.75 50.8298C134.751 50.9231 134.771 51.0151 134.81 51.0999C134.845 51.1956 134.892 51.2864 134.95 51.3699C135.004 51.4577 135.064 51.5413 135.13 51.6199L135.31 51.8298L135.63 51.6499C135.74 51.5914 135.841 51.5174 135.93 51.4299C136.025 51.3534 136.103 51.258 136.16 51.1499C136.222 51.0404 136.254 50.916 136.25 50.79C136.254 50.6972 136.239 50.6046 136.204 50.5183C136.17 50.4321 136.117 50.3542 136.05 50.29C135.908 50.1609 135.722 50.0925 135.53 50.0999Z" fill="#A8A296"/>
<path d="M89.24 49.25C89.7677 49.2105 90.2736 49.0233 90.7 48.7099C91.1958 48.3951 91.7503 48.184 92.33 48.0898C92.5586 48.0538 92.7914 48.0538 93.02 48.0898C92.3947 47.6937 91.6702 47.4824 90.93 47.4799C90.3109 47.4705 89.699 47.6132 89.1479 47.8957C88.5969 48.1782 88.1238 48.5916 87.77 49.0998C88.2346 49.2932 88.7459 49.3455 89.24 49.25Z" fill="#A8A296"/>
<path d="M89.6301 50.57C90.0995 50.6118 90.5725 50.5572 91.0201 50.4098C91.5052 50.1898 92.0421 50.1102 92.5701 50.1798C93.1027 50.2107 93.6142 50.3986 94.0401 50.7199C94.2879 50.9102 94.5748 51.0433 94.8801 51.1098C94.808 50.1745 94.3994 49.297 93.7301 48.6398C93.2764 48.5229 92.8043 48.4959 92.3401 48.56C91.8101 48.6027 91.3018 48.7893 90.8701 49.0998C90.3781 49.4148 89.8268 49.6259 89.2501 49.7199H88.7001C88.3043 49.7321 87.9108 49.6535 87.5501 49.4899H87.4702C87.4597 49.547 87.4317 49.5993 87.3901 49.6398C87.7271 49.7313 88.0429 49.8875 88.3201 50.0998C88.6981 50.3874 89.1555 50.5517 89.6301 50.57Z" fill="#A8A296"/>
<path d="M89.2401 52.73C89.7667 52.6859 90.2715 52.4992 90.7001 52.1899C91.1959 51.8751 91.7504 51.6643 92.3301 51.5701C92.9013 51.4827 93.4852 51.5375 94.0301 51.73C94.3015 51.8197 94.5843 51.8702 94.8701 51.8799V51.49C94.4866 51.3989 94.1214 51.2434 93.79 51.03C93.4118 50.7442 92.9539 50.5835 92.48 50.5701C92.0113 50.5215 91.5377 50.5725 91.0901 50.72C90.6065 50.9448 90.0681 51.0246 89.54 50.95C89.0094 50.9246 88.4995 50.7359 88.0801 50.4099C87.8266 50.2248 87.537 50.0955 87.23 50.03C87.0753 50.477 86.9975 50.9469 87.0001 51.4199C87.0107 51.758 87.0611 52.0936 87.1501 52.4199C87.3801 52.4999 87.6101 52.4998 87.7701 52.5798C88.2347 52.7732 88.746 52.8256 89.2401 52.73Z" fill="#A8A296"/>
<path d="M91.0101 54.2C90.5287 54.4202 89.9949 54.4999 89.4702 54.4299C88.9372 54.4009 88.4251 54.2128 88.0001 53.8899C87.8401 53.8099 87.7701 53.7299 87.6101 53.6599C87.9278 54.1301 88.3418 54.5275 88.8248 54.8254C89.3077 55.1233 89.8486 55.3149 90.4114 55.3877C90.9741 55.4605 91.5459 55.4129 92.0888 55.2478C92.6317 55.0827 93.1332 54.8038 93.5601 54.4299C93.2067 54.2166 92.8107 54.0836 92.4001 54.04C91.9308 53.9995 91.458 54.0539 91.0101 54.2Z" fill="#A8A296"/>
<path d="M93.79 52.1899C93.3003 51.9995 92.7685 51.9443 92.2501 52.03C91.7188 52.0747 91.2102 52.2648 90.7801 52.5798C90.2892 52.8953 89.7371 53.1033 89.1601 53.1899H88.6301C88.2306 53.2071 87.8328 53.1283 87.4701 52.9599C87.3101 52.9599 87.2401 52.8798 87.0801 52.8798C87.0885 52.9405 87.1167 52.9969 87.1601 53.04C87.4961 53.1338 87.8116 53.2898 88.0901 53.5C88.4693 53.7853 88.926 53.9491 89.4001 53.9699C89.8695 54.011 90.3423 53.9566 90.79 53.81C91.2751 53.59 91.8121 53.5101 92.3401 53.5798C92.829 53.6408 93.3012 53.7973 93.73 54.04C94.1843 53.5666 94.5022 52.979 94.6501 52.3398C94.3579 52.3297 94.0684 52.2793 93.79 52.1899Z" fill="#A8A296"/>
<path d="M140.61 49.8701H141.32L143.59 54.1601L145.86 49.8701H146.57L143.97 54.7501H143.2L140.61 49.8701Z" fill="#A8A296"/>
<path d="M147 49.8701H151.6V50.4101H147.63V51.9601H151.44V52.5001H147.63V54.2101H151.62V54.7501H147V49.8701Z" fill="#A8A296"/>
<path d="M152.22 49.8701H153.17L157.45 54.1601V49.8701H158.09V54.7501H157.14L152.86 50.4601V54.7501H152.22V49.8701Z" fill="#A8A296"/>
<path d="M160.82 50.4101H158.46V49.8701H163.82V50.4101H161.46V54.7501H160.82V50.4101Z" fill="#A8A296"/>
<path d="M164.22 49.8699H164.86V53.52C164.86 53.99 165.01 54.26 165.86 54.26H168.06C168.92 54.26 169.06 53.99 169.06 53.52V49.8699H169.69V53.52C169.69 54.52 169.21 54.8 168.02 54.8H165.86C164.67 54.8 164.19 54.51 164.19 53.52L164.22 49.8699Z" fill="#A8A296"/>
<path d="M170.52 53.21H171.11V53.5601C171.11 54.0301 171.36 54.26 172.11 54.26H174.11C175.02 54.26 175.3 54.0599 175.3 53.3599C175.3 52.6599 175.06 52.5898 174.3 52.5898H173.1C171.17 52.5898 170.53 52.4699 170.53 51.1699C170.53 50.0599 171.17 49.8101 172.47 49.8101H173.84C175.41 49.8101 175.84 50.2299 175.84 51.0999V51.27H175.25C175.25 50.49 175.16 50.3499 173.5 50.3499H172.82C171.6 50.3499 171.17 50.42 171.17 51.22C171.17 51.8 171.34 52 172.33 52H174.21C175.44 52 175.96 52.37 175.96 53.2V53.52C175.96 54.72 175.02 54.8 174.08 54.8H172.32C171.39 54.8 170.58 54.6401 170.58 53.5701L170.52 53.21Z" fill="#A8A296"/>
<g clip-path="url(#clip1_140_445)">
<path d="M82 50H82.3336V51.0107H82.3421C82.3613 50.984 82.3829 50.9594 82.4066 50.9372C82.4354 50.9098 82.467 50.8861 82.5008 50.8665C82.5414 50.8429 82.5845 50.8247 82.629 50.8123C82.6845 50.7971 82.7416 50.79 82.7988 50.7911C82.8888 50.7901 82.9781 50.8101 83.0603 50.8499C83.1381 50.8875 83.2078 50.9422 83.2648 51.0107C83.3227 51.0812 83.3676 51.1629 83.3973 51.2515C83.4293 51.3469 83.4454 51.4477 83.4448 51.5492C83.4455 51.6507 83.4303 51.7517 83.3998 51.8478C83.3718 51.9368 83.3273 52.0187 83.2691 52.0885C83.2106 52.1573 83.1395 52.212 83.0603 52.2493C82.9734 52.2896 82.8797 52.3097 82.7852 52.3081C82.694 52.3091 82.6037 52.2887 82.5204 52.2484C82.4385 52.2077 82.3705 52.1402 82.326 52.0554H82.3209V52.2723H82.0034L82 50ZM83.1036 51.5538C83.1037 51.4983 83.0948 51.4432 83.0772 51.3911C83.0602 51.3396 83.0337 51.2924 82.9992 51.2524C82.9638 51.2132 82.9217 51.182 82.8752 51.1605C82.8233 51.1365 82.7674 51.1241 82.7109 51.1241C82.6545 51.1241 82.5986 51.1365 82.5467 51.1605C82.5002 51.1828 82.4583 51.2151 82.4236 51.2554C82.3889 51.2956 82.3621 51.3431 82.3447 51.3948C82.3092 51.4998 82.3092 51.615 82.3447 51.7201C82.3621 51.7718 82.3889 51.8192 82.4236 51.8595C82.4583 51.8997 82.5002 51.932 82.5467 51.9544C82.6214 51.992 82.7051 52.0034 82.7861 51.9869C82.8671 51.9704 82.9413 51.9269 82.9983 51.8625C83.0328 51.8225 83.0594 51.7753 83.0764 51.7237C83.094 51.6716 83.1029 51.6166 83.1027 51.5611" fill="#A8A296"/>
<path d="M83.5721 50.8315H83.9397L84.3124 51.834H84.3183L84.6519 50.8315H85L84.3684 52.5874C84.3471 52.6496 84.3206 52.7095 84.2895 52.7666C84.2623 52.8156 84.2279 52.8594 84.1876 52.8962C84.1471 52.932 84.1003 52.9585 84.0501 52.9743C83.9879 52.9926 83.9236 53.0013 83.8591 53C83.7731 53 83.6875 52.9879 83.6044 52.9642L83.646 52.6389C83.6738 52.6494 83.7021 52.658 83.7309 52.6646C83.7588 52.6716 83.7872 52.6753 83.8158 52.6757C83.8504 52.6763 83.8849 52.6723 83.9185 52.6637C83.9444 52.6572 83.9685 52.6445 83.9893 52.6265C84.01 52.6085 84.0267 52.5858 84.0382 52.5599C84.0518 52.5332 84.0654 52.5002 84.0798 52.4625L84.1435 52.2907L83.5721 50.8315Z" fill="#A8A296"/>
</g>
<path d="M101.09 52.382C101.041 52.6464 100.954 52.9022 100.831 53.1413C100.716 53.3617 100.563 53.5597 100.378 53.7261C100.195 53.8896 99.9828 54.0172 99.7525 54.1024C99.5021 54.1937 99.2371 54.239 98.9706 54.2361C98.6607 54.2395 98.3531 54.1842 98.0639 54.0729C97.7909 53.9664 97.5453 53.7998 97.3454 53.5856C97.1346 53.3527 96.9727 53.0798 96.8694 52.7832C96.7469 52.426 96.6878 52.0501 96.6949 51.6725C96.6895 51.2941 96.743 50.9171 96.8536 50.5551C96.947 50.2467 97.1012 49.96 97.3069 49.7119C97.5042 49.4837 97.7506 49.3031 98.0277 49.1838C98.3282 49.0579 98.6515 48.9954 98.9774 49.0003C99.2597 48.9967 99.5405 49.0427 99.8069 49.1362C100.043 49.2204 100.261 49.348 100.451 49.5125C100.629 49.6715 100.773 49.8641 100.877 50.0792C100.984 50.2965 101.051 50.5315 101.074 50.7727H100.047C99.993 50.5152 99.8522 50.284 99.6483 50.1177C99.5278 50.0266 99.3906 49.9602 99.2444 49.9223C99.0983 49.8844 98.9461 49.8757 98.7966 49.8968C98.647 49.9178 98.5032 49.9682 98.3731 50.045C98.2431 50.1218 98.1296 50.2235 98.039 50.3443C97.8408 50.7385 97.7377 51.1736 97.7377 51.6148C97.7377 52.0559 97.8408 52.491 98.039 52.8852C98.136 53.0347 98.2712 53.1556 98.4306 53.2353C98.59 53.315 98.7678 53.3506 98.9456 53.3385C99.2129 53.3524 99.4755 53.264 99.68 53.0914C99.8799 52.9011 100.013 52.6517 100.061 52.3797L101.09 52.382Z" fill="#A8A296"/>
<path d="M103.096 54.1612C102.826 54.1652 102.557 54.1175 102.305 54.0207C102.083 53.9337 101.883 53.7994 101.719 53.6272C101.554 53.4549 101.429 53.2489 101.353 53.0234C101.267 52.774 101.225 52.5118 101.228 52.2482C101.225 51.9819 101.269 51.7172 101.357 51.4662C101.437 51.2407 101.564 51.0345 101.729 50.861C101.895 50.6914 102.095 50.5592 102.316 50.4735C102.565 50.3792 102.83 50.3331 103.096 50.3374C103.358 50.3332 103.619 50.3794 103.864 50.4735C104.085 50.5579 104.284 50.69 104.448 50.8605C104.612 51.0309 104.736 51.2354 104.812 51.4594C104.984 51.9704 104.984 52.5237 104.812 53.0347C104.732 53.2586 104.607 53.4638 104.444 53.6376C104.28 53.8077 104.08 53.94 103.86 54.0252C103.616 54.1186 103.357 54.1648 103.096 54.1612ZM103.096 53.3566C103.681 53.3566 103.975 52.9871 103.975 52.2482C103.975 51.5093 103.681 51.1489 103.096 51.1489C102.511 51.1489 102.216 51.5161 102.216 52.2482C102.216 52.9803 102.511 53.3566 103.096 53.3566Z" fill="#A8A296"/>
<path d="M107.615 54.066V51.8651C107.637 51.6648 107.588 51.4632 107.475 51.2962C107.408 51.241 107.332 51.1996 107.249 51.1743C107.167 51.149 107.08 51.1404 106.994 51.1489C106.499 51.1489 106.25 51.4269 106.249 51.983V54.066H105.287V50.4395H106.194V50.9699C106.298 50.7743 106.455 50.6123 106.647 50.5029C106.871 50.3885 107.12 50.3338 107.37 50.3443C107.534 50.3424 107.696 50.3685 107.851 50.4214C107.993 50.4689 108.122 50.5462 108.232 50.648C108.34 50.7569 108.426 50.8863 108.483 51.0288C108.547 51.195 108.578 51.3721 108.574 51.5501V54.0683L107.615 54.066Z" fill="#A8A296"/>
<path d="M111.063 51.6726H111.956V52.7062C111.956 52.8932 111.927 53.0791 111.87 53.257C111.815 53.4286 111.724 53.5868 111.605 53.7216C111.479 53.8615 111.325 53.9715 111.151 54.0435C110.942 54.1273 110.717 54.1674 110.492 54.1614C110.259 54.1679 110.028 54.1278 109.812 54.0435C109.64 53.9709 109.485 53.8628 109.358 53.7262C109.238 53.5924 109.149 53.4337 109.098 53.2615C109.043 53.0792 109.015 52.8898 109.016 52.6994V49.4514H109.961V50.4328H111.97V51.1128H109.961V52.6042C109.95 52.7914 109.995 52.9777 110.091 53.1392C110.139 53.2039 110.204 53.2551 110.278 53.288C110.352 53.3209 110.434 53.3344 110.514 53.3273C110.595 53.3336 110.676 53.32 110.751 53.2876C110.825 53.2552 110.89 53.205 110.94 53.1414C111.04 52.9859 111.088 52.8024 111.076 52.6178L111.063 51.6726Z" fill="#A8A296"/>
<path d="M112.368 49.9997V49.1067H113.329V49.9997H112.368ZM112.368 54.0796V50.453H113.329V54.0796H112.368Z" fill="#A8A296"/>
<path d="M116.09 54.0661V51.8653C116.112 51.665 116.062 51.4633 115.95 51.2964C115.883 51.2411 115.807 51.1995 115.724 51.1742C115.642 51.1489 115.555 51.1404 115.469 51.1491C114.972 51.1491 114.723 51.4271 114.723 51.9831V54.0661H113.765V50.4396H114.671V50.97C114.774 50.7739 114.932 50.6118 115.125 50.5031C115.501 50.3245 115.931 50.2954 116.328 50.4215C116.469 50.4685 116.599 50.5459 116.707 50.6481C116.816 50.7564 116.902 50.886 116.958 51.0289C117.023 51.195 117.054 51.3721 117.051 51.5502V54.0684L116.09 54.0661Z" fill="#A8A296"/>
<path d="M118.357 52.4932C118.359 52.7334 118.444 52.9655 118.597 53.1504C118.668 53.2306 118.757 53.2939 118.855 53.3359C118.954 53.3778 119.061 53.3973 119.168 53.393C119.314 53.3968 119.459 53.36 119.585 53.2865C119.641 53.2547 119.69 53.2117 119.729 53.1603C119.768 53.1088 119.796 53.0499 119.812 52.9873H120.809C120.715 53.3337 120.507 53.6382 120.218 53.8508C119.924 54.0567 119.572 54.1632 119.213 54.1546C118.005 54.1546 117.4 53.495 117.4 52.1759C117.396 51.9172 117.436 51.6597 117.518 51.4143C117.591 51.1985 117.707 51.0001 117.86 50.8317C118.013 50.6672 118.201 50.54 118.411 50.46C118.649 50.3699 118.902 50.326 119.157 50.3308C119.396 50.3148 119.636 50.3551 119.857 50.4484C120.079 50.5416 120.275 50.6853 120.431 50.868C120.718 51.2277 120.861 51.7694 120.861 52.4932H118.357ZM119.871 51.888C119.868 51.7677 119.844 51.6488 119.8 51.5367C119.762 51.443 119.706 51.3576 119.635 51.285C119.567 51.22 119.486 51.1698 119.397 51.1377C119.31 51.1062 119.218 51.0901 119.125 51.0901C119.032 51.0893 118.94 51.1075 118.854 51.1438C118.768 51.18 118.691 51.2335 118.626 51.3009C118.478 51.4613 118.393 51.6698 118.386 51.888H119.871Z" fill="#A8A296"/>
<path d="M123.529 54.0661V51.8653C123.551 51.665 123.501 51.4633 123.388 51.2964C123.322 51.2411 123.246 51.1995 123.163 51.1742C123.081 51.1489 122.994 51.1404 122.908 51.1491C122.411 51.1491 122.162 51.4271 122.162 51.9831V54.0661H121.203V50.4396H122.11V50.97C122.213 50.7739 122.371 50.6118 122.563 50.5031C122.94 50.3245 123.37 50.2954 123.767 50.4215C123.908 50.4685 124.037 50.5459 124.146 50.6481C124.255 50.7564 124.34 50.886 124.397 51.0289C124.462 51.195 124.493 51.3721 124.49 51.5502V54.0684L123.529 54.0661Z" fill="#A8A296"/>
<path d="M126.965 51.6726H127.858V52.7062C127.86 52.8931 127.831 53.079 127.774 53.257C127.719 53.4332 127.626 53.5951 127.501 53.731C127.376 53.8669 127.222 53.9737 127.051 54.0435C126.841 54.1271 126.616 54.1672 126.39 54.1614C126.157 54.1677 125.926 54.1276 125.71 54.0435C125.538 53.9712 125.383 53.863 125.256 53.7262C125.136 53.5925 125.046 53.4338 124.993 53.2615C124.938 53.0792 124.911 52.8898 124.912 52.6994V49.4514H125.857V50.4328H127.865V51.1128H125.857V52.6042C125.846 52.7914 125.891 52.9777 125.986 53.1392C126.036 53.2039 126.1 53.2551 126.175 53.288C126.25 53.3209 126.331 53.3344 126.412 53.3273C126.493 53.3336 126.574 53.32 126.648 53.2876C126.721 53.2552 126.786 53.205 126.836 53.1414C126.936 52.9859 126.984 52.8024 126.972 52.6178L126.965 51.6726Z" fill="#A8A296"/>
<path d="M130.435 51.5318C130.432 51.4599 130.413 51.3897 130.38 51.3257C130.347 51.2616 130.301 51.2052 130.245 51.1601C130.096 51.0777 129.927 51.0406 129.758 51.0535C129.614 51.0465 129.47 51.0697 129.336 51.1215C129.291 51.1399 129.253 51.1714 129.227 51.2119C129.201 51.2524 129.187 51.2999 129.189 51.3482C129.187 51.3991 129.2 51.4495 129.226 51.4932C129.252 51.537 129.291 51.5724 129.336 51.5953C129.476 51.6689 129.625 51.7252 129.778 51.763C129.987 51.8219 130.182 51.874 130.37 51.9216C130.537 51.9613 130.702 52.0112 130.864 52.0712C131.041 52.1355 131.198 52.2468 131.317 52.3931C131.428 52.5572 131.482 52.753 131.471 52.9507C131.48 53.1199 131.447 53.2887 131.377 53.4429C131.307 53.597 131.201 53.7321 131.068 53.8369C130.72 54.0716 130.303 54.1833 129.885 54.1543C129.427 54.1847 128.973 54.0601 128.595 53.8007C128.455 53.694 128.342 53.5569 128.263 53.3998C128.185 53.2427 128.143 53.0697 128.142 52.894H129.13C129.126 52.9721 129.142 53.0498 129.177 53.1197C129.212 53.1896 129.264 53.2493 129.329 53.2929C129.495 53.3951 129.688 53.4441 129.882 53.4334C130.038 53.437 130.192 53.4077 130.336 53.3473C130.394 53.3257 130.445 53.286 130.479 53.2338C130.514 53.1816 130.531 53.1198 130.528 53.0572C130.531 52.9991 130.516 52.9414 130.485 52.8923C130.453 52.8432 130.408 52.805 130.354 52.783C130.222 52.7235 130.084 52.6764 129.944 52.6424C129.64 52.5699 129.393 52.5019 129.207 52.443C129.04 52.3938 128.881 52.3221 128.733 52.2299C128.582 52.1425 128.458 52.0146 128.375 51.8604C128.308 51.7188 128.274 51.5638 128.275 51.4071C128.275 51.2604 128.302 51.1149 128.357 50.9788C128.414 50.8434 128.505 50.7253 128.622 50.6365C128.764 50.5306 128.926 50.4536 129.098 50.4098C129.329 50.3531 129.567 50.3264 129.805 50.3305C130.331 50.3305 130.719 50.431 130.968 50.632C131.096 50.7433 131.198 50.8806 131.268 51.0345C131.339 51.1885 131.375 51.3557 131.376 51.525L130.435 51.5318Z" fill="#A8A296"/>
</g>
<defs>
<clipPath id="clip0_140_445">
<rect width="175.9" height="55.43" fill="white"/>
</clipPath>
<clipPath id="clip1_140_445">
<rect width="3" height="3" fill="white" transform="translate(82 50)"/>
</clipPath>
</defs>
</svg>
