<svg width="208" height="35" viewBox="0 0 208 35" fill="none" xmlns="http://www.w3.org/2000/svg">
<path d="M3.1761 6.76758L10.4555 26.4698L17.7365 6.76758H20.9111L10.4555 34.1341L0 6.76758H3.1761Z" fill="#575756"/>
<path d="M27.4199 6.76758H24.5539V32.5859H27.4199V6.76758Z" fill="#575756"/>
<path d="M36.9453 6.76758V29.8762H44.0712V32.5859H34.0808V6.76758H36.9453Z" fill="#575756"/>
<path d="M62.1943 25.3083H51.1953L48.099 32.5844H44.9229L56.8145 5.52783L68.3929 32.5844H65.2153L62.1943 25.3083ZM61.0714 22.6001L56.7347 12.2638L52.3198 22.5986L61.0714 22.6001Z" fill="#575756"/>
<path d="M85.741 6.76758C88.3361 6.76758 90.5036 7.07601 92.2467 8.5866C94.1434 10.2115 94.6085 12.4985 94.6085 14.1219C94.6085 17.7599 92.3235 21.3588 86.4379 21.3588H83.9196V32.5844H81.0596V6.76758H85.741ZM83.9196 18.6536H86.2829C89.6908 18.6536 91.7425 16.9505 91.7425 13.9699C91.7425 9.86698 87.9086 9.48031 86.0496 9.48031H83.9196V18.6536Z" fill="#575756"/>
<path d="M101.581 6.76758H98.7149V32.5859H101.581V6.76758Z" fill="#575756"/>
<path d="M111.106 6.76758V29.8762H118.232V32.5859H108.242V6.76758H111.106Z" fill="#575756"/>
<path d="M120.708 19.6948C120.708 11.9929 126.71 6.3418 134.146 6.3418C141.582 6.3418 147.583 11.9929 147.583 19.6948C147.583 27.3591 141.62 33.0493 134.146 33.0493C126.672 33.0493 120.708 27.3591 120.708 19.6948ZM123.651 19.6948C123.651 25.6183 128.336 30.3396 134.146 30.3396C139.956 30.3396 144.642 25.6183 144.642 19.6948C144.642 13.7713 139.956 9.05152 134.147 9.05152C128.339 9.05152 123.653 13.7728 123.653 19.6948" fill="#575756"/>
<path d="M152.853 32.5843V5.68274L172.992 26.7782V6.76753H175.852V33.7459L155.719 12.6504V32.5843H152.853ZM170.358 1.34809C170.139 1.94244 169.796 2.48316 169.351 2.9339C169.006 3.31007 168.588 3.61113 168.122 3.81824C167.656 4.02536 167.152 4.13406 166.641 4.13755C165.711 4.13755 165.052 3.79 164.046 3.28597C163.077 2.82106 162.457 2.51112 161.877 2.51112C161.659 2.51076 161.444 2.55533 161.244 2.64206C161.044 2.72878 160.864 2.85579 160.715 3.01515C160.406 3.3606 160.181 3.77241 160.056 4.2188L158.353 2.82407C158.591 2.15719 158.99 1.55925 159.514 1.08329C160.134 0.463408 160.869 0.0376141 161.954 0.0376141C163.008 0.0376141 163.891 0.502524 164.588 0.850078C165.324 1.23826 166.094 1.66405 166.756 1.66405C166.989 1.66262 167.219 1.61387 167.432 1.52075C167.645 1.42763 167.837 1.2921 167.996 1.1224C168.302 0.799514 168.54 0.4176 168.693 0L170.358 1.34809Z" fill="#575756"/>
<path d="M181.125 19.6948C181.125 11.9929 187.128 6.3418 194.562 6.3418C201.997 6.3418 208 11.9929 208 19.6948C208 27.3591 202.036 33.0493 194.562 33.0493C187.089 33.0493 181.125 27.3591 181.125 19.6948ZM184.068 19.6948C184.068 25.6183 188.754 30.3396 194.562 30.3396C200.371 30.3396 205.057 25.6183 205.057 19.6948C205.057 13.7713 200.371 9.05152 194.562 9.05152C188.754 9.05152 184.068 13.7728 184.068 19.6948Z" fill="#575756"/>
</svg>
