<svg xmlns="http://www.w3.org/2000/svg" xmlns:xlink="http://www.w3.org/1999/xlink" viewBox="0 0 64 56.55"><defs><style>.cls-1{fill:url(#Degradado_sin_nombre_3);}.cls-2{fill:url(#Degradado_sin_nombre_3-2);}.cls-3{fill:url(#Degradado_sin_nombre_3-3);}.cls-4{fill:url(#Degradado_sin_nombre_3-4);}.cls-5{fill:url(#Degradado_sin_nombre_3-5);}.cls-6{fill:url(#Degradado_sin_nombre_3-6);}.cls-7{fill:url(#Degradado_sin_nombre_3-7);}.cls-8{fill:url(#Degradado_sin_nombre_3-8);}</style><linearGradient id="Degradado_sin_nombre_3" x1="-14.12" y1="58.92" x2="35.66" y2="0.7" gradientUnits="userSpaceOnUse"><stop offset="0" stop-color="#a36afc"/><stop offset="1" stop-color="#3fdafd"/></linearGradient><linearGradient id="Degradado_sin_nombre_3-2" x1="-16.46" y1="56.92" x2="33.33" y2="-1.3" xlink:href="#Degradado_sin_nombre_3"/><linearGradient id="Degradado_sin_nombre_3-3" x1="0.94" y1="71.8" x2="50.73" y2="13.58" xlink:href="#Degradado_sin_nombre_3"/><linearGradient id="Degradado_sin_nombre_3-4" x1="-0.17" y1="70.85" x2="49.62" y2="12.63" xlink:href="#Degradado_sin_nombre_3"/><linearGradient id="Degradado_sin_nombre_3-5" x1="-9.1" y1="63.22" x2="40.69" y2="4.99" xlink:href="#Degradado_sin_nombre_3"/><linearGradient id="Degradado_sin_nombre_3-6" x1="9.38" y1="79.01" x2="59.16" y2="20.79" xlink:href="#Degradado_sin_nombre_3"/><linearGradient id="Degradado_sin_nombre_3-7" x1="1.98" y1="72.69" x2="51.76" y2="14.46" xlink:href="#Degradado_sin_nombre_3"/><linearGradient id="Degradado_sin_nombre_3-8" x1="12.92" y1="82.05" x2="62.71" y2="23.82" xlink:href="#Degradado_sin_nombre_3"/></defs><g id="Capa_2" data-name="Capa 2"><g id="Capa_1-2" data-name="Capa 1"><path class="cls-1" d="M5.39,26a16,16,0,0,0,2.09.14H29.8l2-10.95H7.31Z"/><polygon class="cls-2" points="8.07 10.95 23.28 10.95 23.9 10.95 45.07 10.95 47.04 0 25.85 0 25.23 0 10.01 0 8.07 10.95"/><path class="cls-3" d="M52,0h-.71l-2,11H64C63.55,4.69,58.76.05,52,0Z"/><polygon class="cls-4" points="17.85 41.41 39.58 41.41 41.55 30.45 19.81 30.45 17.85 41.41"/><polygon class="cls-5" points="4.62 30.45 0 56.55 10.9 56.55 15.54 30.45 4.62 30.45"/><path class="cls-6" d="M31.93,45.68H17.09L15.15,56.55H41.81c6.7,0,13.12-4.65,15.86-10.87H31.93Z"/><path class="cls-7" d="M34.07,26.18H55.84a18.28,18.28,0,0,0,7.81-10.95H36Z"/><path class="cls-8" d="M55.16,30.45H45.82l-2,11H58.9A12.07,12.07,0,0,0,55.16,30.45Z"/></g></g></svg>