<svg width="36" height="35" viewBox="0 0 36 35" fill="none" xmlns="http://www.w3.org/2000/svg">
<g clip-path="url(#clip0_96_11759)">
<path d="M35.8731 18.3919C35.8731 13.512 35.8731 8.62867 35.8731 3.74193C35.8767 2.80214 35.4969 1.89921 34.8168 1.23026C34.4594 0.879193 34.0332 0.601226 33.5633 0.41281C33.0934 0.224395 32.5893 0.129286 32.0809 0.133236C31.0919 0.148624 30.1471 0.533259 29.4428 1.20723C28.7385 1.88121 28.3289 2.79271 28.2992 3.75219H1.5844C0.528066 3.75219 0.137226 4.11102 0.137226 5.17722V33.3597C0.0869873 33.5615 0.0906087 33.7724 0.147799 33.9724C0.20499 34.1724 0.313853 34.355 0.464043 34.5028C0.614233 34.6506 0.80078 34.7588 1.00607 34.8171C1.21137 34.8754 1.42861 34.8818 1.63721 34.8359H31.2992C34.2992 34.5489 35.8309 33.0317 35.8626 30.3149C35.8626 28.7361 35.8626 27.1573 35.8626 25.5785V18.4022L35.8731 18.3919ZM28.2358 23.2513C28.2358 23.3949 28.2358 23.5383 28.2358 23.6921V25.5067C28.2358 26.8805 28.2358 28.2542 28.2358 29.6075C28.2463 29.7542 28.2463 29.9016 28.2358 30.0483C28.1755 30.3876 28.1755 30.7343 28.2358 31.0735C28.2717 31.3199 28.3986 31.5451 28.593 31.7073C28.7873 31.8695 29.0358 31.9576 29.2921 31.9552C29.565 31.9341 29.8213 31.8193 30.0149 31.6314C30.2085 31.4436 30.3267 31.1949 30.3485 30.93C30.3485 30.8685 30.3485 30.8172 30.3485 30.7249C30.3648 30.3332 30.5368 29.9629 30.8282 29.6916C31.1196 29.4202 31.5079 29.2689 31.9118 29.2692C32.1001 29.2509 32.2902 29.2691 32.4711 29.3228C32.6521 29.3764 32.8202 29.4644 32.9657 29.5818C33.1112 29.6992 33.2312 29.8435 33.3186 30.0063C33.4061 30.1691 33.4594 30.3472 33.4753 30.5302C33.5206 30.7955 33.4882 31.0679 33.3817 31.3162C33.2752 31.5645 33.099 31.7788 32.8731 31.9347C32.3121 32.3737 31.6075 32.6029 30.8872 32.5805H2.39774V5.85375H28.2464C28.2464 10.8977 28.2464 15.9451 28.2464 20.9958L28.2358 23.2513ZM24.9717 10.0263L24.7605 9.80084C24.509 9.52849 24.2035 9.30811 23.8623 9.15308C23.521 8.99806 23.1511 8.91159 22.7745 8.89866C22.3537 8.8992 21.9375 8.98413 21.5521 9.1482C21.1667 9.31228 20.8205 9.55188 20.5351 9.85202C17.0069 13.3172 13.3942 16.8029 9.8872 20.186L7.33088 22.6464C6.96322 22.9789 6.69958 23.4054 6.57029 23.8767L6.16887 24.8198L4.71112 28.326C4.6251 28.4839 4.58018 28.6599 4.58018 28.8386C4.58018 29.0172 4.6251 29.1932 4.71112 29.3512C4.84193 29.4928 5.00695 29.6006 5.19132 29.665C5.3757 29.7294 5.57367 29.7484 5.76746 29.7202H21.4435H21.6759C21.8878 29.6974 22.0836 29.5996 22.2258 29.4454C22.368 29.2912 22.4466 29.0917 22.4466 28.8847C22.4466 28.6778 22.368 28.4781 22.2258 28.324C22.0836 28.1698 21.8878 28.072 21.6759 28.0492H10.0562L10.3731 27.9467C10.8751 27.8262 11.3415 27.5946 11.7358 27.27C12.4858 26.5831 13.2147 25.8553 13.9224 25.1582L14.852 24.2457L16.2252 22.9232L18.8978 20.3602L19.1407 20.1244C21.2534 18.0741 23.3132 16.0954 25.3837 14.0758C25.6997 13.7793 25.9362 13.4122 26.0725 13.0066C26.2088 12.6009 26.2406 12.169 26.1653 11.7486C25.9804 11.0597 25.5595 10.4524 24.9717 10.0263ZM23.4083 13.4607C23.1662 13.3209 22.9516 13.1404 22.7745 12.9276L22.3414 12.5175L21.3696 11.5847L21.2956 11.5128C21.4816 11.3664 21.658 11.209 21.8238 11.0413L22.0034 10.867C22.185 10.7111 22.4162 10.6206 22.6584 10.6107H22.7217H22.8485C23.1817 10.7388 23.4825 10.9352 23.7304 11.1864C23.9783 11.4377 24.1675 11.7378 24.2851 12.0665C24.3696 12.3228 24.2851 12.5791 23.9893 12.8969C23.6935 13.2147 23.5034 13.4505 23.4083 13.4607ZM9.48579 24.256L8.98934 23.7844C8.93653 23.7127 8.86256 23.6409 8.83087 23.5896L9.01043 23.4153C9.5069 22.9642 9.98225 22.5029 10.4576 22.0313L10.8274 21.6725L12.2957 20.2475L13.7534 18.8224L15.7288 16.9053C17.1372 15.5384 18.5246 14.1715 19.8908 12.8046L20.0069 12.7021L20.1125 12.7943C20.7252 13.4094 21.3591 14.0246 22.0034 14.6089L22.0773 14.6808C22.052 14.723 22.0199 14.761 21.9823 14.7935L14.6407 21.9083L13.183 23.3333L12.94 23.5793L12.8555 23.6716L12.3062 24.1842C11.8731 24.5942 11.4295 25.0044 11.0175 25.4453C10.8907 25.5785 10.8379 25.5887 10.8379 25.5887C10.8379 25.5887 10.8379 25.5888 10.6372 25.4247C10.352 25.0352 9.89776 24.6456 9.48579 24.256ZM7.92243 25.1069L9.34846 26.4908L7.23579 27.311L7.00342 27.4033L7.92243 25.1069ZM11.4189 22.8002C11.3486 22.678 11.3117 22.5403 11.3117 22.4003C11.3117 22.2604 11.3486 22.1227 11.4189 22.0005C11.4924 21.8839 11.5812 21.7772 11.683 21.6828L18.095 15.4496C18.1892 15.3453 18.3042 15.2606 18.4331 15.2007C18.5621 15.1408 18.7021 15.1068 18.8449 15.101C18.992 15.1043 19.1356 15.1449 19.2616 15.2186C19.3876 15.2923 19.4916 15.3967 19.5632 15.5214C19.6335 15.6454 19.6704 15.7847 19.6704 15.9263C19.6704 16.0679 19.6335 16.2072 19.5632 16.3313C19.4669 16.4828 19.3496 16.6208 19.2147 16.7414L16.1407 19.7246L12.9717 22.8002C12.883 22.9047 12.7739 22.9911 12.6506 23.0545C12.5273 23.1178 12.3923 23.1568 12.2534 23.1692C12.0912 23.1893 11.9264 23.1654 11.7773 23.1003C11.6281 23.0352 11.5005 22.9313 11.4083 22.8002H11.4189Z" fill="url(#paint0_radial_96_11759)"/>
</g>
<defs>
<radialGradient id="paint0_radial_96_11759" cx="0" cy="0" r="1" gradientUnits="userSpaceOnUse" gradientTransform="translate(30.659 -9.90087) rotate(111.331) scale(58.0027 46.4091)">
<stop offset="3.1201e-09" stop-color="#5DCCEB"/>
<stop offset="0.426" stop-color="#6389EB"/>
<stop offset="0.842" stop-color="#8B6BEB"/>
</radialGradient>
<clipPath id="clip0_96_11759">
<rect width="36" height="35" fill="white"/>
</clipPath>
</defs>
</svg>
