<svg width="20" height="20" viewBox="0 0 20 20" fill="none" xmlns="http://www.w3.org/2000/svg">
<path d="M10 20C15.5228 20 20 15.5228 20 10C20 4.47715 15.5228 0 10 0C4.47715 0 0 4.47715 0 10C0 15.5228 4.47715 20 10 20Z" fill="#F0F0F0"/>
<path d="M10 7.39127H19.6555C19.4048 6.46104 19.0237 5.58444 18.5323 4.78256H10V7.39127Z" fill="#338AF3"/>
<path d="M3.77513 17.8261H16.2249C17.1375 17.0992 17.9201 16.2163 18.5322 15.2174H1.46774C2.07989 16.2163 2.86255 17.0992 3.77513 17.8261Z" fill="#338AF3"/>
<path d="M10 0V2.17391H16.2249C14.5167 0.813438 12.3535 0 10 0Z" fill="#338AF3"/>
<path d="M10 7.39127H19.6555C19.4048 6.46104 19.0237 5.58444 18.5323 4.78256H10V7.39127Z" fill="#338AF3"/>
<path d="M0 10C0 10.9026 0.120313 11.7769 0.344492 12.6087H19.6555C19.8797 11.7769 20 10.9026 20 10H0Z" fill="#338AF3"/>
<path d="M8.69566 5.85239L7.47433 6.42688L8.12468 7.60969L6.79851 7.35602L6.63046 8.69567L5.70679 7.71036L4.78304 8.69567L4.61503 7.35602L3.28886 7.60961L3.93918 6.42684L2.71793 5.85239L3.93921 5.27797L3.28886 4.09516L4.615 4.34883L4.78308 3.00919L5.70679 3.9945L6.6305 3.00919L6.79851 4.34883L8.12472 4.09516L7.47437 5.27801L8.69566 5.85239Z" fill="#FFDA44"/>
</svg>
