<svg width="40" height="35" viewBox="0 0 40 35" fill="none" xmlns="http://www.w3.org/2000/svg">
<path fill-rule="evenodd" clip-rule="evenodd" d="M3.09737 5.84333C2.28802 6.53916 2 7.16614 2 7.68852L2 7.68853V7.68935C2.0003 8.21157 2.28844 8.83825 3.09737 9.53372C3.90348 10.2268 5.12843 10.8962 6.72906 11.4782C9.92209 12.6393 14.3995 13.377 19.3934 13.377C24.3874 13.377 28.8648 12.6393 32.0578 11.4782C33.6585 10.8962 34.8834 10.2268 35.6895 9.53372C36.4989 8.83789 36.7869 8.21091 36.7869 7.68852C36.7869 7.16614 36.4989 6.53916 35.6895 5.84333C34.8834 5.1503 33.6585 4.48086 32.0578 3.89882C28.8648 2.73771 24.3874 2 19.3934 2C14.3995 2 9.92209 2.73771 6.72906 3.89882C5.12843 4.48086 3.90348 5.1503 3.09737 5.84333ZM0 7.68852V7.68853V16.6066V24.4098C0 26.9446 2.26713 28.8454 5.60002 30.0773C8.93575 31.3103 13.7657 32.0569 19.9816 32.0967C20.043 32.4965 20.1568 32.9227 20.3799 33.3226C20.9744 34.3879 22.1057 34.8853 23.7141 34.8853H36.6516C37.9071 34.8853 38.8944 34.5732 39.4513 33.7417C39.9068 33.0614 39.9037 32.221 39.9018 31.7303L39.9016 31.6453V26.0453C39.9016 24.8044 39.4691 23.9404 38.7869 23.4179V16.6066V7.68852V7.1312H38.7425C38.5681 6.04412 37.8948 5.10176 36.9934 4.32676C35.9379 3.41939 34.4692 2.64757 32.7413 2.01923C29.2772 0.759562 24.5579 0 19.3934 0C14.229 0 9.50966 0.759562 6.04557 2.01923C4.31764 2.64757 2.84894 3.41939 1.79352 4.32676C0.741358 5.23135 0 6.36393 0 7.68852ZM36.7869 22.8055V20.1398C36.7181 20.1952 36.6481 20.2497 36.5771 20.3033C35.4197 21.1771 33.8572 21.9217 32.029 22.522C32.031 22.6193 32.0345 22.7023 32.0407 22.7768L32.043 22.8024C32.0734 22.8041 32.1094 22.8053 32.1516 22.8053H36.6516L36.6782 22.8052L36.6972 22.8052C36.7237 22.8052 36.7537 22.8052 36.7869 22.8055ZM31.657 20.5375C33.2355 19.9986 34.4918 19.3717 35.372 18.7072C36.4186 17.917 36.7869 17.1937 36.7869 16.6066V11.2219C35.75 12.0553 34.3593 12.7695 32.7413 13.3578C29.2772 14.6175 24.5579 15.377 19.3934 15.377C14.229 15.377 9.50966 14.6175 6.04557 13.3578C4.4276 12.7695 3.03692 12.0553 2 11.2219V16.6066C2 17.129 2.28802 17.7559 3.09737 18.4518C3.90348 19.1448 5.12843 19.8142 6.72906 20.3963C9.92209 21.5574 14.3995 22.2951 19.3934 22.2951C19.5634 22.2951 19.7328 22.2942 19.9016 22.2925V22.1253C19.9016 21.0432 20.2758 20.1784 20.9662 19.6056C21.6239 19.06 22.4415 18.8853 23.1516 18.8853H28.7766C29.3107 18.8853 30.0904 19.0366 30.7655 19.5205C31.1225 19.7764 31.4333 20.1145 31.657 20.5375ZM19.9016 24.2926C19.7328 24.2943 19.5634 24.2951 19.3934 24.2951C14.229 24.2951 9.50966 23.5355 6.04557 22.2759C4.4276 21.6875 3.03692 20.9734 2 20.1399V24.4098C2 25.5691 3.07713 27.0125 6.29342 28.2014C9.3131 29.3175 13.8557 30.0502 19.9016 30.0961V24.2926ZM21.9016 22.1253C21.9016 21.5273 22.0899 21.2721 22.2432 21.1449C22.4293 20.9905 22.7367 20.8853 23.1516 20.8853H28.7766C28.9925 20.8853 29.3379 20.9579 29.6003 21.146C29.8115 21.2974 30.0266 21.5571 30.0266 22.1253V22.1505C30.0266 22.4105 30.0266 22.6915 30.0477 22.9437C30.0692 23.2008 30.1185 23.5252 30.2736 23.8341C30.4468 24.179 30.724 24.4499 31.0966 24.6147C31.4344 24.7642 31.8024 24.8053 32.1516 24.8053H36.6516C36.9466 24.8053 37.2573 24.8203 37.4931 24.9544C37.5889 25.009 37.6753 25.086 37.7456 25.2186C37.8198 25.3586 37.9016 25.6097 37.9016 26.0453V31.6453C37.9016 31.9393 37.9 32.1505 37.8753 32.335C37.8517 32.5112 37.8142 32.5919 37.789 32.6295C37.7785 32.6462 37.6281 32.8853 36.6516 32.8853H23.7141C22.5101 32.8853 22.235 32.5426 22.1264 32.348C22.0408 32.1945 21.9757 31.9734 21.9394 31.6481C21.9027 31.3196 21.9016 30.957 21.9016 30.5253V22.1253ZM30.9016 17.3853C30.9016 18.2137 30.23 18.8853 29.4016 18.8853C28.5732 18.8853 27.9016 18.2137 27.9016 17.3853C27.9016 16.5568 28.5732 15.8853 29.4016 15.8853C30.23 15.8853 30.9016 16.5568 30.9016 17.3853ZM33.4016 17.8853C34.23 17.8853 34.9016 17.2137 34.9016 16.3853C34.9016 15.5568 34.23 14.8853 33.4016 14.8853C32.5732 14.8853 31.9016 15.5568 31.9016 16.3853C31.9016 17.2137 32.5732 17.8853 33.4016 17.8853Z" fill="url(#paint0_radial_266_788)"/>
<defs>
<radialGradient id="paint0_radial_266_788" cx="0" cy="0" r="1" gradientUnits="userSpaceOnUse" gradientTransform="translate(34.0859 -10.078) rotate(113.447) scale(59.1499 50.9871)">
<stop offset="3.1201e-09" stop-color="#5DCCEB"/>
<stop offset="0.426" stop-color="#6389EB"/>
<stop offset="0.842" stop-color="#8B6BEB"/>
</radialGradient>
</defs>
</svg>
