<svg width="30" height="40" viewBox="0 0 30 40" fill="none" xmlns="http://www.w3.org/2000/svg">
<path fill-rule="evenodd" clip-rule="evenodd" d="M14.8505 2.13333C7.78089 2.13333 2.1215 7.66435 2.1215 14.4C2.1215 19.0137 5.83995 23.6055 10.022 25.713C10.3809 25.8939 10.6075 26.263 10.6075 26.6667V28.2667H19.6239V26.4848C19.6239 26.0649 19.8689 25.6841 20.2497 25.5119C24.5994 23.5454 27.5796 19.2948 27.5796 14.4C27.5796 7.66435 21.9202 2.13333 14.8505 2.13333ZM19.6239 30.4H10.6075V31.4667H19.6239V30.4ZM19.5964 33.6H10.615C10.6274 33.9349 10.6593 34.212 10.7389 34.4255C10.788 34.5573 10.8332 34.5975 10.8494 34.6095C10.8594 34.617 10.926 34.6667 11.1379 34.6667H18.5632C19.0972 34.6667 19.2679 34.5061 19.3574 34.38C19.4583 34.238 19.5518 33.9929 19.5964 33.6ZM0 14.4C0 6.40806 6.68841 0 14.8505 0C23.0127 0 29.7011 6.40806 29.7011 14.4C29.7011 19.9578 26.4587 24.7569 21.7454 27.157V33.0667C21.7454 33.9485 21.6062 34.8844 21.0838 35.62C20.7089 36.1477 20.1988 36.4897 19.5952 36.6633C19.3548 38.3327 17.6185 40 14.8505 40C13.1458 40 11.9279 39.4833 11.1334 38.6906C10.4802 38.039 10.1767 37.2621 10.0983 36.6106C9.9169 36.5374 9.74568 36.4423 9.58664 36.3238C9.15535 36.0025 8.90217 35.576 8.75245 35.1745C8.4846 34.4563 8.48546 33.6228 8.48597 33.1276L8.48602 33.0667V27.3094C4.06322 24.8409 0 19.8353 0 14.4ZM12.3488 36.8C12.4137 36.9235 12.504 37.0529 12.6275 37.1761C12.9467 37.4945 13.5851 37.8667 14.8505 37.8667C16.2866 37.8667 16.9977 37.2808 17.3045 36.8H12.3488ZM14.8505 5.4C15.2844 5.4 15.6687 5.67972 15.8021 6.09253L17.4835 11.2964H22.9212C23.354 11.2964 23.7376 11.5747 23.8719 11.9861C24.0061 12.3975 23.8606 12.8486 23.5111 13.1038L19.1072 16.3213L20.79 21.5295C20.9233 21.9419 20.7757 22.3932 20.4245 22.6472C20.0734 22.9012 19.5985 22.9001 19.2486 22.6444L14.8505 19.4312L10.4525 22.6444C10.1025 22.9001 9.6277 22.9012 9.27652 22.6472C8.92534 22.3932 8.77776 21.9419 8.91102 21.5295L10.5939 16.3213L6.18992 13.1038C5.84051 12.8486 5.69493 12.3975 5.8292 11.9861C5.96347 11.5747 6.34711 11.2964 6.77985 11.2964H12.2175L13.899 6.09253C14.0324 5.67972 14.4167 5.4 14.8505 5.4ZM14.8505 9.65239L13.8969 12.6039C13.7635 13.0167 13.3791 13.2964 12.9453 13.2964H9.84373L12.3577 15.1331C12.7063 15.3877 12.8521 15.8373 12.7194 16.248L11.7621 19.2107L14.2606 17.3853C14.612 17.1286 15.0891 17.1286 15.4405 17.3853L17.939 19.2107L16.9817 16.248C16.849 15.8373 16.9948 15.3877 17.3433 15.1331L19.8573 13.2964H16.7558C16.3219 13.2964 15.9376 13.0167 15.8042 12.6039L14.8505 9.65239Z" fill="url(#paint0_radial_96_11756)"/>
<defs>
<radialGradient id="paint0_radial_96_11756" cx="0" cy="0" r="1" gradientUnits="userSpaceOnUse" gradientTransform="translate(25.3718 -11.5555) rotate(105.725) scale(64.6414 39.8197)">
<stop offset="3.1201e-09" stop-color="#5DCCEB"/>
<stop offset="0.426" stop-color="#6389EB"/>
<stop offset="0.842" stop-color="#8B6BEB"/>
</radialGradient>
</defs>
</svg>
