<svg width="164" height="144" viewBox="0 0 164 144" fill="none" xmlns="http://www.w3.org/2000/svg">
<path d="M13.8184 66.3209C15.5603 66.5543 17.3415 66.671 19.1617 66.671H76.3533L81.3835 38.7812H18.7311L13.8184 66.3209Z" fill="url(#paint0_linear_111_2841)"/>
<path d="M20.6688 27.8898H59.6577H61.2431H115.479L120.529 0H66.2537H64.6683H25.6403L20.6688 27.8898Z" fill="url(#paint1_linear_111_2841)"/>
<path d="M133.31 0H133.095C133.075 0 133.075 0 133.055 0C133.036 0 133.036 0 133.016 0H131.47L126.401 27.8898H163.98C162.845 11.9417 150.573 0.116694 133.31 0Z" fill="url(#paint2_linear_111_2841)"/>
<path d="M45.7415 105.433H101.426L106.476 77.543H50.7521L45.7415 105.433Z" fill="url(#paint3_linear_111_2841)"/>
<path d="M11.8415 77.543L0 144H27.9303L39.8305 77.543H11.8415Z" fill="url(#paint4_linear_111_2841)"/>
<path d="M81.814 116.324H43.8038L38.8323 144H76.823H81.2073H107.141C124.287 143.883 140.748 132.156 147.774 116.324H86.2179H81.814Z" fill="url(#paint5_linear_111_2841)"/>
<path d="M87.2944 66.6515H143.077C152.902 60.2528 160.477 50.1783 163.119 38.7617H92.3246L87.2944 66.6515Z" fill="url(#paint6_linear_111_2841)"/>
<path d="M141.354 77.543H117.417L112.348 105.433H150.945C152.53 94.0357 148.733 84 141.354 77.543Z" fill="url(#paint7_linear_111_2841)"/>
<defs>
<linearGradient id="paint0_linear_111_2841" x1="-36.1908" y1="150.028" x2="90.4497" y2="0.980682" gradientUnits="userSpaceOnUse">
<stop stop-color="#A36AFC"/>
<stop offset="1" stop-color="#3FDAFD"/>
</linearGradient>
<linearGradient id="paint1_linear_111_2841" x1="-42.1698" y1="144.948" x2="84.4707" y2="-4.09947" gradientUnits="userSpaceOnUse">
<stop stop-color="#A36AFC"/>
<stop offset="1" stop-color="#3FDAFD"/>
</linearGradient>
<linearGradient id="paint2_linear_111_2841" x1="2.41603" y1="182.831" x2="129.057" y2="33.7835" gradientUnits="userSpaceOnUse">
<stop stop-color="#A36AFC"/>
<stop offset="1" stop-color="#3FDAFD"/>
</linearGradient>
<linearGradient id="paint3_linear_111_2841" x1="-0.430976" y1="180.412" x2="126.209" y2="31.3645" gradientUnits="userSpaceOnUse">
<stop stop-color="#A36AFC"/>
<stop offset="1" stop-color="#3FDAFD"/>
</linearGradient>
<linearGradient id="paint4_linear_111_2841" x1="-23.3153" y1="160.968" x2="103.325" y2="11.9206" gradientUnits="userSpaceOnUse">
<stop stop-color="#A36AFC"/>
<stop offset="1" stop-color="#3FDAFD"/>
</linearGradient>
<linearGradient id="paint5_linear_111_2841" x1="24.0293" y1="201.195" x2="150.67" y2="52.1476" gradientUnits="userSpaceOnUse">
<stop stop-color="#A36AFC"/>
<stop offset="1" stop-color="#3FDAFD"/>
</linearGradient>
<linearGradient id="paint6_linear_111_2841" x1="5.06897" y1="185.085" x2="131.709" y2="36.0376" gradientUnits="userSpaceOnUse">
<stop stop-color="#A36AFC"/>
<stop offset="1" stop-color="#3FDAFD"/>
</linearGradient>
<linearGradient id="paint7_linear_111_2841" x1="33.119" y1="208.918" x2="159.759" y2="59.8707" gradientUnits="userSpaceOnUse">
<stop stop-color="#A36AFC"/>
<stop offset="1" stop-color="#3FDAFD"/>
</linearGradient>
</defs>
</svg>
