<svg width="137" height="39" viewBox="0 0 137 39" fill="none" xmlns="http://www.w3.org/2000/svg">
<path d="M58.2277 18.3371C59.3995 18.7082 60.3173 19.3331 60.9813 20.2119C61.6453 21.0712 61.9773 22.1355 61.9773 23.4049C61.9773 25.2016 61.2743 26.5882 59.8682 27.5646C58.4816 28.5215 56.4506 29 53.7751 29H43.1708V8.49448H53.1892C55.6889 8.49448 57.6028 8.97294 58.9308 9.92986C60.2783 10.8868 60.952 12.1855 60.952 13.8259C60.952 14.8219 60.7079 15.7105 60.2197 16.4916C59.751 17.2728 59.087 17.888 58.2277 18.3371ZM47.8871 12.0683V16.9017H52.6034C53.7751 16.9017 54.6637 16.6967 55.2691 16.2866C55.8745 15.8765 56.1772 15.2711 56.1772 14.4704C56.1772 13.6697 55.8745 13.074 55.2691 12.6835C54.6637 12.2734 53.7751 12.0683 52.6034 12.0683H47.8871ZM53.4236 25.4262C54.6734 25.4262 55.6108 25.2211 56.2358 24.811C56.8802 24.4009 57.2024 23.7662 57.2024 22.9069C57.2024 21.2079 55.9428 20.3584 53.4236 20.3584H47.8871V25.4262H53.4236ZM69.6126 15.3199C70.1594 14.5583 70.8918 13.9821 71.8097 13.5916C72.747 13.201 73.8211 13.0057 75.032 13.0057V17.224C74.5242 17.1849 74.1824 17.1654 74.0067 17.1654C72.6982 17.1654 71.673 17.5364 70.9308 18.2785C70.1887 19.0011 69.8177 20.0947 69.8177 21.5594V29H65.2479V13.24H69.6126V15.3199ZM77.7492 13.24H82.319V29H77.7492V13.24ZM80.0341 11.043C79.1943 11.043 78.5108 10.7989 77.9835 10.3107C77.4562 9.82245 77.1926 9.21705 77.1926 8.49448C77.1926 7.7719 77.4562 7.1665 77.9835 6.67827C78.5108 6.19005 79.1943 5.94593 80.0341 5.94593C80.8738 5.94593 81.5573 6.18028 82.0846 6.64898C82.6119 7.11768 82.8755 7.70355 82.8755 8.4066C82.8755 9.16823 82.6119 9.80293 82.0846 10.3107C81.5573 10.7989 80.8738 11.043 80.0341 11.043ZM94.1765 29.2343C92.497 29.2343 90.9835 28.8926 89.636 28.2091C88.308 27.506 87.2632 26.5393 86.5015 25.309C85.7594 24.0787 85.3884 22.6823 85.3884 21.12C85.3884 19.5577 85.7594 18.1614 86.5015 16.931C87.2632 15.7007 88.308 14.7438 89.636 14.0603C90.9835 13.3572 92.497 13.0057 94.1765 13.0057C95.8364 13.0057 97.2816 13.3572 98.5119 14.0603C99.7618 14.7438 100.67 15.73 101.236 17.0189L97.6917 18.923C96.8715 17.4778 95.69 16.7553 94.1472 16.7553C92.9559 16.7553 91.9697 17.1459 91.1885 17.927C90.4074 18.7082 90.0168 19.7725 90.0168 21.12C90.0168 22.4675 90.4074 23.5319 91.1885 24.313C91.9697 25.0942 92.9559 25.4848 94.1472 25.4848C95.7095 25.4848 96.891 24.7622 97.6917 23.317L101.236 25.2504C100.67 26.5003 99.7618 27.4767 98.5119 28.1798C97.2816 28.8828 95.8364 29.2343 94.1765 29.2343ZM110.52 22.819L108.323 24.9868V29H103.753V7.26415H108.323V19.5675L115.002 13.24H120.45L113.889 19.919L121.036 29H115.5L110.52 22.819ZM127.879 29.2343C126.57 29.2343 125.291 29.0781 124.041 28.7657C122.791 28.4337 121.795 28.0235 121.053 27.5353L122.576 24.2544C123.279 24.7036 124.129 25.0747 125.125 25.3676C126.121 25.641 127.097 25.7777 128.054 25.7777C129.988 25.7777 130.954 25.2992 130.954 24.3423C130.954 23.8931 130.691 23.5709 130.163 23.3756C129.636 23.1803 128.826 23.0143 127.732 22.8776C126.443 22.6823 125.379 22.4578 124.539 22.2039C123.699 21.95 122.967 21.5008 122.342 20.8564C121.737 20.2119 121.434 19.2941 121.434 18.1028C121.434 17.1068 121.717 16.228 122.283 15.4664C122.869 14.6852 123.709 14.0798 124.803 13.6502C125.916 13.2205 127.224 13.0057 128.728 13.0057C129.841 13.0057 130.945 13.1326 132.038 13.3865C133.151 13.6209 134.069 13.9529 134.792 14.3825L133.269 17.6341C131.882 16.8529 130.368 16.4623 128.728 16.4623C127.752 16.4623 127.019 16.599 126.531 16.8724C126.043 17.1459 125.799 17.4974 125.799 17.927C125.799 18.4152 126.062 18.757 126.59 18.9523C127.117 19.1476 127.957 19.3331 129.109 19.5089C130.398 19.7237 131.452 19.958 132.273 20.2119C133.093 20.4463 133.806 20.8857 134.411 21.5301C135.016 22.1746 135.319 23.0729 135.319 24.2251C135.319 25.2016 135.026 26.0706 134.44 26.8323C133.854 27.5939 132.995 28.1895 131.862 28.6192C130.749 29.0293 129.421 29.2343 127.879 29.2343Z" fill="white"/>
<path d="M46.7381 36.8468L45.5904 35.2387C45.4209 35.2616 45.2652 35.273 45.1231 35.273H43.7487V36.8468H43.3982V32.0362H45.1231C45.7279 32.0362 46.2021 32.1805 46.5457 32.4691C46.8893 32.7532 47.0611 33.1495 47.0611 33.658C47.0611 34.0383 46.9626 34.359 46.7656 34.6202C46.5732 34.8767 46.296 35.0577 45.9341 35.1631L47.1367 36.8468H46.7381ZM45.1231 34.9638C45.6363 34.9638 46.028 34.8515 46.2983 34.627C46.5686 34.398 46.7038 34.075 46.7038 33.658C46.7038 33.2411 46.5686 32.9204 46.2983 32.6959C46.028 32.4668 45.6363 32.3523 45.1231 32.3523H43.7487V34.9638H45.1231ZM51.2651 35.1356H48.1794C48.1886 35.4151 48.2596 35.6648 48.3925 35.8847C48.5253 36.1 48.704 36.2672 48.9285 36.3864C49.1576 36.5055 49.4142 36.565 49.6982 36.565C49.9319 36.565 50.1472 36.5238 50.3442 36.4413C50.5458 36.3543 50.713 36.2283 50.8459 36.0634L51.0452 36.2901C50.8894 36.478 50.6924 36.6223 50.4542 36.7231C50.2205 36.8239 49.9663 36.8743 49.6914 36.8743C49.334 36.8743 49.0156 36.7964 48.7361 36.6406C48.4566 36.4849 48.2367 36.2695 48.0764 35.9946C47.9206 35.7197 47.8427 35.4059 47.8427 35.0531C47.8427 34.7049 47.916 34.3934 48.0626 34.1185C48.2138 33.839 48.42 33.6214 48.6811 33.4656C48.9423 33.3098 49.2355 33.2319 49.5608 33.2319C49.8861 33.2319 50.177 33.3098 50.4336 33.4656C50.6947 33.6168 50.8986 33.8298 51.0452 34.1047C51.1964 34.3796 51.272 34.6912 51.272 35.0394L51.2651 35.1356ZM49.5608 33.5343C49.3088 33.5343 49.082 33.5916 48.8804 33.7061C48.6788 33.8161 48.5162 33.9742 48.3925 34.1803C48.2734 34.3819 48.2046 34.611 48.1863 34.8676H50.9353C50.9215 34.611 50.8528 34.3819 50.7291 34.1803C50.6054 33.9787 50.4427 33.8207 50.2411 33.7061C50.0396 33.5916 49.8128 33.5343 49.5608 33.5343ZM53.4439 33.2319C53.8883 33.2319 54.2296 33.3465 54.4679 33.5756C54.7061 33.8001 54.8252 34.1322 54.8252 34.5721V36.8468H54.4953V36.2077C54.3808 36.4184 54.2136 36.5834 53.9937 36.7025C53.7737 36.817 53.5103 36.8743 53.2033 36.8743C52.8047 36.8743 52.4886 36.7804 52.255 36.5925C52.0259 36.4047 51.9113 36.1573 51.9113 35.8503C51.9113 35.5525 52.0167 35.312 52.2275 35.1287C52.4428 34.9409 52.7841 34.8469 53.2515 34.8469H54.4816V34.5583C54.4816 34.2239 54.39 33.9696 54.2067 33.7955C54.028 33.6214 53.7646 33.5343 53.4164 33.5343C53.1781 33.5343 52.9491 33.5756 52.7292 33.658C52.5138 33.7405 52.3306 33.8505 52.1794 33.9879L52.0076 33.7405C52.1862 33.5801 52.4016 33.4564 52.6536 33.3694C52.9055 33.2778 53.169 33.2319 53.4439 33.2319ZM53.2515 36.5925C53.5493 36.5925 53.8012 36.5238 54.0074 36.3864C54.2182 36.2489 54.3762 36.0496 54.4816 35.7885V35.115H53.2583C52.9055 35.115 52.649 35.1791 52.4886 35.3074C52.3328 35.4357 52.255 35.6121 52.255 35.8366C52.255 36.0702 52.342 36.2558 52.5161 36.3932C52.6902 36.5261 52.9353 36.5925 53.2515 36.5925ZM56.241 31.7475H56.5846V36.8468H56.241V31.7475ZM63.2273 36.5307V36.8468H59.9079V32.0362H63.1242V32.3523H60.2584V34.2491H62.8218V34.5583H60.2584V36.5307H63.2273ZM65.2419 36.8743C64.9533 36.8743 64.6784 36.8308 64.4172 36.7437C64.1561 36.6567 63.9522 36.5467 63.8056 36.4138L63.9637 36.1389C64.1103 36.2627 64.2981 36.3657 64.5272 36.4482C64.7609 36.5307 65.0037 36.5719 65.2557 36.5719C65.6176 36.5719 65.8833 36.5123 66.0529 36.3932C66.227 36.2741 66.314 36.1092 66.314 35.8984C66.314 35.7472 66.2659 35.6281 66.1697 35.5411C66.0781 35.454 65.9635 35.3899 65.8261 35.3486C65.6886 35.3074 65.4985 35.2639 65.2557 35.2181C64.9716 35.1677 64.7425 35.1127 64.5684 35.0531C64.3943 34.9936 64.2454 34.8973 64.1217 34.7645C63.998 34.6316 63.9362 34.4484 63.9362 34.2147C63.9362 33.9306 64.053 33.697 64.2867 33.5137C64.5249 33.3259 64.8617 33.2319 65.2969 33.2319C65.526 33.2319 65.7528 33.264 65.9773 33.3282C66.2018 33.3923 66.385 33.4771 66.5271 33.5824L66.369 33.8573C66.2224 33.752 66.0552 33.6718 65.8673 33.6168C65.6795 33.5618 65.487 33.5343 65.29 33.5343C64.9556 33.5343 64.7036 33.5962 64.5341 33.7199C64.3646 33.8436 64.2798 34.0062 64.2798 34.2078C64.2798 34.3682 64.3279 34.4942 64.4241 34.5858C64.5203 34.6728 64.6372 34.7393 64.7746 34.7851C64.9166 34.8263 65.1136 34.8721 65.3656 34.9225C65.6451 34.9729 65.8696 35.0279 66.0391 35.0875C66.2132 35.1425 66.3598 35.2341 66.479 35.3624C66.5981 35.4907 66.6576 35.667 66.6576 35.8915C66.6576 36.1893 66.5339 36.4276 66.2865 36.6063C66.0391 36.785 65.6909 36.8743 65.2419 36.8743ZM69.3965 36.62C69.3095 36.7025 69.1995 36.7666 69.0667 36.8124C68.9384 36.8537 68.8032 36.8743 68.6612 36.8743C68.3496 36.8743 68.1091 36.7895 67.9396 36.62C67.7701 36.4459 67.6853 36.2054 67.6853 35.8984V33.5549H67.0256V33.2594H67.6853V32.476H68.0289V33.2594H69.1697V33.5549H68.0289V35.8641C68.0289 36.0977 68.0839 36.2764 68.1939 36.4001C68.3084 36.5192 68.4756 36.5788 68.6956 36.5788C68.9201 36.5788 69.1056 36.5123 69.2522 36.3795L69.3965 36.62ZM71.5643 33.2319C72.0087 33.2319 72.3501 33.3465 72.5883 33.5756C72.8266 33.8001 72.9457 34.1322 72.9457 34.5721V36.8468H72.6158V36.2077C72.5013 36.4184 72.334 36.5834 72.1141 36.7025C71.8942 36.817 71.6308 36.8743 71.3238 36.8743C70.9252 36.8743 70.6091 36.7804 70.3754 36.5925C70.1463 36.4047 70.0318 36.1573 70.0318 35.8503C70.0318 35.5525 70.1372 35.312 70.3479 35.1287C70.5633 34.9409 70.9046 34.8469 71.3719 34.8469H72.6021V34.5583C72.6021 34.2239 72.5104 33.9696 72.3272 33.7955C72.1485 33.6214 71.885 33.5343 71.5368 33.5343C71.2986 33.5343 71.0695 33.5756 70.8496 33.658C70.6343 33.7405 70.451 33.8505 70.2998 33.9879L70.128 33.7405C70.3067 33.5801 70.522 33.4564 70.774 33.3694C71.026 33.2778 71.2894 33.2319 71.5643 33.2319ZM71.3719 36.5925C71.6697 36.5925 71.9217 36.5238 72.1279 36.3864C72.3386 36.2489 72.4967 36.0496 72.6021 35.7885V35.115H71.3788C71.026 35.115 70.7694 35.1791 70.6091 35.3074C70.4533 35.4357 70.3754 35.6121 70.3754 35.8366C70.3754 36.0702 70.4625 36.2558 70.6366 36.3932C70.8107 36.5261 71.0558 36.5925 71.3719 36.5925ZM76.1414 36.62C76.0543 36.7025 75.9444 36.7666 75.8115 36.8124C75.6832 36.8537 75.5481 36.8743 75.406 36.8743C75.0945 36.8743 74.8539 36.7895 74.6844 36.62C74.5149 36.4459 74.4302 36.2054 74.4302 35.8984V33.5549H73.7704V33.2594H74.4302V32.476H74.7738V33.2594H75.9146V33.5549H74.7738V35.8641C74.7738 36.0977 74.8288 36.2764 74.9387 36.4001C75.0532 36.5192 75.2205 36.5788 75.4404 36.5788C75.6649 36.5788 75.8504 36.5123 75.997 36.3795L76.1414 36.62ZM80.0028 35.1356H76.9171C76.9263 35.4151 76.9973 35.6648 77.1302 35.8847C77.263 36.1 77.4417 36.2672 77.6662 36.3864C77.8953 36.5055 78.1519 36.565 78.4359 36.565C78.6696 36.565 78.8849 36.5238 79.0819 36.4413C79.2835 36.3543 79.4507 36.2283 79.5836 36.0634L79.7829 36.2901C79.6271 36.478 79.4301 36.6223 79.1919 36.7231C78.9582 36.8239 78.704 36.8743 78.4291 36.8743C78.0717 36.8743 77.7533 36.7964 77.4738 36.6406C77.1943 36.4849 76.9744 36.2695 76.8141 35.9946C76.6583 35.7197 76.5804 35.4059 76.5804 35.0531C76.5804 34.7049 76.6537 34.3934 76.8003 34.1185C76.9515 33.839 77.1577 33.6214 77.4188 33.4656C77.68 33.3098 77.9732 33.2319 78.2985 33.2319C78.6238 33.2319 78.9147 33.3098 79.1713 33.4656C79.4324 33.6168 79.6363 33.8298 79.7829 34.1047C79.9341 34.3796 80.0097 34.6912 80.0097 35.0394L80.0028 35.1356ZM78.2985 33.5343C78.0465 33.5343 77.8197 33.5916 77.6181 33.7061C77.4165 33.8161 77.2539 33.9742 77.1302 34.1803C77.0111 34.3819 76.9423 34.611 76.924 34.8676H79.673C79.6592 34.611 79.5905 34.3819 79.4668 34.1803C79.3431 33.9787 79.1804 33.8207 78.9788 33.7061C78.7773 33.5916 78.5505 33.5343 78.2985 33.5343ZM87.4972 36.8468L87.4904 32.7303L85.4768 36.2077H85.3049L83.2914 32.744V36.8468H82.9477V32.0362H83.2432L85.3943 35.7541L87.5453 32.0362H87.834L87.8408 36.8468H87.4972ZM90.6177 33.2319C91.0621 33.2319 91.4034 33.3465 91.6416 33.5756C91.8799 33.8001 91.999 34.1322 91.999 34.5721V36.8468H91.6691V36.2077C91.5546 36.4184 91.3874 36.5834 91.1674 36.7025C90.9475 36.817 90.6841 36.8743 90.3771 36.8743C89.9785 36.8743 89.6624 36.7804 89.4287 36.5925C89.1997 36.4047 89.0851 36.1573 89.0851 35.8503C89.0851 35.5525 89.1905 35.312 89.4012 35.1287C89.6166 34.9409 89.9579 34.8469 90.4252 34.8469H91.6554V34.5583C91.6554 34.2239 91.5637 33.9696 91.3805 33.7955C91.2018 33.6214 90.9384 33.5343 90.5902 33.5343C90.3519 33.5343 90.1228 33.5756 89.9029 33.658C89.6876 33.7405 89.5043 33.8505 89.3531 33.9879L89.1813 33.7405C89.36 33.5801 89.5753 33.4564 89.8273 33.3694C90.0793 33.2778 90.3428 33.2319 90.6177 33.2319ZM90.4252 36.5925C90.723 36.5925 90.975 36.5238 91.1812 36.3864C91.3919 36.2489 91.55 36.0496 91.6554 35.7885V35.115H90.4321C90.0793 35.115 89.8228 35.1791 89.6624 35.3074C89.5066 35.4357 89.4287 35.6121 89.4287 35.8366C89.4287 36.0702 89.5158 36.2558 89.6899 36.3932C89.864 36.5261 90.1091 36.5925 90.4252 36.5925ZM93.7446 34.0429C93.8546 33.7817 94.0264 33.5824 94.2601 33.445C94.4937 33.303 94.7778 33.2319 95.1122 33.2319V33.5687L95.0298 33.5618C94.6312 33.5618 94.3196 33.6878 94.0951 33.9398C93.8706 34.1872 93.7584 34.5331 93.7584 34.9775V36.8468H93.4148V33.2594H93.7446V34.0429ZM97.3373 34.9294L96.4026 35.7816V36.8468H96.059V31.7475H96.4026V35.3555L98.698 33.2594H99.1378L97.5915 34.7095L99.289 36.8468H98.8629L97.3373 34.9294ZM102.982 35.1356H99.8966C99.9057 35.4151 99.9767 35.6648 100.11 35.8847C100.242 36.1 100.421 36.2672 100.646 36.3864C100.875 36.5055 101.131 36.565 101.415 36.565C101.649 36.565 101.864 36.5238 102.061 36.4413C102.263 36.3543 102.43 36.2283 102.563 36.0634L102.762 36.2901C102.607 36.478 102.41 36.6223 102.171 36.7231C101.938 36.8239 101.683 36.8743 101.408 36.8743C101.051 36.8743 100.733 36.7964 100.453 36.6406C100.174 36.4849 99.9538 36.2695 99.7935 35.9946C99.6377 35.7197 99.5598 35.4059 99.5598 35.0531C99.5598 34.7049 99.6331 34.3934 99.7797 34.1185C99.9309 33.839 100.137 33.6214 100.398 33.4656C100.659 33.3098 100.953 33.2319 101.278 33.2319C101.603 33.2319 101.894 33.3098 102.151 33.4656C102.412 33.6168 102.616 33.8298 102.762 34.1047C102.914 34.3796 102.989 34.6912 102.989 35.0394L102.982 35.1356ZM101.278 33.5343C101.026 33.5343 100.799 33.5916 100.598 33.7061C100.396 33.8161 100.233 33.9742 100.11 34.1803C99.9905 34.3819 99.9218 34.611 99.9034 34.8676H102.652C102.639 34.611 102.57 34.3819 102.446 34.1803C102.323 33.9787 102.16 33.8207 101.958 33.7061C101.757 33.5916 101.53 33.5343 101.278 33.5343ZM105.832 36.62C105.745 36.7025 105.635 36.7666 105.502 36.8124C105.374 36.8537 105.239 36.8743 105.097 36.8743C104.785 36.8743 104.545 36.7895 104.375 36.62C104.206 36.4459 104.121 36.2054 104.121 35.8984V33.5549H103.461V33.2594H104.121V32.476H104.464V33.2594H105.605V33.5549H104.464V35.8641C104.464 36.0977 104.519 36.2764 104.629 36.4001C104.744 36.5192 104.911 36.5788 105.131 36.5788C105.356 36.5788 105.541 36.5123 105.688 36.3795L105.832 36.62ZM106.79 33.2594H107.134V36.8468H106.79V33.2594ZM106.962 32.3866C106.884 32.3866 106.818 32.3614 106.763 32.3111C106.708 32.2561 106.68 32.1896 106.68 32.1118C106.68 32.0339 106.708 31.9674 106.763 31.9125C106.818 31.8575 106.884 31.83 106.962 31.83C107.04 31.83 107.106 31.8575 107.161 31.9125C107.216 31.9629 107.244 32.027 107.244 32.1049C107.244 32.1828 107.216 32.2492 107.161 32.3042C107.106 32.3592 107.04 32.3866 106.962 32.3866ZM110.335 33.2319C110.784 33.2319 111.139 33.3625 111.4 33.6237C111.661 33.8848 111.792 34.2605 111.792 34.7507V36.8468H111.448V34.7782C111.448 34.375 111.345 34.0681 111.139 33.8573C110.937 33.6466 110.653 33.5412 110.287 33.5412C109.865 33.5412 109.533 33.6672 109.29 33.9192C109.047 34.1712 108.926 34.5102 108.926 34.9363V36.8468H108.582V33.2594H108.912V34.036C109.036 33.784 109.219 33.587 109.462 33.445C109.709 33.303 110 33.2319 110.335 33.2319ZM116.443 33.2594V36.462C116.443 37.0576 116.299 37.4974 116.01 37.7814C115.721 38.0655 115.286 38.2075 114.704 38.2075C114.374 38.2075 114.063 38.1571 113.77 38.0563C113.476 37.9555 113.241 37.8158 113.062 37.6371L113.247 37.376C113.426 37.5409 113.641 37.6692 113.893 37.7608C114.145 37.8525 114.413 37.8983 114.697 37.8983C115.174 37.8983 115.527 37.7837 115.756 37.5547C115.985 37.3302 116.099 36.9797 116.099 36.5032V35.8984C115.953 36.1596 115.749 36.3612 115.488 36.5032C115.227 36.6452 114.933 36.7162 114.608 36.7162C114.274 36.7162 113.969 36.6429 113.694 36.4963C113.424 36.3451 113.211 36.1367 113.055 35.8709C112.899 35.6052 112.821 35.3051 112.821 34.9707C112.821 34.6362 112.899 34.3361 113.055 34.0704C113.211 33.8046 113.424 33.5985 113.694 33.4519C113.969 33.3053 114.274 33.2319 114.608 33.2319C114.938 33.2319 115.236 33.3053 115.502 33.4519C115.767 33.5985 115.971 33.8046 116.113 34.0704V33.2594H116.443ZM114.636 36.407C114.915 36.407 115.167 36.3474 115.392 36.2283C115.616 36.1046 115.79 35.9351 115.914 35.7197C116.042 35.4998 116.106 35.2501 116.106 34.9707C116.106 34.6912 116.042 34.4438 115.914 34.2284C115.79 34.0131 115.616 33.8459 115.392 33.7268C115.167 33.6031 114.915 33.5412 114.636 33.5412C114.356 33.5412 114.104 33.6031 113.88 33.7268C113.66 33.8459 113.486 34.0131 113.357 34.2284C113.234 34.4438 113.172 34.6912 113.172 34.9707C113.172 35.2501 113.234 35.4998 113.357 35.7197C113.486 35.9351 113.66 36.1046 113.88 36.2283C114.104 36.3474 114.356 36.407 114.636 36.407Z" fill="white"/>
<path d="M3.0013 21.4245C3.3863 21.4723 3.7742 21.4964 4.16243 21.4964H16.5813L17.6725 15.6654H4.06723L3.0013 21.4245Z" fill="url(#paint0_linear_674_2334)"/>
<path d="M4.48831 13.39H25.0752L26.1727 7.55933H5.56743L4.48831 13.39Z" fill="url(#paint1_linear_674_2334)"/>
<path d="M28.9461 7.56042H28.5508L27.4513 13.3911H35.6105C35.3615 10.0567 32.694 7.58349 28.9461 7.56042Z" fill="url(#paint2_linear_674_2334)"/>
<path d="M9.93386 29.603H22.0235L23.121 23.772H11.0205L9.93386 29.603Z" fill="url(#paint3_linear_674_2334)"/>
<path d="M2.56988 23.772L0 37.6654H6.06503L8.6482 23.772H2.56988Z" fill="url(#paint4_linear_674_2334)"/>
<path d="M17.7652 31.8785H9.50994L8.43163 37.6658H23.266C26.9886 37.6428 30.564 35.191 32.0871 31.8797H17.7648L17.7652 31.8785Z" fill="url(#paint5_linear_674_2334)"/>
<path d="M18.9545 21.4964H31.0674C33.2408 20.1538 34.7968 18.0683 35.4181 15.6654H20.0477L18.9545 21.4964Z" fill="url(#paint6_linear_674_2334)"/>
<path d="M30.6938 23.772H25.493L24.3935 29.603H32.7726C33.1197 27.2217 32.2946 25.1204 30.6938 23.772Z" fill="url(#paint7_linear_674_2334)"/>
<defs>
<linearGradient id="paint0_linear_674_2334" x1="-7.8554" y1="38.9254" x2="-3.02425" y2="4.69966" gradientUnits="userSpaceOnUse">
<stop stop-color="#9261EF"/>
<stop offset="1" stop-color="#41D3F3"/>
</linearGradient>
<linearGradient id="paint1_linear_674_2334" x1="-9.15114" y1="37.867" x2="-7.0424" y2="5.2134" gradientUnits="userSpaceOnUse">
<stop stop-color="#9261EF"/>
<stop offset="1" stop-color="#41D3F3"/>
</linearGradient>
<linearGradient id="paint2_linear_674_2334" x1="0.525839" y1="45.7861" x2="17.0081" y2="9.67063" gradientUnits="userSpaceOnUse">
<stop stop-color="#9261EF"/>
<stop offset="1" stop-color="#41D3F3"/>
</linearGradient>
<linearGradient id="paint3_linear_674_2334" x1="-0.0883813" y1="45.2827" x2="5.98574" y2="10.5086" gradientUnits="userSpaceOnUse">
<stop stop-color="#9261EF"/>
<stop offset="1" stop-color="#41D3F3"/>
</linearGradient>
<linearGradient id="paint4_linear_674_2334" x1="-5.0592" y1="41.2083" x2="29.5703" y2="26.194" gradientUnits="userSpaceOnUse">
<stop stop-color="#9261EF"/>
<stop offset="1" stop-color="#41D3F3"/>
</linearGradient>
<linearGradient id="paint5_linear_674_2334" x1="5.21449" y1="49.6281" x2="6.94673" y2="17.2369" gradientUnits="userSpaceOnUse">
<stop stop-color="#9261EF"/>
<stop offset="1" stop-color="#41D3F3"/>
</linearGradient>
<linearGradient id="paint6_linear_674_2334" x1="1.10797" y1="46.255" x2="4.88204" y2="12.5769" gradientUnits="userSpaceOnUse">
<stop stop-color="#9261EF"/>
<stop offset="1" stop-color="#41D3F3"/>
</linearGradient>
<linearGradient id="paint7_linear_674_2334" x1="7.19076" y1="51.242" x2="22.5779" y2="15.015" gradientUnits="userSpaceOnUse">
<stop stop-color="#9261EF"/>
<stop offset="1" stop-color="#41D3F3"/>
</linearGradient>
</defs>
</svg>
