<svg xmlns="http://www.w3.org/2000/svg" viewBox="0 0 1074.55 236.9"><defs><style>.cls-1{fill:#fff;}</style></defs><g id="Capa_2" data-name="Capa 2"><g id="Capa_1-2" data-name="Capa 1"><path class="cls-1" d="M75.12,46.07c22.94-30.89,53.55-45.36,92-42.88C210.08,6,248.93,38,258.93,79.41c17.28,71.51-36,123.84-88.26,129C108.8,214.6,63.22,168.83,56.82,121.32a109.77,109.77,0,0,1,6.26-54.43c1.22-3.22,2.37-4.13,5.63-2.11C76.35,69.52,84.18,74,92,78.38c2.26,1.28,2.84,2.4,2,5.12-13.37,41.51,11.21,82.95,54.1,90,46.29,7.65,78.9-30.17,79.82-66,1-40.27-36.07-78.43-82.82-69.07-16.32,3.27-29.54,11.72-39.75,24.85A254,254,0,0,1,75.12,46.07Z"/><path class="cls-1" d="M882.15,166.51c-33.32,0-59.1-25.89-59-59.27s25.92-59,59.4-59c33,0,58.9,26.26,58.88,59.59C941.38,140.47,915.07,166.52,882.15,166.51Zm19.48-52c-4.35.7-5.16-.64-3.17-4.48,4-7.67,7.64-15.5,11.45-23.26,1.07-2.16,2.42-4.54-1.15-5.42-2.9-.72-6.15-4.34-8.7,1.1-5.95,12.63-12.19,25.12-18.43,37.61-1.55,3.12-1.32,4.53,2.6,4.41,5.65-.18,11.33.22,17-.13,4.19-.27,5.67,1.09,5.26,5.26-.18,1.76-1.1,4.11,1.25,5.39,4.76,2.59,9.63-.22,9.6-5.58,0-2.77-.37-5.46,3.87-5.09,2.14.19,2.23-1.73,2.07-3.21-.23-2.14,1.27-6-1.45-6.06-5.55-.23-4.74-3.68-4.38-6.76.57-4.86-1.2-6-6-6.14-5.66-.2-5.24,2.8-5.09,6.46C906.47,111.91,907.16,115.84,901.63,114.48Zm-42.32,15.83c4.82,0,9.66-.15,14.48.06,2.93.12,3.47-1.07,3.68-3.76.37-4.51-1-6.54-5.71-5.79a19.26,19.26,0,0,1-4.49,0c-1.58-.13-3.75.85-4.59-.76s1.15-2.9,2.07-4.17c4-5.66,8.77-10.9,10-18.15,1.45-8.5-2.81-15.34-11.26-17.12a33.78,33.78,0,0,0-16.32.44c-2.64.75-5.78,1-4.31,5.43,1.17,3.55,2.11,6.22,6.68,4.12a13,13,0,0,1,5.37-.86c7.1,0,10.12,4.51,7.16,10.9a40.21,40.21,0,0,1-4.59,7.1c-4.69,6.27-9.5,12.44-14.22,18.67-.68.89-1.92,1.79-1.46,3,.63,1.64,2.32.84,3.52.86C850,130.37,854.64,130.31,859.31,130.31Z"/><path class="cls-1" d="M75.12,46.07a254,254,0,0,0,30.19,17.29c9,5.29,18.15,10.48,27.09,16,2.68,1.64,4.14.33,6.09-1.07,11.66-8.37,24.22-9.42,36.71-2.72S194.14,93.44,193.5,108c-.85,19-18.68,34.14-37.84,32.27s-33.36-19.82-30.86-38.54c.5-3.74,1.84-3.46,4.44-1.92,7,4.18,14.27,8,21.1,12.39,3.69,2.39,4.65.43,6.27-2.19s2.37-4.09-1.13-6.09c-29.93-17.07-59.73-34.38-89.57-51.6-15.56-9-31-18.12-46.77-26.84-4.16-2.3-2.08-4.19-.85-6.66,1.31-2.64,2.56-4.76,5.82-2.14,1.13.91,2.59,1.41,4.77,2.54L24,0c7.1,4,12.94,8,19.32,10.79C54.26,15.55,61.06,23,61.85,35.18c.24,3.78,3.06,5.25,5.84,6.79Z"/><path class="cls-1" d="M367,85.18c6.74-7.56,14.39-10.24,23.71-8.11,7.22,1.65,11.87,5.71,13.5,13a33,33,0,0,1,1,6.9c.09,12.8,0,25.61.1,38.42,0,3-.88,3.95-3.9,4.15-12.9.86-12.86,1-12.9-11.57,0-9.31.07-18.63-.36-27.92-.2-4.3-1.93-8.18-7.22-8.73-5.5-.57-9.36,1.69-11.49,6.76a19.74,19.74,0,0,0-1.23,7.83c0,9.31-.25,18.63.11,27.93.17,4.37-1.14,5.73-5.47,5.82-11.61.24-11.6.42-11.6-10.91,0-15.64.09-31.27-.08-46.9,0-3.45,1-5,4.48-4.63a16.7,16.7,0,0,0,2,0C365.09,77.13,365.09,77.13,367,85.18Z"/><path class="cls-1" d="M617.75,85c6.2-7,13.34-9.9,22.21-8.13,9.28,1.86,14.3,6.53,15.32,15.86,1.6,14.59.39,29.27.69,43.9,0,1.86-.71,2.82-2.63,2.73a2.85,2.85,0,0,0-.5,0C639,141,638.76,140.8,638.76,127c0-8.32.08-16.65,0-25-.1-7-2.35-10.15-7.27-10.74-6.43-.76-10.62,2.27-12.19,9a30.64,30.64,0,0,0-.72,6.41c-.08,7.49.1,15-.09,22.47-.08,3.24,1.71,8-1,9.4-4.16,2.16-9.44,1-14.24.56-1.88-.17-1.62-1.83-1.62-3.11,0-18.48,0-37,0-55.44,0-2.26.72-3.49,3.11-3.4.67,0,1.33-.07,2-.09C615.09,76.93,615.09,76.93,617.75,85Z"/><path class="cls-1" d="M320,113.51c-5.5,0-11,.15-16.49-.05-3.07-.11-3.26,1.21-2.61,3.6,1.83,6.64,8.64,10.6,17.66,9.85a60.65,60.65,0,0,0,11.78-2c2.88-.84,4,0,4.62,2.56.07.32.28.6.38.91,2.56,7.61,2,8.85-5.67,10.54a55.2,55.2,0,0,1-23.28.55c-11.61-2.41-18.94-9.31-21.54-20.9-2.33-10.45-1.44-20.67,4.25-29.89,6.33-10.26,19.26-14.56,32.18-11.34,10.63,2.65,17.89,12.16,18.95,24.86.95,11.28.95,11.28-10.24,11.28Zm-7.79-11.73c3,0,6-.08,9,0,2.46.09,3.17-.76,2.68-3.26-1-5.43-4.78-9-10.11-9.35-6.5-.38-10.77,2.83-12.52,9-.73,2.55-.5,3.75,2.49,3.59C306.58,101.66,309.41,101.78,312.24,101.78Z"/><path class="cls-1" d="M571,113.52c-5.5,0-11,.19-16.49-.07-3.72-.17-3.76,1.48-2.88,4.21,2,6.09,8.52,9.82,17.14,9.26A55.67,55.67,0,0,0,580.54,125c3-.85,4.39-.28,5,2.61.14.65.41,1.27.59,1.91,2,7,1.86,7.4-5.22,9.12-9.87,2.41-19.76,2.88-29.46-.77-10.74-4-15.48-12.68-16.9-23.39a42.5,42.5,0,0,1,.67-14.89c4-17.79,20.19-27.28,37.65-21.93,11.54,3.54,18.57,14.68,17.83,29.14-.39,7.71,1.11,6.57-6.76,6.67C579.65,113.56,575.32,113.51,571,113.52Zm-8.12-11.74c3,0,6-.09,9,0,2.59.1,3.21-1.09,2.62-3.38-1.22-4.68-3.67-8.2-8.77-9.1-5.58-1-10.63,1.45-13,6.18-2.63,5.23-2,6.26,3.67,6.28C558.54,101.79,560.7,101.78,562.87,101.78Z"/><path class="cls-1" d="M803.78,115.19c0,6-.09,12,0,17.95.06,2.5-.49,3.85-3.23,4.56-10.28,2.68-20.59,3.76-31.07,1.66-10.33-2.06-15.94-8.31-16.28-17.9-.37-10.4,4.65-17.25,14.88-20.16a39.69,39.69,0,0,1,15.78-1.56c3.85.48,3.93-1.3,3.21-3.91-1-3.65-3.75-5.42-7.34-5.78-4.64-.45-9.44-.87-13.85.74-4.75,1.72-6.52-.11-7.63-4.41-1.59-6.14-1.37-6.82,4.6-8.19,7.68-1.76,15.38-2.57,23.24-1,10.59,2.18,16.72,8.72,17.37,19.5.37,6.13.07,12.3.07,18.45Zm-16.36,3.52c0-9-.38-9.29-9.48-8.23l-.5,0c-5.8.87-8.65,4-8.4,9.11.22,4.5,3.17,7,8.78,7.59C786.4,128.05,787.42,127.15,787.42,118.71Z"/><path class="cls-1" d="M524.63,107.47c0,8.48-.11,17,.06,25.45,0,2.81-.76,4.06-3.62,4.77-9.61,2.38-19.24,3.66-29.11,2-12.88-2.21-19.7-8.95-20.41-21.89-.67-12.44-.23-24.94-.36-37.41,0-2.13.86-3.06,2.91-3.06a8.21,8.21,0,0,0,1,0c12.85-1,12.85-1,12.85,11.66,0,8-.18,16,.06,24,.32,10.41,5,14.25,15.31,13.56,3.31-.22,4.59-1.27,4.54-4.79-.19-13.14,0-26.28-.16-39.42-.06-3.64,1-4.92,4.7-5.07,12.24-.5,12.24-.63,12.24,11.37Z"/><path class="cls-1" d="M446.78,140.36c-15.19,0-24.68-5.69-29.38-17.23-5.39-13.22-2.6-30.41,6.37-39.2,7.84-7.69,26.42-10.31,36.25-5.23,3.36,1.74,1.59,4.47,1.29,6.56-.87,6.13-1.71,6.55-7.56,5.32-9.13-1.92-15.64,0-19.14,5.8-3.88,6.38-3.54,20.11.86,25.28,5.34,6.27,12.61,6,19.34,4,6.13-1.87,6.16,2.06,7.29,5.52,1.3,4,1,7.07-4.12,7.94C454,139.79,450.15,140.65,446.78,140.36Z"/><path class="cls-1" d="M670.42,107.12c0-4-.19-8,.06-12,.21-3.29-.53-5.06-4.26-4.55-1.21.17-2.84.58-3.61-.88-.86-1.64.42-2.83,1.32-4q9.38-12,18.78-24c.85-1.09,1.78-2.29,3.25-1.68,1.3.54.81,2,.83,3.15,0,3.66.16,7.33,0,11-.15,2.88,1,3.92,3.76,3.66a19.83,19.83,0,0,1,4.49,0c2.18.31,5.37-1.35,6.35,1.22a16.27,16.27,0,0,1,0,10.32c-.63,2.07-2.87,1.18-4.4,1.21-10.14.2-10.18.17-10.13,10.24,0,5.49-.1,11,.4,16.45.67,7.29,3.87,10,10.95,8.68,4.34-.78,5.15,1,5.54,4.49.89,8,.35,8.75-7.83,9.05-2.16.07-4.33,0-6.49-.05-12-.59-18.62-7.35-18.94-19.36C670.33,115.78,670.42,111.45,670.42,107.12Z"/><path class="cls-1" d="M727.79,85.42c4.7-5.15,9.53-8.85,16.65-8.36,3.3.23,4.48,1.29,4.15,4.44a19,19,0,0,0,0,4c.51,4.9-.91,7.12-6.56,6.85C734.23,92,729.47,96.63,729,105c-.61,9.95-.52,19.95-.38,29.93,0,3.47-1,4.51-4.39,4.64-12.67.49-12.66.61-12.66-11.76,0-15.31.1-30.63-.08-45.94,0-3.45,1-5,4.47-4.67a8.41,8.41,0,0,0,1,0C725.2,77,725.2,77,727.79,85.42Z"/><path class="cls-1" d="M1030,92.7c0-3.83-.08-7.67,0-11.49,0-1.34-.82-3.4,1.32-3.74,1.86-.3,4.65-1.14,5.52.85,1.31,3,2.08,1.63,3.7.5a10.17,10.17,0,0,1,13.23.91c1.82,1.79,2.4,1.15,3.77-.2,3.39-3.37,7.62-3.27,11.65-1.75s5,5.22,5.13,9c.19,6.16-.06,12.33.15,18.48.12,3.38-2.06,3.32-4.22,3.31s-4.45.21-4.33-3.21q.26-7.25,0-14.49c-.1-2.9.19-6.57-4.29-6.42-4.07.13-5.1,3.21-5.16,6.65-.09,4.66-.21,9.34,0,14,.17,3.25-1.76,3.5-4.06,3.49s-4.69.1-4.51-3.55c.23-5,.21-10,0-15-.13-2.53-.12-5.72-4.06-5.65-3.55.07-5.05,2.55-5.25,5.56a114.41,114.41,0,0,0-.07,14c.2,3.46-1,4.79-4.43,4.72-3.2-.06-4.38-1.25-4.16-4.49C1030.23,100.37,1030,96.53,1030,92.7Z"/><path class="cls-1" d="M1025.74,92.73c.06,10.45-5.09,16.07-14.71,16.08-9.32,0-14.53-5.62-14.58-15.71-.05-10.35,5.25-16.17,14.71-16.14C1020.41,77,1025.69,82.69,1025.74,92.73Zm-8.28.33c-.32-1.86-.5-3.51-.91-5.11-.73-2.9-2.56-4.55-5.69-4.5-3,0-4.57,1.8-5.26,4.41a18.47,18.47,0,0,0,.18,10.72,5.58,5.58,0,0,0,10.52.11A49.49,49.49,0,0,0,1017.46,93.06Z"/><path class="cls-1" d="M0,42.16c12.56-5.78,23.45-6.17,34.11,2.5C39.44,49,46,51.81,53.07,55.9c-6.84,1.92-12.73,3.61-18.65,5.19a3.45,3.45,0,0,1-2.37-.37C21.57,54.7,11.12,48.62,0,42.16Z"/><path class="cls-1" d="M70.71,236.45c-1.81,0-2.82-.08-3.8,0-3.59.36-3.86-.92-2.39-3.91q9.14-18.52,18-37.22c1.39-3,2.33-4.12,5.4-1.36,6.29,5.67,6.49,5.5,2.8,13.3-3.62,7.65-7.53,15.18-10.9,22.94C77.79,234.81,75.59,238.15,70.71,236.45Z"/><path class="cls-1" d="M255.15,236c-12.93,1.34-13,1.36-18.14-9-3.86-7.73-7.41-15.62-11.43-23.25-1.83-3.47-1.33-5.38,1.89-7.64,6.12-4.29,6-4.52,9.32,2.2C242.85,210.71,248.85,223.09,255.15,236Z"/><path class="cls-1" d="M987.17,77a23.12,23.12,0,0,1,3.59.42c1.82.45,4.17.47,3.25,3.67-.68,2.38-1.21,3.85-4.3,2.89-3.34-1-6.86-.62-8.87,2.71A11.55,11.55,0,0,0,980.78,99c2,3.37,5.47,3.6,8.87,2.66,2.6-.72,4.11-.29,4.7,2.52s-.71,3.92-3.34,4.24c-6.28.77-12.67,1.16-17-4.43s-4.38-12.1-2.1-18.55C973.93,79.71,979.14,76.8,987.17,77Z"/><path class="cls-1" d="M966.6,104c.83,4-1.63,4.47-4.83,4.64-3.87.22-4.45-1.67-4.58-5-.16-3.94,1.53-4.5,4.92-4.62C966,98.88,967.12,100.52,966.6,104Z"/></g></g></svg>