<svg width="35" height="36" viewBox="0 0 35 36" fill="none" xmlns="http://www.w3.org/2000/svg">
<path fill-rule="evenodd" clip-rule="evenodd" d="M5.20357 0.622404C5.66924 0.234345 6.27226 0 7 0C7.72774 0 8.33076 0.234345 8.79643 0.622404C9.24439 0.995704 9.51402 1.46747 9.67848 1.87861C9.8438 2.29192 9.92183 2.6911 9.95998 2.97721C9.9794 3.12287 9.98934 3.24587 9.99446 3.33553C9.99704 3.38051 9.99842 3.41752 9.99916 3.44527L9.99986 3.47993L9.99997 3.49184L9.99999 3.4964L10 3.49832C10 3.49873 10 3.5 9 3.5H10H20L20 3.49832L20 3.4964L20 3.49184L20.0001 3.47993L20.0008 3.44527C20.0016 3.41752 20.003 3.38051 20.0055 3.33553C20.0107 3.24587 20.0206 3.12287 20.04 2.97721C20.0782 2.6911 20.1562 2.29192 20.3215 1.87861C20.486 1.46747 20.7556 0.995704 21.2036 0.622404C21.6692 0.234345 22.2723 0 23 0C23.7277 0 24.3308 0.234345 24.7964 0.622404C25.2444 0.995704 25.514 1.46747 25.6785 1.87861C25.8438 2.29192 25.9218 2.6911 25.96 2.97721C25.9794 3.12287 25.9893 3.24587 25.9945 3.33553C25.997 3.38051 25.9984 3.41752 25.9992 3.44527L25.9999 3.47993L26 3.49184L26 3.4964L26 3.49832C26 3.49873 26 3.5 25 3.5H26C26.7309 3.5 27.7375 3.78183 28.5675 4.57861C29.4228 5.3997 30 6.67853 30 8.5V15.7789C33.0102 17.7416 35 21.1384 35 25C35 31.0751 30.0751 36 24 36C20.8233 36 17.9612 34.6535 15.9532 32.5H4C2.40453 32.5 1.35404 31.6931 0.74901 30.7127C0.17687 29.7856 0 28.7153 0 28V8.5C0 6.67853 0.577168 5.3997 1.43247 4.57861C2.26245 3.78183 3.26907 3.5 4 3.50001C4.00002 3.50021 4.00172 3.5002 4.12482 3.50015H4.12485H4.12489L4.93861 3.5L4 3.50001L4 3.49832L4.00001 3.4964L4.00003 3.49184L4.00014 3.47993L4.00084 3.44527C4.00158 3.41752 4.00296 3.38051 4.00554 3.33553C4.01066 3.24587 4.0206 3.12287 4.04002 2.97721C4.07817 2.6911 4.1562 2.29192 4.32152 1.87861C4.48598 1.46747 4.75561 0.995704 5.20357 0.622404ZM28 12V14.7499C26.7603 14.2657 25.4112 14 24 14C17.9249 14 13 18.9249 13 25C13 27.0036 13.5357 28.882 14.4716 30.5H4C3.19547 30.5 2.74596 30.1403 2.45099 29.6623C2.12313 29.1311 2 28.4513 2 28V12H28ZM26 5.5V7C26 7.55228 25.5523 8 25 8H21C20.4477 8 20 7.55228 20 7V5.5H10V7C10 7.55228 9.55228 8 9 8H5C4.44772 8 4 7.55228 4 7V5.5C3.73093 5.5 3.23755 5.61817 2.81753 6.02139C2.42283 6.4003 2 7.12147 2 8.5V10H28V8.5C28 7.12147 27.5772 6.4003 27.1825 6.02139C26.7625 5.61817 26.2691 5.5 26 5.5ZM20.5 3.50004L21 3.5H20.5V3.50004ZM6 3.50471L6.00013 3.49858C6.00037 3.48971 6.00094 3.47301 6.00228 3.44963C6.00497 3.40256 6.01065 3.33026 6.02248 3.24154C6.04683 3.0589 6.0938 2.83308 6.17848 2.62139C6.26402 2.40753 6.36939 2.2543 6.48393 2.15885C6.58076 2.07815 6.72774 2 7 2C7.27226 2 7.41924 2.07815 7.51607 2.15885C7.63061 2.2543 7.73598 2.40753 7.82152 2.62139C7.9062 2.83308 7.95317 3.0589 7.97752 3.24154C7.98935 3.33026 7.99503 3.40256 7.99772 3.44963C7.99906 3.47301 7.99963 3.48971 7.99987 3.49858L8.00001 3.50454L8 6H6V3.50471ZM22.0001 3.49858L22 3.50471V6H24L24 3.50454L23.9999 3.49858C23.9996 3.48971 23.9991 3.47301 23.9977 3.44963C23.995 3.40256 23.9894 3.33026 23.9775 3.24154C23.9532 3.0589 23.9062 2.83308 23.8215 2.62139C23.736 2.40753 23.6306 2.2543 23.5161 2.15885C23.4192 2.07815 23.2723 2 23 2C22.7277 2 22.5808 2.07815 22.4839 2.15885C22.3694 2.2543 22.264 2.40753 22.1785 2.62139C22.0938 2.83308 22.0468 3.0589 22.0225 3.24154C22.0106 3.33026 22.005 3.40256 22.0023 3.44963C22.0009 3.47301 22.0004 3.48971 22.0001 3.49858ZM24 16C19.0294 16 15 20.0294 15 25C15 29.9706 19.0294 34 24 34C28.9706 34 33 29.9706 33 25C33 20.0294 28.9706 16 24 16ZM25 20C25 19.4477 24.5523 19 24 19C23.4477 19 23 19.4477 23 20V25.5C23 26.0523 23.4477 26.5 24 26.5H29C29.5523 26.5 30 26.0523 30 25.5C30 24.9477 29.5523 24.5 29 24.5H25V20Z" fill="url(#paint0_radial_96_11758)"/>
<defs>
<radialGradient id="paint0_radial_96_11758" cx="0" cy="0" r="1" gradientUnits="userSpaceOnUse" gradientTransform="translate(29.8983 -10.4) rotate(110.236) scale(59.684 45.7393)">
<stop offset="3.1201e-09" stop-color="#5DCCEB"/>
<stop offset="0.426" stop-color="#6389EB"/>
<stop offset="0.842" stop-color="#8B6BEB"/>
</radialGradient>
</defs>
</svg>
