<svg width="12" height="22" viewBox="0 0 12 22" fill="none" xmlns="http://www.w3.org/2000/svg">
<path d="M7.73999 11.9399V20.4199C7.73999 21.1899 7.66001 21.26 6.89001 21.26H3.89001C3.34001 21.26 3.21008 21.1298 3.21008 20.5898V11.99H0.650024C0.130024 11.99 0 11.8699 0 11.3499V8.34985C0 7.80985 0.130034 7.68994 0.660034 7.68994H3.21008V7.35986C3.21008 6.35986 3.21002 5.35986 3.27002 4.35986C3.35481 3.18857 3.87506 2.09161 4.72827 1.28467C5.58148 0.477729 6.70581 0.0194225 7.88 0C8.88 0 9.96 0 11 0C11.35 0 11.49 0.15 11.5 0.5V3.59985C11.5 3.94985 11.35 4.08985 10.97 4.09985H8.85999C8.04998 4.09985 7.73008 4.41999 7.71008 5.23999C7.69008 6.05999 7.71008 6.78983 7.71008 7.57983H8H10.7101C11.2601 7.57983 11.39 7.71 11.39 8.25V11.3499C11.39 11.8299 11.27 11.95 10.79 11.95C9.87004 11.95 8.95003 11.95 8.03003 11.95L7.73999 11.9399Z" fill="white"/>
</svg>
