<svg width="109" height="21" viewBox="0 0 109 21" fill="none" xmlns="http://www.w3.org/2000/svg">
<g clip-path="url(#clip0_96_11821)">
<path d="M24.3896 9.54557C25.1901 8.30466 26.2259 7.63648 27.5443 7.35012C30.746 6.63421 33.3357 8.68648 33.4298 11.9797C33.4769 14.7956 33.4298 17.5638 33.4298 20.3797C33.4298 20.7615 33.2886 20.8569 32.959 20.8092C31.9231 20.8092 30.8402 20.7615 29.8043 20.8092C29.3335 20.8092 29.2393 20.666 29.2393 20.2365C29.2393 17.8501 29.2393 15.5115 29.2393 13.1251C29.2393 12.6956 29.2393 12.3138 29.0981 11.8842C28.8156 11.0728 28.3447 10.4524 27.403 10.3569C26.4143 10.2138 25.5668 10.5001 25.0488 11.4069C24.7663 11.9319 24.6251 12.4569 24.6251 13.0297C24.6251 15.416 24.6251 17.8024 24.6251 20.1888C24.6251 20.7138 24.4838 20.8092 24.013 20.8092C22.9771 20.7615 21.9413 20.7615 20.9054 20.8092C20.5287 20.8092 20.4346 20.666 20.4346 20.3319C20.4346 16.1797 20.4346 12.0274 20.4346 7.87512C20.4346 7.54103 20.5287 7.39785 20.9054 7.39785C21.8471 7.39785 22.7888 7.39785 23.7305 7.39785C24.0601 7.39785 24.2013 7.44557 24.2013 7.82739C24.2013 8.35239 24.3426 8.87739 24.3896 9.54557Z" fill="white"/>
<path d="M0 11.9317C0 9.16353 0 6.39535 0 3.62717C0 3.19763 0.0941685 3.05444 0.565011 3.05444C4.09633 3.05444 7.62765 3.05444 11.159 3.05444C11.5827 3.05444 11.724 3.19763 11.724 3.62717C11.6769 4.43853 11.6769 5.20217 11.724 6.01353C11.7711 6.49081 11.5827 6.58626 11.159 6.53853C8.99309 6.53853 6.82721 6.53853 4.70842 6.53853C4.33175 6.53853 4.14341 6.63399 4.1905 7.06353C4.23758 7.77944 4.23758 8.49535 4.1905 9.21126C4.1905 9.64081 4.33175 9.73626 4.70842 9.73626C6.73305 9.73626 8.75767 9.73626 10.7823 9.73626C11.3002 9.73626 11.4415 9.87944 11.3944 10.3567C11.3473 11.0726 11.3473 11.7885 11.3944 12.5044C11.3944 12.934 11.3002 13.0294 10.8765 13.0294C8.85184 13.0294 6.78013 13.0294 4.75551 13.0294C4.33175 13.0294 4.1905 13.1249 4.1905 13.6022C4.23758 15.8454 4.1905 18.0408 4.1905 20.284C4.1905 20.7135 4.09633 20.8567 3.62549 20.8567C2.58963 20.809 1.60086 20.809 0.565011 20.8567C0.141253 20.8567 0.0470842 20.7613 0.0470842 20.3317C0 17.4681 0 14.6999 0 11.9317Z" fill="white"/>
<path d="M78.8661 13.65C78.8661 13.3637 78.8661 13.2205 78.8661 13.0773C78.8661 11.4069 78.0656 10.5 76.3706 10.4046C75.1935 10.3091 74.0164 10.5 72.8864 10.8341C72.698 10.8819 72.4626 10.9296 72.2272 11.025C72.2272 10.1659 72.2272 9.30685 72.2272 8.49549C72.2272 8.20913 72.4155 8.11367 72.6039 8.06594C73.4043 7.73185 74.2989 7.54094 75.1464 7.44549C76.3706 7.30231 77.6419 7.25458 78.9131 7.49322C81.4557 7.97049 82.9153 9.7364 82.9624 12.3614C83.0095 15.0819 82.9624 17.7546 82.9624 20.475C82.9624 20.8569 82.8682 20.9523 82.4915 20.9523C81.644 20.9523 80.7494 20.9046 79.9019 20.9523C79.4311 21 79.2427 20.8091 79.1956 20.3319C79.1956 20.0932 79.1486 19.8546 79.0544 19.5205C78.2069 20.4273 77.2652 20.9046 76.1823 21.0478C75.2406 21.1432 74.346 21.0478 73.4514 20.7137C71.7093 19.9978 70.9088 18.5659 71.0501 16.5137C71.1913 14.7 72.3214 13.3159 74.2047 12.8864C75.8527 12.4091 77.4064 12.5523 78.8661 13.65ZM76.8885 18.7569C78.1598 18.7569 79.1015 17.8978 79.1015 16.7046C79.1015 15.5591 78.2069 14.7478 76.9827 14.7C75.7585 14.7 74.8168 15.5591 74.7697 16.6569C74.7697 17.8978 75.6643 18.7091 76.8885 18.7569Z" fill="white"/>
<path d="M55.4653 13.6022C55.6536 11.3113 54.6178 10.2613 52.3107 10.309C51.1335 10.309 50.0506 10.5954 48.8735 10.9772C48.8735 10.1181 48.8735 9.259 48.8735 8.44764C48.8735 8.16128 49.0618 8.06582 49.2502 8.01809C50.0506 7.684 50.8981 7.49309 51.7456 7.39764C53.064 7.25446 54.3353 7.20673 55.6536 7.44537C57.9608 7.87491 59.4675 9.49764 59.5616 11.884C59.6558 14.7476 59.6087 17.659 59.6087 20.5226C59.6087 20.8567 59.4204 20.9045 59.185 20.9045C58.2904 20.9045 57.3958 20.8567 56.5482 20.9045C56.1245 20.9045 55.9361 20.7613 55.9361 20.3317C55.9361 20.0931 55.842 19.8545 55.7949 19.5204C54.759 20.6181 53.4878 21.0476 52.0752 21.0476C51.4161 21.0476 50.7569 20.9045 50.1448 20.6658C48.4497 19.9499 47.6493 18.5181 47.7906 16.609C47.9318 14.6999 49.0618 13.3158 50.9452 12.8863C52.4519 12.409 54.0057 12.5999 55.4653 13.6022ZM53.4878 18.7567C54.759 18.7567 55.7478 17.8976 55.7478 16.7522C55.7478 15.6067 54.8061 14.7476 53.5819 14.6999C52.3577 14.6999 51.4161 15.5113 51.4161 16.6567C51.4161 17.8976 52.2165 18.709 53.4878 18.7567Z" fill="white"/>
<path d="M97.747 10.3568C96.0049 10.3568 94.3569 10.3568 92.709 10.3568C92.2381 10.3568 92.144 10.2136 92.144 9.78407C92.191 9.11589 92.144 8.49543 92.144 7.82725C92.144 7.54089 92.191 7.39771 92.5206 7.39771C95.6282 7.39771 98.7358 7.39771 101.89 7.39771C102.173 7.39771 102.267 7.49316 102.267 7.77952C102.267 8.39998 102.267 9.06816 102.267 9.68861C102.267 9.97498 102.126 10.1659 101.985 10.3568C100.431 12.6 98.8299 14.8909 97.2761 17.1341C97.182 17.2773 96.9466 17.4204 97.0407 17.5636C97.1349 17.7545 97.3703 17.6591 97.5586 17.6591C98.9712 17.6591 100.431 17.6591 101.843 17.6591C102.267 17.6591 102.455 17.7545 102.408 18.2318C102.361 18.9477 102.361 19.6636 102.408 20.3795C102.408 20.7136 102.314 20.8091 101.985 20.8091C98.8299 20.8091 95.6753 20.8091 92.5206 20.8091C92.144 20.8091 92.0969 20.7136 92.0498 20.3318C91.9556 19.1863 92.2381 18.2318 92.9444 17.325C94.4982 15.225 95.9107 13.0295 97.4174 10.8818C97.5116 10.7386 97.5587 10.5954 97.747 10.3568Z" fill="white"/>
<path d="M46.0956 18.4703C46.0956 18.5658 46.0956 18.6612 46.0956 18.7567C46.0956 20.0931 46.0956 20.0931 44.7772 20.5703C41.9522 21.5249 38.6092 20.7135 36.82 18.6612C34.1833 15.6067 34.607 8.44761 40.5396 7.34988C42.1876 7.01579 43.8355 7.2067 45.4364 7.92261C45.766 8.06579 45.9543 8.30443 45.9072 8.68625C45.8602 9.40216 45.8602 10.0703 45.9072 10.7862C45.9543 11.3112 45.7189 11.2158 45.3893 11.0726C44.3064 10.5953 43.1764 10.4044 41.9992 10.5953C40.5396 10.834 39.5509 11.884 39.3625 13.3158C38.8446 17.2772 42.1405 18.1362 44.4947 17.4681C44.9185 17.3249 45.2951 17.1817 45.7189 16.9908C46.0014 16.8476 46.0485 16.9431 46.0485 17.2294C46.0956 17.659 46.0956 18.0885 46.0956 18.4703Z" fill="white"/>
<path d="M65.6826 9.83177C66.2005 8.87723 66.8126 8.06586 67.8014 7.58859C68.5076 7.2545 69.261 7.15904 70.0143 7.30222C70.3439 7.34995 70.4852 7.49313 70.4852 7.87495C70.4852 9.02041 70.4852 10.1659 70.4852 11.3113C70.4852 11.6931 70.3439 11.7409 70.0143 11.6454C69.0256 11.359 68.0368 11.2159 67.0951 11.884C66.0593 12.6 65.8709 13.7454 65.8238 14.8909C65.7767 16.7045 65.8238 18.5181 65.8238 20.3318C65.8238 20.7613 65.7297 20.9045 65.2588 20.9045C64.223 20.8568 63.14 20.9045 62.1042 20.9045C61.7746 20.9045 61.6804 20.809 61.6804 20.475C61.6804 16.3227 61.6804 12.1227 61.6804 7.97041C61.6804 7.58859 61.7746 7.49313 62.1513 7.49313C63.0929 7.54086 64.0346 7.49313 64.9763 7.49313C65.3059 7.49313 65.4472 7.58859 65.4472 7.92268C65.4942 8.49541 65.5884 9.16359 65.6826 9.83177Z" fill="white"/>
<path d="M85.2224 14.0795C85.2224 12.075 85.2224 10.0227 85.2224 8.01816C85.2224 7.58861 85.3165 7.39771 85.7874 7.39771C86.8703 7.44543 87.9532 7.39771 89.0362 7.39771C89.3658 7.39771 89.4599 7.49316 89.4599 7.82725C89.4599 12.0273 89.4599 16.2273 89.4599 20.3795C89.4599 20.7613 89.3187 20.8091 88.9891 20.8091C87.9062 20.8091 86.7761 20.8091 85.6932 20.8091C85.3165 20.8091 85.1753 20.7136 85.2224 20.2841C85.2224 18.2318 85.2224 16.1795 85.2224 14.0795Z" fill="white"/>
<path d="M13.7956 14.0796C13.7956 12.0274 13.7956 9.9751 13.7956 7.92283C13.7956 7.49328 13.8898 7.3501 14.3606 7.3501C15.3965 7.39782 16.4794 7.3501 17.5153 7.3501C17.8919 7.3501 17.9861 7.44555 17.9861 7.82737C17.9861 11.9796 17.9861 16.1796 17.9861 20.3319C17.9861 20.666 17.8449 20.7615 17.5153 20.7615C16.4323 20.7615 15.3494 20.7615 14.2665 20.7615C13.8427 20.7615 13.7485 20.6183 13.7485 20.2365C13.7956 18.2319 13.7956 16.1796 13.7956 14.0796Z" fill="white"/>
<path d="M87.3412 0C88.33 0.0477273 89.1304 0.525 89.5542 1.43182C89.9779 2.33864 89.9309 3.24545 89.3188 4.00909C88.8008 4.67727 88.1887 5.20227 87.6237 5.82273C87.4354 6.01364 87.247 6.01364 87.0587 5.82273C86.4937 5.25 85.9287 4.725 85.4108 4.10455C84.7516 3.29318 84.6574 2.38636 85.1283 1.43182C85.552 0.477273 86.3525 0.0477273 87.3412 0Z" fill="white"/>
<path d="M109 5.72726C109 6.68181 108.247 7.49317 107.305 7.49317C106.363 7.49317 105.61 6.72954 105.61 5.77499C105.61 4.77272 106.316 4.05681 107.305 4.05681C108.247 4.00908 109 4.77272 109 5.72726ZM106.457 6.87272C107.022 7.30226 107.587 7.30226 108.199 6.82499C107.776 6.77726 107.682 6.44317 107.493 6.15681C107.399 6.01363 107.305 5.91817 107.117 5.9659C106.928 6.01363 106.975 6.20454 106.975 6.29999C106.975 6.58635 106.975 6.82499 106.552 6.72954C106.552 6.20454 106.552 5.67954 106.552 5.10681C106.552 4.96363 106.504 4.77272 106.693 4.67726C106.928 4.53408 107.823 4.67726 107.964 4.86817C108.199 5.15454 108.199 5.48863 107.917 5.77499C107.634 6.01363 107.964 6.15681 108.058 6.29999C108.105 6.44317 108.152 6.68181 108.341 6.63408C108.529 6.58635 108.576 6.39545 108.623 6.20454C108.906 5.48863 108.576 4.72499 107.964 4.3909C107.305 4.05681 106.504 4.29545 106.081 4.9159C105.751 5.48863 105.751 6.44317 106.457 6.87272ZM107.682 5.29772C107.682 5.05908 107.493 5.01135 107.258 5.01135C107.069 5.01135 106.928 5.05908 106.928 5.29772C106.928 5.53635 107.022 5.63181 107.258 5.58408C107.446 5.58408 107.682 5.63181 107.682 5.29772Z" fill="white"/>
<path d="M106.457 6.87285C105.751 6.4433 105.751 5.48876 106.081 4.91603C106.457 4.29558 107.305 4.05694 107.964 4.39103C108.623 4.72512 108.906 5.48876 108.623 6.20467C108.576 6.34785 108.529 6.58649 108.341 6.63421C108.152 6.68194 108.105 6.4433 108.058 6.30012C107.964 6.15694 107.682 6.01376 107.917 5.77512C108.199 5.48876 108.247 5.20239 107.964 4.8683C107.823 4.67739 106.881 4.53421 106.693 4.67739C106.504 4.77285 106.552 4.96376 106.552 5.10694C106.552 5.63194 106.552 6.15694 106.552 6.72967C106.504 6.7774 106.504 6.82512 106.457 6.87285Z" fill="white"/>
<path d="M106.552 6.72967C106.975 6.87285 106.975 6.58648 106.975 6.30012C106.975 6.15694 106.928 6.01376 107.117 5.96603C107.305 5.9183 107.399 6.01376 107.493 6.15694C107.682 6.4433 107.776 6.77739 108.2 6.82512C107.588 7.25467 107.07 7.30239 106.458 6.87285C106.505 6.82512 106.505 6.77739 106.552 6.72967Z" fill="white"/>
<path d="M107.682 5.29784C107.682 5.63193 107.446 5.5842 107.258 5.5842C107.022 5.63193 106.928 5.48875 106.928 5.29784C106.928 5.0592 107.069 5.01147 107.258 5.01147C107.493 5.01147 107.682 5.0592 107.682 5.29784Z" fill="white"/>
</g>
<defs>
<clipPath id="clip0_96_11821">
<rect width="109" height="21" fill="white"/>
</clipPath>
</defs>
</svg>
