<svg width="15" height="18" viewBox="0 0 15 18" fill="none" xmlns="http://www.w3.org/2000/svg">
<path d="M8.06997 3.36014L8.06997 16.6602C8.09462 16.8125 8.09462 16.9678 8.06997 17.1202C8.003 17.3108 7.87177 17.4723 7.69876 17.5767C7.52574 17.6811 7.32177 17.7221 7.12185 17.6925C6.92194 17.663 6.73854 17.5646 6.60318 17.4146C6.46781 17.2645 6.38893 17.0721 6.38003 16.8702L6.38003 3.36014C6.30889 3.4186 6.2421 3.48216 6.18008 3.55021L1.81008 7.90018C1.727 8.0007 1.62321 8.08214 1.50589 8.13907C1.38856 8.19601 1.2604 8.22707 1.13003 8.23014C0.963975 8.23945 0.799079 8.19744 0.657741 8.10978C0.516404 8.02211 0.405437 7.89305 0.339992 7.74015C0.259032 7.5919 0.225322 7.42252 0.24319 7.25455C0.261059 7.08659 0.329631 6.9281 0.439968 6.80021L0.610012 6.62015L6.52005 0.730139C6.60344 0.614496 6.71307 0.520312 6.83999 0.455358C6.96691 0.390405 7.10745 0.356603 7.25003 0.356603C7.3926 0.356603 7.53314 0.390405 7.66006 0.455358C7.78698 0.520312 7.89662 0.614496 7.98001 0.730138L13.98 6.73014C14.0989 6.83216 14.1899 6.96289 14.2442 7.1099C14.2984 7.2569 14.3142 7.41528 14.2901 7.5701C14.2614 7.7258 14.1912 7.87099 14.0869 7.99015C13.9827 8.10931 13.8483 8.19809 13.6978 8.24723C13.5473 8.29637 13.3863 8.30401 13.2318 8.26932C13.0774 8.23464 12.935 8.15897 12.82 8.05021L12.6601 7.89017L8.35 3.59012L8.06997 3.36014Z" fill="#575756"/>
</svg>
