<svg width="14" height="14" viewBox="0 0 14 14" fill="none" xmlns="http://www.w3.org/2000/svg">
<path d="M11.7792 3.51247L11.5671 3.7246C8.045 7.2467 5.89469 9.39701 2.37471 12.917C2.26824 13.032 2.14438 13.1296 2.00769 13.2062C1.82614 13.289 1.62171 13.307 1.42849 13.2572C1.23526 13.2075 1.06493 13.0929 0.945955 12.9327C0.826979 12.7726 0.76655 12.5764 0.774724 12.3771C0.782899 12.1777 0.859193 11.9872 0.990883 11.8372C1.05028 11.7708 1.11677 11.7114 1.1797 11.6484L10.5432 2.28496C10.4215 2.28072 10.3459 2.27435 10.2703 2.27506C8.21587 2.27223 6.16103 2.27033 4.10571 2.26938C3.9757 2.27949 3.84502 2.26232 3.72203 2.21897C3.59904 2.17562 3.48644 2.10706 3.3915 2.01766C3.26886 1.90572 3.18264 1.75955 3.14394 1.59808C3.10525 1.4366 3.11586 1.26725 3.17444 1.11188C3.22438 0.950165 3.32185 0.807214 3.45415 0.701655C3.58644 0.596097 3.74741 0.532814 3.91618 0.520023C3.99804 0.513626 4.08021 0.512201 4.16224 0.515772L12.5019 0.520001C12.6424 0.496675 12.7864 0.50705 12.9221 0.550234C13.0578 0.593418 13.1814 0.66817 13.2826 0.768399C13.3838 0.868629 13.4598 0.991459 13.5043 1.12676C13.5487 1.26207 13.5605 1.40601 13.5385 1.54674C13.5408 4.36244 13.5442 7.17764 13.5484 9.9924C13.5624 10.15 13.5349 10.3085 13.4687 10.4521C13.4024 10.5958 13.2998 10.7196 13.1708 10.8112C13.0426 10.9053 12.8901 10.9608 12.7314 10.9712C12.5727 10.9816 12.4143 10.9465 12.2749 10.8699C12.1318 10.8009 12.0109 10.6929 11.9264 10.5583C11.8418 10.4237 11.7969 10.268 11.7969 10.1091C11.7926 10.0341 11.7912 9.96202 11.7941 9.88282L11.794 3.8017C11.7849 3.72462 11.7813 3.65036 11.7792 3.51247Z" fill="white"/>
</svg>
