<svg width="92" height="92" viewBox="0 0 92 92" fill="none" xmlns="http://www.w3.org/2000/svg">
<g filter="url(#filter0_d_96_11870)">
<path d="M76 40C76 23.4315 62.5685 10 46 10C29.4315 10 16 23.4315 16 40C16 56.5685 29.4315 70 46 70C62.5685 70 76 56.5685 76 40Z" fill="white"/>
</g>
<path d="M47.07 34.3601L47.07 47.6602C47.0946 47.8125 47.0946 47.9678 47.07 48.1202C47.003 48.3108 46.8718 48.4723 46.6988 48.5767C46.5257 48.6811 46.3218 48.7221 46.1219 48.6925C45.9219 48.663 45.7385 48.5646 45.6032 48.4146C45.4678 48.2645 45.3889 48.0721 45.38 47.8702L45.38 34.3601C45.3089 34.4186 45.2421 34.4822 45.1801 34.5502L40.8101 38.9002C40.727 39.0007 40.6232 39.0821 40.5059 39.1391C40.3886 39.196 40.2604 39.2271 40.13 39.2301C39.964 39.2394 39.7991 39.1974 39.6577 39.1098C39.5164 39.0221 39.4054 38.893 39.34 38.7401C39.259 38.5919 39.2253 38.4225 39.2432 38.2546C39.2611 38.0866 39.3296 37.9281 39.44 37.8002L39.61 37.6202L45.52 31.7301C45.6034 31.6145 45.7131 31.5203 45.84 31.4554C45.9669 31.3904 46.1075 31.3566 46.25 31.3566C46.3926 31.3566 46.5331 31.3904 46.6601 31.4554C46.787 31.5203 46.8966 31.6145 46.98 31.7301L52.98 37.7301C53.0989 37.8322 53.1899 37.9629 53.2442 38.1099C53.2984 38.2569 53.3142 38.4153 53.2901 38.5701C53.2614 38.7258 53.1912 38.871 53.0869 38.9901C52.9827 39.1093 52.8483 39.1981 52.6978 39.2472C52.5473 39.2964 52.3863 39.304 52.2318 39.2693C52.0774 39.2346 51.935 39.159 51.82 39.0502L51.6601 38.8902L47.35 34.5901L47.07 34.3601Z" fill="#575756"/>
<defs>
<filter id="filter0_d_96_11870" x="0" y="0" width="92" height="92" filterUnits="userSpaceOnUse" color-interpolation-filters="sRGB">
<feFlood flood-opacity="0" result="BackgroundImageFix"/>
<feColorMatrix in="SourceAlpha" type="matrix" values="0 0 0 0 0 0 0 0 0 0 0 0 0 0 0 0 0 0 127 0" result="hardAlpha"/>
<feOffset dy="6"/>
<feGaussianBlur stdDeviation="8"/>
<feColorMatrix type="matrix" values="0 0 0 0 0 0 0 0 0 0 0 0 0 0 0 0 0 0 0.1 0"/>
<feBlend mode="normal" in2="BackgroundImageFix" result="effect1_dropShadow_96_11870"/>
<feBlend mode="normal" in="SourceGraphic" in2="effect1_dropShadow_96_11870" result="shape"/>
</filter>
</defs>
</svg>
