<svg width="122" height="32" viewBox="0 0 122 32" fill="none" xmlns="http://www.w3.org/2000/svg">
<path d="M15.2037 10.3127C14.8329 9.93359 14.462 9.7061 13.9429 9.47861C13.4237 9.32695 12.9046 9.17529 12.3854 9.17529C11.4213 9.17529 10.6055 9.32695 10.0122 9.7061C9.41887 10.0852 8.89972 10.6161 8.5289 11.3743L8.45474 11.4502L8.38057 11.3743V9.17529H5.33984V22.3696H8.38057V15.0142C8.38057 12.9668 9.27054 11.981 10.9763 11.981C11.7921 11.981 12.3113 12.1326 12.6821 12.5118C12.9788 12.8909 13.2012 13.5734 13.2012 14.635V22.4454H16.3161V13.4976C16.3161 12.8151 16.242 12.2085 16.0195 11.6777C15.797 11.1469 15.5003 10.6919 15.2037 10.3127Z" fill="white"/>
<path d="M23.5843 8.26534H21.5818C21.5077 8.26534 21.5077 8.26534 21.5077 8.18951C21.5077 7.81036 21.5077 7.50704 21.5818 7.20372C21.656 6.90041 21.7302 6.67292 21.8785 6.52126C22.0268 6.3696 22.2493 6.21794 22.546 6.14211C22.8426 6.06628 23.1393 6.06628 23.5101 6.06628V3.33643C20.0986 3.33643 18.467 4.92884 18.467 8.11368C18.467 8.18951 18.467 8.18951 18.3928 8.18951H16.687V10.5402H18.3928C18.467 10.5402 18.467 10.5402 18.467 10.616V22.3696H21.5077V10.616C21.5077 10.5402 21.5077 10.5402 21.5818 10.5402H23.5843V8.26534Z" fill="white"/>
<path d="M35.4504 13.1184C35.1538 12.2842 34.783 11.6018 34.1896 11.071C33.6705 10.5402 33.003 10.0852 32.2614 9.78188C31.5197 9.47856 30.6298 9.3269 29.7398 9.3269C28.7757 9.3269 27.8857 9.47856 27.1441 9.78188C26.4024 10.0852 25.7349 10.5402 25.2158 11.1468C24.6966 11.7534 24.2516 12.4359 23.955 13.1942C23.6583 14.0283 23.51 14.9383 23.51 15.9241C23.51 16.9098 23.6583 17.8198 23.955 18.5781C24.2516 19.4122 24.6225 20.0947 25.1416 20.6255C25.6608 21.2321 26.3282 21.6871 27.0699 21.9904C27.8115 22.2937 28.7015 22.4454 29.6656 22.4454C30.6298 22.4454 31.4456 22.2937 32.1872 21.9904C32.9289 21.6871 33.5963 21.2321 34.1155 20.6255C34.6346 20.0188 35.0796 19.3364 35.3763 18.5781C35.6729 17.744 35.8213 16.834 35.8213 15.8482C35.8213 14.7866 35.6729 13.8767 35.4504 13.1184ZM29.7398 19.7155C27.7374 19.7155 26.6991 18.4264 26.6991 15.7724C26.6991 13.1942 27.7374 11.8293 29.7398 11.8293C31.7422 11.8293 32.7805 13.1184 32.7805 15.7724C32.7805 18.4264 31.7422 19.7155 29.7398 19.7155Z" fill="white"/>
<path d="M3.04073 3.2605H0V22.4453H3.04073V3.2605Z" fill="white"/>
<path d="M80.394 22.3697C81.2098 22.3697 81.9514 22.218 82.5447 21.9906C83.138 21.7631 83.6572 21.3839 84.028 20.9289H84.1022C84.1022 20.9289 84.1763 20.9289 84.1763 21.0048C84.1763 21.3839 84.2505 22.0664 84.3247 22.3697H87.2171V14.1043C87.2171 13.346 87.1429 12.5877 86.9204 11.9811C86.7721 11.3744 86.4754 10.8436 86.0304 10.4645C85.6596 10.0853 85.0663 9.7062 84.473 9.55454C83.8055 9.32705 82.9897 9.25122 82.0256 9.25122C81.0614 9.25122 80.2456 9.32705 79.5782 9.55454C78.9107 9.78203 78.3915 10.0853 77.9466 10.4645C77.5016 10.8436 77.2049 11.2986 77.0566 11.8294C76.9083 12.3602 76.7599 12.891 76.7599 13.4977H79.6523C79.7265 12.9669 79.949 12.5119 80.2456 12.1327C80.6165 11.7536 81.1356 11.6019 81.8773 11.6019C82.5447 11.6019 83.0639 11.7536 83.4347 11.9811C83.8055 12.2086 84.028 12.5877 84.028 13.0427C84.028 13.4977 83.8797 13.8768 83.583 14.1043C83.2864 14.3318 82.7672 14.4834 81.8773 14.5593C81.0614 14.7109 80.3198 14.7868 79.6523 14.9384C78.9849 15.0901 78.3915 15.3176 77.8724 15.6209C77.3532 15.9242 76.9824 16.3034 76.7599 16.8342C76.4633 17.365 76.3149 18.0474 76.3149 18.9574C76.3149 19.9432 76.6116 20.7773 77.2791 21.3839C77.9465 22.0664 78.9849 22.3697 80.394 22.3697ZM80.0231 17.365C80.394 17.0616 81.0614 16.8342 81.9514 16.6067C82.5447 16.455 82.9897 16.3792 83.2864 16.3034C83.583 16.2275 83.8055 16.0759 83.9538 15.9242H84.028L84.1022 16V17.365C84.1022 17.7441 84.028 18.1233 83.8797 18.4266C83.7314 18.8057 83.5089 19.109 83.2122 19.3365C82.9155 19.564 82.6189 19.7915 82.2481 19.9432C81.8773 20.0948 81.5064 20.1707 81.0614 20.1707C79.949 20.1707 79.4298 19.6398 79.4298 18.6541C79.4298 18.1233 79.6523 17.6683 80.0231 17.365Z" fill="white"/>
<path d="M49.8382 5.23216C49.2449 4.62553 48.5033 4.17055 47.6875 3.86723C46.8717 3.56391 45.9075 3.33643 44.9434 3.33643C43.7568 3.33643 42.7185 3.56391 41.7543 4.01889C40.7902 4.47387 39.9744 5.0805 39.3811 5.91462C38.7136 6.74875 38.1945 7.81036 37.8978 8.9478C37.527 10.1611 37.3787 11.526 37.3787 13.0426C37.3787 14.5592 37.6012 15.9241 37.972 17.0615C38.3428 18.199 38.8619 19.1848 39.5294 19.9431C40.1969 20.7014 41.0127 21.308 41.9027 21.6871C42.7926 22.0663 43.8309 22.2938 44.8692 22.2938C45.8334 22.2938 46.7233 22.1421 47.465 21.8388C48.2808 21.5355 48.9483 21.0805 49.5416 20.4739C50.1349 19.8672 50.654 19.1848 51.0249 18.3506C51.3957 17.5924 51.6923 16.6824 51.8407 15.6966H48.5774C48.355 16.8341 47.91 17.6682 47.3167 18.2748C46.6492 18.8815 45.8334 19.1848 44.7951 19.1848C43.4601 19.1848 42.4218 18.5781 41.6802 17.4407C41.0127 16.3033 40.6419 14.7108 40.6419 12.7393C40.6419 10.7677 41.0127 9.17529 41.6802 8.03785C42.3477 6.90041 43.4601 6.29377 44.9434 6.29377C45.7592 6.29377 46.575 6.59709 47.2425 7.20372C47.91 7.73453 48.355 8.56865 48.5774 9.55444H51.9148C51.8407 8.72031 51.6182 7.88619 51.2474 7.12789C50.8765 6.44543 50.4315 5.76297 49.8382 5.23216Z" fill="white"/>
<path d="M56.5131 22.3697C57.3289 22.3697 58.0706 22.218 58.6639 21.9906C59.2572 21.7631 59.7763 21.3839 60.1472 20.9289H60.2213C60.2213 20.9289 60.2955 20.9289 60.2955 21.0048C60.2955 21.3839 60.3696 22.0664 60.4438 22.3697H63.3362V14.1043C63.3362 13.346 63.262 12.5877 63.0396 11.9811C62.8912 11.3744 62.5946 10.8436 62.1496 10.4645C61.7788 10.0853 61.1854 9.7062 60.5921 9.55454C59.9247 9.32705 59.1089 9.25122 58.1447 9.25122C57.1806 9.25122 56.3648 9.32705 55.6973 9.55454C55.0298 9.78203 54.5107 10.0853 54.0657 10.4645C53.6207 10.8436 53.3241 11.2986 53.1757 11.8294C53.0274 12.3602 52.8791 12.891 52.8791 13.4977H55.7715C55.8456 12.9669 56.0681 12.5119 56.3648 12.1327C56.7356 11.7536 57.2548 11.6019 57.9964 11.6019C58.6639 11.6019 59.183 11.7536 59.5538 11.9811C59.9247 12.2086 60.1472 12.5877 60.1472 13.0427C60.1472 13.4977 59.9988 13.8768 59.7022 14.1043C59.4055 14.3318 58.8864 14.4834 57.9964 14.5593C57.1806 14.7109 56.4389 14.7868 55.7715 14.9384C55.104 15.0901 54.5107 15.3176 53.9915 15.6209C53.4724 15.9242 53.1016 16.3034 52.8791 16.8342C52.5824 17.365 52.4341 18.0474 52.4341 18.9574C52.4341 19.9432 52.7307 20.7773 53.3982 21.3839C54.1399 22.0664 55.104 22.3697 56.5131 22.3697ZM56.1423 17.365C56.5131 17.0616 57.1806 16.8342 58.0706 16.6067C58.6639 16.455 59.1089 16.3792 59.4055 16.3034C59.7022 16.2275 59.9247 16.0759 60.073 15.9242H60.1472L60.2213 16V17.365C60.2213 17.7441 60.1472 18.1233 59.9988 18.4266C59.8505 18.8057 59.628 19.109 59.3313 19.3365C59.0347 19.564 58.738 19.7915 58.3672 19.9432C57.9964 20.0948 57.6256 20.1707 57.1806 20.1707C56.0681 20.1707 55.549 19.6398 55.549 18.6541C55.549 18.1233 55.7715 17.6683 56.1423 17.365Z" fill="white"/>
<path d="M64.5227 18.1233C64.5969 19.3365 65.116 20.3981 66.0802 21.1564C67.0443 21.9906 68.5276 22.3697 70.3817 22.3697C72.0874 22.3697 73.4224 21.9906 74.3124 21.3081C75.2023 20.6256 75.6473 19.564 75.6473 18.2749C75.6473 17.4408 75.499 16.8342 75.1282 16.3792C74.7574 15.9242 74.3124 15.5451 73.6449 15.3176C73.1999 15.1659 72.6066 14.9384 72.0133 14.7868C71.42 14.6351 70.7525 14.4076 70.0109 14.256C69.3434 14.1043 68.8242 13.8768 68.5276 13.6493C68.1567 13.4218 68.0084 13.1185 68.0084 12.7394C68.0084 12.3602 68.1567 12.0569 68.5276 11.8294C68.8984 11.6778 69.3434 11.6019 70.0109 11.6019C70.7525 11.6019 71.3458 11.7536 71.7166 11.9811C72.0874 12.2086 72.3099 12.6635 72.3841 13.2702H75.3507C75.2765 11.9811 74.8315 10.9953 74.0157 10.3128C73.1999 9.63037 71.865 9.25122 70.1592 9.25122C69.2692 9.25122 68.4534 9.32705 67.7859 9.55454C67.1185 9.7062 66.5993 10.0095 66.2285 10.3128C65.8577 10.6162 65.561 10.9953 65.3385 11.4503C65.1902 11.9052 65.0419 12.3602 65.0419 12.891C65.0419 13.4218 65.116 13.9526 65.3385 14.4076C65.561 14.8626 65.9318 15.3176 66.5251 15.6967C66.9701 16 67.4893 16.2275 68.0826 16.455C68.6759 16.6825 69.5659 16.91 70.53 17.1375C71.0491 17.2891 71.5683 17.4408 71.9391 17.6683C72.3841 17.8958 72.5324 18.1991 72.5324 18.6541C72.5324 19.1849 72.3099 19.564 71.865 19.7157C71.42 19.9432 70.9008 20.019 70.3075 20.019C69.4917 20.019 68.8242 19.8673 68.3792 19.4882C67.9343 19.1849 67.7118 18.7299 67.7118 18.1233H64.5227Z" fill="white"/>
<path d="M89.8868 21.1564C90.8509 21.9906 92.3342 22.3697 94.1883 22.3697C95.8941 22.3697 97.229 21.9906 98.119 21.3081C99.009 20.6256 99.454 19.564 99.454 18.2749C99.454 17.4408 99.3056 16.8342 98.9348 16.3792C98.564 15.9242 98.119 15.5451 97.4515 15.3176C97.0065 15.1659 96.4132 14.9384 95.8199 14.7868C95.2266 14.6351 94.5591 14.4076 93.8175 14.256C93.15 14.1043 92.6309 13.8768 92.3342 13.6493C91.9634 13.4218 91.8151 13.1185 91.8151 12.7394C91.8151 12.3602 91.9634 12.0569 92.3342 11.8294C92.705 11.6778 93.15 11.6019 93.8175 11.6019C94.5591 11.6019 95.1524 11.7536 95.5233 11.9811C95.8941 12.2086 96.1166 12.6635 96.1907 13.2702H99.1573C99.0831 11.9811 98.6382 10.9953 97.8224 10.3128C97.0065 9.63037 95.6716 9.25122 93.9658 9.25122C93.0758 9.25122 92.26 9.32705 91.5926 9.55454C90.9251 9.7062 90.4059 10.0095 90.0351 10.3128C89.6643 10.6162 89.3676 10.9953 89.1452 11.4503C88.9968 11.9052 88.8485 12.3602 88.8485 12.891C88.8485 13.4218 88.9227 13.9526 89.1452 14.4076C89.3676 14.8626 89.7385 15.3176 90.3318 15.6967C90.7768 16 91.2959 16.2275 91.8892 16.455C92.4825 16.6825 93.3725 16.91 94.3366 17.1375C94.8558 17.2891 95.3749 17.4408 95.7458 17.6683C96.1907 17.8958 96.3391 18.1991 96.3391 18.6541C96.3391 19.1849 96.1166 19.564 95.6716 19.7157C95.2266 19.9432 94.7075 20.019 94.1142 20.019C93.2983 20.019 92.6309 19.8673 92.1859 19.4882C91.7409 19.1849 91.5184 18.7299 91.5184 18.1233H88.3293C88.4035 19.4124 88.9227 20.3981 89.8868 21.1564Z" fill="white"/>
<path d="M121.481 7.20372L113.323 0.379074C112.73 -0.0759023 111.914 -0.0759023 111.32 0.379074L103.162 7.20372C102.792 7.50704 102.569 7.96201 102.569 8.41699V20.7772C102.569 21.6871 103.237 22.3696 104.127 22.3696H120.517H120.591L115.696 16.7582C114.732 17.4407 113.545 17.8957 112.285 17.8957C109.021 17.8957 106.426 15.2416 106.426 11.9051C106.426 8.56865 109.021 5.91462 112.285 5.91462C115.548 5.91462 118.144 8.56865 118.144 11.9051C118.144 13.4217 117.624 14.7867 116.734 15.8483L121.778 21.6871C121.926 21.4596 122 21.1563 122 20.853V8.41699C122 7.96201 121.852 7.50704 121.481 7.20372Z" fill="white"/>
<path d="M112.285 16.6824C114.865 16.6824 116.957 14.5436 116.957 11.9052C116.957 9.26678 114.865 7.12793 112.285 7.12793C109.704 7.12793 107.612 9.26678 107.612 11.9052C107.612 14.5436 109.704 16.6824 112.285 16.6824Z" fill="white"/>
</svg>
