<svg width="18" height="18" viewBox="0 0 18 18" fill="none" xmlns="http://www.w3.org/2000/svg">
<path d="M12.8833 17.26H4.47342H4.30337C3.68579 17.2051 3.08809 17.0138 2.55337 16.7C1.82041 16.3004 1.21214 15.7062 0.795684 14.9827C0.379224 14.2592 0.170784 13.4346 0.193389 12.6001C0.193389 10.0601 0.193389 7.51998 0.193389 4.97998C0.180948 4.64467 0.207754 4.30905 0.273346 3.97998C0.429074 3.11289 0.834756 2.31024 1.44058 1.67065C2.04641 1.03107 2.826 0.582595 3.68338 0.380127C3.93338 0.310127 4.20341 0.28999 4.46341 0.23999H12.8733C13.0533 0.23999 13.2334 0.240068 13.4134 0.320068C14.2802 0.480126 15.0819 0.888463 15.721 1.49561C16.3601 2.10275 16.8091 2.88247 17.0133 3.73999C17.0833 3.99999 17.1034 4.26002 17.1534 4.52002V12.96C17.1534 13.14 17.1534 13.32 17.0634 13.49C16.907 14.3579 16.5012 15.1614 15.8957 15.8025C15.2901 16.4436 14.5109 16.8946 13.6534 17.1001C13.4134 17.1901 13.1633 17.26 12.8833 17.26ZM8.68338 4.11011C7.76286 4.10615 6.86183 4.3755 6.09451 4.88403C5.3272 5.39257 4.72809 6.11723 4.37308 6.96655C4.01806 7.81587 3.92309 8.75146 4.10025 9.65479C4.27741 10.5581 4.71868 11.3887 5.36819 12.041C6.0177 12.6933 6.84626 13.138 7.74881 13.3191C8.65136 13.5001 9.5873 13.4092 10.4381 13.0579C11.289 12.7065 12.0164 12.1106 12.5282 11.3455C13.0401 10.5803 13.3134 9.68054 13.3134 8.76001C13.3108 7.53101 12.8228 6.35284 11.9556 5.48193C11.0884 4.61103 9.91235 4.11802 8.68338 4.11011ZM13.4234 5.20996C13.6138 5.22622 13.8055 5.20283 13.9864 5.14111C14.1672 5.07939 14.3334 4.98083 14.4742 4.85156C14.6149 4.7223 14.7272 4.56511 14.8041 4.39014C14.881 4.21516 14.9207 4.02608 14.9207 3.83496C14.9207 3.64384 14.881 3.45476 14.8041 3.27979C14.7272 3.10481 14.6149 2.94787 14.4742 2.8186C14.3334 2.68934 14.1672 2.59077 13.9864 2.52905C13.8055 2.46733 13.6138 2.44371 13.4234 2.45996C13.0789 2.48936 12.7581 2.647 12.5243 2.90161C12.2905 3.15623 12.1607 3.48928 12.1607 3.83496C12.1607 4.18064 12.2905 4.51369 12.5243 4.76831C12.7581 5.02293 13.0789 5.18056 13.4234 5.20996Z" fill="white"/>
<path d="M12.3234 8.76001C12.3234 9.48191 12.1094 10.1876 11.7083 10.7878C11.3073 11.3881 10.7371 11.8558 10.0702 12.1321C9.4032 12.4083 8.66942 12.4807 7.96139 12.3398C7.25336 12.199 6.60295 11.8515 6.09249 11.3411C5.58203 10.8306 5.23443 10.1802 5.09359 9.47217C4.95275 8.76414 5.02497 8.03023 5.30123 7.36328C5.57749 6.69633 6.04535 6.12616 6.64559 5.7251C7.24583 5.32403 7.95152 5.11011 8.67342 5.11011C9.64065 5.11275 10.5675 5.49795 11.2514 6.18188C11.9354 6.86582 12.3208 7.79278 12.3234 8.76001Z" fill="white"/>
<path d="M13.8034 3.83984C13.7985 3.93641 13.758 4.02758 13.6896 4.09595C13.6212 4.16432 13.5299 4.20488 13.4334 4.20972C13.3826 4.20973 13.3323 4.19965 13.2855 4.17993C13.2388 4.16021 13.1964 4.13132 13.161 4.09497C13.1256 4.05862 13.0979 4.01553 13.0794 3.96826C13.0609 3.921 13.052 3.87056 13.0534 3.81982C13.0679 3.73088 13.1136 3.64991 13.1823 3.59155C13.251 3.5332 13.3382 3.50122 13.4284 3.50122C13.5185 3.50122 13.6056 3.5332 13.6743 3.59155C13.743 3.64991 13.7888 3.73088 13.8034 3.81982V3.83984Z" fill="white"/>
</svg>
