<svg width="22" height="22" viewBox="0 0 22 22" fill="none" xmlns="http://www.w3.org/2000/svg">
<path d="M12.1104 21.2299H7.88037V7.45988H11.9403V9.27995L12.0803 9.19987C12.5261 8.49122 13.1586 7.91931 13.9084 7.54704C14.6583 7.17476 15.4964 7.01668 16.3303 7.09C16.9022 7.10647 17.47 7.19382 18.0204 7.35001C18.77 7.54394 19.4442 7.95806 19.9558 8.53922C20.4674 9.12039 20.793 9.84164 20.8904 10.6098C21.0765 11.5993 21.1768 12.603 21.1903 13.6098C21.1903 16.0398 21.1903 18.4698 21.1903 20.8998C21.1903 21.0198 21.1903 21.1299 21.1903 21.2599H16.9303V20.84C16.9303 18.61 16.9303 16.3798 16.9303 14.1598C16.9304 13.6362 16.8801 13.114 16.7803 12.6C16.7391 12.1811 16.5577 11.7881 16.2655 11.485C15.9733 11.182 15.5875 10.9864 15.1703 10.9298C14.6693 10.8071 14.1419 10.8532 13.6699 11.0612C13.1979 11.2692 12.8078 11.6275 12.5603 12.08C12.2342 12.7939 12.0867 13.5762 12.1304 14.3598C12.1304 16.4898 12.1304 18.6299 12.1304 20.7699L12.1104 21.2299Z" fill="white"/>
<path d="M0.910156 7.44946H5.14026V21.2295H0.910156V7.44946Z" fill="white"/>
<path d="M2.99006 5.53978C2.49604 5.5378 2.01363 5.38941 1.60383 5.11351C1.19402 4.83761 0.875133 4.44647 0.687446 3.98949C0.49976 3.5325 0.451673 3.03018 0.549263 2.54588C0.646852 2.06159 0.88576 1.61717 1.23579 1.26854C1.58581 0.919908 2.03126 0.682799 2.51594 0.587143C3.00062 0.491488 3.50282 0.541433 3.95905 0.730942C4.41529 0.920452 4.80515 1.24094 5.07941 1.65184C5.35368 2.06274 5.50006 2.54575 5.50007 3.03978C5.5014 3.3693 5.43726 3.69566 5.31147 4.00023C5.18568 4.3048 5.00075 4.58141 4.76728 4.81395C4.53381 5.04649 4.25643 5.23039 3.95136 5.35497C3.64629 5.47954 3.31957 5.54243 2.99006 5.53978Z" fill="white"/>
</svg>
