<svg width="339" height="99" viewBox="0 0 339 99" fill="none" xmlns="http://www.w3.org/2000/svg">
<path d="M141.971 44.1921C144.917 45.125 147.225 46.6962 148.894 48.9056C150.563 51.0659 151.398 53.7418 151.398 56.9332C151.398 61.4503 149.63 64.9363 146.095 67.3912C142.609 69.7971 137.503 71 130.777 71H104.116V19.4464H129.304C135.588 19.4464 140.4 20.6493 143.739 23.0551C147.126 25.461 148.82 28.726 148.82 32.8503C148.82 35.3544 148.207 37.5884 146.979 39.5523C145.801 41.5162 144.131 43.0629 141.971 44.1921ZM115.973 28.4315V40.5834H127.831C130.777 40.5834 133.011 40.0678 134.533 39.0368C136.055 38.0057 136.816 36.4836 136.816 34.4706C136.816 32.4575 136.055 30.96 134.533 29.9781C133.011 28.947 130.777 28.4315 127.831 28.4315H115.973ZM129.893 62.0149C133.035 62.0149 135.392 61.4994 136.963 60.4683C138.583 59.4373 139.393 57.8416 139.393 55.6812C139.393 51.4096 136.226 49.2738 129.893 49.2738H115.973V62.0149H129.893ZM170.594 36.6064C171.969 34.6915 173.81 33.2431 176.118 32.2611C178.475 31.2792 181.175 30.7882 184.219 30.7882V41.3935C182.943 41.2953 182.083 41.2462 181.641 41.2462C178.352 41.2462 175.774 42.1791 173.908 44.0448C172.043 45.8615 171.11 48.611 171.11 52.2934V71H159.621V31.3774H170.594V36.6064ZM191.051 31.3774H202.54V71H191.051V31.3774ZM196.795 25.8538C194.684 25.8538 192.965 25.24 191.64 24.0126C190.314 22.7851 189.651 21.263 189.651 19.4464C189.651 17.6297 190.314 16.1077 191.64 14.8802C192.965 13.6528 194.684 13.039 196.795 13.039C198.906 13.039 200.625 13.6282 201.95 14.8066C203.276 15.9849 203.939 17.4579 203.939 19.2255C203.939 21.1403 203.276 22.736 201.95 24.0126C200.625 25.24 198.906 25.8538 196.795 25.8538ZM232.351 71.5892C228.128 71.5892 224.323 70.73 220.935 69.0115C217.597 67.244 214.97 64.8136 213.055 61.7204C211.189 58.6271 210.257 55.1166 210.257 51.1887C210.257 47.2608 211.189 43.7502 213.055 40.657C214.97 37.5638 217.597 35.158 220.935 33.4395C224.323 31.672 228.128 30.7882 232.351 30.7882C236.524 30.7882 240.158 31.672 243.251 33.4395C246.393 35.158 248.676 37.6375 250.1 40.878L241.189 45.6651C239.127 42.0318 236.156 40.2151 232.277 40.2151C229.282 40.2151 226.803 41.1971 224.839 43.1611C222.875 45.125 221.893 47.8009 221.893 51.1887C221.893 54.5765 222.875 57.2524 224.839 59.2163C226.803 61.1803 229.282 62.1622 232.277 62.1622C236.205 62.1622 239.176 60.3456 241.189 56.7123L250.1 61.5731C248.676 64.7154 246.393 67.1703 243.251 68.9379C240.158 70.7054 236.524 71.5892 232.351 71.5892ZM273.44 55.4603L267.917 60.9102V71H256.428V16.3532H267.917V47.2853L284.708 31.3774H298.407L281.91 48.1691L299.88 71H285.96L273.44 55.4603ZM317.082 71.5892C313.793 71.5892 310.577 71.1964 307.435 70.4108C304.292 69.5761 301.788 68.5451 299.922 67.3176L303.752 59.069C305.52 60.1983 307.655 61.1312 310.159 61.8676C312.664 62.555 315.118 62.8987 317.524 62.8987C322.385 62.8987 324.815 61.6958 324.815 59.29C324.815 58.1607 324.153 57.3506 322.827 56.8596C321.501 56.3686 319.464 55.9513 316.714 55.6076C313.474 55.1166 310.798 54.5519 308.687 53.9137C306.575 53.2754 304.734 52.1461 303.163 50.5259C301.641 48.9056 300.88 46.598 300.88 43.6029C300.88 41.0989 301.592 38.8895 303.016 36.9746C304.489 35.0107 306.6 33.4886 309.349 32.4084C312.148 31.3283 315.438 30.7882 319.218 30.7882C322.017 30.7882 324.791 31.1073 327.54 31.7456C330.339 32.3348 332.647 33.1695 334.463 34.2496L330.634 42.4246C327.148 40.4606 323.342 39.4787 319.218 39.4787C316.763 39.4787 314.922 39.8223 313.695 40.5097C312.467 41.1971 311.853 42.0809 311.853 43.1611C311.853 44.3885 312.516 45.2477 313.842 45.7387C315.168 46.2297 317.279 46.6962 320.176 47.138C323.416 47.6781 326.067 48.2673 328.13 48.9056C330.192 49.4948 331.984 50.5995 333.506 52.2198C335.028 53.84 335.789 56.0986 335.789 58.9954C335.789 61.4503 335.053 63.6352 333.58 65.55C332.107 67.4649 329.946 68.9624 327.099 70.0426C324.3 71.0736 320.961 71.5892 317.082 71.5892Z" fill="#1D1643"/>
<path d="M112.887 94.552L110.002 90.5089C109.575 90.5665 109.184 90.5953 108.827 90.5953H105.371V94.552H104.49V82.4574H108.827C110.347 82.4574 111.539 82.8202 112.403 83.5459C113.267 84.2601 113.699 85.2564 113.699 86.535C113.699 87.4911 113.452 88.2974 112.956 88.9539C112.472 89.599 111.776 90.054 110.866 90.3189L113.889 94.552H112.887ZM108.827 89.8178C110.117 89.8178 111.102 89.5356 111.781 88.9712C112.461 88.3953 112.801 87.5832 112.801 86.535C112.801 85.4868 112.461 84.6805 111.781 84.1161C111.102 83.5402 110.117 83.2522 108.827 83.2522H105.371V89.8178H108.827ZM124.269 90.2498H116.511C116.534 90.9524 116.712 91.5802 117.046 92.1331C117.38 92.6745 117.83 93.0949 118.394 93.3944C118.97 93.6939 119.615 93.8436 120.329 93.8436C120.917 93.8436 121.458 93.7399 121.953 93.5326C122.46 93.3137 122.881 92.997 123.215 92.5823L123.716 93.1525C123.324 93.6247 122.829 93.9876 122.23 94.241C121.642 94.4944 121.003 94.6211 120.312 94.6211C119.413 94.6211 118.613 94.4253 117.91 94.0337C117.208 93.642 116.655 93.1006 116.252 92.4095C115.86 91.7184 115.664 90.9294 115.664 90.0424C115.664 89.167 115.848 88.3838 116.217 87.6926C116.597 86.99 117.115 86.4429 117.772 86.0512C118.429 85.6596 119.166 85.4638 119.984 85.4638C120.801 85.4638 121.533 85.6596 122.178 86.0512C122.835 86.4313 123.347 86.967 123.716 87.6581C124.096 88.3492 124.286 89.1325 124.286 90.0079L124.269 90.2498ZM119.984 86.224C119.35 86.224 118.78 86.368 118.273 86.656C117.766 86.9324 117.357 87.3298 117.046 87.8481C116.747 88.355 116.574 88.9309 116.528 89.5759H123.439C123.405 88.9309 123.232 88.355 122.921 87.8481C122.61 87.3413 122.201 86.9439 121.694 86.656C121.187 86.368 120.617 86.224 119.984 86.224ZM129.746 85.4638C130.864 85.4638 131.722 85.7517 132.321 86.3277C132.92 86.8921 133.219 87.7272 133.219 88.833V94.552H132.39V92.9451C132.102 93.475 131.681 93.8897 131.128 94.1892C130.576 94.4771 129.913 94.6211 129.142 94.6211C128.139 94.6211 127.345 94.385 126.757 93.9127C126.181 93.4405 125.893 92.8184 125.893 92.0467C125.893 91.298 126.158 90.6932 126.688 90.2325C127.229 89.7602 128.088 89.5241 129.262 89.5241H132.355V88.7984C132.355 87.9576 132.125 87.3183 131.664 86.8806C131.215 86.4429 130.553 86.224 129.677 86.224C129.078 86.224 128.502 86.3277 127.949 86.535C127.408 86.7423 126.947 87.0188 126.567 87.3644L126.135 86.7423C126.584 86.3392 127.126 86.0282 127.759 85.8093C128.393 85.579 129.055 85.4638 129.746 85.4638ZM129.262 93.9127C130.011 93.9127 130.645 93.7399 131.163 93.3944C131.693 93.0488 132.09 92.5478 132.355 91.8912V90.1979H129.28C128.393 90.1979 127.748 90.3592 127.345 90.6817C126.953 91.0043 126.757 91.4477 126.757 92.0121C126.757 92.5996 126.976 93.0661 127.414 93.4117C127.851 93.7457 128.468 93.9127 129.262 93.9127ZM136.779 81.7317H137.642V94.552H136.779V81.7317ZM154.343 93.7572V94.552H145.998V82.4574H154.084V83.2522H146.879V88.0209H153.324V88.7984H146.879V93.7572H154.343ZM159.408 94.6211C158.682 94.6211 157.991 94.5117 157.335 94.2928C156.678 94.074 156.166 93.7975 155.797 93.4635L156.194 92.7724C156.563 93.0834 157.035 93.3425 157.611 93.5499C158.199 93.7572 158.809 93.8609 159.443 93.8609C160.353 93.8609 161.021 93.7111 161.447 93.4117C161.885 93.1122 162.103 92.6975 162.103 92.1676C162.103 91.7875 161.983 91.488 161.741 91.2692C161.51 91.0503 161.222 90.8891 160.877 90.7854C160.531 90.6817 160.053 90.5723 159.443 90.4571C158.729 90.3304 158.153 90.1922 157.715 90.0424C157.277 89.8927 156.903 89.6508 156.592 89.3168C156.281 88.9827 156.125 88.522 156.125 87.9345C156.125 87.2204 156.419 86.6329 157.006 86.1722C157.605 85.6999 158.452 85.4638 159.546 85.4638C160.122 85.4638 160.692 85.5444 161.257 85.7057C161.821 85.8669 162.282 86.08 162.639 86.345L162.242 87.0361C161.873 86.7711 161.453 86.5696 160.98 86.4313C160.508 86.2931 160.024 86.224 159.529 86.224C158.688 86.224 158.055 86.3795 157.628 86.6905C157.202 87.0015 156.989 87.4104 156.989 87.9172C156.989 88.3204 157.11 88.6372 157.352 88.8675C157.594 89.0864 157.888 89.2534 158.233 89.3686C158.59 89.4723 159.086 89.5875 159.719 89.7142C160.422 89.8409 160.986 89.9791 161.412 90.1288C161.85 90.2671 162.219 90.4974 162.518 90.82C162.818 91.1425 162.967 91.5859 162.967 92.1504C162.967 92.8991 162.656 93.498 162.034 93.9473C161.412 94.3965 160.537 94.6211 159.408 94.6211ZM169.853 93.9818C169.634 94.1892 169.358 94.3504 169.024 94.4656C168.701 94.5693 168.362 94.6211 168.005 94.6211C167.221 94.6211 166.617 94.408 166.19 93.9818C165.764 93.5441 165.551 92.9394 165.551 92.1676V86.2758H163.892V85.5329H165.551V83.5632H166.415V85.5329H169.283V86.2758H166.415V92.0812C166.415 92.6687 166.553 93.1179 166.83 93.4289C167.118 93.7284 167.538 93.8782 168.091 93.8782C168.655 93.8782 169.122 93.7111 169.491 93.3771L169.853 93.9818ZM175.303 85.4638C176.421 85.4638 177.279 85.7517 177.878 86.3277C178.477 86.8921 178.776 87.7272 178.776 88.833V94.552H177.947V92.9451C177.659 93.475 177.239 93.8897 176.686 94.1892C176.133 94.4771 175.47 94.6211 174.699 94.6211C173.697 94.6211 172.902 94.385 172.314 93.9127C171.738 93.4405 171.45 92.8184 171.45 92.0467C171.45 91.298 171.715 90.6932 172.245 90.2325C172.787 89.7602 173.645 89.5241 174.82 89.5241H177.912V88.7984C177.912 87.9576 177.682 87.3183 177.221 86.8806C176.772 86.4429 176.11 86.224 175.234 86.224C174.635 86.224 174.059 86.3277 173.507 86.535C172.965 86.7423 172.504 87.0188 172.124 87.3644L171.692 86.7423C172.142 86.3392 172.683 86.0282 173.317 85.8093C173.95 85.579 174.612 85.4638 175.303 85.4638ZM174.82 93.9127C175.568 93.9127 176.202 93.7399 176.72 93.3944C177.25 93.0488 177.648 92.5478 177.912 91.8912V90.1979H174.837C173.95 90.1979 173.305 90.3592 172.902 90.6817C172.51 91.0043 172.314 91.4477 172.314 92.0121C172.314 92.5996 172.533 93.0661 172.971 93.4117C173.409 93.7457 174.025 93.9127 174.82 93.9127ZM186.811 93.9818C186.592 94.1892 186.315 94.3504 185.981 94.4656C185.659 94.5693 185.319 94.6211 184.962 94.6211C184.179 94.6211 183.574 94.408 183.148 93.9818C182.722 93.5441 182.509 92.9394 182.509 92.1676V86.2758H180.85V85.5329H182.509V83.5632H183.372V85.5329H186.241V86.2758H183.372V92.0812C183.372 92.6687 183.511 93.1179 183.787 93.4289C184.075 93.7284 184.496 93.8782 185.048 93.8782C185.613 93.8782 186.079 93.7111 186.448 93.3771L186.811 93.9818ZM196.519 90.2498H188.761C188.784 90.9524 188.963 91.5802 189.297 92.1331C189.631 92.6745 190.08 93.0949 190.644 93.3944C191.22 93.6939 191.865 93.8436 192.58 93.8436C193.167 93.8436 193.708 93.7399 194.204 93.5326C194.711 93.3137 195.131 92.997 195.465 92.5823L195.966 93.1525C195.574 93.6247 195.079 93.9876 194.48 94.241C193.893 94.4944 193.253 94.6211 192.562 94.6211C191.664 94.6211 190.863 94.4253 190.161 94.0337C189.458 93.642 188.905 93.1006 188.502 92.4095C188.11 91.7184 187.915 90.9294 187.915 90.0424C187.915 89.167 188.099 88.3838 188.467 87.6926C188.848 86.99 189.366 86.4429 190.022 86.0512C190.679 85.6596 191.416 85.4638 192.234 85.4638C193.052 85.4638 193.783 85.6596 194.428 86.0512C195.085 86.4313 195.597 86.967 195.966 87.6581C196.346 88.3492 196.536 89.1325 196.536 90.0079L196.519 90.2498ZM192.234 86.224C191.6 86.224 191.03 86.368 190.524 86.656C190.017 86.9324 189.608 87.3298 189.297 87.8481C188.997 88.355 188.824 88.9309 188.778 89.5759H195.69C195.655 88.9309 195.482 88.355 195.171 87.8481C194.86 87.3413 194.451 86.9439 193.945 86.656C193.438 86.368 192.868 86.224 192.234 86.224ZM215.361 94.552L215.344 84.2025L210.281 92.9451H209.849L204.787 84.237V94.552H203.923V82.4574H204.666L210.074 91.8048L215.482 82.4574H216.208L216.225 94.552H215.361ZM223.206 85.4638C224.323 85.4638 225.182 85.7517 225.78 86.3277C226.379 86.8921 226.679 87.7272 226.679 88.833V94.552H225.85V92.9451C225.562 93.475 225.141 93.8897 224.588 94.1892C224.035 94.4771 223.373 94.6211 222.601 94.6211C221.599 94.6211 220.804 94.385 220.217 93.9127C219.641 93.4405 219.353 92.8184 219.353 92.0467C219.353 91.298 219.618 90.6932 220.148 90.2325C220.689 89.7602 221.547 89.5241 222.722 89.5241H225.815V88.7984C225.815 87.9576 225.585 87.3183 225.124 86.8806C224.675 86.4429 224.012 86.224 223.137 86.224C222.538 86.224 221.962 86.3277 221.409 86.535C220.868 86.7423 220.407 87.0188 220.027 87.3644L219.595 86.7423C220.044 86.3392 220.586 86.0282 221.219 85.8093C221.853 85.579 222.515 85.4638 223.206 85.4638ZM222.722 93.9127C223.471 93.9127 224.105 93.7399 224.623 93.3944C225.153 93.0488 225.55 92.5478 225.815 91.8912V90.1979H222.74C221.853 90.1979 221.208 90.3592 220.804 90.6817C220.413 91.0043 220.217 91.4477 220.217 92.0121C220.217 92.5996 220.436 93.0661 220.874 93.4117C221.311 93.7457 221.927 93.9127 222.722 93.9127ZM231.068 87.5026C231.344 86.846 231.776 86.345 232.364 85.9994C232.951 85.6423 233.665 85.4638 234.506 85.4638V86.3104L234.299 86.2931C233.297 86.2931 232.513 86.6099 231.949 87.2434C231.384 87.8654 231.102 88.7351 231.102 89.8524V94.552H230.238V85.5329H231.068V87.5026ZM240.1 89.7314L237.75 91.8739V94.552H236.886V81.7317H237.75V90.8027L243.521 85.5329H244.627L240.739 89.1785L245.007 94.552H243.936L240.1 89.7314ZM254.292 90.2498H246.534C246.557 90.9524 246.736 91.5802 247.07 92.1331C247.404 92.6745 247.853 93.0949 248.418 93.3944C248.994 93.6939 249.639 93.8436 250.353 93.8436C250.94 93.8436 251.482 93.7399 251.977 93.5326C252.484 93.3137 252.904 92.997 253.238 92.5823L253.739 93.1525C253.348 93.6247 252.852 93.9876 252.253 94.241C251.666 94.4944 251.027 94.6211 250.336 94.6211C249.437 94.6211 248.637 94.4253 247.934 94.0337C247.231 93.642 246.678 93.1006 246.275 92.4095C245.884 91.7184 245.688 90.9294 245.688 90.0424C245.688 89.167 245.872 88.3838 246.241 87.6926C246.621 86.99 247.139 86.4429 247.796 86.0512C248.452 85.6596 249.19 85.4638 250.007 85.4638C250.825 85.4638 251.557 85.6596 252.202 86.0512C252.858 86.4313 253.371 86.967 253.739 87.6581C254.12 88.3492 254.31 89.1325 254.31 90.0079L254.292 90.2498ZM250.007 86.224C249.374 86.224 248.804 86.368 248.297 86.656C247.79 86.9324 247.381 87.3298 247.07 87.8481C246.771 88.355 246.598 88.9309 246.552 89.5759H253.463C253.428 88.9309 253.256 88.355 252.945 87.8481C252.634 87.3413 252.225 86.9439 251.718 86.656C251.211 86.368 250.641 86.224 250.007 86.224ZM261.457 93.9818C261.238 94.1892 260.962 94.3504 260.628 94.4656C260.305 94.5693 259.965 94.6211 259.608 94.6211C258.825 94.6211 258.22 94.408 257.794 93.9818C257.368 93.5441 257.155 92.9394 257.155 92.1676V86.2758H255.496V85.5329H257.155V83.5632H258.019V85.5329H260.887V86.2758H258.019V92.0812C258.019 92.6687 258.157 93.1179 258.433 93.4289C258.721 93.7284 259.142 93.8782 259.695 93.8782C260.259 93.8782 260.726 93.7111 261.094 93.3771L261.457 93.9818ZM263.866 85.5329H264.73V94.552H263.866V85.5329ZM264.298 83.3386C264.102 83.3386 263.935 83.2752 263.797 83.1485C263.659 83.0103 263.59 82.8433 263.59 82.6475C263.59 82.4516 263.659 82.2846 263.797 82.1464C263.935 82.0082 264.102 81.9391 264.298 81.9391C264.494 81.9391 264.661 82.0082 264.799 82.1464C264.938 82.2731 265.007 82.4344 265.007 82.6302C265.007 82.826 264.938 82.993 264.799 83.1312C264.661 83.2695 264.494 83.3386 264.298 83.3386ZM272.777 85.4638C273.906 85.4638 274.799 85.7921 275.455 86.4486C276.112 87.1052 276.44 88.0497 276.44 89.2822V94.552H275.576V89.3513C275.576 88.3377 275.317 87.5659 274.799 87.0361C274.292 86.5062 273.578 86.2413 272.656 86.2413C271.597 86.2413 270.762 86.558 270.151 87.1916C269.541 87.8251 269.235 88.6775 269.235 89.7487V94.552H268.371V85.5329H269.201V87.4853C269.512 86.8518 269.973 86.3565 270.583 85.9994C271.205 85.6423 271.936 85.4638 272.777 85.4638ZM288.134 85.5329V93.5844C288.134 95.0819 287.772 96.1877 287.046 96.9018C286.32 97.616 285.226 97.973 283.763 97.973C282.934 97.973 282.151 97.8463 281.413 97.5929C280.676 97.3395 280.083 96.9882 279.634 96.539L280.1 95.8824C280.549 96.2971 281.091 96.6196 281.724 96.85C282.358 97.0803 283.032 97.1955 283.746 97.1955C284.944 97.1955 285.831 96.9076 286.407 96.3316C286.983 95.7672 287.271 94.886 287.271 93.6881V92.1676C286.902 92.8242 286.389 93.331 285.733 93.6881C285.076 94.0452 284.339 94.2237 283.521 94.2237C282.68 94.2237 281.914 94.0394 281.223 93.6708C280.544 93.2907 280.008 92.7666 279.616 92.0985C279.225 91.4304 279.029 90.676 279.029 89.8351C279.029 88.9942 279.225 88.2398 279.616 87.5717C280.008 86.9036 280.544 86.3853 281.223 86.0167C281.914 85.6481 282.68 85.4638 283.521 85.4638C284.351 85.4638 285.099 85.6481 285.767 86.0167C286.435 86.3853 286.948 86.9036 287.305 87.5717V85.5329H288.134ZM283.59 93.4462C284.293 93.4462 284.927 93.2965 285.491 92.997C286.055 92.686 286.493 92.2598 286.804 91.7184C287.127 91.1655 287.288 90.5377 287.288 89.8351C287.288 89.1325 287.127 88.5105 286.804 87.9691C286.493 87.4277 286.055 87.0073 285.491 86.7078C284.927 86.3968 284.293 86.2413 283.59 86.2413C282.888 86.2413 282.254 86.3968 281.69 86.7078C281.137 87.0073 280.699 87.4277 280.377 87.9691C280.066 88.5105 279.91 89.1325 279.91 89.8351C279.91 90.5377 280.066 91.1655 280.377 91.7184C280.699 92.2598 281.137 92.686 281.69 92.997C282.254 93.2965 282.888 93.4462 283.59 93.4462Z" fill="#1D1643"/>
<path d="M7.21997 53.863C8.14611 53.9833 9.07926 54.0438 10.0132 54.044H39.8882L42.5132 39.384H9.78418L7.21997 53.863Z" fill="url(#paint0_linear_96_5716)"/>
<path d="M10.7971 33.663H60.321L62.9612 19.004H13.3931L10.7971 33.663Z" fill="url(#paint1_linear_96_5716)"/>
<path d="M69.6331 19.007H68.6821L66.0371 33.666H85.665C85.066 25.283 78.6491 19.065 69.6331 19.007Z" fill="url(#paint2_linear_96_5716)"/>
<path d="M23.897 74.425H52.98L55.6201 59.765H26.511L23.897 74.425Z" fill="url(#paint3_linear_96_5716)"/>
<path d="M6.18213 59.765L0 94.695H14.5901L20.8042 59.765H6.18213Z" fill="url(#paint4_linear_96_5716)"/>
<path d="M42.7361 80.149H22.8772L20.2832 94.699H55.969C64.924 94.641 73.525 88.477 77.189 80.152H42.7351L42.7361 80.149Z" fill="url(#paint5_linear_96_5716)"/>
<path d="M45.5972 54.049H74.7361C79.9643 50.6734 83.7076 45.4301 85.2021 39.389H48.2271L45.5972 54.049Z" fill="url(#paint6_linear_96_5716)"/>
<path d="M73.8372 59.765H61.3262L58.6812 74.425H78.8381C79.6731 68.438 77.6882 63.156 73.8372 59.765Z" fill="url(#paint7_linear_96_5716)"/>
<defs>
<linearGradient id="paint0_linear_96_5716" x1="-18.897" y1="97.8628" x2="-6.22571" y2="11.9694" gradientUnits="userSpaceOnUse">
<stop stop-color="#9261EF"/>
<stop offset="1" stop-color="#41D3F3"/>
</linearGradient>
<linearGradient id="paint1_linear_96_5716" x1="-22.0141" y1="95.2015" x2="-16.4754" y2="13.1375" gradientUnits="userSpaceOnUse">
<stop stop-color="#9261EF"/>
<stop offset="1" stop-color="#41D3F3"/>
</linearGradient>
<linearGradient id="paint2_linear_96_5716" x1="1.26495" y1="115.111" x2="43.8948" y2="25.7337" gradientUnits="userSpaceOnUse">
<stop stop-color="#9261EF"/>
<stop offset="1" stop-color="#41D3F3"/>
</linearGradient>
<linearGradient id="paint3_linear_96_5716" x1="-0.212621" y1="113.846" x2="15.7039" y2="26.6574" gradientUnits="userSpaceOnUse">
<stop stop-color="#9261EF"/>
<stop offset="1" stop-color="#41D3F3"/>
</linearGradient>
<linearGradient id="paint4_linear_96_5716" x1="-12.1705" y1="103.602" x2="72.2631" y2="68.5746" gradientUnits="userSpaceOnUse">
<stop stop-color="#9261EF"/>
<stop offset="1" stop-color="#41D3F3"/>
</linearGradient>
<linearGradient id="paint5_linear_96_5716" x1="12.544" y1="124.774" x2="17.0943" y2="43.3595" gradientUnits="userSpaceOnUse">
<stop stop-color="#9261EF"/>
<stop offset="1" stop-color="#41D3F3"/>
</linearGradient>
<linearGradient id="paint6_linear_96_5716" x1="2.66537" y1="116.296" x2="12.5706" y2="31.7209" gradientUnits="userSpaceOnUse">
<stop stop-color="#9261EF"/>
<stop offset="1" stop-color="#41D3F3"/>
</linearGradient>
<linearGradient id="paint7_linear_96_5716" x1="17.2981" y1="128.828" x2="57.1664" y2="39.0152" gradientUnits="userSpaceOnUse">
<stop stop-color="#9261EF"/>
<stop offset="1" stop-color="#41D3F3"/>
</linearGradient>
</defs>
</svg>
