<svg xmlns="http://www.w3.org/2000/svg" xmlns:xlink="http://www.w3.org/1999/xlink" viewBox="0 0 323.54 82.1"><defs><style>.cls-1{fill:url(#Degradado_sin_nombre_3);}.cls-2{fill:url(#Degradado_sin_nombre_3-2);}.cls-3{fill:url(#Degradado_sin_nombre_3-3);}.cls-4{fill:url(#Degradado_sin_nombre_3-4);}.cls-5{fill:url(#Degradado_sin_nombre_3-5);}.cls-6{fill:url(#Degradado_sin_nombre_3-6);}.cls-7{fill:url(#Degradado_sin_nombre_3-7);}.cls-8{fill:url(#Degradado_sin_nombre_3-8);}.cls-9{fill:#1f144f;}</style><linearGradient id="Degradado_sin_nombre_3" x1="-18.9" y1="82.16" x2="47.73" y2="4.23" gradientUnits="userSpaceOnUse"><stop offset="0" stop-color="#a36afc"/><stop offset="1" stop-color="#3fdafd"/></linearGradient><linearGradient id="Degradado_sin_nombre_3-2" x1="-22.03" y1="79.49" x2="44.61" y2="1.56" xlink:href="#Degradado_sin_nombre_3"/><linearGradient id="Degradado_sin_nombre_3-3" x1="1.26" y1="99.41" x2="67.9" y2="21.48" xlink:href="#Degradado_sin_nombre_3"/><linearGradient id="Degradado_sin_nombre_3-4" x1="-0.23" y1="98.14" x2="66.41" y2="20.2" xlink:href="#Degradado_sin_nombre_3"/><linearGradient id="Degradado_sin_nombre_3-5" x1="-12.18" y1="87.92" x2="54.46" y2="9.98" xlink:href="#Degradado_sin_nombre_3"/><linearGradient id="Degradado_sin_nombre_3-6" x1="12.55" y1="109.06" x2="79.19" y2="31.13" xlink:href="#Degradado_sin_nombre_3"/><linearGradient id="Degradado_sin_nombre_3-7" x1="2.65" y1="100.59" x2="69.29" y2="22.66" xlink:href="#Degradado_sin_nombre_3"/><linearGradient id="Degradado_sin_nombre_3-8" x1="17.3" y1="113.12" x2="83.94" y2="35.19" xlink:href="#Degradado_sin_nombre_3"/></defs><g id="Capa_2" data-name="Capa 2"><g id="Capa_1-2" data-name="Capa 1"><path class="cls-1" d="M7.22,38.16a21.32,21.32,0,0,0,2.79.18H39.89l2.62-14.66H9.78Z"/><polygon class="cls-2" points="10.8 17.96 31.16 17.96 31.99 17.96 60.32 17.96 62.96 3.3 34.6 3.3 33.78 3.3 13.39 3.3 10.8 17.96"/><path class="cls-3" d="M69.63,3.3h-.95L66,18H85.66C85.07,9.58,78.65,3.36,69.63,3.3Z"/><polygon class="cls-4" points="23.9 58.72 52.98 58.72 55.62 44.06 26.51 44.06 23.9 58.72"/><polygon class="cls-5" points="6.18 44.06 0 78.99 14.59 78.99 20.8 44.06 6.18 44.06"/><path class="cls-6" d="M42.74,64.44H22.88L20.28,79H56c9-.06,17.56-6.22,21.22-14.55H42.74Z"/><path class="cls-7" d="M45.6,38.34H74.74A24.4,24.4,0,0,0,85.2,23.68h-37Z"/><path class="cls-8" d="M73.84,44.06H61.33L58.68,58.72H78.84C79.67,52.73,77.69,47.45,73.84,44.06Z"/><path class="cls-9" d="M136.57,20.18a18.12,18.12,0,0,1,7.06,7.1,21.43,21.43,0,0,1,2.57,10.66,21.42,21.42,0,0,1-2.57,10.65,18.12,18.12,0,0,1-7.06,7.1,20.06,20.06,0,0,1-10,2.53q-8.13,0-12.38-5.13v4.55H103.28V3.3h11.43V22.41q4.32-4.76,11.86-4.76A20.06,20.06,0,0,1,136.57,20.18Zm-4.76,25.7a11,11,0,0,0,2.82-7.94A11.07,11.07,0,0,0,131.81,30a10.25,10.25,0,0,0-14.43,0,11.07,11.07,0,0,0-2.82,8,11,11,0,0,0,2.82,7.94,10.25,10.25,0,0,0,14.43,0Z"/><path class="cls-9" d="M168.84,19.11a20.64,20.64,0,0,1,8-1.46V28.2c-1.27-.1-2.12-.15-2.56-.15a10.47,10.47,0,0,0-7.69,2.74c-1.86,1.84-2.79,4.58-2.79,8.24V57.64H152.4V18.24h10.91v5.2A12.72,12.72,0,0,1,168.84,19.11Z"/><path class="cls-9" d="M182.07,10.91a5.93,5.93,0,0,1-2-4.54,5.94,5.94,0,0,1,2-4.54A7.22,7.22,0,0,1,187.19,0a7.45,7.45,0,0,1,5.13,1.76,5.62,5.62,0,0,1,2,4.39,6.23,6.23,0,0,1-2,4.73,8,8,0,0,1-10.25,0Zm-.59,7.33h11.43v39.4H181.48Z"/><path class="cls-9" d="M209.4,55.62a19.49,19.49,0,0,1-7.83-7.21,19.69,19.69,0,0,1-2.82-10.47,19.7,19.7,0,0,1,2.82-10.48,19.49,19.49,0,0,1,7.83-7.21,24.3,24.3,0,0,1,11.32-2.6,21.94,21.94,0,0,1,10.87,2.6,15.44,15.44,0,0,1,6.78,7.43l-8.86,4.76Q226.44,27,220.65,27a10,10,0,0,0-7.4,2.93,10.83,10.83,0,0,0-2.93,8,10.8,10.8,0,0,0,2.93,8,10,10,0,0,0,7.4,2.93,9.6,9.6,0,0,0,8.86-5.42l8.86,4.83a15.7,15.7,0,0,1-6.78,7.32,21.63,21.63,0,0,1-10.87,2.64A24.3,24.3,0,0,1,209.4,55.62Z"/><path class="cls-9" d="M260.54,42.18,255,47.6v10H243.62V3.3H255V34.05l16.7-15.81h13.62L269,34.93l17.87,22.71H273Z"/><path class="cls-9" d="M295.34,57a25,25,0,0,1-7.47-3l3.81-8.2a23.83,23.83,0,0,0,6.37,2.75,26.63,26.63,0,0,0,7.33,1.06q7.25,0,7.25-3.59a2.55,2.55,0,0,0-2-2.42,29.9,29.9,0,0,0-6.08-1.24,59.77,59.77,0,0,1-8-1.68,12.47,12.47,0,0,1-5.46-3.37c-1.54-1.61-2.3-3.91-2.3-6.89A10.73,10.73,0,0,1,291,23.76a13.84,13.84,0,0,1,6.29-4.5,27,27,0,0,1,9.78-1.61,39,39,0,0,1,8.31.91,23.67,23.67,0,0,1,6.85,2.53l-3.81,8.13a22.77,22.77,0,0,0-11.35-2.93,11.45,11.45,0,0,0-5.49,1A3,3,0,0,0,299.74,30a2.63,2.63,0,0,0,2,2.57,35.91,35.91,0,0,0,6.3,1.39,68.21,68.21,0,0,1,7.91,1.72A11.93,11.93,0,0,1,321.27,39a9.48,9.48,0,0,1,2.27,6.74,10.4,10.4,0,0,1-2.2,6.52,14,14,0,0,1-6.41,4.43,28.55,28.55,0,0,1-10,1.57A38.1,38.1,0,0,1,295.34,57Z"/><path class="cls-9" d="M111.82,78.7l-2.87-4a8.41,8.41,0,0,1-1.17.08h-3.44V78.7h-.87v-12h4.31a5.34,5.34,0,0,1,3.55,1.08,3.66,3.66,0,0,1,1.29,3,3.68,3.68,0,0,1-2.81,3.76l3,4.21Zm-4-4.71a4.46,4.46,0,0,0,2.94-.85,3.39,3.39,0,0,0,0-4.83,4.52,4.52,0,0,0-2.94-.85h-3.44V74Z"/><path class="cls-9" d="M122.93,74.42h-7.71a3.77,3.77,0,0,0,.53,1.87,3.41,3.41,0,0,0,1.35,1.26A4,4,0,0,0,119,78a4.15,4.15,0,0,0,1.63-.31,3.2,3.2,0,0,0,1.24-.94l.5.57a3.81,3.81,0,0,1-1.47,1.08,5.07,5.07,0,0,1-4.3-.21A4.16,4.16,0,0,1,115,76.57a4.59,4.59,0,0,1-.6-2.35,4.89,4.89,0,0,1,.56-2.35,4.14,4.14,0,0,1,1.54-1.62,4.21,4.21,0,0,1,2.2-.59,4.17,4.17,0,0,1,2.19.58,4.06,4.06,0,0,1,1.53,1.6,4.88,4.88,0,0,1,.56,2.34Zm-6-3.58A3.19,3.19,0,0,0,115.76,72a3.86,3.86,0,0,0-.53,1.73h6.88a3.69,3.69,0,0,0-.52-1.72,3.35,3.35,0,0,0-2.92-1.61A3.43,3.43,0,0,0,117,70.84Z"/><path class="cls-9" d="M130.84,70.51a3.32,3.32,0,0,1,.89,2.5V78.7h-.82V77.1a3,3,0,0,1-1.26,1.23,4.15,4.15,0,0,1-2,.44,3.61,3.61,0,0,1-2.36-.71,2.42,2.42,0,0,1-.07-3.66,3.79,3.79,0,0,1,2.55-.7h3.07V73a2.54,2.54,0,0,0-.67-1.91,2.8,2.8,0,0,0-2-.65,4.71,4.71,0,0,0-1.71.31,4.28,4.28,0,0,0-1.38.82l-.43-.62A4.73,4.73,0,0,1,126.3,70a5.72,5.72,0,0,1,2-.34A3.61,3.61,0,0,1,130.84,70.51Zm-1.14,7a3.12,3.12,0,0,0,1.17-1.5V74.37h-3.05a3,3,0,0,0-1.92.48,1.59,1.59,0,0,0-.59,1.32,1.65,1.65,0,0,0,.65,1.39,3,3,0,0,0,1.84.5A3.41,3.41,0,0,0,129.7,77.55Z"/><path class="cls-9" d="M134.82,66h.86V78.7h-.86Z"/><path class="cls-9" d="M152.3,77.91v.79H144v-12h8v.79h-7.17v4.75h6.41V73h-6.41v4.93Z"/><path class="cls-9" d="M155.45,78.44a4.39,4.39,0,0,1-1.53-.82l.4-.69a4.38,4.38,0,0,0,1.41.77,5.31,5.31,0,0,0,1.82.31,3.64,3.64,0,0,0,2-.44,1.42,1.42,0,0,0,.64-1.24,1.15,1.15,0,0,0-.35-.89A2.24,2.24,0,0,0,159,75c-.34-.1-.82-.21-1.42-.32a13.79,13.79,0,0,1-1.72-.41,2.63,2.63,0,0,1-1.12-.73,1.93,1.93,0,0,1-.46-1.37,2.14,2.14,0,0,1,.88-1.76,4,4,0,0,1,2.52-.7,6.18,6.18,0,0,1,1.7.24,4.06,4.06,0,0,1,1.37.64l-.39.69a4.15,4.15,0,0,0-1.25-.61,5.46,5.46,0,0,0-1.45-.2,3.22,3.22,0,0,0-1.89.46,1.45,1.45,0,0,0-.63,1.22,1.24,1.24,0,0,0,.36.94,2.3,2.3,0,0,0,.88.5c.35.11.84.22,1.47.35a12.18,12.18,0,0,1,1.69.4,2.6,2.6,0,0,1,1.09.7,1.85,1.85,0,0,1,.45,1.32,2.1,2.1,0,0,1-.93,1.79,4.45,4.45,0,0,1-2.61.67A6.4,6.4,0,0,1,155.45,78.44Z"/><path class="cls-9" d="M168.08,78.13a2,2,0,0,1-.82.47,3.12,3.12,0,0,1-1,.17,2.24,2.24,0,0,1-2.44-2.44V70.47h-1.65v-.74h1.65v-2h.86v2h2.85v.74h-2.85v5.77a1.88,1.88,0,0,0,.42,1.33,1.6,1.6,0,0,0,1.25.46,2,2,0,0,0,1.39-.5Z"/><path class="cls-9" d="M175.8,70.51a3.28,3.28,0,0,1,.89,2.5V78.7h-.82V77.1a3,3,0,0,1-1.25,1.23,4.19,4.19,0,0,1-2,.44,3.63,3.63,0,0,1-2.36-.71,2.26,2.26,0,0,1-.87-1.85,2.28,2.28,0,0,1,.8-1.81,3.79,3.79,0,0,1,2.55-.7h3.08V73a2.54,2.54,0,0,0-.68-1.91,2.8,2.8,0,0,0-2-.65,4.75,4.75,0,0,0-1.71.31,4.28,4.28,0,0,0-1.38.82l-.43-.62a4.78,4.78,0,0,1,1.62-.93,5.67,5.67,0,0,1,2-.34A3.59,3.59,0,0,1,175.8,70.51Zm-1.14,7a3.2,3.2,0,0,0,1.18-1.5V74.37h-3.06a3.08,3.08,0,0,0-1.92.48,1.62,1.62,0,0,0-.59,1.32,1.68,1.68,0,0,0,.65,1.39,3,3,0,0,0,1.84.5A3.41,3.41,0,0,0,174.66,77.55Z"/><path class="cls-9" d="M184.16,78.13a2,2,0,0,1-.82.47,3.16,3.16,0,0,1-1,.17,2.24,2.24,0,0,1-2.44-2.44V70.47h-1.65v-.74h1.65v-2h.86v2h2.85v.74h-2.85v5.77a1.88,1.88,0,0,0,.42,1.33,1.6,1.6,0,0,0,1.25.46,2,2,0,0,0,1.39-.5Z"/><path class="cls-9" d="M193.51,74.42h-7.72a3.78,3.78,0,0,0,.54,1.87,3.41,3.41,0,0,0,1.35,1.26,4,4,0,0,0,1.91.44,4.1,4.1,0,0,0,1.62-.31,3.16,3.16,0,0,0,1.25-.94l.5.57a3.81,3.81,0,0,1-1.47,1.08,4.87,4.87,0,0,1-1.92.38,4.77,4.77,0,0,1-2.38-.59,4.26,4.26,0,0,1-1.65-1.61,4.69,4.69,0,0,1-.59-2.35,4.89,4.89,0,0,1,.56-2.35,4.14,4.14,0,0,1,1.54-1.62A4.23,4.23,0,0,1,193,71.84a4.88,4.88,0,0,1,.56,2.34Zm-6-3.58A3.29,3.29,0,0,0,186.33,72a4,4,0,0,0-.52,1.73h6.87a3.57,3.57,0,0,0-.51-1.72,3.35,3.35,0,0,0-2.92-1.61A3.43,3.43,0,0,0,187.55,70.84Z"/><path class="cls-9" d="M212.25,78.7l0-10.29-5,8.69h-.43l-5-8.66V78.7h-.86v-12h.74L207,76l5.38-9.3h.72l0,12Z"/><path class="cls-9" d="M222.26,70.51a3.32,3.32,0,0,1,.89,2.5V78.7h-.82V77.1a3,3,0,0,1-1.26,1.23,4.18,4.18,0,0,1-2,.44,3.66,3.66,0,0,1-2.37-.71,2.44,2.44,0,0,1-.07-3.66,3.84,3.84,0,0,1,2.56-.7h3.07V73a2.51,2.51,0,0,0-.68-1.91,2.76,2.76,0,0,0-2-.65,4.67,4.67,0,0,0-1.71.31,4.08,4.08,0,0,0-1.38.82l-.43-.62a4.64,4.64,0,0,1,1.61-.93,5.72,5.72,0,0,1,2-.34A3.61,3.61,0,0,1,222.26,70.51Zm-1.14,7a3.12,3.12,0,0,0,1.17-1.5V74.37h-3.06a3,3,0,0,0-1.91.48,1.59,1.59,0,0,0-.59,1.32,1.65,1.65,0,0,0,.65,1.39,3,3,0,0,0,1.84.5A3.44,3.44,0,0,0,221.12,77.55Z"/><path class="cls-9" d="M228.35,70.19a4.1,4.1,0,0,1,2.13-.53v.84h-.2a3,3,0,0,0-2.34.93A3.79,3.79,0,0,0,227.1,74V78.7h-.86v-9h.82v2A3.16,3.16,0,0,1,228.35,70.19Z"/><path class="cls-9" d="M235.74,73.91,233.4,76V78.7h-.86V66h.86v9l5.74-5.24h1.1l-3.87,3.63,4.25,5.34h-1.07Z"/><path class="cls-9" d="M249.66,74.42H242a3.77,3.77,0,0,0,.53,1.87,3.41,3.41,0,0,0,1.35,1.26,4,4,0,0,0,1.91.44,4.15,4.15,0,0,0,1.63-.31,3.13,3.13,0,0,0,1.24-.94l.5.57a3.81,3.81,0,0,1-1.47,1.08,5.07,5.07,0,0,1-4.3-.21,4.16,4.16,0,0,1-1.64-1.61,4.58,4.58,0,0,1-.59-2.35,4.88,4.88,0,0,1,.55-2.35,4.16,4.16,0,0,1,3.74-2.21,4.17,4.17,0,0,1,2.19.58,4.06,4.06,0,0,1,1.53,1.6,4.88,4.88,0,0,1,.56,2.34Zm-6-3.58A3.26,3.26,0,0,0,242.49,72a3.86,3.86,0,0,0-.53,1.73h6.88a3.69,3.69,0,0,0-.52-1.72,3.29,3.29,0,0,0-1.22-1.18,3.33,3.33,0,0,0-1.7-.43A3.43,3.43,0,0,0,243.7,70.84Z"/><path class="cls-9" d="M256.43,78.13a2,2,0,0,1-.82.47,3.21,3.21,0,0,1-1,.17,2.24,2.24,0,0,1-2.44-2.44V70.47H250.5v-.74h1.65v-2H253v2h2.85v.74H253v5.77a1.88,1.88,0,0,0,.42,1.33,1.58,1.58,0,0,0,1.24.46,2,2,0,0,0,1.4-.5Z"/><path class="cls-9" d="M258.35,67.35a.64.64,0,0,1-.21-.49.7.7,0,0,1,.71-.7.68.68,0,0,1,.7.68.72.72,0,0,1-.7.71A.69.69,0,0,1,258.35,67.35Zm.07,2.38h.85v9h-.85Z"/><path class="cls-9" d="M269.48,70.64a3.82,3.82,0,0,1,1,2.82V78.7h-.86V73.53a3.16,3.16,0,0,0-.77-2.3,2.81,2.81,0,0,0-2.13-.79,3.31,3.31,0,0,0-2.5.94,3.54,3.54,0,0,0-.91,2.54V78.7h-.86v-9h.83v1.94a3.46,3.46,0,0,1,1.38-1.48,4.32,4.32,0,0,1,2.18-.53A3.6,3.6,0,0,1,269.48,70.64Z"/><path class="cls-9" d="M281.78,69.73v8a3.81,3.81,0,0,1-4.35,4.36,7.16,7.16,0,0,1-2.33-.38,4.53,4.53,0,0,1-1.77-1l.46-.65a4.84,4.84,0,0,0,1.62,1,5.82,5.82,0,0,0,2,.35,3.64,3.64,0,0,0,2.64-.85,3.56,3.56,0,0,0,.86-2.64V76.33a3.71,3.71,0,0,1-1.53,1.51,4.45,4.45,0,0,1-2.2.53,4.58,4.58,0,0,1-2.27-.56,4.14,4.14,0,0,1-1.61-1.55,4.65,4.65,0,0,1,0-4.5,4.07,4.07,0,0,1,1.61-1.55,4.79,4.79,0,0,1,2.27-.55,4.64,4.64,0,0,1,2.24.55A3.81,3.81,0,0,1,281,71.76v-2Zm-2.63,7.41a3.29,3.29,0,0,0,1.32-1.27,3.92,3.92,0,0,0,0-3.72,3.4,3.4,0,0,0-1.32-1.26,3.94,3.94,0,0,0-1.89-.45,3.9,3.9,0,0,0-1.88.45,3.35,3.35,0,0,0-1.3,1.26,3.84,3.84,0,0,0,0,3.72,3.24,3.24,0,0,0,1.3,1.27,3.79,3.79,0,0,0,1.88.46A3.83,3.83,0,0,0,279.15,77.14Z"/></g></g></svg>