<svg width="37" height="37" viewBox="0 0 37 37" fill="none" xmlns="http://www.w3.org/2000/svg">
<path d="M18.5 37C28.7173 37 37 28.7173 37 18.5C37 8.28273 28.7173 0 18.5 0C8.28273 0 0 8.28273 0 18.5C0 28.7173 8.28273 37 18.5 37Z" fill="white"/>
<path fill-rule="evenodd" clip-rule="evenodd" d="M28.0891 12.0358C27.7366 11.8272 27.3296 11.7288 26.9206 11.7538H10.1687C9.8866 11.7418 9.60512 11.7875 9.34137 11.8878C9.0756 11.9888 8.83342 12.1432 8.62969 12.3414C8.42595 12.5396 8.26498 12.7775 8.15675 13.0404C8.04883 13.3025 7.99563 13.5838 8.0004 13.8673V24.6447C7.9912 25.1082 8.14104 25.5611 8.42507 25.9276C8.63289 26.1959 8.90211 26.4106 9.21008 26.5534C9.51636 26.6954 9.85197 26.762 10.1891 26.7482H27.05C27.3761 26.7538 27.6986 26.6779 27.9879 26.527C28.278 26.3757 28.5255 26.154 28.7078 25.8825L28.7142 25.8729L28.7198 25.8628C28.8773 25.5755 29.005 25.2727 29.1007 24.9594L29.1119 24.9226V13.5772L29.1049 13.5477C29.0554 13.3406 28.9892 13.1376 28.9066 12.9412L28.9024 12.9322C28.7277 12.5582 28.4442 12.2459 28.0891 12.0358ZM17.3967 19.9107L10.9313 13.4845L26.1408 13.494L19.6927 19.9024L19.6849 19.9109C19.5392 20.0692 19.3624 20.1955 19.1655 20.2819C18.9686 20.3683 18.7558 20.4128 18.5407 20.4128C18.3256 20.4128 18.1128 20.3683 17.916 20.2819C17.7191 20.1955 17.5424 20.069 17.3967 19.9107ZM9.66872 23.8198V14.6987L14.1976 19.291L9.66872 23.8198ZM27.3097 23.7414L22.8517 19.2201L27.3097 14.6987V23.7414ZM20.9044 21.1597L21.5541 20.4939L26.024 25.0182H11.0574L15.5181 20.5032C15.5685 20.5549 15.6191 20.6069 15.6698 20.6591C15.8368 20.831 16.0044 21.0035 16.1702 21.1633C16.4761 21.4807 16.8427 21.7331 17.2481 21.9058C17.6552 22.0792 18.0931 22.1685 18.5356 22.1685C18.978 22.1685 19.4159 22.0792 19.823 21.9058C20.2297 21.7326 20.598 21.4784 20.9044 21.1597Z" fill="url(#paint0_radial_96_9656)"/>
<defs>
<radialGradient id="paint0_radial_96_9656" cx="0" cy="0" r="1" gradientUnits="userSpaceOnUse" gradientTransform="translate(26.0346 7.41667) rotate(118.088) scale(26.4482 25.9418)">
<stop offset="3.1201e-09" stop-color="#5DCCEB"/>
<stop offset="0.426" stop-color="#6389EB"/>
<stop offset="0.842" stop-color="#8B6BEB"/>
</radialGradient>
</defs>
</svg>
