<svg width="39" height="33" viewBox="0 0 39 33" fill="none" xmlns="http://www.w3.org/2000/svg">
<g clip-path="url(#clip0_96_11760)">
<path d="M29.3398 17.87C28.0065 14.5367 26.6398 11.2033 25.2398 7.87C24.6998 6.54 24.1598 5.21 23.5998 3.87C23.2273 3.06026 22.5951 2.39808 21.8034 1.98865C21.0117 1.57921 20.1059 1.44597 19.2298 1.60999C18.475 1.72587 17.7755 2.07562 17.2298 2.60999C14.0898 5.46999 10.9399 8.31995 7.81992 11.2C7.09811 11.9169 6.23233 12.4724 5.27988 12.83C4.27988 13.16 3.37993 13.58 2.44993 14C1.57235 14.3868 0.860489 15.0726 0.441137 15.9351C0.0217864 16.7976 -0.077877 17.7809 0.159887 18.71C0.683305 20.5012 1.3974 22.2311 2.28989 23.87C2.68922 24.6135 3.31674 25.2092 4.08005 25.5692C4.84337 25.9293 5.70214 26.0347 6.52988 25.87C6.92988 25.8 7.04991 25.87 7.17991 26.25C7.83991 27.9 8.52991 29.5399 9.17991 31.1799C9.30458 31.5165 9.49697 31.8238 9.74534 32.0829C9.9937 32.342 10.2927 32.5473 10.6236 32.686C10.9546 32.8248 11.3107 32.8941 11.6695 32.8896C12.0284 32.8852 12.3824 32.8069 12.7098 32.6599C13.2098 32.4599 13.7099 32.2599 14.1999 32.0299C14.6242 31.8843 15.0329 31.6968 15.4199 31.47C15.9301 31.1054 16.2944 30.5717 16.4482 29.9639C16.602 29.356 16.5353 28.7132 16.2599 28.1499C15.7199 26.8399 15.1598 25.53 14.5998 24.22C14.4598 23.9 14.5999 23.7999 14.9099 23.7899C15.7699 23.7899 16.6298 23.7899 17.4798 23.6799C18.3298 23.5699 19.1699 23.6799 20.0099 23.5299V20.75C17.5399 20.87 15.0098 20.96 12.5898 21.12C12.4177 21.1563 12.2383 21.1245 12.0891 21.0312C11.9399 20.938 11.8327 20.7906 11.7899 20.62C11.0099 18.45 10.0499 16.36 9.17991 14.23C9.1164 14.1292 9.09543 14.0072 9.12168 13.891C9.14792 13.7748 9.21926 13.6737 9.31992 13.61C11.8666 11.3233 14.4066 9.02664 16.9399 6.71997L19.3199 4.54993C19.4616 4.43712 19.6295 4.3621 19.8081 4.33191C19.9866 4.30171 20.1698 4.31737 20.3407 4.37732C20.5115 4.43727 20.6645 4.53955 20.785 4.67468C20.9055 4.80982 20.9898 4.97332 21.0299 5.1499C22.9299 9.71657 24.8231 14.2867 26.7098 18.86C26.8062 19.028 26.8552 19.219 26.8515 19.4126C26.8479 19.6062 26.7917 19.7952 26.6891 19.9595C26.5864 20.1237 26.4411 20.257 26.2687 20.3451C26.0962 20.4332 25.903 20.473 25.7098 20.46L20.0399 20.75V23.5299C22.0399 23.4299 24.1199 23.36 26.1599 23.24C26.6688 23.2058 27.1648 23.0653 27.6161 22.8276C28.0673 22.5899 28.4638 22.2603 28.7799 21.86C29.2443 21.3177 29.5438 20.6538 29.643 19.9468C29.7423 19.2397 29.6371 18.5191 29.3398 17.87ZM9.85984 24.6799C10.3198 24.4999 10.7798 24.32 11.2298 24.12C11.4498 24.02 11.5799 24.0499 11.6699 24.2799L13.5898 28.97C13.587 29.0199 13.587 29.07 13.5898 29.12C13.5898 29.28 13.4999 29.31 13.4099 29.35C12.9099 29.56 12.4099 29.76 11.9199 29.98C11.7399 30.05 11.6598 29.98 11.5898 29.83C10.9398 28.24 10.2999 26.6499 9.63987 25.0599C9.59987 24.8399 9.65984 24.7599 9.85984 24.6799ZM9.2999 21.5499C9.3699 21.6999 9.46982 21.8299 9.21982 21.9299C8.21982 22.3199 7.21982 22.74 6.21982 23.14C6.10284 23.1768 5.98209 23.2002 5.85984 23.21C5.31984 23.14 4.85985 23.01 4.61985 22.46C4.03985 21.07 3.43987 19.6999 2.88987 18.2999C2.82447 18.132 2.79335 17.9528 2.79832 17.7727C2.80328 17.5926 2.84424 17.4154 2.9188 17.2513C2.99335 17.0873 3.09997 16.9398 3.2324 16.8176C3.36482 16.6955 3.52043 16.601 3.68992 16.5399C4.55992 16.1699 5.43991 15.83 6.30991 15.46C6.55991 15.35 6.65986 15.4599 6.75986 15.6499L9.2999 21.5499ZM31.0699 10.95C30.739 10.9576 30.4157 10.8495 30.1561 10.6442C29.8965 10.4388 29.7167 10.1492 29.6479 9.82544C29.5791 9.50166 29.6257 9.164 29.7794 8.87085C29.9331 8.5777 30.1844 8.3475 30.4898 8.21997C32.2898 7.47997 34.0899 6.74002 35.8999 6.02002C36.0723 5.9308 36.2615 5.8784 36.4553 5.86621C36.6491 5.85402 36.8432 5.88219 37.0255 5.9491C37.2078 6.016 37.3742 6.1201 37.5141 6.25476C37.654 6.38943 37.7643 6.55172 37.8381 6.73132C37.9119 6.91093 37.9475 7.10398 37.9427 7.2981C37.9379 7.49221 37.8928 7.68315 37.8102 7.85889C37.7276 8.03462 37.6094 8.19128 37.463 8.31885C37.3166 8.44642 37.1452 8.54218 36.9598 8.59998C35.1798 9.35998 33.3998 10.1 31.6198 10.84C31.4454 10.9121 31.2587 10.9494 31.0699 10.95ZM28.2398 6.94995C27.9604 6.95471 27.6853 6.88023 27.4464 6.73511C27.2075 6.58999 27.0145 6.38023 26.8899 6.13C26.7613 5.87151 26.7211 5.578 26.7752 5.29443C26.8294 5.01087 26.9751 4.75281 27.1899 4.55994C28.5599 3.16994 29.9399 1.77991 31.3299 0.409912C31.5865 0.155265 31.9334 0.0124512 32.2949 0.0124512C32.6564 0.0124512 33.0033 0.155265 33.2599 0.409912C33.5102 0.662703 33.6507 1.00419 33.6507 1.35999C33.6507 1.71578 33.5102 2.05715 33.2599 2.30994C32.4199 3.14994 31.6099 4.02999 30.7499 4.85999C30.2199 5.35999 29.7498 5.85994 29.2398 6.43994C29.1143 6.5834 28.9609 6.69997 28.789 6.78247C28.6172 6.86497 28.4303 6.91168 28.2398 6.91992V6.94995ZM33.1199 13.14L37.3999 13.33C37.5824 13.3313 37.7629 13.3685 37.931 13.4396C38.0991 13.5106 38.2517 13.6141 38.3799 13.7441C38.508 13.8741 38.6093 14.0281 38.678 14.1973C38.7466 14.3664 38.7812 14.5474 38.7799 14.73C38.7789 14.9129 38.7405 15.0938 38.667 15.2614C38.5935 15.4289 38.4865 15.5796 38.3525 15.7042C38.2185 15.8288 38.0605 15.9247 37.888 15.9858C37.7156 16.047 37.5324 16.0722 37.3498 16.0599C35.5098 15.9999 33.6798 15.93 31.8398 15.84C31.6507 15.8433 31.463 15.8077 31.2882 15.7354C31.1134 15.663 30.9553 15.5555 30.8238 15.4196C30.6923 15.2836 30.5902 15.1221 30.5238 14.9449C30.4573 14.7678 30.428 14.5789 30.4376 14.39C30.4472 14.2011 30.4956 14.0161 30.5797 13.8467C30.6638 13.6772 30.7817 13.5269 30.9264 13.405C31.071 13.2831 31.2392 13.1923 31.4204 13.1381C31.6016 13.0839 31.792 13.0675 31.9798 13.09L33.1199 13.1499V13.14Z" fill="url(#paint0_linear_96_11760)"/>
</g>
<defs>
<linearGradient id="paint0_linear_96_11760" x1="-0.000112881" y1="16.46" x2="38.7799" y2="16.46" gradientUnits="userSpaceOnUse">
<stop stop-color="#8B6BEB"/>
<stop offset="0.67" stop-color="#6389EB"/>
<stop offset="1" stop-color="#5DCCEB"/>
</linearGradient>
<clipPath id="clip0_96_11760">
<rect width="38.78" height="32.91" fill="white"/>
</clipPath>
</defs>
</svg>
