<svg width="35" height="35" viewBox="0 0 35 35" fill="none" xmlns="http://www.w3.org/2000/svg">
<path fill-rule="evenodd" clip-rule="evenodd" d="M35 1.02941C35 0.460883 34.5391 0 33.9706 0H1.02941C0.460884 0 0 0.460883 0 1.02941V27.1352C0 27.7037 0.460884 28.1646 1.02941 28.1646H13.1765V31.7421C13.1765 32.5967 13.31 33.3481 13.6417 33.928C14.0022 34.5582 14.5872 34.9549 15.2989 34.9964C15.9412 35.0338 16.5376 34.7735 17.0119 34.448C17.5003 34.1128 17.953 33.6462 18.3374 33.1086C18.6768 32.634 19.0173 32.1259 19.3475 31.6333C19.4288 31.512 19.5095 31.3917 19.5893 31.2731C20.0005 30.6621 20.3947 30.0887 20.7823 29.5919C21.1738 29.0899 21.5261 28.7089 21.8424 28.4601C22.1642 28.207 22.3546 28.1646 22.4412 28.1646H33.9706C34.5391 28.1646 35 27.7037 35 27.1352V1.02941ZM32.9412 2.05882V26.1058H22.4412C21.7042 26.1058 21.0711 26.4473 20.5694 26.842C20.0621 27.2411 19.5909 27.7718 19.1589 28.3256C18.7229 28.8846 18.2936 29.5109 17.8813 30.1236C17.7963 30.2498 17.7123 30.3752 17.6289 30.4996C17.3004 30.9896 16.9821 31.4644 16.6626 31.9111C16.3882 32.295 16.0997 32.577 15.8469 32.7505C15.6402 32.8924 15.5067 32.9294 15.4494 32.9384C15.4435 32.9301 15.4366 32.9193 15.4288 32.9057C15.3488 32.7658 15.2353 32.4231 15.2353 31.7421V27.1352C15.2353 26.5666 14.7744 26.1058 14.2059 26.1058H2.05882V2.05882H32.9412ZM15.47 32.9635C15.4701 32.9636 15.4697 32.9632 15.4688 32.9624L15.47 32.9635Z" fill="url(#paint0_radial_96_11757)"/>
<path fill-rule="evenodd" clip-rule="evenodd" d="M13.3309 5.91911C10.343 5.91911 7.97794 8.19885 7.97794 11.1131C7.97794 12.8968 8.80831 14.4938 10.21 16.1552C11.5992 17.8018 13.5783 19.5441 15.9366 21.6203L15.9871 21.6649L17.5006 22.9896L19.0136 21.6552L19.0389 21.633C21.4079 19.5518 23.3959 17.8053 24.7899 16.1541C26.1917 14.4938 27.0221 12.8968 27.0221 11.1131C27.0221 8.19885 24.657 5.91911 21.6691 5.91911C20.0818 5.91911 18.5562 6.5916 17.5 7.67385C16.4438 6.5916 14.9182 5.91911 13.3309 5.91911ZM10.3456 11.1131C10.3456 9.46775 11.6123 8.22897 13.3309 8.22897C14.6634 8.22897 15.9513 9.06327 16.3994 10.1853L16.464 10.3473H18.5465L18.6105 10.1838C19.0494 9.06345 20.3362 8.22897 21.6691 8.22897C23.3877 8.22897 24.6544 9.46775 24.6544 11.1131C24.6544 12.3123 23.9815 13.5393 22.7131 14.9751C21.4626 16.3907 19.6748 17.9649 17.5 19.8727C15.3252 17.9649 13.5374 16.3907 12.2869 14.9751C11.0185 13.5393 10.3456 12.3123 10.3456 11.1131Z" fill="url(#paint1_radial_96_11757)"/>
<defs>
<radialGradient id="paint0_radial_96_11757" cx="0" cy="0" r="1" gradientUnits="userSpaceOnUse" gradientTransform="translate(29.8983 -10.1111) rotate(110.766) scale(58.2269 45.5816)">
<stop offset="3.1201e-09" stop-color="#5DCCEB"/>
<stop offset="0.426" stop-color="#6389EB"/>
<stop offset="0.842" stop-color="#8B6BEB"/>
</radialGradient>
<radialGradient id="paint1_radial_96_11757" cx="0" cy="0" r="1" gradientUnits="userSpaceOnUse" gradientTransform="translate(29.8983 -10.1111) rotate(110.766) scale(58.2269 45.5816)">
<stop offset="3.1201e-09" stop-color="#5DCCEB"/>
<stop offset="0.426" stop-color="#6389EB"/>
<stop offset="0.842" stop-color="#8B6BEB"/>
</radialGradient>
</defs>
</svg>
