<svg width="37" height="37" viewBox="0 0 37 37" fill="none" xmlns="http://www.w3.org/2000/svg">
<path d="M18.5 37C28.7173 37 37 28.7173 37 18.5C37 8.28273 28.7173 0 18.5 0C8.28273 0 0 8.28273 0 18.5C0 28.7173 8.28273 37 18.5 37Z" fill="white"/>
<path fill-rule="evenodd" clip-rule="evenodd" d="M23.8693 21.6413C24.6788 21.9602 25.5111 22.2176 26.3593 22.4113C27.0077 22.5667 27.5737 22.9609 27.9444 23.5151C28.315 24.0692 28.4632 24.7427 28.3593 25.4013C28.3144 25.7873 28.2238 26.1668 28.0893 26.5314C27.8593 27.2752 27.4665 27.9585 26.9393 28.5314C26.4256 29.1048 25.7967 29.5632 25.0936 29.8769C24.3905 30.1905 23.6292 30.3521 22.8593 30.3512H22.2993C21.5292 30.2583 20.7813 30.0316 20.0893 29.6813C15.7248 27.7491 12.0915 24.4731 9.7193 20.3312C9.13595 19.3561 8.65347 18.3243 8.27931 17.2514C7.82259 15.8762 7.92916 14.3759 8.57571 13.079C9.22226 11.7822 10.3562 10.7942 11.7293 10.3312C12.1985 10.1034 12.715 9.99022 13.2365 10.0007C13.758 10.0111 14.2696 10.1449 14.7293 10.3913C15.0447 10.5755 15.3168 10.8252 15.5273 11.1237C15.7378 11.4222 15.8817 11.7623 15.9493 12.1213C16.1239 12.9167 16.3647 13.6961 16.6693 14.4513C16.8963 14.9727 16.9282 15.5582 16.7593 16.1012C16.6766 16.4559 16.5174 16.7884 16.2929 17.0751C16.0683 17.3618 15.7838 17.5961 15.4593 17.7614C15.2593 17.8614 15.0693 17.9712 14.8793 18.0812L14.7893 18.1413C15.243 18.8718 15.7511 19.5672 16.3093 20.2214C17.432 21.5358 18.7509 22.6691 20.2193 23.5812C20.264 23.5031 20.3079 23.4249 20.3516 23.347L20.3518 23.3467L20.3518 23.3467L20.3518 23.3467C20.4647 23.1455 20.5768 22.9459 20.6993 22.7514C21.0231 22.2056 21.5468 21.8073 22.1593 21.6413C22.7073 21.4173 23.3213 21.4173 23.8693 21.6413ZM12.8593 11.6313L12.4293 11.7013C11.8808 11.8589 11.3633 12.1092 10.8993 12.4413C10.3017 12.9621 9.87648 13.6521 9.68003 14.4201C9.48358 15.188 9.52518 15.9976 9.7993 16.7414C10.2657 17.9439 10.852 19.0963 11.5493 20.1813C13.8685 23.8557 17.2822 26.7096 21.3093 28.3412C22.0162 28.6352 22.7939 28.7152 23.5459 28.5712C24.2978 28.4272 24.991 28.0657 25.5393 27.5314C26.0288 27.0323 26.3892 26.4213 26.5893 25.7514C26.6538 25.478 26.7005 25.2007 26.7293 24.9213C26.7314 24.6771 26.644 24.4407 26.4838 24.2565C26.3235 24.0723 26.1014 23.953 25.8593 23.9213C25.0475 23.7427 24.2516 23.4986 23.4793 23.1913C23.2377 23.0823 22.9741 23.0311 22.7093 23.0414C22.5236 23.0833 22.351 23.1699 22.2064 23.2936C22.0617 23.4173 21.9495 23.5745 21.8793 23.7514C21.7287 24.0792 21.5702 24.3599 21.4108 24.6423L21.3493 24.7514L21.2193 24.9814C21.1673 25.0874 21.0944 25.1819 21.0051 25.2592C20.9157 25.3365 20.8118 25.3951 20.6993 25.4313C20.4689 25.4795 20.2287 25.4366 20.0293 25.3114C17.0997 23.6622 14.6785 21.2411 13.0293 18.3114C12.9633 18.2125 12.9178 18.1013 12.8955 17.9845C12.8732 17.8677 12.8745 17.7475 12.8993 17.6313C12.9766 17.4008 13.142 17.2102 13.3593 17.1012L13.6593 16.9313L13.773 16.8668L13.773 16.8668L13.773 16.8668C14.0373 16.7165 14.3083 16.5624 14.5793 16.4313C14.775 16.3452 14.9426 16.2058 15.0628 16.029C15.1831 15.8521 15.2512 15.645 15.2593 15.4313C15.2595 15.3014 15.2357 15.1727 15.1893 15.0514C14.8302 14.1599 14.5459 13.2401 14.3393 12.3014C14.2753 12.0507 14.1166 11.8345 13.8965 11.6984C13.6765 11.5623 13.4122 11.5168 13.1593 11.5715L12.8593 11.6313ZM26.9993 26.2514L26.8793 26.3913L26.9393 26.4113L26.9993 26.2514ZM20.9393 11.7013C20.6995 11.6865 20.4591 11.6865 20.2193 11.7013C20.0879 11.7049 19.9572 11.6799 19.8364 11.6281C19.7156 11.5763 19.6074 11.4989 19.5193 11.4013C19.412 11.2819 19.3426 11.1332 19.3199 10.9743C19.2972 10.8153 19.3223 10.6531 19.392 10.5085C19.4616 10.3638 19.5727 10.2432 19.7111 10.1618C19.8495 10.0804 20.009 10.042 20.1693 10.0514H20.4693C22.2679 10.1373 23.9866 10.8199 25.3538 11.9916C26.7211 13.1633 27.659 14.7572 28.0193 16.5214C28.1264 17.0311 28.18 17.5506 28.1793 18.0715C28.1861 18.1782 28.1713 18.285 28.136 18.3859C28.1007 18.4868 28.0456 18.5796 27.9738 18.6589C27.902 18.7381 27.8151 18.8023 27.7181 18.8473C27.6212 18.8924 27.5161 18.9175 27.4093 18.9213C27.3115 18.9231 27.2142 18.9054 27.1233 18.8693C27.0323 18.8333 26.9494 18.7797 26.8793 18.7113C26.7067 18.539 26.6096 18.3053 26.6093 18.0614C26.6097 16.8985 26.284 15.7586 25.6693 14.7714C25.1671 13.933 24.4798 13.2202 23.66 12.6882C22.8402 12.1561 21.9096 11.8186 20.9393 11.7013ZM20.0793 14.7615H20.3893C21.0521 14.7961 21.69 15.0252 22.2235 15.42C22.757 15.8147 23.1624 16.3578 23.3893 16.9815C23.517 17.3205 23.5847 17.6793 23.5893 18.0415C23.5847 18.2915 23.6739 18.534 23.8393 18.7215C23.9116 18.7979 23.9983 18.8592 24.0944 18.9021C24.1905 18.945 24.2941 18.9687 24.3993 18.9715C24.5105 18.9685 24.6198 18.9412 24.7193 18.8914C24.8888 18.8165 25.0288 18.6877 25.1174 18.5249C25.2061 18.3621 25.2384 18.1745 25.2093 17.9915V17.8614V17.4615C25.056 16.4327 24.5899 15.4759 23.8744 14.721C23.1588 13.9661 22.2284 13.4496 21.2093 13.2415C20.8809 13.1698 20.5454 13.1362 20.2093 13.1414C19.9941 13.1358 19.7852 13.2141 19.6266 13.3596C19.4681 13.5052 19.3722 13.7066 19.3593 13.9214C19.3528 14.126 19.4231 14.3258 19.5563 14.4812C19.6895 14.6367 19.8761 14.7366 20.0793 14.7615ZM19.3899 17.2876C19.3511 17.1834 19.3339 17.0724 19.3393 16.9614C19.3547 16.7482 19.4537 16.5496 19.6148 16.4091C19.7759 16.2687 19.986 16.1976 20.1993 16.2114C20.6852 16.2421 21.1432 16.4489 21.4875 16.7932C21.8318 17.1374 22.0386 17.5954 22.0693 18.0813C22.0803 18.1911 22.0693 18.3021 22.0368 18.4077C22.0044 18.5132 21.9513 18.6113 21.8805 18.696C21.8097 18.7808 21.7227 18.8506 21.6246 18.9013C21.5266 18.952 21.4194 18.9827 21.3093 18.9914C21.0953 18.9862 20.8918 18.8976 20.7424 18.7443C20.5929 18.5911 20.5092 18.3854 20.5093 18.1713C20.5045 18.0801 20.4661 17.9938 20.4014 17.9292C20.3368 17.8645 20.2506 17.8263 20.1593 17.8215C20.0482 17.8216 19.9382 17.799 19.836 17.7553C19.7338 17.7116 19.6416 17.6478 19.5649 17.5673C19.4882 17.4869 19.4286 17.3917 19.3899 17.2876Z" fill="url(#paint0_radial_96_9654)"/>
<defs>
<radialGradient id="paint0_radial_96_9654" cx="0" cy="0" r="1" gradientUnits="userSpaceOnUse" gradientTransform="translate(25.4193 4.12075) rotate(110.803) scale(33.8653 26.5501)">
<stop offset="3.1201e-09" stop-color="#5DCCEB"/>
<stop offset="0.426" stop-color="#6389EB"/>
<stop offset="0.842" stop-color="#8B6BEB"/>
</radialGradient>
</defs>
</svg>
