<svg width="37" height="37" viewBox="0 0 37 37" fill="none" xmlns="http://www.w3.org/2000/svg">
<path d="M18.5 37C28.7173 37 37 28.7173 37 18.5C37 8.28273 28.7173 0 18.5 0C8.28273 0 0 8.28273 0 18.5C0 28.7173 8.28273 37 18.5 37Z" fill="white"/>
<path d="M9 29.0066C9.22 28.2266 9.42 27.4865 9.62 26.7465C9.87 25.8465 10.12 24.9366 10.36 24.0366C10.395 23.9362 10.395 23.8269 10.36 23.7265C9.36128 21.931 8.94782 19.8684 9.17728 17.8266C9.40673 15.7848 10.2676 13.8657 11.64 12.3366C13.2813 10.428 15.6105 9.24537 18.12 9.04659C19.4678 8.91551 20.8281 9.06171 22.1172 9.47628C23.4064 9.89085 24.597 10.5649 25.6157 11.457C26.6344 12.3491 27.4597 13.4406 28.0407 14.6638C28.6218 15.8869 28.9462 17.216 28.994 18.5693C29.0419 19.9226 28.8122 21.2713 28.3191 22.5324C27.8259 23.7936 27.0798 24.9404 26.1266 25.9023C25.1735 26.8642 24.0335 27.6208 22.7769 28.1255C21.5203 28.6301 20.1737 28.8722 18.82 28.8366C17.2883 28.8094 15.7845 28.4221 14.43 27.7065C14.3366 27.6712 14.2334 27.6712 14.14 27.7065L9.26999 28.9765L9 29.0066ZM11.38 26.6464H11.51C12.41 26.4164 13.31 26.1865 14.21 25.9365C14.3 25.9103 14.3944 25.9032 14.4873 25.9152C14.5802 25.9273 14.6697 25.9583 14.75 26.0066C15.8647 26.6996 17.1328 27.1078 18.4425 27.195C19.7522 27.2822 21.0632 27.0457 22.26 26.5066C23.3306 26.0342 24.2884 25.3391 25.0695 24.4677C25.8506 23.5964 26.4371 22.5688 26.7901 21.4531C27.143 20.3374 27.2543 19.1591 27.1164 17.997C26.9786 16.835 26.5948 15.7158 25.9906 14.7136C25.3864 13.7114 24.5757 12.8492 23.6125 12.1848C22.6492 11.5203 21.5554 11.0686 20.404 10.8598C19.2525 10.651 18.0698 10.6899 16.9346 10.9738C15.7994 11.2578 14.7376 11.7803 13.82 12.5066C12.2315 13.7881 11.1759 15.614 10.8581 17.6301C10.5403 19.6461 10.9829 21.7084 12.1 23.4165C12.1392 23.4745 12.1649 23.5406 12.1752 23.6098C12.1856 23.679 12.1804 23.7497 12.16 23.8166C11.9 24.7566 11.65 25.6864 11.38 26.6464ZM14.66 14.8266C14.3382 15.1861 14.1155 15.623 14.0138 16.0947C13.9121 16.5663 13.9349 17.0564 14.08 17.5166C14.328 18.3069 14.7289 19.0408 15.26 19.6765C16.5513 21.5352 18.4389 22.8972 20.61 23.5366C21.0336 23.677 21.4833 23.7211 21.9261 23.6657C22.369 23.6104 22.7939 23.4569 23.17 23.2165C23.4635 23.0261 23.6983 22.7579 23.8484 22.4419C23.9985 22.1258 24.0579 21.7743 24.02 21.4265C24.0167 21.3772 24.0012 21.3297 23.9751 21.2878C23.9489 21.2459 23.9128 21.2111 23.87 21.1865C23.17 20.8365 22.46 20.4965 21.76 20.1865C21.671 20.1406 21.5676 20.1319 21.4721 20.1618C21.3766 20.1918 21.2968 20.2582 21.25 20.3466C21.02 20.6666 20.76 20.9666 20.51 21.2766C20.4554 21.3538 20.3745 21.4086 20.2826 21.4306C20.1906 21.4527 20.0937 21.4405 20.01 21.3964C18.5745 20.8287 17.3729 19.7927 16.6 18.4565C16.5422 18.388 16.5105 18.3013 16.5105 18.2116C16.5105 18.122 16.5422 18.0351 16.6 17.9665C16.81 17.7065 17 17.4365 17.2 17.1665C17.2594 17.0908 17.2957 16.9998 17.3046 16.904C17.3134 16.8082 17.2945 16.712 17.25 16.6267C17 16.0567 16.76 15.4865 16.54 14.9165C16.39 14.5265 16.19 14.2567 15.79 14.3567C15.5765 14.3219 15.3576 14.3473 15.158 14.4304C14.9583 14.5134 14.7858 14.6507 14.66 14.8266Z" fill="url(#paint0_linear_96_9655)"/>
<defs>
<linearGradient id="paint0_linear_96_9655" x1="11.94" y1="23.5166" x2="28.62" y2="12.6266" gradientUnits="userSpaceOnUse">
<stop stop-color="#8B6BEB"/>
<stop offset="0.67" stop-color="#6389EB"/>
<stop offset="1" stop-color="#5DCCEB"/>
</linearGradient>
</defs>
</svg>
