<svg xmlns="http://www.w3.org/2000/svg" viewBox="0 0 1259.66 314.81"><defs><style>.cls-1{fill:#fff;}</style></defs><g id="Capa_2" data-name="Capa 2"><g id="Layer_1" data-name="Layer 1"><path class="cls-1" d="M286,112.19a67.13,67.13,0,0,0-30.37-55.8v0l-.3-.23L182.86,11.9C170.81,4.54,157,.06,143.05,0s-27.77,4.54-39.82,11.9L30.75,56.14l-.31.23v0A67.1,67.1,0,0,0,.07,112.19l-.07.13v87C0,224.63,10.91,246.74,28.39,257l.22.16c.6.43,1.2.86,1.82,1.27l72.8,44.48c12,7.35,25.94,11.82,39.82,11.9,13.87-.08,27.78-4.55,39.81-11.9l72.8-44.48c.62-.41,1.22-.84,1.82-1.27l.23-.16c17.47-10.26,28.38-32.37,28.38-57.64v-87ZM128.44,273.06c0,4.64-3.1,6.3-8.13,3.63L84.52,254.83h-.25L54.93,236.94c-13.64-8.16-22.11-22.55-22.11-37.56V128.72c0-5.57,4-8.37,10-5C45,124.87,66.39,137.14,83,147.9c38.21,24.2,45.47,57.68,45.47,77.89ZM92.91,120c-11.07-7.25-30.79-20.24-41.13-26.44-6.37-3.81-6-10-1-13.24,8-5.1,69.85-42.39,69.85-42.39a48.29,48.29,0,0,1,23.42-7.28A48.29,48.29,0,0,1,167.49,38s61.86,37.29,69.84,42.39c5,3.21,5.62,10.48-1,14.45-10.54,6.33-14,8.64-48.18,29.23C151.71,147.13,120.86,137.77,92.91,120Zm162.41,79.35c0,15-8.47,29.4-22.11,37.56l-29.34,17.89h-.25l-35.79,21.86c-5,2.67-8.14,1-8.14-3.63V225.31c0-49.42-16.76-57.24-16.64-57.63s13.82,7.67,44.92-8.87c19.8-11.92,55.22-32.89,57.31-34.06,6-3.35,10-.55,10,5Z"/><circle class="cls-1" cx="1070.11" cy="214.53" r="18.8"/><path class="cls-1" d="M959,71.29a80.65,80.65,0,1,0,81,81C1039.73,107.61,1003.43,71.29,959,71.29Zm.08,122.8A42.17,42.17,0,1,1,1001.36,152v.1a42.25,42.25,0,0,1-42.2,42Z"/><path class="cls-1" d="M863.14,151.9a81.4,81.4,0,0,1-81.27,81.28,84.29,84.29,0,0,1-45.3-13.5v75.14a19.44,19.44,0,0,1-38.87,1.1c0-.37,0-.73,0-1.1V90.54a19.41,19.41,0,0,1,19.54-19.28h.06a19.8,19.8,0,0,1,18.63,13.43A80.21,80.21,0,0,1,781.87,70.6a81.4,81.4,0,0,1,81.27,81.29m-38.86,0a42.41,42.41,0,1,0-42.44,42.37h0a42.57,42.57,0,0,0,42.41-42.4"/><path class="cls-1" d="M509.77,151.9a81.39,81.39,0,0,1,81.3-81.3A80.24,80.24,0,0,1,637,84.69,19.79,19.79,0,0,1,655.64,71.2a19.4,19.4,0,0,1,19.6,19.22V213.63a19.43,19.43,0,0,1-38.13,5.4l-.74.59a84.19,84.19,0,0,1-45.3,13.49,81.39,81.39,0,0,1-81.3-81.21m38.87,0A42.41,42.41,0,1,0,591,109.5h0a42.56,42.56,0,0,0-42.4,42.4"/><path class="cls-1" d="M1156.89,231.22a52.67,52.67,0,0,1-36.74-14.78,53.81,53.81,0,0,1-16.24-37.16,51.55,51.55,0,0,1,15-37.57,52.89,52.89,0,0,1,36.94-16.32,52.1,52.1,0,0,1,37.57,15,12.52,12.52,0,0,1,.45,17.7l0,0a12.66,12.66,0,0,1-17.92.45l0,0a28.15,28.15,0,0,0-19.63-7.83,27.41,27.41,0,0,0-19.43,8.45,28,28,0,0,0-7.6,19.63,26.58,26.58,0,0,0,8.45,19.22,26.3,26.3,0,0,0,19.43,7.83,27.57,27.57,0,0,0,18.58-7.39,12.43,12.43,0,0,1,17.57.45l.16.18a12.69,12.69,0,0,1-.63,17.94h0a52.53,52.53,0,0,1-35,14.09Z"/><path class="cls-1" d="M1259.66,219a12.81,12.81,0,0,1-12.73,12.88h-.16a29.89,29.89,0,0,1-23-11.41c-6.26-8.23-5.91-17.52-5.91-27.44V84.28a12.77,12.77,0,0,1,25.54,0V199c0,.62-.2,1.27-.2,1.89s.2,1.27.2,1.9a3.53,3.53,0,0,0,3.38,3.6,12.74,12.74,0,0,1,12.89,12.6V219"/><path class="cls-1" d="M492.85,152.84v-62a19.29,19.29,0,1,0-38.57,0V149.6h0V152a42.75,42.75,0,0,1-1.21,9.88,3.46,3.46,0,0,1-.17.76h0a42.26,42.26,0,0,1-81.68,0h0l-.18-.76a41.69,41.69,0,0,1-1.21-9.88v-2.4h0V90.86a19.3,19.3,0,1,0-38.59-1.1c0,.36,0,.73,0,1.1v61.39a81.24,81.24,0,0,0,80.62,80.32h.28a80.08,80.08,0,0,0,42.09-11.89v10h0v2.41A42.74,42.74,0,0,1,453,243a3.46,3.46,0,0,1-.17.76h0A42.19,42.19,0,0,1,382,262.65l-2.5-2.71h0a19.34,19.34,0,0,0-29.24,25.31,21,21,0,0,0,1.54,1.59,80.47,80.47,0,0,0,60,26.84h.29A80.71,80.71,0,0,0,492,243.79a82.75,82.75,0,0,0,.77-10.43V152.84Z"/></g></g></svg>