<svg width="21" height="15" viewBox="0 0 21 15" fill="none" xmlns="http://www.w3.org/2000/svg">
<path d="M20.6555 6.05005V8.45996V8.66992C20.6555 9.24992 20.5855 9.8299 20.5255 10.3999C20.4622 11.2541 20.2383 12.0889 19.8656 12.8601C19.711 13.203 19.4687 13.4991 19.1632 13.7185C18.8577 13.938 18.4999 14.073 18.1256 14.1101C17.6256 14.1601 17.1256 14.21 16.6156 14.21C13.2023 14.21 9.79884 14.2267 6.40551 14.26C5.25551 14.26 4.11557 14.1899 2.96557 14.1399C2.53579 14.1334 2.11739 14.0012 1.76195 13.7595C1.40652 13.5178 1.12963 13.1773 0.965567 12.78C0.583839 11.9415 0.36006 11.0398 0.305533 10.1201C0.102583 8.12527 0.102583 6.11497 0.305533 4.12012C0.378669 3.274 0.602205 2.44754 0.965567 1.67993C1.1167 1.33458 1.35802 1.03635 1.66418 0.816406C1.97033 0.596465 2.33003 0.462932 2.70556 0.429932C3.37556 0.369932 4.04556 0.310059 4.70556 0.310059C7.98556 0.310059 11.2555 0.310059 14.5355 0.310059C15.6455 0.310059 16.7556 0.369932 17.8756 0.429932C18.2115 0.43228 18.5418 0.516506 18.838 0.675049C19.1342 0.833592 19.3873 1.06184 19.5756 1.34009C19.8527 1.74932 20.0589 2.20217 20.1855 2.67993C20.3841 3.44617 20.508 4.22991 20.5555 5.02002C20.6055 5.33002 20.6355 5.69005 20.6555 6.05005ZM14.2556 7.25L7.86559 3.41992V11.0901L14.2556 7.25Z" fill="white"/>
</svg>
